<?xml version="1.0" encoding="UTF-8"?>
<svg id="Calque_1" data-name="Calque 1" xmlns="http://www.w3.org/2000/svg" viewBox="0 0 580.26 233.93">
  <defs>
    <style>
      .cls-1 {
        fill: #fff;
      }
    </style>
  </defs>
  <path class="cls-1" d="M46.07,155.46v-7.44l2.88-.85c-1.74-3.14,3.11-11.03.84-13.16-1.11-1.05-5.68-.67-3.53-3.52,2.31-3.07,3.77-1.27,4.2-6.75.86-11.06-1.11-19.98,3.41-30.75,1.4-3.33,4.46-7.63,5.36-10.85.41-1.46.26-4.54.51-4.97.49-.84,7.09-3.17,8.7-5.1,1.41-1.69.8-3.06,1.53-4.6,1.07-2.25,12.75-6.79,15.67-8.43,5.5-3.09,10.26-7.82,15.68-11.05,3.6-2.14,7.59-3.75,11.18-5.94,11.89,1.9,21.31,10.41,32.58,14.03.41,2.64-2.37,2.84-3.57,4.93-2.12,3.71-2.78,9.1-5.11,12.86.33,2.38,3.32-.02,3.44.14.17,1.5-.22,3.5-1.96,3.94l-1.77-2.63c-.55-.13-1.2.71-1.52,1.1-1.76,2.12-8.66,15.29-8.35,17.5.08.53.26.81.69,1.11l3.71-2.19c.58,5.5-5.62,4.66-8.07,7.04-1.31,1.27-4.93,9.12-5.53,11.12-.57,1.89-1.29,3.96-.65,5.94,2.02,1.77,2.44-2.64,3.86-2.57.45.02,2.5.87,2.73,1.24,1.44,2.33-3.51,5.89-4.84,7.45-1.02.18-.58-.46-.64-1.1-.14-1.42.1-3.07-1.1-4.15-5.37,2.96-7.03,13.18.87,14,11.46,1.19,22.28-11.89,28.36-20.26,4.45-6.12,20.06-30.42,20.06-36.88v-6.79c7.74,1.58,14.89,6.28,21.91,9.85l-7.85,3.56,1.28,11.1c-3.6.57-3.26-.36-5.25-2.62-.3,2.38.41,5.27,3.06,5.93,3.83.97,11.81-4.08,15.25-6.02.85-1.69-1.04-2.52-1.23-3.66-.4-2.28,1.82-4.44,3.71-5.44,15.74,4.97,32.23,6.64,48.64,7.88l22.78.44c21.54,17.56,48.24,38.26,42.18,69.69-.1.51-.12,2.01-.96,1.66-3.62-1.51-1.53-12.42-7.94-12.24-1.94.35-.59,2.41-.11,3.64,1.14,2.91,3.55,5.71,4.54,8.6,1.63,4.8,3.73,18.13,2.75,22.88-1.15,5.57-6.13,9.87-9.32,14.33-.95.04-5.31-16.31-10.73-14.44,1.36,10.82,14.71,28.98-.14,35.99-10.84,5.11-17.45.75-24.83-7.09-.67,4.75,4.62,7.19,5.25,11.38-5.24.25-8.79,3.11-14.25,3.5-29.38,2.1-28.39-30.83-52.27-37.97-10.53-3.15-21.45,2.84-31.74-.25-4.8-1.44-6.38-5.63-9.78-8.62-4.73-4.17-21.47-11.33-27.64-11.35-3.91-.01-8.92,2.19-13.1,2.18-17.95-.04-35.77-8.41-53.93-6.2-1.33.16-1.32.5-1.95,1.55-1.99,3.3.44,4.02,3.34,4.56,6.23,1.16,14.07,1.02,20.55,1.8,12.32,1.48,24.31,4.91,36.81,4.37,2.07-.09,5.02-.92,7.02-.91,7.52.05,20.36,5.9,26.08,10.76,2.43,2.06,4.36,4.7,7.05,6.53,13.12,8.94,28.84-1.95,42.48,5.29,15.35,8.14,18.74,28.92,35.58,34.07,9.71,2.97,19.51.22,28.82-2.76l-.87-4.37c2.78,0,5.18,2.52,7.77,2.96,7.34,1.24,14.5-3.64,20.14-7.72,2.19,1.33,3.39,3.38,5.82,4.56,9.81,4.74,35.69-.58,41.22-10.95.88-1.65.78-3.45,1.39-4.74.52-1.1,8.1-4.13,9.76-4.7,10.99-3.79,27.39-4.18,39.03-3.51,1.1.06,4.9.33,5.6.54,1.08.32.96,1.86,2.27,2.11,1.33.25,5.95.14,7.41-.05,2.09-.27,2.63-.95,2.9-3.02,1.33.23,2.19.9,3.65.85,4.32-.15,10.8-3.05,15.53-3.79,6.63-1.04,14.51.02,19.8-4.77l-1.73-2.79c1.61.14,7.75-2.6,8.56-1.34.38,1.11-.17,2.5,1.3,2.67,2.61.31,7.44-3.11,10.51-3.12,5.73-.02,12.79,3.24,18.52,3.85,4.7.51,2.93-.3,5.38-2.27,2.95-2.37,9.3-1.12,12.87-1.59,6.71-.88,11.52-10.2,19.43-11.23,5.59-.73,9.9,2.88,15.22,2.98,6.72.13,22.41-3.77,26.28-9.68,1.96-3,.76-8.64,1.65-12.37.43-1.82,3.25-3.43,3.75-6.33.28-1.67-.7-13.03,2.07-12.37.79.19,1.07,3.54,3.29,2.63v-10.07c-1.43-.38-1.77,3.42-2.45,3.54-4.36-.79-5.79-6.05-1.65-8.3,1.8-.98,3.66-.25,4.11-3.12-1.25-.38-4.12-.9-4.39-2.41-.4-6.1-.66-12.27-1.36-18.34-1.15-9.98-4.21-20.91-4.76-30.71-.21-3.71.89-7.23-.23-10.72-.38-1.2-2.19-3.21-1.34-4.4.93-.6,2.32-.59,2.44-1.96-.72-3.88-.36-7.86-.93-11.76-.38-2.59-2.87-11.54-4.46-13.28-1.32-1.43-3.81-1.38-2.89-4.9l3.45-.7c-1.48-3.63-3.67-7.04-7-9.2l2.22-.41c1.62-4-1.34-7.25-4.86-8.78-2.22-.96-7.98-1.85-9.33-2.82-.68-.49-.55-1.91-1.46-2.18-1.67-.49-10.44,5.14-12.85,5.88-4.13,1.26-11.28-.92-12.31,4.33,2.86,1.08,3.43,1.84,3.1,5.08-1.67-1.4-3.88-5.06-6.35-5.06-1.4,0-6.3,3.96-7.97,4.98-6.26,3.81-13.01,7.02-19.04,11.19-4.65,3.22-8.06,7.97-13.47,9.52l.38,5.2-6.13-1.75v3.94c-6.35-3.88-7.8,1.94-11.69,4.75-2.29,1.65-14.39,7.92-16.88,8.53-6.74,1.65-15.4-6.17-18.33,4.24-2.65-2.92-5.46-1-8.06-1.32-1.81-.22-3.22-2.13-5.63-1.67-1.3.25-6.09,2.97-7.64,3.79-1.23.65-7.84,4.2-7.91,5.11l1.63,3.73c-3.19-.14-4.31-3.05-6.8-4.37h-14.44c-3.03,2.65-4.34,4.36-8.78,4.8-5.15.51-17.47.26-21.27,4.14-.77.79-1.2,3.4-2.63,2.16-.66-.57-1.56-2.16-2.59-3.01-11.26-9.32-38.22-6.64-49.09,2.63-1.1.94-3.24,4.25-3.48,4.39-.43.24-2.03-.74-3.94.45-4.02,2.51-1.03,7.26-1.34,7.64-4.16-2.67-7.57-6.5-11.97-8.83-6.86-3.64-11.97-.39-18.92.07-12.98.86-31.37-3.66-43.93-7.32-11.95-3.48-36.27-10.68-45.99-17.1s-16.82-10.81-27.87-15.94c-18.37-8.52-37.52-15.52-55.67-24.51-2.82-1.4-7.74-3.48-10.08-5.26-1.26-.96-1.5-2.2-3.04-3.09C55.28,3.91,38.81,3.9,28.76,0c-1.07,0-5.48,1.75-6.33,2.43-1.52,1.22-1.19,3.18-2.86,4.59s-6.96,2.31-7.25,4.62l.45,3.7c4.44-.87,6.86-.67,7.46,4.38,5.87-1.02,13.13-4.11,14.46-10.52l23.22,5.7c-.62,1.31-2.37,1.2-3.49,1.98-2.02,1.42-2.88,8.03-3.39,10.63-.98,5.02-1.5,10.13-2.32,15.18l.9.5,3.04-.52,1.31,2.43c-7.01-1.51-11.81,7.01-14.69,12.26-6.41,11.66-8.28,23.76-18.61,33.08-8.39,7.56-12.75,9.93-17.31,21.24-5.41,13.43-3.48,26.31.22,39.84,4.5-2.59,7.01-2.19,10.02,2.05l-.15,1.03c-2.76,2.18-5.97-.34-9-.01-.12.86.22,1.48.68,2.17,2.71,4.05,18.01,5.24,22.92,6.44,2.83.69,5.41,2.13,8.29,2.66,7.67,1.42,16.41.95,24.21,1.87.19-2.47.21-4.41-2.6-5.07-14.1-.8-27.81-4.18-41.67-6.53-1.43-.77,2.43-1.87,2.84-1.99,3.26-.97,6.69-1.02,9.96-1.87,2.33-.6,4.07-1.62,6.22-2.54,2.4,4,5.68,7.45,10.78,5.73Z"/>
  <path class="cls-1" d="M15.7,20.29c-.81-.7-1.92-1-2.92-.57-.29,2.8,2,3.39,4.37,3.05.28-.24-1.2-2.27-1.45-2.48Z"/>
  <path class="cls-1" d="M574.99,82.33l-.65-4.81c-2.3,1.76-1.36,3.36.65,4.81Z"/>
  <path d="M46.07,155.46c-5.1,1.72-8.38-1.73-10.78-5.73-2.15.92-3.89,1.93-6.22,2.54-3.27.85-6.7.9-9.96,1.87-.41.12-4.27,1.22-2.84,1.99,13.86,2.35,27.57,5.73,41.67,6.53,2.81.66,2.79,2.59,2.6,5.07-7.8-.92-16.54-.45-24.21-1.87-2.88-.53-5.46-1.97-8.29-2.66-4.9-1.2-20.21-2.39-22.92-6.44-.46-.68-.8-1.31-.68-2.17,3.04-.33,6.25,2.19,9,.01l.15-1.03c-3.01-4.24-5.52-4.64-10.02-2.05-3.69-13.54-5.63-26.41-.22-39.84,4.56-11.31,8.92-13.68,17.31-21.24,10.33-9.32,12.2-21.41,18.61-33.08,2.88-5.25,7.68-13.77,14.69-12.26l-1.31-2.43-3.04.52-.9-.5c.82-5.05,1.34-10.16,2.32-15.18.51-2.6,1.36-9.21,3.39-10.63,1.11-.78,2.87-.68,3.49-1.98l-23.22-5.7c-1.34,6.4-8.59,9.5-14.46,10.52-.6-5.05-3.01-5.25-7.46-4.38l-.45-3.7c.29-2.31,5.51-3.16,7.25-4.62s1.34-3.37,2.86-4.59C23.28,1.75,27.69,0,28.76,0c10.05,3.9,26.52,3.91,35.59,9.11,1.54.89,1.78,2.13,3.04,3.09,2.34,1.78,7.26,3.86,10.08,5.26,18.15,8.99,37.29,15.99,55.67,24.51,11.06,5.12,17.85,9.32,27.87,15.94s34.04,13.62,45.99,17.1c12.56,3.66,30.96,8.19,43.93,7.32,6.95-.46,12.06-3.71,18.92-.07,4.4,2.34,7.81,6.16,11.97,8.83.31-.38-2.68-5.13,1.34-7.64,1.92-1.2,3.52-.22,3.94-.45.24-.14,2.38-3.45,3.48-4.39,10.87-9.27,37.83-11.95,49.09-2.63,1.03.85,1.94,2.44,2.59,3.01,1.43,1.25,1.86-1.37,2.63-2.16,3.81-3.88,16.13-3.63,21.27-4.14,4.44-.44,5.75-2.15,8.78-4.8h14.44c2.49,1.31,3.61,4.23,6.8,4.37l-1.63-3.73c.07-.91,6.68-4.46,7.91-5.11,1.54-.82,6.34-3.53,7.64-3.79,2.41-.47,3.82,1.45,5.63,1.67,2.6.32,5.41-1.6,8.06,1.32,2.93-10.41,11.59-2.59,18.33-4.24,2.49-.61,14.59-6.88,16.88-8.53,3.89-2.8,5.34-8.63,11.68-4.75v-3.94s6.14,1.75,6.14,1.75l-.38-5.2c5.41-1.55,8.82-6.3,13.47-9.52,6.03-4.18,12.78-7.39,19.04-11.19,1.67-1.02,6.57-4.98,7.97-4.98,2.47,0,4.68,3.66,6.35,5.06.34-3.24-.24-4-3.1-5.08,1.04-5.25,8.18-3.06,12.31-4.33,2.41-.74,11.19-6.36,12.85-5.88.91.27.78,1.69,1.46,2.18,1.35.97,7.12,1.86,9.33,2.82,3.52,1.52,6.48,4.78,4.86,8.78l-2.22.41c3.34,2.17,5.52,5.57,7,9.2l-3.45.7c-.93,3.53,1.57,3.47,2.89,4.9,1.59,1.73,4.08,10.68,4.46,13.28.58,3.9.21,7.88.93,11.76-.12,1.37-1.51,1.36-2.44,1.96-.85,1.19.95,3.2,1.34,4.4,1.12,3.49.02,7.01.23,10.72.56,9.8,3.61,20.73,4.76,30.71.7,6.07.96,12.24,1.36,18.34.27,1.51,3.14,2.03,4.39,2.41-.45,2.86-2.31,2.14-4.11,3.12-4.14,2.25-2.71,7.5,1.65,8.3.68-.12,1.02-3.92,2.45-3.54v10.07c-2.23.92-2.5-2.44-3.29-2.63-2.77-.65-1.79,10.71-2.07,12.37-.49,2.89-3.32,4.5-3.75,6.33-.88,3.72.32,9.36-1.65,12.37-3.86,5.91-19.56,9.81-26.28,9.68-5.32-.1-9.63-3.71-15.22-2.98-7.91,1.04-12.72,10.35-19.43,11.23-3.57.47-9.92-.79-12.87,1.59-2.44,1.96-.67,2.77-5.38,2.27-5.74-.62-12.79-3.87-18.52-3.85-3.07.01-7.89,3.43-10.51,3.12-1.48-.17-.93-1.56-1.3-2.67-.82-1.26-6.95,1.48-8.56,1.34l1.73,2.79c-5.28,4.79-13.17,3.73-19.8,4.77-4.73.74-11.21,3.64-15.53,3.79-1.46.05-2.32-.62-3.65-.85-.26,2.08-.8,2.75-2.9,3.02-1.46.19-6.08.3-7.41.05-1.31-.25-1.19-1.79-2.27-2.11-.7-.21-4.5-.47-5.6-.54-11.63-.66-28.04-.28-39.03,3.51-1.66.57-9.24,3.6-9.76,4.7-.61,1.29-.51,3.09-1.39,4.74-5.54,10.37-31.41,15.69-41.22,10.95-2.43-1.17-3.63-3.23-5.82-4.56-5.64,4.08-12.79,8.96-20.14,7.72-2.59-.44-4.99-2.95-7.77-2.96l.87,4.37c-9.31,2.98-19.11,5.73-28.82,2.76-16.84-5.15-20.24-25.93-35.58-34.07-13.63-7.23-29.36,3.66-42.48-5.29-2.69-1.83-4.61-4.47-7.05-6.53-5.72-4.86-18.56-10.71-26.08-10.76-2-.01-4.94.82-7.02.91-12.5.53-24.48-2.89-36.81-4.37-6.47-.78-14.31-.65-20.55-1.8-2.9-.54-5.33-1.26-3.34-4.56.63-1.05.62-1.39,1.95-1.55,18.16-2.21,35.98,6.16,53.93,6.2,4.18,0,9.18-2.19,13.1-2.18,6.17.02,22.91,7.18,27.64,11.35,3.39,2.99,4.98,7.18,9.78,8.62,10.29,3.09,21.22-2.9,31.74.25,23.87,7.14,22.89,40.06,52.27,37.97,5.45-.39,9.01-3.24,14.25-3.5-.64-4.19-5.92-6.64-5.25-11.38,7.39,7.83,14,12.2,24.83,7.09,14.85-7,1.5-25.17.14-35.99,5.42-1.87,9.79,14.48,10.73,14.44,3.19-4.45,8.17-8.76,9.32-14.33.98-4.75-1.12-18.08-2.75-22.88-.98-2.9-3.4-5.7-4.54-8.6-.48-1.23-1.83-3.28.11-3.64,6.41-.19,4.31,10.72,7.94,12.24.84.35.86-1.15.96-1.66,6.07-31.44-20.63-52.13-42.18-69.69l-22.78-.44c-16.41-1.24-32.9-2.91-48.64-7.88-1.89.99-4.11,3.15-3.71,5.44.2,1.13,2.08,1.97,1.23,3.66-3.44,1.94-11.42,6.98-15.25,6.02-2.65-.67-3.36-3.55-3.06-5.93,2,2.26,1.66,3.19,5.25,2.62l-1.28-11.1,7.85-3.56c-7.02-3.58-14.17-8.27-21.91-9.85v6.79c0,6.46-15.61,30.76-20.06,36.88-6.08,8.37-16.91,21.46-28.36,20.26-7.9-.82-6.24-11.04-.87-14,1.21,1.08.96,2.73,1.1,4.15.06.64-.38,1.28.64,1.1,1.32-1.57,6.27-5.12,4.84-7.45-.23-.37-2.29-1.21-2.73-1.24-1.43-.07-1.84,4.34-3.86,2.57-.64-1.98.08-4.05.65-5.94.6-2,4.22-9.84,5.53-11.12,2.45-2.38,8.65-1.54,8.07-7.04l-3.71,2.19c-.42-.3-.61-.58-.69-1.11-.32-2.21,6.59-15.38,8.35-17.5.32-.39.98-1.22,1.52-1.1l1.77,2.63c1.74-.44,2.13-2.44,1.96-3.94-.12-.16-3.11,2.23-3.44-.14,2.33-3.76,2.99-9.15,5.11-12.86,1.19-2.08,3.98-2.28,3.57-4.93-11.27-3.62-20.7-12.12-32.58-14.03-3.59,2.19-7.58,3.8-11.18,5.94-5.42,3.23-10.18,7.95-15.68,11.05-2.92,1.64-14.6,6.18-15.67,8.43-.73,1.54-.12,2.91-1.53,4.6-1.61,1.93-8.21,4.26-8.7,5.1-.25.43-.1,3.51-.51,4.97-.9,3.22-3.96,7.52-5.36,10.85-4.52,10.76-2.56,19.68-3.41,30.75-.42,5.48-1.89,3.69-4.2,6.75-2.15,2.85,2.41,2.47,3.53,3.52,2.26,2.13-2.58,10.03-.84,13.16l-2.88.85v7.44ZM545.2,11.39c.79-1.49-2.47-4.42-3.3-3.08l-.21,3.08h3.51ZM537.75,13.58c.43-1.62-.81-4.04-2.45-2.67l-.62,2.67h3.07ZM101.72,36.79c.19-2.5-3.37-2.39-5.56-3.42-3.24-1.53-17.16-11.36-18.78-11.45-.94-.05-1.69.58-2.94.35-2.11-.38-10.71-6.67-12.4-4.32-1.15,1.6,3.95,5.09,5.49,3.52l-1.75,10.51-2-.41.2-3.67-2.57-1.18c-.13,2.39-.93,6.22-3.84,6.5-2.2.21-2.59-5.21-3.18-6.94-1.49.92-1.53,3.89-1.28,5.45.54,3.33,5.94,3.98,6.78,7.24.65,2.53.08,13.83,2.25,14.41,3.89.06,3.19-1.3,4.78-3.43,2.66-3.56,7.04-3.35,10.87-4.9,7.92-3.19,14.06-11.97,23.94-8.27ZM532.9,22.74c1.16-1.63-3.29-5.01-4.79-2.8-.5,1.69,3.91,4.04,4.79,2.8ZM509.7,23.65c1.89.16,3.25.16,4.36-1.53-1.5-2.57-5.11-1.4-4.36,1.53ZM493.49,32.85c-2.46-.51-4.21,2.14-3.09,4.18l3.09.2v-4.38ZM478.15,56.93c.48-2.45-1.23-3.33-3.3-3.93-4.14,1.16,2.23,5.02,3.3,3.93ZM70.17,57.37l-4.82-.44-.44,4.38c1.7-1.34,3.96-2.16,5.25-3.94ZM140.73,71.82c1.85-.7,3.1-2.49,3.84-4.26.53-1.26,2.31-7.5.75-8-1.76-.56-1.49,2-1.83,2.98-1.08,3.08-2.48,5.92-2.76,9.28ZM150.37,78.83c2.41-1.91,5.42-6.62,5.95-9.62.3-1.66-.99-1.61-2.02-.68-1.96,1.78-3.82,7.63-3.93,10.3ZM360.27,74.01c-2.6-.41-4.33.8-3.94,3.5.77.81,4.47-3.03,3.94-3.5ZM398.83,76.2l-5.2.06-.5,2.57c-5.04-1.53-9.28-2.44-14.55-1.19-1.34.32-8.08,3.11-7.78,4.44,2.87,5.36,21.98,6.18,24.48,2.18.78-1.24.22-2.75.8-4.02s3.25-1.83,2.75-4.04ZM369.47,77.95c-1.75.22-3.41,1.64-3.06,3.5,2.7.53,3.04-1.25,3.06-3.5ZM135.91,117.36l3.52-1.51c3.88-8.77,10.63-15.77,15.5-23.92,2.03-3.4,4.6-7.24,4.2-11.35-3.91,1.71-4.58,6.52-6.5,9.93-1.71,3.04-7.05,12.04-9.69,13.52-.94.53-2.04.82-3.07,1.1-.21,1.24.98,2.42.79,3.6-.23,1.4-5.76,7.62-4.74,8.63ZM56.15,81.02c-1.59.12-2.97,1.71-3.86,2.92-.56.76-3.43,5.44-1.61,5.83,1.53-.12,5.84-8.38,5.47-8.75ZM399.71,86.71c3.28.46,2.53-2.91.65-4.38-.99-.18-.6.43-.65,1.08-.08,1.09.05,2.21,0,3.29ZM136.78,82.77l-3.4.54-.54,3.83c2.25-.28,3.55-2.33,3.94-4.37ZM297.74,90.09c.33.4,1.05.46,1.57,1.27.89,1.39,1.46,4.02,2.3,5.59,2.16,4.07,6.17,8.42,9.79,2.88,3.67-5.63-3.68-16.72-10.65-14.58-1.8.55-4.66,2.88-3,4.84ZM374.73,89.77c.62-1.47-3.2-4.19-3.94-3.5.2,1.85,2.02,3.6,3.94,3.5ZM432.58,90.65c.44-2.38-1.35-4.16-3.62-2.97-3.65,1.91,1.55,3.56,3.62,2.97ZM28.1,88.46h-1.75v3.07h1.75v-3.07ZM46.95,95.91c-2.14.51-3.44,3.18-3.06,5.25,2.71-.02,3.37-2.97,3.06-5.25ZM402.57,100.73c-1.62.49-.34,5.43,1.72,4.81,1.54-.46.27-5.41-1.72-4.81ZM337.58,175.5c-1.91-6.79-5.76-13.36-7.75-20.06-1.69-5.67.02-5.17.59-9.89.54-4.47-.33-8.59.69-13.32,1.67-7.73,8.53-12.7,5.15-21.32-3.2-8.16-18.78-1.14-22.37,4.11-.55.8-3.85,7.3-3.94,7.91-.26,1.68,1.85,2.81,2.64,4.19,5.91,10.24,6.3,28.3.27,38.54-1.32,2.24-3.41,3.05-2.97,6.18.17,1.22,1.15,2.19,1.51,3.32,1.16,3.67-.56,7.22.87,10.95,1.56,4.06,4.46,1.22,7,1.29,6.22.17,11.71,4.91,18.95.54,3.02-1.82,1.64-3.32,2.72-5.06.33-.54,1.34-.53,1.81-.94.9-.78-1.53-6.69-2.28-7.15-1.53-.94-1.29,2.13-2.9.69ZM348,112.11c-4.5-.71-5.52,3.2-.91,3.46l.91-3.46ZM36.87,113.86c.29,3.66-1.65,7.67,1.53,10.5,1.34.06,1.41-9.95-1.53-10.5ZM47.39,122.18c3.02-1,2.01-6.92-1.31-7l1.31,7ZM133.28,120.43c-3.28.53-6.62,4.02-7.88,7l7.88-7ZM33.36,124.8h-1.75s.88,7.01.88,7.01c3.79-.02.26-4.7.87-7.01ZM528.83,127.49c-1.2.38-.37,2.07.07,2.88,2.97,5.57,10.48,1.67,6.38-1.56-.97-.77-5.31-1.67-6.44-1.32ZM454.55,153.21c1.3.56,4.85-.56,4.31-2.33-.91-1.47-4.48-.42-4.73.92l.42,1.41ZM467.53,150.32c-4,.51-13.1,6.01-16.32,8.66-1.4,1.15-8.63,8.87-8.36,10.1,2.65,5.05,17.01,7.28,21.06,4.34,2.62-1.9,6.56-10.77,7.44-14.02,1.12-4.13,2.56-9.89-3.82-9.08ZM447.91,160.71l1.25-2.41c-.32-.45-1.55-1.92-2.11-1.53-1.04,1.95-1.29,2.73.86,3.94ZM380.87,158.53l-4.82-.88,3.29,3.93,1.53-3.05ZM567.54,163.78l-3.05,2.41,1.97,1.52c.66-.04,1.16-3.25,1.09-3.93ZM412.84,168.17c-.87-.67-3.78,1.04-3.49,2.39.43,2.01,5.14-1.12,3.49-2.39ZM515.84,179.98c-2.45-.02-7.14-.74-4.19,2.65,1.87,2.16,3.58-.83,4.19-2.65ZM378.52,197.56l-.75,1.03.22,1.12,2.66,1.28c.97-.05,1.61-4.66-2.13-3.43ZM309.05,216.37c3.51-.16,6.09-3.34,6.77-6.59,1.11-5.27-2.37-2.59-4.64-3.28-1.8-.55-2.91-2.98-5.26-2.68-.75.09-4.25,1.58-4.3,2.21l1.71,3.09c-1.47,1.65-2.62,2.7-2.58,5.16l8.04,5.11.26-3.02ZM329.6,219.39h-3.5c.67,3.82,3.11,3.84,3.5,0Z"/>
  <path d="M15.7,20.29c.25.22,1.72,2.25,1.45,2.48-2.37.34-4.66-.25-4.37-3.05,1-.44,2.11-.13,2.92.57Z"/>
  <path d="M574.99,82.33c-2.01-1.45-2.96-3.06-.65-4.81l.65,4.81Z"/>
  <path class="cls-1" d="M337.58,175.5c1.61,1.43,1.37-1.63,2.9-.69.75.46,3.17,6.37,2.28,7.15-.47.42-1.48.4-1.81.94-1.08,1.74.3,3.23-2.72,5.06-7.24,4.37-12.73-.38-18.95-.54-2.54-.07-5.44,2.77-7-1.29-1.44-3.74.29-7.28-.87-10.95-.36-1.13-1.34-2.11-1.51-3.32-.44-3.13,1.65-3.94,2.97-6.18,6.02-10.24,5.63-28.31-.27-38.54-.79-1.38-2.9-2.51-2.64-4.19.09-.61,3.39-7.11,3.94-7.91,3.59-5.25,19.17-12.27,22.37-4.11,3.38,8.62-3.48,13.58-5.15,21.32-1.02,4.73-.15,8.85-.69,13.32-.57,4.71-2.28,4.21-.59,9.89,1.99,6.7,5.84,13.26,7.75,20.06Z"/>
  <path class="cls-1" d="M101.72,36.79c-9.87-3.71-16.02,5.07-23.94,8.27-3.83,1.55-8.21,1.34-10.87,4.9-1.59,2.13-.89,3.49-4.78,3.43-2.17-.59-1.59-11.88-2.25-14.41-.84-3.26-6.24-3.91-6.78-7.24-.25-1.56-.21-4.53,1.28-5.45.58,1.73.98,7.15,3.18,6.94,2.91-.28,3.71-4.11,3.84-6.5l2.57,1.18-.2,3.67,2,.41,1.75-10.51c-1.55,1.56-6.65-1.93-5.49-3.52,1.69-2.35,10.29,3.94,12.4,4.32,1.24.23,2-.4,2.94-.35,1.62.09,15.54,9.93,18.78,11.45,2.18,1.03,5.75.92,5.56,3.42ZM64.48,48.17v-6.35c0-.48-1.02-3.71-1.53-3.71-2.96,2.46-2.16,8.78,1.53,10.06Z"/>
  <path class="cls-1" d="M467.53,150.32c6.38-.81,4.95,4.95,3.82,9.08-.89,3.25-4.82,12.12-7.44,14.02-4.06,2.93-18.42.7-21.06-4.34-.27-1.23,6.96-8.95,8.36-10.1,3.22-2.65,12.32-8.15,16.32-8.66Z"/>
  <path class="cls-1" d="M398.83,76.2c.5,2.21-2.19,2.83-2.75,4.04-.58,1.27-.02,2.78-.8,4.02-2.5,4-21.61,3.18-24.48-2.18-.3-1.32,6.44-4.12,7.78-4.44,5.27-1.25,9.51-.34,14.55,1.19l.5-2.57,5.2-.06Z"/>
  <path class="cls-1" d="M297.74,90.09c-1.65-1.96,1.2-4.29,3-4.84,6.97-2.14,14.31,8.95,10.65,14.58-3.61,5.54-7.62,1.19-9.79-2.88-.83-1.57-1.41-4.2-2.3-5.59-.52-.81-1.23-.87-1.57-1.27Z"/>
  <path class="cls-1" d="M309.05,216.37l-.26,3.02-8.04-5.11c-.04-2.46,1.11-3.51,2.58-5.16l-1.71-3.09c.05-.62,3.56-2.11,4.3-2.21,2.35-.29,3.46,2.13,5.26,2.68,2.26.69,5.75-1.99,4.64,3.28-.68,3.25-3.26,6.43-6.77,6.59Z"/>
  <path class="cls-1" d="M135.91,117.36c-1.02-1.01,4.52-7.23,4.74-8.63.19-1.19-1-2.36-.79-3.6,1.03-.28,2.14-.57,3.07-1.1,2.65-1.49,7.98-10.48,9.69-13.52,1.91-3.4,2.59-8.22,6.5-9.93.41,4.11-2.16,7.95-4.2,11.35-4.87,8.15-11.62,15.15-15.5,23.92l-3.52,1.51Z"/>
  <path class="cls-1" d="M528.83,127.49c1.13-.35,5.47.55,6.44,1.32,4.1,3.23-3.41,7.13-6.38,1.56-.43-.81-1.27-2.5-.07-2.88Z"/>
  <path class="cls-1" d="M140.73,71.82c.28-3.35,1.68-6.19,2.76-9.28.34-.98.07-3.54,1.83-2.98,1.56.5-.22,6.74-.75,8-.74,1.77-1.99,3.56-3.84,4.26Z"/>
  <path class="cls-1" d="M150.37,78.83c.11-2.67,1.97-8.52,3.93-10.3,1.03-.93,2.32-.98,2.02.68-.54,3-3.54,7.72-5.95,9.62Z"/>
  <path class="cls-1" d="M36.87,113.86c2.94.55,2.87,10.56,1.53,10.5-3.18-2.83-1.24-6.84-1.53-10.5Z"/>
  <path class="cls-1" d="M56.15,81.02c.37.37-3.94,8.64-5.47,8.75-1.82-.39,1.04-5.07,1.61-5.83.89-1.21,2.27-2.8,3.86-2.92Z"/>
  <path class="cls-1" d="M493.49,32.85v4.38s-3.09-.2-3.09-.2c-1.12-2.04.63-4.69,3.09-4.18Z"/>
  <path class="cls-1" d="M47.39,122.18l-1.31-7c3.33.09,4.34,6.01,1.31,7Z"/>
  <path class="cls-1" d="M432.58,90.65c-2.07.6-7.27-1.05-3.62-2.97,2.27-1.19,4.06.59,3.62,2.97Z"/>
  <path class="cls-1" d="M478.15,56.93c-1.07,1.09-7.44-2.76-3.3-3.93,2.07.6,3.78,1.47,3.3,3.93Z"/>
  <path class="cls-1" d="M532.9,22.74c-.88,1.24-5.29-1.11-4.79-2.8,1.49-2.22,5.94,1.17,4.79,2.8Z"/>
  <path class="cls-1" d="M515.84,179.98c-.61,1.83-2.32,4.81-4.19,2.65-2.95-3.4,1.74-2.67,4.19-2.65Z"/>
  <path class="cls-1" d="M33.36,124.8c-.61,2.31,2.92,6.99-.87,7.01l-.88-7.01h1.75Z"/>
  <path class="cls-1" d="M70.17,57.37c-1.3,1.78-3.55,2.6-5.25,3.94l.44-4.38,4.82.44Z"/>
  <path class="cls-1" d="M454.55,153.21l-.42-1.41c.25-1.35,3.83-2.4,4.73-.92.54,1.78-3.02,2.9-4.31,2.33Z"/>
  <path class="cls-1" d="M402.57,100.73c1.99-.6,3.26,4.35,1.72,4.81-2.06.62-3.34-4.32-1.72-4.81Z"/>
  <path class="cls-1" d="M136.78,82.77c-.4,2.04-1.7,4.1-3.94,4.37l.54-3.83,3.4-.54Z"/>
  <path class="cls-1" d="M46.95,95.91c.31,2.28-.35,5.23-3.06,5.25-.38-2.07.93-4.75,3.06-5.25Z"/>
  <path class="cls-1" d="M348,112.11l-.91,3.46c-4.61-.26-3.58-4.17.91-3.46Z"/>
  <path class="cls-1" d="M133.28,120.43l-7.88,7c1.27-2.99,4.6-6.47,7.88-7Z"/>
  <path class="cls-1" d="M509.7,23.65c-.75-2.93,2.86-4.11,4.36-1.53-1.11,1.69-2.47,1.69-4.36,1.53Z"/>
  <path class="cls-1" d="M545.2,11.39h-3.51s.21-3.08.21-3.08c.83-1.34,4.09,1.59,3.3,3.08Z"/>
  <path class="cls-1" d="M378.52,197.56c3.73-1.23,3.1,3.38,2.13,3.43l-2.66-1.28-.22-1.12.75-1.03Z"/>
  <polygon class="cls-1" points="380.87 158.53 379.33 161.58 376.05 157.65 380.87 158.53"/>
  <path class="cls-1" d="M360.27,74.01c.53.46-3.17,4.3-3.94,3.5-.39-2.7,1.34-3.9,3.94-3.5Z"/>
  <path class="cls-1" d="M537.75,13.58h-3.07l.62-2.67c1.63-1.37,2.88,1.05,2.45,2.67Z"/>
  <path class="cls-1" d="M399.71,86.71c.05-1.09-.08-2.21,0-3.29.05-.65-.34-1.27.65-1.08,1.88,1.47,2.63,4.84-.65,4.38Z"/>
  <path class="cls-1" d="M412.84,168.17c1.65,1.26-3.07,4.4-3.49,2.39-.29-1.35,2.62-3.05,3.49-2.39Z"/>
  <path class="cls-1" d="M369.47,77.95c-.03,2.25-.37,4.02-3.06,3.5-.35-1.86,1.32-3.28,3.06-3.5Z"/>
  <path class="cls-1" d="M374.73,89.77c-1.92.1-3.74-1.64-3.94-3.5.74-.69,4.56,2.02,3.94,3.5Z"/>
  <path class="cls-1" d="M329.6,219.39c-.39,3.84-2.83,3.82-3.5,0h3.5Z"/>
  <path class="cls-1" d="M447.91,160.71c-2.15-1.21-1.91-1.99-.86-3.94.56-.39,1.79,1.08,2.11,1.53l-1.25,2.41Z"/>
  <path class="cls-1" d="M567.54,163.78c.08.68-.43,3.89-1.09,3.93l-1.97-1.52,3.05-2.41Z"/>
  <rect class="cls-1" x="26.35" y="88.46" width="1.75" height="3.07"/>
  <path d="M64.48,48.17c-3.7-1.28-4.49-7.61-1.53-10.06.51,0,1.53,3.23,1.53,3.71v6.35Z"/>
</svg>