<?xml version="1.0" encoding="UTF-8"?>
<svg id="Calque_1" data-name="Calque 1" xmlns="http://www.w3.org/2000/svg" viewBox="0 0 1118.7 1057.93">
  <defs>
    <style>
      .cls-1 {
        fill: #fff;
      }
    </style>
  </defs>
  <path class="cls-1" d="M985.37,784.99c-.1-100.79,56.2-242.25,85.61-335.68,3.43-10.91,4.89-22.29,15.1-29.61-4.05,15.19,3.96,34.98,3.52,47.67-.16,4.66-12.57,4.26-14.16,10.19-5.96,22.21-8.99,45.73-8.12,68.81l-14.77-14.83c11.25,64.95-10.57,137.18-15.62,204.25l15.52,11.8c-29.82.32-17.73,30.74-29.69,48.7,19.13,12.62,31.54-35.02,34.98-47.05,10.2-35.63,10.98-73.89,16.48-109.94,10.41-68.24,16.46-138.02,25.39-206.19,13.74-104.96,48.7-144.83-34.76-234.54-8.41-9.03-27.22-12.35-32.62-19.62-8.21-11.06-23.54-75.43-37.85-100.09-80.88-139.38-185.42-72.54-252.96,35.23-37.06-10.97-213.66,17.81-229.62.28-1.02-1.12-.65-18.12-7.49-29.46C475.48,37.07,424.88-9.9,364.33,3.7c-28.06,6.3-83.33,82.25-90.96,109.57-2.02,7.24,5.52,20.98,3.62,22.97-4.17,4.37-75.47,13.56-109.27,47.5-47.43,47.61-112.5,264.28-128.89,337.09-15.25,67.69,8.58,98.82,5.2,124.73-1.25,9.62-22.96,38.47-28.29,53.52-27,76.29-17.55,178.13,15.22,250.02l22.17-7.56,16.13,58.36c30.85,14.81,29.13-20.68,46.88-21.28,17.45,3.03,30.15,16.45,47.1,20.66,177.68,44.08,335.33,63.79,518.45,57.52,34.2-1.17,94.63-5.19,126.7-12.58,10.99-2.53,98.41-41.72,102.85-46.55,1.46-1.59,22.38-34.51,23.12-36.54,20.05-55.05,35.36-121.92,51.01-176.14.03,28.06,8.76,53.2,7.74,77.91-1.61,38.9-27.43,89.87-30.04,130.85,14.57-2.61,12.15-15.77,15.16-25.77,26.38-87.58,36.36-191.66,50.36-281.59l-13.31-20.64c-6.8,35.28-13.04,80.59-22.44,114.47-1.96,7.05-7.34,4.36-7.47,4.79Z"/>
  <path class="cls-1" d="M970.37,926.6l7.46-59.56c-10.37,3.24-22.16,57.28-7.46,59.56Z"/>
  <path d="M985.37,784.99c-15.65,54.22-30.95,121.09-51.01,176.14-.74,2.03-21.65,34.95-23.12,36.54-4.44,4.83-91.86,44.01-102.85,46.55-32.06,7.39-92.5,11.41-126.7,12.58-183.12,6.27-340.77-13.44-518.45-57.52-16.95-4.2-29.65-17.63-47.1-20.66-17.76.6-16.03,36.09-46.88,21.28l-16.13-58.36-22.17,7.56c-32.76-71.89-42.22-173.73-15.22-250.02,5.33-15.05,27.03-43.9,28.29-53.52,3.38-25.9-20.45-57.03-5.2-124.73,16.4-72.81,81.46-289.48,128.89-337.09,33.81-33.93,105.11-43.12,109.27-47.5,1.89-1.99-5.64-15.73-3.62-22.97,7.63-27.31,62.9-103.26,90.96-109.57,60.55-13.6,111.15,33.37,140,81.2,6.84,11.35,6.47,28.34,7.49,29.46,15.97,17.53,192.56-11.25,229.62-.28,67.53-107.77,172.08-174.61,252.96-35.23,14.31,24.66,29.64,89.03,37.85,100.09,5.4,7.27,24.21,10.59,32.62,19.62,83.46,89.71,48.5,129.58,34.76,234.54-8.93,68.17-14.98,137.96-25.39,206.19-5.5,36.05-6.28,74.31-16.48,109.94-3.44,12.03-15.85,59.67-34.98,47.05,11.95-17.97-.13-48.38,29.69-48.7l-15.52-11.8c5.06-67.07,26.88-139.3,15.62-204.25l14.77,14.83c-.87-23.08,2.16-46.6,8.12-68.81,1.59-5.93,14-5.53,14.16-10.19.44-12.7-7.57-32.48-3.52-47.67-10.21,7.32-11.67,18.7-15.1,29.61-29.42,93.44-85.71,234.9-85.61,335.68.12-.43,5.51,2.26,7.47-4.79,9.4-33.87,15.64-79.18,22.44-114.47l13.31,20.64c-14,89.93-23.97,194.01-50.36,281.59-3.01,10-.59,23.17-15.16,25.77,2.61-40.97,28.43-91.94,30.04-130.85,1.02-24.71-7.71-49.84-7.74-77.91ZM478.24,121.39c-15.15-56.23-61.62-82.87-118.28-73.41l-8.54,28.78-22.28-7.47c15.64,25.78-14.41,41.66-14.89,67.02l163.99-14.92ZM962.96,136.31c5.69-46.28-40.45-82.37-83.98-73.28-21.63,4.52-32.71,32.19-57.66,28.66,16.46,33.35,66.61,22.25,99.71,30.2,16.09,3.86,26.27,13.97,41.93,14.42ZM717,255.63l-22.02-63.78c-22.53-14.3-52.69.77-67.96.34-103.69-2.92-219.79-16.68-322.45,5.28-13.11,2.8-25.53,18.44-31.35,18.38-5.27-.06-10.37-12.43-26.31-9.79-50.72,8.41-69.78,64.1-79.91,107.43-10.92,46.74-12.85,94.26-10.24,140.23.24,4.24-24.52,50.86-27.3,75.74-11.35,101.45-27.64,226.1-24.22,326.71.42,12.45,6.08,94.9,8.86,99.02,83.35,8.67,164.73,30.7,248.62,38.51,113.06,10.53,317.28,16.55,423.18-9.27,30.98-7.55,69.76-30.32,103.33-38.35l103.61-459.27c-43-9.61-88.49,9.01-130.55,7.89-39.86-1.07-91.69-18.8-134.28-22.76-147.07-13.66-292.84-14.31-439.74-13.23-27.37.2-60.04,19.83-82.32-9.14l-3.51,14.76-29.77-11.12c10.94-14.49,25.42-20.56,42.63-24.33,87.28-19.13,235.52-30.61,324.89-28.43,127.86,3.11,255.47,38.1,382.75,27.66,26.35-2.16,42.27,6.51,74.13-7.99,57.28-26.07,106.34-156.78,29.75-187.54-30.12-12.1-132.36-28.73-168.16-32.74-13.88-1.55-68.36-5.2-77.93-3.99-38.34,4.87-20.67,63.92-63.71,59.79Z"/>
  <path d="M970.37,926.6c-14.7-2.29-2.9-56.32,7.46-59.56l-7.46,59.56Z"/>
  <path class="cls-1" d="M717,255.63c43.05,4.13,25.37-54.92,63.71-59.79,9.58-1.22,64.05,2.43,77.93,3.99,35.81,4.01,138.04,20.64,168.16,32.74,76.59,30.76,27.54,161.47-29.75,187.54-31.87,14.5-47.78,5.83-74.13,7.99-127.28,10.44-254.89-24.54-382.75-27.66-89.37-2.17-237.61,9.3-324.89,28.43-17.21,3.77-31.69,9.84-42.63,24.33l29.77,11.12,3.51-14.76c22.28,28.97,54.95,9.34,82.32,9.14,146.89-1.08,292.67-.43,439.74,13.23,42.6,3.96,94.42,21.69,134.28,22.76,42.05,1.12,87.55-17.5,130.55-7.89l-103.61,459.27c-33.57,8.03-72.34,30.8-103.33,38.35-105.91,25.82-310.12,19.8-423.18,9.27-83.89-7.81-165.27-29.84-248.62-38.51-2.78-4.12-8.44-86.57-8.86-99.02-3.42-100.61,12.87-225.25,24.22-326.71,2.78-24.88,27.54-71.5,27.3-75.74-2.61-45.97-.68-93.48,10.24-140.23,10.12-43.34,29.19-99.02,79.91-107.43,15.95-2.64,21.04,9.73,26.31,9.79,5.82.06,18.24-15.57,31.35-18.38,102.66-21.96,218.76-8.2,322.45-5.28,15.27.43,45.43-14.64,67.96-.34l22.02,63.78ZM830.81,387.79c9.14,6.04,89.52,17.78,102.55,13.95,24.2-7.11,63.73-62.68,55.75-86.05-23.08-67.59-144.58-77.78-173.25-9.65-9.89,23.49-7.14,67.16,14.96,81.75ZM418.61,576.15c14.51-14.23,22.08-68.79-3.66-72.65-24.27-3.65-31.82,48.51-40.75,61.89-21.44,32.11-91.73,28.29-127.06,25.78l-.09,37.2,44.34-.74c-5.73-30.74,25.32-31.07,34.45-6.38l25.59-7.71c9.84,10.95-63.42,268.93,3.62,274.18,38.21,2.99,10.59-59.01,33.76-76.91-17.14-.68-15.16-17.99-5.95-24.38,10.73-7.45,87.85-3.56,87.79-20.05l-7.34-18.69c-27.68,5.64-54.1,35.18-73.71,2.62,5.86-49.53,25.07-104.26,21.53-151.62l18.66-.21c15.8,31.62,99.58,16.54,123.01-11.07-31.21-12.34-41.77-4.01-59.55,18.67l-.15-29.82c-9.78,9.66-56.99,31.04-37.16.06l-37.34-.13ZM597.64,747.75c1.98-58.06,60.73-127.77,41.38-186.9-5.33-16.29-25.55-25.38-26.66-44.28-40.39,14.47-24.65,29.94-32.82,60.53-2.5,9.37-15.58,35.87-22.52,59.19-6.82,22.94-22.1,92.99-33.21,106.78-8.29,10.29-26.63,2.89-38.13,4.66l.09,29.76,29.71-14.84c-1.73,48.21-24.4,115.08,12.51,154.86,12.68,13.67,19.66,14.45,36.24,1.74,16.67-21.34,1.38-44.28,3.39-70.58,2.92-38.26,15.31-90.72,59.79-93.58-4.88-17.33-17.2-13.55-29.78-7.34ZM853.11,634.44c-14.96-10.01.3-75.76-35.53-87.91-19.71,11.92-18.58,36.75-29.82,52.12-7.56,10.33-23.04,13.47-24.69,15.99-1.33,2.04,5.25,13.75,2.75,21.31-13.92,42.07-37.03,91.08-34.02,134.09l-37.24-11.18,14.85-11.07-33.56,14.93-3.63-14.95-18.44-.15c-4.73,14.09-11.1,16.82-26.37,15.07,9.47,26.92,19.84,2.83,33.39,2.67,16.77-.19,47.21,20.89,71.06,12.14-2.21,42.96-19.99,127.74,47.37,111.47,5.13,26.97,31.96,5.21,38.72-14.15,7.64-21.88,8-58.41,10.83-82.43,24.77,5.49,64.18,6.69,33.54-22.19l-26.06,14.75,14.6-123.42,37.53-7.06-20.71-7.36,5.93-11.19c-6.16-.29-15.71,1.72-20.5-1.48Z"/>
  <path class="cls-1" d="M478.24,121.39l-163.99,14.92c.47-25.36,30.52-41.24,14.89-67.02l22.28,7.47,8.54-28.78c56.66-9.46,103.13,17.18,118.28,73.41Z"/>
  <path class="cls-1" d="M962.96,136.31c-15.66-.45-25.84-10.56-41.93-14.42-33.1-7.94-83.26,3.15-99.71-30.2,24.95,3.53,36.03-24.14,57.66-28.66,43.53-9.09,89.67,27,83.98,73.28Z"/>
  <path d="M853.11,634.44c4.79,3.2,14.34,1.19,20.5,1.48l-5.93,11.19,20.71,7.36-37.53,7.06-14.6,123.42,26.06-14.75c30.64,28.88-8.77,27.68-33.54,22.19-2.83,24.02-3.19,60.56-10.83,82.43-6.76,19.36-33.59,41.12-38.72,14.15-67.36,16.27-49.58-68.5-47.37-111.47-23.85,8.75-54.29-12.33-71.06-12.14-13.54.15-23.92,24.25-33.39-2.67,15.28,1.75,21.64-.98,26.37-15.07l18.44.15,3.63,14.95,33.56-14.93-14.85,11.07,37.24,11.18c-3.01-43,20.11-92.01,34.02-134.09,2.5-7.55-4.08-19.27-2.75-21.31,1.65-2.52,17.12-5.66,24.69-15.99,11.25-15.36,10.11-40.2,29.82-52.12,35.83,12.15,20.57,77.89,35.53,87.91Z"/>
  <path d="M418.61,576.15l37.34.13c-19.83,30.98,27.38,9.61,37.16-.06l.15,29.82c17.78-22.68,28.35-31.01,59.55-18.67-23.43,27.61-107.21,42.7-123.01,11.07l-18.66.21c3.55,47.36-15.67,102.1-21.53,151.62,19.61,32.57,46.03,3.02,73.71-2.62l7.34,18.69c.06,16.5-77.06,12.6-87.79,20.05-9.21,6.39-11.19,23.71,5.95,24.38-23.18,17.9,4.45,79.9-33.76,76.91-67.04-5.24,6.22-263.23-3.62-274.18l-25.59,7.71c-9.12-24.69-40.17-24.36-34.45,6.38l-44.34.74.09-37.2c35.32,2.51,105.62,6.34,127.06-25.78,8.93-13.38,16.47-65.53,40.75-61.89,25.74,3.87,18.17,58.42,3.66,72.65Z"/>
  <path d="M597.64,747.75c12.58-6.2,24.9-9.98,29.78,7.34-44.48,2.86-56.87,55.32-59.79,93.58-2.01,26.31,13.28,49.24-3.39,70.58-16.58,12.71-23.56,11.94-36.24-1.74-36.9-39.78-14.24-106.65-12.51-154.86l-29.71,14.84-.09-29.76c11.51-1.77,29.84,5.63,38.13-4.66,11.11-13.79,26.39-83.84,33.21-106.78,6.94-23.33,20.02-49.83,22.52-59.19,8.17-30.59-7.57-46.07,32.82-60.53,1.11,18.9,21.33,27.99,26.66,44.28,19.35,59.12-39.4,128.83-41.38,186.9Z"/>
  <path d="M830.81,387.79c-22.09-14.59-24.84-58.26-14.96-81.75,28.67-68.13,150.18-57.93,173.25,9.65,7.98,23.36-31.55,78.94-55.75,86.05-13.02,3.83-93.41-7.91-102.55-13.95Z"/>
</svg>