<?xml version="1.0" encoding="UTF-8"?>
<svg id="Calque_1" data-name="Calque 1" xmlns="http://www.w3.org/2000/svg" viewBox="0 0 1200.92 1082.3">
  <defs>
    <style>
      .cls-1 {
        fill: #fff;
      }
    </style>
  </defs>
  <path class="cls-1" d="M759.87,78.18c-3.59,27.36,2.61,60.83,0,89-87.68-14.51-168.39-5.96-249.91,28.62-107.11,45.43-198.93,130.79-309,173.38-74.33,28.77-163.2,3.5-193.69,93.39-13.87,40.89-12.76,112.95,47.8,99.7,33.04-7.23,79.44-71.09,107.46-93.72,55.67-44.94,124.77-32.48,178.05-83.19-13.38,38.48-15.19,80.69-26.92,119.44-13.43,44.37-87.77,148.31-33.58,179.44,22.36,12.85,34.46-2.98,54.76-11.79,6.54,107.57,61.49,182.17,153.24,234.42,78.73,44.84,152.11,67.77,243.43,50.11,20.92-4.04,54.4-24.15,66.81-25.25,11.11-.98,16.27,15.07,21.75,15.01,2.79-.03,9.76-9.15,17.54-9.96,51.89-5.45,105.29-5.08,155.09,10.52,11.42-6.74,7.09-12.29,2.62-22.2l62.86.42-.31,16.14c-27.09,17.24-139.76,70.81-130.66,105.67,1.04,4,20.83,25.09,24.76,27.33,38.53,21.98,144.45-9.92,190.55-16.81,8.36-1.25,93.14-2.96,42.26-26.46-47.49-21.93-150.56,29.85-206.65,14.2,13.36-21.51,64.86-33.35,78.88-47.4,5.01-5.02,8.6-20.76,13.9-29.18,12.03-19.11,34.99-26.35,16.62-57.17-23.58-39.55-121.04-9.26-163.59-9.6-16.3-.13-37.81,4.93-49.07-8.75,40.93-35.9,107.96-104,108.71-161.49.19-14.62-9.46-21.25-10.19-28.97-.65-6.83,10.25-15.28,11.07-27.65,1.26-19.04-10.73-53.73-12.29-75.01-1.09-14.88,5.87-26.66,5.39-39.28-1.3-34.1-22.35-62.85-28.09-95.35,21.27,12.29,139.94,143.67,119.3,44.36-8.53-41.03-33.44-55.2-54.39-80.06-1.35-1.6-3.74-25.31-21.98-33.16-28.82-12.41,22.68,40.81,24.94,44,5.89,8.33,56.63,84.06,32.43,88.05-44.46-18.22-64.59-73.45-111.84-86.23,27.48-28.47,48.46-68.04,56.06-107.51,5.06-26.28,11.76-78.62-7.29-99.09l-5.62,40.26c-7.21,13.43-18.85-12.48-25.88-11.58l-.12,34.42c-23.58,3.29,2.99-13.89-14.3-22.83l-20,37.45,11.34,2.69-11.77,8.87,15.65,80.16c-16.58,27.94-19.99,6.13-33.04.13-6.86-3.15-16.18-1.64-20.94-4.62-5.03-3.14-45.75-72.7-59.15-87.29-4.58-4.98-22.14-26.43-28.54-20.22,52.66,78.39,109.17,162.15,120.57,258.29-12.45,2.9-12.73-6.94-18.43-13.1-15.69-16.96-28.77-41.48-45.31-58.05-85.36-85.58-214.3-103.98-316.12-35.88-37.14,24.84-107.49,103.95-143.02,115.39-18.84,6.07-39.88-2.76-50.11,17.44,14.21,12.33,8.81,34.35-6.91,43.14-.64-20.73-26.2-11.2-32.96-31.54,42.34-70.43,44.84-154.71,67.11-232.27-36.25-17.92-58.1,25.27-87.65,41.06-46.75,24.98-113.9,18.27-150.58,67.67l-17.8-22.6-36.63,11.16-.05-39.96c82.92-4.5,160.77-36.14,234-73.27,108.19-54.85,221.38-167.12,354.49-162.65,21.94.74,68.79,28.85,85.27,17.82,5.79-3.87.86-13.84,9.6-11.76-.54,13.32,36.17,77.75,51.73,63.09.18-17.7-28.69-52.35-28.69-66v-111.96c18.87-4.34,20.68,31.46,31.34,33.16,17.61-.92,29.81-20.78,42.95-24.92,18.19-5.73,42,.99,59.61-9.31,15.11-8.84,14.28-32.74,32.6-39.12,3.75,24.76-1.94,63.34,2.34,86.25,5.01,26.83,28.47,55.24,20.5,87.81l23.13,9.69c7.17-24.79,2.4-47.86-5.38-72.1-3.38-10.53-13.88-18.61-16.36-29.58-4.25-18.83,1.1-98.63-12.24-108.34-33.9-16.65-45.8,38.75-57.99,46.68-9.38,6.11-64.71-5.72-77.82,25.29-10.48,2.42-29.03-43.83-54-34.13.36,12.16-10.39,27.78-11.63,37.23Z"/>
  <path class="cls-1" d="M898.53,127.71l-.77,13.57,14.21,8.65c31.52-23.25,22.5-46.23-13.44-22.22Z"/>
  <path class="cls-1" d="M845.98,155.67c6.74-6.5-21.72-35.59-34.4-28.65-4.77,13.43,29.45,33.42,34.4,28.65Z"/>
  <path class="cls-1" d="M935.12,155.73c-13.57,2.98-8.47,26,5.57,22.91,13.57-2.98,8.47-26-5.57-22.91Z"/>
  <polygon class="cls-1" points="828.76 167.27 800.07 161.5 820.54 178.36 828.75 178.64 828.76 167.27"/>
  <path class="cls-1" d="M828.82,213.07c14.2,18.84,76.76-27.88,74.61-37.2l-36.81-14.03c-8.34,1.8-6.76,22.41-14.45,29.87-8.11,7.88-26.29,4.44-23.34,21.35Z"/>
  <path class="cls-1" d="M800.09,195.81c35.03,14.28,37.66-15.7.01-11.38v11.38Z"/>
  <path class="cls-1" d="M926.46,195.85c28.32,11.67,29.66-13.69,0-11.41v11.41Z"/>
  <path class="cls-1" d="M955.13,230.28c-6.65-12.8-18.53-25.41-34.46-22.85,6.65,12.8,18.53,25.41,34.46,22.85Z"/>
  <path d="M759.87,78.18c1.24-9.45,11.99-25.07,11.63-37.23,24.97-9.7,43.52,36.55,54,34.13,13.11-31.02,68.44-19.18,77.82-25.29,12.19-7.94,24.09-63.33,57.99-46.68,13.33,9.71,7.98,89.51,12.24,108.34,2.48,10.97,12.97,19.05,16.36,29.58,7.78,24.24,12.55,47.31,5.38,72.1l-23.13-9.69c7.97-32.57-15.49-60.98-20.5-87.81-4.28-22.9,1.41-61.48-2.34-86.25-18.32,6.38-17.49,30.28-32.6,39.12-17.61,10.3-41.42,3.58-59.61,9.31-13.14,4.14-25.34,24-42.95,24.92-10.66-1.7-12.47-37.49-31.34-33.16v111.96c0,13.65,28.87,48.3,28.69,66-15.56,14.66-52.27-49.76-51.73-63.09-8.74-2.09-3.81,7.89-9.6,11.76-16.48,11.03-63.33-17.09-85.27-17.82-133.11-4.47-246.3,107.8-354.49,162.65-73.23,37.13-151.08,68.77-234,73.27l.05,39.96,36.63-11.16,17.8,22.6c36.68-49.4,103.83-42.69,150.58-67.67,29.54-15.79,51.39-58.97,87.65-41.06-22.27,77.56-24.76,161.84-67.11,232.27,6.76,20.34,32.32,10.81,32.96,31.54,15.72-8.79,21.12-30.81,6.91-43.14,10.23-20.2,31.27-11.37,50.11-17.44,35.53-11.45,105.88-90.55,143.02-115.39,101.82-68.1,230.76-49.7,316.12,35.88,16.53,16.58,29.62,41.1,45.31,58.05,5.69,6.15,5.97,16,18.43,13.1-11.4-96.14-67.91-179.9-120.57-258.29,6.39-6.21,23.96,15.23,28.54,20.22,13.4,14.6,54.12,84.15,59.15,87.29,4.77,2.98,14.09,1.47,20.94,4.62,13.06,6,16.47,27.81,33.04-.13l-15.65-80.16,11.77-8.87-11.34-2.69,20-37.45c17.28,8.94-9.28,26.12,14.3,22.83l.12-34.42c7.03-.9,18.67,25,25.88,11.58l5.62-40.26c19.05,20.48,12.35,72.82,7.29,99.09-7.6,39.47-28.58,79.04-56.06,107.51,47.25,12.78,67.38,68,111.84,86.23,24.2-3.99-26.55-79.72-32.43-88.05-2.25-3.19-53.75-56.41-24.94-44,18.23,7.85,20.62,31.56,21.98,33.16,20.95,24.86,45.86,39.03,54.39,80.06,20.64,99.3-98.03-32.07-119.3-44.36,5.73,32.5,26.78,61.25,28.09,95.35.48,12.62-6.48,24.4-5.39,39.28,1.56,21.28,13.55,55.97,12.29,75.01-.82,12.37-11.72,20.82-11.07,27.65.73,7.72,10.38,14.36,10.19,28.97-.75,57.49-67.78,125.59-108.71,161.49,11.26,13.69,32.77,8.62,49.07,8.75,42.56.34,140.01-29.95,163.59,9.6,18.38,30.82-4.58,38.06-16.62,57.17-5.3,8.42-8.89,24.16-13.9,29.18-14.02,14.04-65.53,25.88-78.88,47.4,56.09,15.65,159.16-36.13,206.65-14.2,50.88,23.5-33.9,25.21-42.26,26.46-46.1,6.9-152.01,38.8-190.55,16.81-3.94-2.25-23.72-23.34-24.76-27.33-9.1-34.86,103.56-88.43,130.66-105.67l.31-16.14-62.86-.42c4.47,9.91,8.8,15.46-2.62,22.2-49.79-15.61-103.2-15.97-155.09-10.52-7.78.82-14.75,9.93-17.54,9.96-5.48.06-10.64-15.99-21.75-15.01-12.42,1.1-45.9,21.21-66.81,25.25-91.32,17.65-164.69-5.27-243.43-50.11-91.75-52.25-146.69-126.85-153.24-234.42-20.29,8.81-32.4,24.63-54.76,11.79-54.18-31.13,20.15-135.07,33.58-179.44,11.73-38.75,13.54-80.96,26.92-119.44-53.28,50.71-122.38,38.25-178.05,83.19-28.03,22.63-74.42,86.49-107.46,93.72-60.56,13.25-61.67-58.81-47.8-99.7,30.5-89.89,119.36-64.63,193.69-93.39,110.07-42.59,201.89-127.95,309-173.38,81.53-34.58,162.24-43.13,249.91-28.62,2.61-28.17-3.59-61.64,0-89ZM943.58,350.88c1.4-12.12,9.72-38.79-5.62-45.87l5.62,45.87ZM758.7,438.72c-1.48-1.1-32.6-7.35-36.01-7.61-10.17-.78-77.95-1.76-77.74,8.8,40.12,19.75,83.71,17.63,126.35,25.83,2.39-3.76-9.89-25.02-12.6-27.02ZM575.99,454.3l-11.52,14.44,46.08,19.92c-8.8-16.3-34.14-10.61-34.56-34.36ZM805.79,482.95c-43.5,8.49-90.36,6.67-134.87,5.72-3.6-.08-71.67-12.53-48.91,5.76,63.12,5.93,120.77,26.7,184.04,8.84l-.26-20.31ZM576.06,683.91c-6-31.21-26.92-55.11-37.2-86.2-10.39-31.42-9.12-77.01-31.63-97.51l22.44,118.18c22.41,20.31,11.49,60.72,46.39,65.53ZM840.24,517.46c-11.66-2.03-15.25,1.28-23.06,8.47-21.71,19.99-42.12,73.3-68.8,94.8,17.03,13.62,52.82-59.56,60.63-68.52,9.57-10.97,37.04-7.94,31.23-34.75ZM495.63,603.52c-.87-16.71-3.72-35.59-8.7-51.51-1.87-5.98-6.48-23.2-14.16-23.08l3.96,27.54,18.9,47.05ZM662.21,546.19l-80.34-11.49c7.53,10.9,32.19,26.56,44.5,27.61,8.49.73,32.75-5.98,35.85-16.13ZM708.16,557.71l-22.92-5.8c-1.43,14.47,9.14,19.36,22.91,17.17v-11.36ZM874.51,591.96c-.23-14.19,13.57-29.27-2.65-39.97l-14.34,40.04,16.99-.07ZM438.21,563.4c-4.13-3.13-16.84,4.74-17.05,8.53-.15,2.83,18.95,45.32,22.25,52.15,4.59,9.53,10.34,13.85,17.82,8.12-18.31-8.22-20.07-66.58-23.01-68.8ZM690.96,603.61l-120.61-34.45c8.52,14.44,34.89,31.59,50.14,38.82,4.94,2.34,43.37,17.1,45.8,17.44,5.49.75,33.07-13.74,24.68-21.8ZM838.73,642.12c2.13-2.27,16.94-33.31,10.2-38.53-43.56,36.5-76.8,79.36-134.51,95.17l-29.16,28.16,28.62,20.16c-11.32-39.37,49.13-51.8,71.93-68.79,6.85-5.11,8.94-16.25,17.79-22.38,9.67-6.7,28.92-7.18,35.13-13.79ZM662.23,643.81c-12.97,3.89-77.3-35.63-80.41-14.3,5.35,39.8,57.95,35.59,80.41,14.3ZM914.9,620.81c-6.18-6.14-34.78,21.78-28.63,28.68,5.8-2.73,36.32-21.03,28.63-28.68ZM414.64,632.99l-16.56,2.11c7.46,6.96,12,16.66,22.94,14.33l-6.39-16.44ZM943.64,655.29c-11.25-10.14-61.08,61.21-70.76,66.85-9.93,5.79-22.64,4.22-32.26,10.98-7.93,5.58-19.98,28.46-29.07,36.89l62.81-20.4,69.28-94.32ZM788.54,862c-38.92,5.77-70.76-21-101.75-27.49-12.65-2.65-26.34.5-38.2-2-38.61-8.16-113.57-48.08-146.93-71.29-21.77-15.15-48.87-47.09-72.16-65.66-5.61-4.47-39.09-33.09-42.9-28.82-2.2,10.33,3.04,16.58,6.82,24.88,12.89,28.37,161.48,121.28,195.99,136.9,45.71,20.68,129.55,40.95,179.16,39.13,6.93-.25,21.34,4.34,19.98-5.64ZM851.76,689.62c12.33,1.22,24.37-11.46,22.91-22.91l-22.91,22.91ZM639.23,701.19l-28.66,2.81c6.86,9.7,17.71,9.54,28.66,8.61v-11.42ZM823.04,718.44l-40.17,22.85c18.75,3.47,32.19-6.97,40.17-22.85ZM800.03,810.33c-94.62-4.93-173.94-57.38-264.11-74.66l54.45,28.73c41.71,8.85,94.31,36.48,133.42,44.6,15,3.11,40.4,3.76,57.86,5.36,6.33.58,19.55,6.78,18.38-4.04ZM926.39,758.61c-15.63-3.45-9.78,4.78-14.17,11.41-9.87,14.9-19.16,37.55-31.46,49.14-19.36,18.24-55.44,17.1-51.92,54.26,43.63-21.06,90.47-64.67,97.55-114.8ZM690.95,902.06c-16.36-24.18-53.77-15.2-77.04-23.06-27.03-9.13-57.13-33.46-89.5-34.24,43.6,38.01,108.18,73.58,166.54,57.3Z"/>
  <path d="M828.82,213.07c-2.95-16.92,15.23-13.48,23.34-21.35,7.69-7.46,6.11-28.08,14.45-29.87l36.81,14.03c2.15,9.32-60.41,56.04-74.61,37.2Z"/>
  <path d="M898.53,127.71c35.94-24.01,44.97-1.04,13.44,22.22l-14.21-8.65.77-13.57Z"/>
  <path d="M845.98,155.67c-4.95,4.77-39.17-15.22-34.4-28.65,12.69-6.94,41.14,22.15,34.4,28.65Z"/>
  <path d="M955.13,230.28c-15.92,2.56-27.81-10.05-34.46-22.85,15.92-2.56,27.81,10.05,34.46,22.85Z"/>
  <path d="M935.12,155.73c14.04-3.09,19.14,19.92,5.57,22.91-14.04,3.09-19.14-19.92-5.57-22.91Z"/>
  <path d="M800.09,195.81v-11.38c37.66-4.32,35.03,25.66,0,11.38Z"/>
  <polygon points="828.76 167.27 828.75 178.64 820.54 178.36 800.07 161.5 828.76 167.27"/>
  <path d="M926.46,195.85v-11.41c29.66-2.28,28.32,23.09,0,11.41Z"/>
  <path class="cls-1" d="M788.54,862c1.37,9.99-13.05,5.39-19.98,5.64-49.61,1.82-133.45-18.44-179.16-39.13-34.51-15.62-183.1-108.53-195.99-136.9-3.77-8.31-9.02-14.56-6.82-24.88,3.81-4.27,37.3,24.35,42.9,28.82,23.29,18.56,50.39,50.5,72.16,65.66,33.36,23.22,108.32,63.14,146.93,71.29,11.86,2.51,25.54-.65,38.2,2,30.99,6.49,62.84,33.26,101.75,27.49Z"/>
  <path class="cls-1" d="M805.79,482.95l.26,20.31c-63.27,17.86-120.92-2.91-184.04-8.84-22.76-18.29,45.31-5.83,48.91-5.76,44.51.95,91.37,2.77,134.87-5.72Z"/>
  <path class="cls-1" d="M838.73,642.12c-6.2,6.61-25.45,7.09-35.13,13.79-8.85,6.13-10.94,17.27-17.79,22.38-22.8,16.99-83.24,29.42-71.93,68.79l-28.62-20.16,29.16-28.16c57.7-15.81,90.94-58.67,134.51-95.17,6.74,5.22-8.07,36.27-10.2,38.53Z"/>
  <path class="cls-1" d="M690.95,902.06c-58.37,16.28-122.94-19.29-166.54-57.3,32.37.78,62.47,25.11,89.5,34.24,23.28,7.86,60.69-1.12,77.04,23.06Z"/>
  <path class="cls-1" d="M943.64,655.29l-69.28,94.32-62.81,20.4c9.09-8.42,21.14-31.31,29.07-36.89,9.62-6.77,22.33-5.19,32.26-10.98,9.68-5.64,59.5-76.99,70.76-66.85Z"/>
  <path class="cls-1" d="M800.03,810.33c1.17,10.82-12.05,4.62-18.38,4.04-17.46-1.6-42.86-2.24-57.86-5.36-39.12-8.12-91.72-35.75-133.42-44.6l-54.45-28.73c90.17,17.28,169.49,69.73,264.11,74.66Z"/>
  <path class="cls-1" d="M758.7,438.72c2.7,2.01,14.99,23.26,12.6,27.02-42.64-8.2-86.23-6.09-126.35-25.83-.21-10.56,67.57-9.58,77.74-8.8,3.41.26,34.54,6.52,36.01,7.61Z"/>
  <path class="cls-1" d="M576.06,683.91c-34.9-4.81-23.97-45.22-46.39-65.53l-22.44-118.18c22.51,20.5,21.24,66.09,31.63,97.51,10.28,31.09,31.19,54.99,37.2,86.2Z"/>
  <path class="cls-1" d="M690.96,603.61c8.38,8.06-19.19,22.56-24.68,21.8-2.43-.33-40.86-15.1-45.8-17.44-15.24-7.22-41.62-24.38-50.14-38.82l120.61,34.45Z"/>
  <path class="cls-1" d="M926.39,758.61c-7.07,50.14-53.91,93.75-97.55,114.8-3.53-37.16,32.56-36.02,51.92-54.26,12.3-11.59,21.58-34.24,31.46-49.14,4.39-6.62-1.46-14.86,14.17-11.41Z"/>
  <path class="cls-1" d="M662.23,643.81c-22.46,21.29-75.06,25.5-80.41-14.3,3.12-21.33,67.44,18.19,80.41,14.3Z"/>
  <path class="cls-1" d="M840.24,517.46c5.81,26.81-21.66,23.78-31.23,34.75-7.81,8.95-43.59,82.14-60.63,68.52,26.68-21.5,47.09-74.8,68.8-94.8,7.81-7.19,11.4-10.5,23.06-8.47Z"/>
  <path class="cls-1" d="M662.21,546.19c-3.09,10.14-27.36,16.85-35.85,16.13-12.31-1.05-36.96-16.71-44.5-27.61l80.34,11.49Z"/>
  <path class="cls-1" d="M438.21,563.4c2.94,2.23,4.71,60.58,23.01,68.8-7.48,5.73-13.22,1.41-17.82-8.12-3.29-6.83-22.4-49.32-22.25-52.15.21-3.79,12.91-11.67,17.05-8.53Z"/>
  <path class="cls-1" d="M495.63,603.52l-18.9-47.05-3.96-27.54c7.68-.13,12.29,17.09,14.16,23.08,4.98,15.92,7.83,34.8,8.7,51.51Z"/>
  <path class="cls-1" d="M874.51,591.96l-16.99.07,14.34-40.04c16.23,10.7,2.42,25.78,2.65,39.97Z"/>
  <path class="cls-1" d="M575.99,454.3c.42,23.75,25.76,18.06,34.56,34.36l-46.08-19.92,11.52-14.44Z"/>
  <path class="cls-1" d="M914.9,620.81c7.69,7.65-22.83,25.95-28.63,28.68-6.15-6.9,22.45-34.82,28.63-28.68Z"/>
  <path class="cls-1" d="M823.04,718.44c-7.98,15.88-21.42,26.32-40.17,22.85l40.17-22.85Z"/>
  <path class="cls-1" d="M943.58,350.88l-5.62-45.87c15.34,7.08,7.02,33.75,5.62,45.87Z"/>
  <path class="cls-1" d="M639.23,701.19v11.42c-10.94.93-21.79,1.09-28.66-8.61l28.66-2.81Z"/>
  <path class="cls-1" d="M708.16,557.71v11.36c-13.78,2.19-24.35-2.7-22.92-17.17l22.92,5.8Z"/>
  <path class="cls-1" d="M851.76,689.62l22.91-22.91c1.46,11.45-10.59,24.13-22.91,22.91Z"/>
  <path class="cls-1" d="M414.64,632.99l6.39,16.44c-10.95,2.34-15.49-7.37-22.94-14.33l16.56-2.11Z"/>
</svg>