<?xml version="1.0" encoding="UTF-8"?>
<svg id="Calque_1" data-name="Calque 1" xmlns="http://www.w3.org/2000/svg" viewBox="0 0 287.66 232.04">
  <defs>
    <style>
      .cls-1 {
        fill: #fff;
      }
    </style>
  </defs>
  <path class="cls-1" d="M152.56,4.18c5.1-1.67,2.48,2.54,3.6,3.79.75.83,2.82,1.08,4.06,1.97,4.27,3.07,11.24,11.94,12.83,16.77.99,3.02.84,14.06,5.92,12.97,4.79-1.03.56-14.41-1.4-17.23-1.74-2.5-5.19-4.65-7.23-7.04-4.53-5.3-7.31-14.14-15.68-15.23-8.51-1.11-13.49,2.84-12.34,11.06,1.23,8.79,11.6,13.42,13.21,22.22l-.84,1.27c-7.51-1.22-15.08-3.71-22.63-4.57-20.06-2.29-41.56,3.32-59.51,11.43-2.57,1.16-9.16,5.61-11.48,5.3-1.36-.18-8.43-4.86-10.96-5.88-3.43-1.37-7.14-1.93-10.55-3.33-.93-8.57-2.74-25.37-15.28-14.45-3.98,3.47-15.26,20.29-14.41,25.07.57,3.22,12.54,12.97,15.31,16.2,4.58,5.36,6.57,11.56,6.13,18.45-.29,4.59-3.74,12.17,3.71,13.29,5.63-8.83,3.59-22.62-2.84-30.84-2.61-3.34-14.95-13.8-15-16.47-.05-2.86,6.16-13.85,8.12-16.65,1.18-1.69,4.2-6.14,6.23-5.62,3.27,4.75-2.14,12.62,1.9,16.79,2.78,2.87,8.03,1.29,12,1.97,2.95.51,15.21,6.51,16.94,8.56,1.59,1.89.91,8.72,6.31,5.91,2.26-2.35-3.17-7.12-1.73-9.42.4-.63,8.62-4.57,10.07-5.22,6.68-3.02,21.72-9.06,28.7-8.99,8.89.09,9.79,5.91,16.28,9.72,6.98,4.09,11.19,2.66,18.62,3.23,5.1.39,14.96,3.12,19.1-.78,1.8-1.7,1.66-6.1,3.53-6.15,2.18-.05,14.84,5.79,17.51,7.19,8.3,4.35,23.29,15.11,27.68,22.98,1.06,1.91,1.27,3.82,2.43,5.79,1.65,2.79,5.06,5.18,6.75,8.07,4.02,6.87,1.28,15.19.5,22.63-.16,1.56.95,8.9-1.85,7.51-1.53-.76-5.76-5.96-7.62-6.05-6.83,1.94-15.21,6.23-22.39,3.73-3.66-1.27-5.01-4.69-9.48-.88-2.26-.45-1.16-15.64-1.57-18.15-.14-.82-.95-1.48-1.13-2.4-.38-1.93-.43-7.32-2.81-7.74-2.65-.47-9.2-.1-12.28-.02-30.97.85-66.77,4.3-97.17,10.02-13.44,2.53-27.96,4.16-32.52,18.42-7.31,22.86,11.55,53.86,8.67,79.16-.15,1.35-.33,4.62-2.37,4.4l-.91-9.82-7.89-.65-.92-.87c-.38-4.37.2-8.82-.09-13.19-1.12-16.51-8.67-42.15-.72-57.25,1.49-2.83,4.47-5.28,6.12-8.09,3.95-6.73-.45-7.25-4.43-2.45-19.25,23.18-4.88,50.88-6.48,76.43-.97,15.52-8.68,18.33-15.8,30.13-3.73,6.18-7.95,14.52.31,19.11,13.09,7.28,30.17-10.22,34.78-20.68,11.81-26.76-1.83-51.02-5.63-77.21-1.74-11.96-2.04-20.78,9.06-28.65,25.32-5.01,51.96-5.63,77.34-9.65,7.63-1.21,14.22-3.56,22.11-3.98s16.52.49,24.83-1.13c-2.75,4.95,2.11,8.22,2.93,11.96,1.11,5.11-2.68,18.65,4.89,19.67,4.31.58,5.72-3.37,8.4-3.4,2.95-.03,7.12,3.81,12.25,3.52,4.11-.23,10.79-3.65,14.07-3.45,3.95.24,6.61,10.59,12.32,7.51.31-12,6.61-30-.22-40.84-2.29-3.63-6.33-5.64-8.95-8.88-3.2-3.97-4.19-8.79-7.72-12.92-10.8-12.64-28.51-18.82-43.82-25.12-.33-1.67.49-3.06.37-4.9-.44-6.58-10.16-11.74-12.17-18.01-.13-1.28,1.75-2.19,2.96-1.91l-.33,4.04c3.3,3.01,10.46,2.25,8.78-3.05-1-3.17-4.86-1.62-6.84-2.24-.81-.25-.86-1.35-1.41-1.68-1.08-.63-2.95-.22-3.86-1.42l4.89-.29-1.22-3.45ZM258.52,28.41c9.36-2.1,20.09-2.9,23.57,7.51,2.53,7.57-2.7,11.03-9.27,13.77-7.89,3.29-32.95,6.82-29.96,18.58,1.69,6.67,7.6-3.02,9.84-4.65,8.5-6.16,26.25-5.76,32.15-12.99,7.78-9.54-1.82-26.65-13.44-28.89-5.24-1.01-14.26-.26-12.89,6.67ZM167.86,68.24c1-2.21-.72-3.64-2.63-4.74-4.15-2.4-22.33-7.31-27.11-7.4s-9.5,1.83-15.23,1.12c-4.5-.56-9.58-4.22-14.14-4.58-13.4-1.06-17.8,12.39-6.24,19.17,4.36,2.56,27.44,11.2,31.98,11.46,1.75.1,3.4-.17,4.57-1.48.35-1.41-5.93-3.7-7.18-4.19-6.78-2.61-26.12-6.14-28.89-12.6-.9-2.1-1.37-5.58,1.31-6.73,5.77-2.48,16.31,3.59,22.2,4.19,6.25.64,12.71-1.76,19.53-1.09,7.37.73,14.71,5.03,21.81,6.86ZM242.46,75.86c-8.96.63-8.76,11.81-.77,12.03,9.94.27,10.43-12.7.77-12.03ZM213.8,85.56c-1.04-.03-5.91.38-5.51,2.01.75,3.06,6.43-1.25,5.51-2.01ZM201.55,95.38l-2.31-1.91c.28-3.96,2.62-4.31,5.36-6.47-.61-.82-1.1-.89-2.11-.89-4.34,0-11.3,5.88-13.17,9.56,1.42,1.98,2.75-.38,4.11-.73,3.54-.91,4.63.06,4.75,3.32l2.99-1.69.38-1.18ZM213.8,93.06c.47-1.86-4.94-3.43-5.51-2.88l.57,2.63,4.93.25ZM179.51,91.34c.63,1.16,3.25,3.11,4.47,2.81l1.65-1.38c-1.44-2.06-3.82-1.41-6.11-1.44ZM212.51,100.5c1.98-1.12-2.99-7.16-5.78-5.18-4.36,3.1,2.16,6.41,5.78,5.18ZM185.62,95.37c-2.57-.35-3.37,2.5-4.89,4.04l4.94-1.44-.05-2.59ZM192.8,99.51c-2.59.73-4.79,8.38.78,5.96,4.04-1.76,4-7.31-.78-5.96Z"/>
  <path d="M152.56,4.18l1.22,3.45-4.89.29c.92,1.2,2.78.79,3.86,1.42.56.32.6,1.42,1.41,1.68,1.98.62,5.84-.94,6.84,2.24,1.67,5.3-5.48,6.06-8.78,3.05l.33-4.04c-1.21-.28-3.08.64-2.96,1.91,2.01,6.27,11.73,11.43,12.17,18.01.12,1.83-.7,3.22-.37,4.9,15.31,6.3,33.02,12.48,43.82,25.12,3.53,4.13,4.52,8.95,7.72,12.92,2.61,3.24,6.66,5.26,8.95,8.88,6.84,10.84.53,28.84.22,40.84-5.71,3.08-8.37-7.27-12.32-7.51-3.28-.2-9.96,3.22-14.07,3.45-5.13.28-9.29-3.56-12.25-3.52-2.67.03-4.09,3.98-8.4,3.4-7.57-1.02-3.78-14.55-4.89-19.67-.81-3.74-5.67-7.01-2.93-11.96-8.3,1.61-16.57.68-24.83,1.13s-14.49,2.78-22.11,3.98c-25.38,4.02-52.03,4.64-77.34,9.65-11.1,7.87-10.79,16.68-9.06,28.65,3.8,26.19,17.44,50.45,5.63,77.21-4.61,10.46-21.69,27.95-34.78,20.68-8.26-4.59-4.04-12.93-.31-19.11,7.12-11.8,14.83-14.61,15.8-30.13,1.6-25.55-12.77-53.25,6.48-76.43,3.99-4.8,8.38-4.29,4.43,2.45-1.65,2.81-4.63,5.26-6.12,8.09-7.96,15.1-.4,40.74.72,57.25.3,4.37-.28,8.81.09,13.19l.92.87,7.89.65.91,9.82c2.03.22,2.21-3.05,2.37-4.4,2.88-25.3-15.98-56.31-8.67-79.16,4.56-14.25,19.08-15.89,32.52-18.42,30.4-5.72,66.19-9.17,97.17-10.02,3.08-.08,9.63-.45,12.28.02,2.38.42,2.43,5.81,2.81,7.74.18.91,1,1.58,1.13,2.4.42,2.51-.68,17.69,1.57,18.15,4.47-3.81,5.82-.4,9.48.88,7.18,2.5,15.56-1.79,22.39-3.73,1.86.09,6.08,5.29,7.62,6.05,2.81,1.39,1.69-5.95,1.85-7.51.78-7.44,3.51-15.75-.5-22.63-1.69-2.89-5.1-5.28-6.75-8.07-1.16-1.97-1.37-3.88-2.43-5.79-4.39-7.87-19.38-18.63-27.68-22.98-2.67-1.4-15.33-7.24-17.51-7.19-1.87.04-1.73,4.45-3.53,6.15-4.14,3.9-14,1.17-19.1.78-7.43-.57-11.64.86-18.62-3.23-6.49-3.81-7.4-9.63-16.28-9.72-6.98-.07-22.02,5.97-28.7,8.99-1.45.65-9.67,4.59-10.07,5.22-1.45,2.31,3.99,7.08,1.73,9.42-5.4,2.81-4.72-4.02-6.31-5.91-1.73-2.05-13.99-8.05-16.94-8.56-3.97-.68-9.22.9-12-1.97-4.03-4.17,1.37-12.04-1.9-16.79-2.04-.52-5.05,3.93-6.23,5.62-1.96,2.8-8.17,13.79-8.12,16.65.05,2.67,12.38,13.13,15,16.47,6.42,8.22,8.46,22.02,2.84,30.84-7.45-1.12-4-8.7-3.71-13.29.44-6.89-1.55-13.1-6.13-18.45-2.77-3.24-14.74-12.98-15.31-16.2-.85-4.78,10.43-21.61,14.41-25.07,12.54-10.92,14.35,5.89,15.28,14.45,3.41,1.4,7.12,1.96,10.55,3.33,2.53,1.02,9.6,5.7,10.96,5.88,2.32.31,8.91-4.14,11.48-5.3,17.95-8.11,39.46-13.72,59.51-11.43,7.55.86,15.12,3.35,22.63,4.57l.84-1.27c-1.6-8.79-11.98-13.42-13.21-22.22-1.14-8.21,3.83-12.17,12.34-11.06,8.37,1.09,11.15,9.93,15.68,15.23,2.04,2.39,5.5,4.54,7.23,7.04,1.96,2.82,6.18,16.2,1.4,17.23-5.08,1.09-4.92-9.94-5.92-12.97-1.59-4.83-8.55-13.71-12.83-16.77-1.24-.89-3.31-1.14-4.06-1.97-1.13-1.25,1.49-5.46-3.6-3.79ZM13.52,213.12c-.78-.81-4.93,3.37-3.67,4.61,1.45,1.42,4.22-3.46,3.67-4.61Z"/>
  <path d="M167.86,68.24c-7.1-1.82-14.45-6.12-21.81-6.86-6.82-.68-13.28,1.72-19.53,1.09-5.9-.6-16.43-6.67-22.2-4.19-2.68,1.15-2.21,4.63-1.31,6.73,2.77,6.47,22.11,9.99,28.89,12.6,1.26.48,7.54,2.78,7.18,4.19-1.17,1.31-2.82,1.58-4.57,1.48-4.54-.26-27.63-8.9-31.98-11.46-11.57-6.78-7.17-20.23,6.24-19.17,4.56.36,9.64,4.02,14.14,4.58,5.73.71,10.45-1.21,15.23-1.12s22.95,5.01,27.11,7.4c1.91,1.1,3.63,2.53,2.63,4.74Z"/>
  <path d="M258.52,28.41c-1.37-6.93,7.66-7.68,12.89-6.67,11.62,2.25,21.22,19.35,13.44,28.89-5.9,7.23-23.65,6.83-32.15,12.99-2.25,1.63-8.15,11.32-9.84,4.65-2.99-11.77,22.08-15.3,29.96-18.58,6.57-2.74,11.8-6.2,9.27-13.77-3.48-10.41-14.21-9.61-23.57-7.51Z"/>
  <path d="M242.46,75.86c9.66-.68,9.17,12.3-.77,12.03-7.99-.22-8.19-11.4.77-12.03Z"/>
  <path d="M201.55,95.38l-.38,1.18-2.99,1.69c-.12-3.25-1.21-4.23-4.75-3.32-1.36.35-2.69,2.71-4.11.73,1.87-3.68,8.83-9.56,13.17-9.56,1.01,0,1.5.07,2.11.89-2.74,2.16-5.08,2.51-5.36,6.47l2.31,1.91Z"/>
  <path d="M212.51,100.5c-3.62,1.23-10.15-2.08-5.78-5.18,2.79-1.98,7.76,4.06,5.78,5.18Z"/>
  <path d="M192.8,99.51c4.79-1.35,4.83,4.2.78,5.96-5.58,2.43-3.37-5.23-.78-5.96Z"/>
  <path d="M213.8,93.06l-4.93-.25-.57-2.63c.57-.55,5.98,1.02,5.51,2.88Z"/>
  <path d="M179.51,91.34c2.3.03,4.67-.62,6.11,1.44l-1.65,1.38c-1.22.3-3.84-1.65-4.47-2.81Z"/>
  <path d="M185.62,95.37l.05,2.59-4.94,1.44c1.53-1.53,2.33-4.39,4.89-4.04Z"/>
  <path d="M213.8,85.56c.92.76-4.76,5.07-5.51,2.01-.4-1.63,4.47-2.04,5.51-2.01Z"/>
  <path class="cls-1" d="M13.52,213.12c.56,1.15-2.22,6.03-3.67,4.61-1.26-1.24,2.89-5.43,3.67-4.61Z"/>
</svg>