<?xml version="1.0" encoding="UTF-8"?>
<svg id="Calque_1" data-name="Calque 1" xmlns="http://www.w3.org/2000/svg" viewBox="0 0 585.44 502.02">
  <defs>
    <style>
      .cls-1 {
        fill: #fff;
      }
    </style>
  </defs>
  <path d="M452.11,51.82c1.76,2.03,7.08,4.28,10.25,7.82,10.02,11.2,17.24,27.62,23.64,41.14l4.99,14.92c14.44-10.85,18.48-27.32,26.6-41.93,5.56-10.01,25.88-38.35,37.03-40.21,12.25-2.05,28.32,1.34,30.35,15.62,5.3,37.26-35.15,60.07-51.96,88.6-2.83,29.09.8,57.78-7.11,86.32s-52.91,94.67-72.26,117.11c-27.34,31.71-61.33,47.51-96.24,68.22-24.1,5.3-46.95,15.56-70.84,21.36-16.08,3.9-49.73,6.6-60.96,17.54-3.44,3.36-6.43,9.71-9.96,13.71-8.43,9.55-30.12,24.44-41.34,32.17-6.42,4.42-15.99,11.72-23.17,5.25-1.85-1.67-8.21-15.59-8.32-18.22-.66-15.11,29.49-31.93,39.82-40.99s13.77-10.79,8.07-24.29c-1.53-3.61-14.61-22.86-.23-18.49,4.92,1.5,13.83,25.53,13.27,31.4-1.49,15.58-36.05,32.38-46.04,43.77-.52,2.82,1.23,1.71,3.08,1.85,23,1.72,19.52-9.85,36.65-17.34l2,3.61c4.85-5.23,10.01-9.87,15.69-14.19,5.66-4.31,20.42-14.98,26.4-17.21,3.82-1.42,23.56-3.59,24.58-4.71-1.99-7.43-1.68-10.12,3.83-15.47,11.69-11.35,32.18-11.91,46.68-16.86,15.04-5.14,31.22-16.51,48.39-14.95,5.35.49,10.16,6.48,13.56,6,1.7-.24,22.71-11.21,25.75-13,21.93-12.95,39.95-30.44,55.44-50.46,19.5-25.2,53.84-71.97,61.23-101.98,6.42-26.09,4.31-53.4,8.6-79.85,15-29.35,57.46-53.7,51.7-90.19-1.93-12.24-24.96-15.94-32.3-6.3,2.13,2.09,5.27,2.96,6.56,5.97,3.86,9.01-14.01,9.85-9.08-1.61-1.25-1.36-5.89,3.91-6.86,4.96-15.98,17.16-20.89,38.24-32.72,56.98-24.27,38.42-25.66,3.85-34.57-18.32-2.94-7.31-9.31-19.62-14.94-24.93-2.4-2.26-14.14-8.59-14.31-9.43-.27-1.32,2.27-3.02,2.49-4.95.41-3.69-1.43-14.29-1.31-19.95.07-3.25,3.64-24.33-.56-24.21-4.79,6.59-9.33,15.31-14.94,21.16-3.64,3.8-16.01,14.7-20.5,15.63-4.47.92-8.56.12-12.86.85-6.34,1.08-20.7,11.09-25.27,15.84-7.24,7.52-4.81,13.89-17.34,15.05-8.48.79-17.18-.54-25.59-1.29-2.39,2.12,12.98,18.38,13.99,21.5,3.39,10.47,3.33,16.82,9.9,27.47,3.62,5.86,21.48,23.32,20.7,27.47-1.43,7.65-12.67.56-15.96-2.32-12.16-10.64-16.12-23.89-19.61-38.95-3.43-14.78-2.78-9.45-10.06-21.08-21.37-34.14,10.34-16.41,30.91-20.97,8.89-10.84,23.99-26.55,38.32-28.96,3.73-.63,7.38.16,10.85-.36,6.68-1.02,17.48-19.65,23.09-25.5,3.26-3.4,11.28-11.25,15.83-11.66,3.78-.34,4.75,11.34,5.2,14.36.54,3.61,1.28,8.68,1.48,12.23.28,4.92-1.46,23.2.31,25.23ZM195.06,462.04c-1.44-1.4-8.06,5.91-8.72,7.46,1.03.9,10.31-5.91,8.72-7.46ZM170.14,476.98c-1.45.7-12.95-.68-11.19,3.09,1.88,4.02,13.52-.68,11.19-3.09ZM156.43,478.23c-3.87-.32-4.04,3.23-3.72,6.22h4.97s-1.25-6.22-1.25-6.22Z"/>
  <path d="M153.33,320.02c-13.02-1.64-40.29-10.31-52.18-16.35-29.55-14.99-38.84-47.32-30.69-78.33-4.56.43-3.68,11.06-5.69,11.25-10.42-.8-13.98-15.81-24.83-15.11-6.44.42-9.16,10.94-17.4,11.12-2.32.05-5.77-2.52-7.58.14-2.73,22.94,5.27,48.32,14.38,69.22,15.15,34.77,36.56,59.56,76.66,61.63,16.51.85,38.67-5.92,54.73-3.64,14.05,2,8.79,16.76-3.95,19.56-29.6,6.5-80.01,1.18-103.77-19C14.65,327.94-22.61,234.19,16.83,192.27c17.89-19.02,47.81-37.85,74.41-25.69,20.77,9.49-2.79,34.66-7.66,48.83-5.31,15.45-8.45,43.05-.48,57.72,12.94,23.83,63.37,35.18,88.01,40.93l1.53,5.97c-6.13-.55-13.34.75-19.31,0ZM35.58,217.85c2.61.15,4.67.49,6.21-1.86-1.31-1.9-2.68-2.2-4.93-1.85l-1.27,3.7Z"/>
  <path d="M483.86,147.24c.47.53.11,2.37.65,2.91,1.88,1.87,3.63,2.01,5.67,5.01,14.17,20.84-5.28,92.84-21.19,111.7-14.32,16.97-39.37,10.96-52.81-4.09-8.41-9.41-15.83-50.4-14.16-62.86,2.15-16.05,18.71-34.52,32.27-42.48,7.64-4.49,43.48-17.02,49.57-10.18ZM436.8,166.8c-1.58-1.41-9.06,6.99-9.97,8.7,5.12-.05,7.24-5.35,9.97-8.7ZM421.84,181.75c-1.29-1.28-4.99,2.47-3.73,3.72s4.99-2.47,3.73-3.72Z"/>
  <path d="M353.31,179.26c-15.14,16.14-42.7,19.8-44.9,45.41-2.35,27.35-1.22,84.28,18.12,105.3,5.32,5.78,27.53,21.85,28.1,5.59.12-3.34-.89-13.64-1.34-17.4-1.6-13.46-10.85-38.93-8.41-50.81,1.82-8.85,22.11-17.76,28.9-25.91,3.39-4.07,3.68-13.08,10.67-12.37,4.96,11.91-5.74,21.79-14.35,28.62-5.1,4.05-15.12,7.09-16.31,13.7-1.57,8.7,7.32,33.43,8.29,44.21.64,7.09,1.02,25.62-2.74,31-6.7,9.59-21.68,2.8-29.38-2.64-18.5-13.07-25.41-37.96-27.74-59.47-2.26-20.88,1.13-41.86-.02-62.89-4.79-.57-1.4,7.43-4.58,10.04-3.1,2.55-11.66,4.28-15.79,6.32-7.8,3.86-17.88,11.49-26.52,12.18-7.08.57-26.24-4.61-31.04-9.8-2.62-2.83-2.78-8.15-6.84-7.05-5.75,1.56-22.14,15.79-26.76,20.67-11.68,12.34-21.39,26.79-25.72,43.4l-4.62.04c-4.49-11.98,5.04-25.25,11.01-35.36,15.04-25.47,31.03-37.46,58.64-48.51,23.37-9.35,48.78-7.31,71.46,3.01,3.99-6.79,5.79-12.59,12.09-17.89,4.64-3.9,27.97-16.39,33.88-18.44,1.98-.69,3.73-1.28,5.88-.96Z"/>
  <path d="M187.91,281.74c2.2-1.97,6.57-2.31,8.52.18,3.85,4.95-3.15,12.14,6.2,18.7,6.92,4.86,21.43,3.39,30.42,4.46,10.41,1.24,40.8,7.22,48.69,2.56,2.85-1.68,5.8-8.23,3.71-11.35-2.33-3.48-34.39-2.05-39-17.08-.53-1.73-1.46-6.08,1.57-5.32,6.69,5.33,12.67,8.52,21.3,9.85,7,1.08,13.29-.9,20.33,3.34,10.69,6.45,6.16,22.54-2.35,28.6-13.25,9.45-56.36,1.92-72.96-.66-10.19-1.58-15.12-.15-23.65-8.75-5.47-5.51-8.84-19.15-2.81-24.56Z"/>
  <path d="M425.27,104.78c3.1,3.29.06,8.34.32,12.18,6.27,2.94,21.33-10.98,25.64-5.06s-9.31,13.86-14.09,14.74c-7.11,1.3-9.35-.72-15.28-3.44,1.13,3.85-9.58,16.27-11.86,16.16-5.95-5.72,8.85-9.68,9.36-16.76-4.03-1.6-11.06-7.28-9.83-12.24.71-2.84,13.23-8.23,15.74-5.57Z"/>
  <path d="M450.51,92.04c20.07-6.74,7.49,4.58,7.49,5.62,0,.65,8.37,6.79,4.98,8.73-4.13,2.36-13.49-4.6-17.54-6.2-2.05-.81-5.06,1.59-6.84-1.9-2.07-4.05,11.41-10.79,13.78-13.7l-1.87,7.46Z"/>
  <path d="M549.82,58.66c10.06-3.02,17.61,7.55,12.33,16.06-11.51,8.08-22.08-13.13-12.33-16.06Z"/>
  <path d="M391.94,126.94h-12.45c-.52-4.07,4.42-3.15,6.2-5.61-.03-1.22-7.34-3.44-6.2-6.84,15.15,1.67,22.76,7.62,12.74,22.08-5.08,7.33-10.59,9.14-5.12-1.39.84-1.62,5.72-7.46,4.83-8.24Z"/>
  <path d="M431.39,74.82c1.86-.63,7.42-.73,8.59.95,2.54,9.13-1.79,15.99-11.36,11.38-1.33-3.17-.87-11.09,2.77-12.33Z"/>
  <path d="M391.6,97.26c11.63-2.48,7.2,13.36-.28,13.37-8.18,0-7.11-11.79.28-13.37Z"/>
  <path d="M564.81,41.14c9.02-1.34,5.92,17.64-2.87,11.13-4.69-3.47-2.54-10.33,2.87-11.13Z"/>
  <path d="M569.76,53.65c10.14-3.04,10.14,13.81,0,10.77-4.68-1.4-4.68-9.36,0-10.77Z"/>
  <path d="M359.56,170.53c.52-2.33,1.34-7.66,3.71-8.71-.22,2.86-.63,7.43-3.71,8.71Z"/>
  <path class="cls-1" d="M170.14,476.98c2.32,2.41-9.31,7.11-11.19,3.09-1.76-3.77,9.74-2.4,11.19-3.09Z"/>
  <path class="cls-1" d="M156.43,478.23l1.25,6.22h-4.97c-.32-2.98-.16-6.53,3.72-6.22Z"/>
  <path class="cls-1" d="M195.06,462.04c1.6,1.55-7.69,8.36-8.72,7.46.65-1.54,7.27-8.85,8.72-7.46Z"/>
  <path class="cls-1" d="M35.58,217.85l1.27-3.7c2.26-.35,3.63-.05,4.93,1.85-1.53,2.34-3.6,2-6.21,1.86Z"/>
  <path class="cls-1" d="M436.8,166.8c-2.73,3.35-4.84,8.64-9.97,8.7.91-1.71,8.39-10.11,9.97-8.7Z"/>
  <path class="cls-1" d="M421.84,181.75c1.27,1.25-2.43,5-3.73,3.72s2.43-5,3.73-3.72Z"/>
</svg>