<?xml version="1.0" encoding="UTF-8"?>
<svg id="Calque_1" data-name="Calque 1" xmlns="http://www.w3.org/2000/svg" viewBox="0 0 1118.64 863.37">
  <defs>
    <style>
      .cls-1 {
        fill: #fff;
      }
    </style>
  </defs>
  <path class="cls-1" d="M413.52,1.75c-104.91,13.87-230.69,37.4-302.19,121.44C43.14,203.34-8.23,375.83,1.1,479.29c5.11,56.66,34.67,115.94,40.4,173.19,5.92,59.21-11.45,125.38,20.09,179.71,59.09,101.82,129.61-73.32,124.9-131.45-2.05-25.29-20.71-58.78-19.66-83.03.82-19.04,23.87-53.42,19.55-68.29-6.13-21.1-37.58-12.28-41.03-14.86-34.08-25.51-20.81-168.08,7.28-203.2l-20.85-3.84c-118.16,138.65,43.57,289.43,19.19,432.72-3.94,23.17-28,85.17-53.69,56.95-30.39-33.39-16.1-104.02-20.54-144.8-11.36-104.26-52.49-188.81-40.55-295.59C51.97,235.48,122.97,108.62,265.23,68.42c21.21-5.99,47.86-3.14,64.99-10.33,11.17-4.69,8.13-19.87,25.51-23.08,35.56-6.57,156.63,1.2,191.7,9.66,79.72,19.26,178.89,117.14,259.63,138.73,32.47,8.68,59.59-9.31,92.82-3.28,38.15,6.92,109.67,61.96,134.57,92.47,10.95,13.41,44.17,62.01,48.31,76.05,7.17,24.29-32.8-6.65-47.92-.36-22.46,9.35-143.14,176.34-117.43,217.23-2.5,3.53-59.54-45.06-70.85-49.66-20.79-8.46-47.24-6.28-66.39-16.3-16.54-8.66-67.32-78.31-83.34-68.81-37.78,39.12,43.34,70.81,64.94,100.98,62.52,87.31-67.06,91.12-119.89,54.34l11.38-19.75,49.71,5.25,7.67-33.38c-15.79-5.24-37.02-6.22-51.03-14.82-15.29-9.38-49.57-44.4-65.65-50.53-10.84-4.13-53.86,10.91-68.16,1.99-6.05-3.77-11.01-47.85-34.44-48.28l-4.47-12.51c-23.7,27.57,11.01,62.98,10.76,99.86-.18,26.57-18.69,49.73-14.43,75.41,4.97,29.93,83.78,78.75,82.47,96.87l-29.75,16.17c-18.12-3.4-16.86-32.13-18.31-33.52-1.52-1.46-17.14,6.03-27.45,3.86-12.98-2.73-64.52-23.52-71.36-33-29.94-41.45,3.72-84.8,8.64-126.57,10.19-86.5-33.05-191.15-110.33-232.98-15.12-8.18-25.63-3.53-30.47-5.3-2.6-.95-5.67-25.15-16.91-12.4-13.22,15,30.25,27.23,32.7,29.63,3.16,3.1.25,13.27,6.24,18.95,12.75,12.09,49.8,33.95,62.13,49.36,3.93,4.91,32.07,109.91,32.83,121.4,2.2,33.02-15.23,83.26-37.3,108.03-22.12,24.83-63.88,22.55-67.7,63.26l60.65,91.52c-23.05,17.91-112.58-106.84-157.54-81.67l-7.21,28.98c58.33,29.49,106.62,115.13,180.66,92.73,61.66-18.65-5.17-108.71-28.93-133.9l23.39-23.15c13.28,89.71,116.36,52.65,152.2,130.28l13.03.83c9.07-20.39,29.16-19.58,44.98-38.08,79.39-92.88-108.6-110.04-53.92-202.05,42.67-16.98,63.28.25,102.08,12.63,2.51,3.14-32.85,41.53-17.17,75.88,6.19,13.57,19.12,7.12,22.32,9.33,3.2,2.21,3.16,10.71,14.66,15.28,87.05,34.58,158.48,10.07,152.49-93.73,14.08-14.06,76.73,52.02,93.03,61.97,10.49,6.41,21.1,12.25,33.74,12.93,40.81-29.41,10.3-68.77,21.02-102.7,10.51-33.26,64.92-87.68,80.78-122.76,158.7,47.81,70.04-103.59,12.64-163.22-79.55-82.63-134.18-74.74-234.7-88.79-70.85-9.9-149.35-88.88-214.61-109.33-52.13-16.34-107.88-15.23-160.99-26.02l-13.38,14.46-4.37-12.71Z"/>
  <path class="cls-1" d="M727.49,162.89c-12.02-10.83-11.66-23.39-37.41-17.56-.97,33.78,44.6,59.7,48.21,93.51,9.2,86.35-109.08,110.25-137.78,27.12,13.38-23.06,45.95,5.36,61.1-4.44l6.88-28.78c-64.53-76.24-146.76,35.64-88.88,95.31,12.38,12.77,77.86,44.04,93.24,44.07,49.95.1,100.54-82.29,100.22-127.07-.17-23.58-27.86-66.19-45.58-82.16Z"/>
  <path class="cls-1" d="M892.98,389.38c26.47-27.69,33.16-42.7,30.56-83.19-1.93-29.92-16.53-48.25-23.46-12.65-3.29,16.9,10.81,49.05,2.19,63.96-4.73,8.17-49.2,18.29-53.79,46.05-5.14,31.09,39.26-8.67,44.51-14.16Z"/>
  <path class="cls-1" d="M980.38,311.62l-14.71,29.83,17.4,10.76c23.29-.02,36.57-50.89-2.69-40.59Z"/>
  <polygon class="cls-1" points="965.69 365.76 939.2 366.76 931.31 407.03 957.8 406.03 965.69 365.76"/>
  <path class="cls-1" d="M924.35,441.54l-34.04.37c-17.94,60.89,34.16,50.73,34.04-.37Z"/>
  <path d="M413.52,1.75l4.37,12.71,13.38-14.46c53.11,10.79,108.86,9.68,160.99,26.02,65.26,20.45,143.76,99.43,214.61,109.33,100.53,14.05,155.16,6.16,234.7,88.79,57.4,59.63,146.06,211.04-12.64,163.22-15.85,35.08-70.27,89.5-80.78,122.76-10.72,33.93,19.78,73.29-21.02,102.7-12.64-.68-23.25-6.52-33.74-12.93-16.3-9.95-78.96-76.03-93.03-61.97,6,103.8-65.44,128.31-152.49,93.73-11.51-4.57-11.46-13.07-14.66-15.28-3.2-2.2-16.13,4.24-22.32-9.33-15.68-34.36,19.68-72.75,17.17-75.88-38.8-12.38-59.42-29.61-102.08-12.63-54.68,92.01,133.31,109.17,53.92,202.05-15.82,18.5-35.91,17.69-44.98,38.08l-13.03-.83c-35.84-77.62-138.92-40.57-152.2-130.28l-23.39,23.15c23.76,25.2,90.58,115.25,28.93,133.9-74.04,22.4-122.33-63.24-180.66-92.73l7.21-28.98c44.95-25.17,134.49,99.58,157.54,81.67l-60.65-91.52c3.82-40.71,45.58-38.43,67.7-63.26,22.07-24.77,39.5-75,37.3-108.03-.76-11.49-28.91-116.48-32.83-121.4-12.32-15.42-49.37-37.28-62.13-49.36-5.99-5.68-3.08-15.85-6.24-18.95-2.45-2.4-45.92-14.63-32.7-29.63,11.24-12.75,14.31,11.45,16.91,12.4,4.84,1.77,15.35-2.88,30.47,5.3,77.28,41.83,120.52,146.48,110.33,232.98-4.92,41.77-38.58,85.12-8.64,126.57,6.85,9.48,58.38,30.27,71.36,33,10.31,2.17,25.93-5.31,27.45-3.86s.18,30.11,18.31,33.52l29.75-16.17c1.31-18.12-77.51-66.94-82.47-96.87-4.26-25.68,14.25-48.84,14.43-75.41.25-36.88-34.46-72.29-10.76-99.86l4.47,12.51c23.42.43,28.38,44.51,34.44,48.28,14.31,8.92,57.32-6.12,68.16-1.99,16.08,6.13,50.36,41.15,65.65,50.53,14.01,8.6,35.24,9.58,51.03,14.82l-7.67,33.38-49.71-5.25-11.38,19.75c52.82,36.79,182.41,32.97,119.89-54.34-21.6-30.17-102.72-61.86-64.94-100.98,16.02-9.5,66.8,60.15,83.34,68.81,19.15,10.02,45.6,7.84,66.39,16.3,11.31,4.6,68.35,53.19,70.85,49.66-25.71-40.89,94.97-207.88,117.43-217.23,15.12-6.3,55.09,24.65,47.92.36-4.14-14.04-37.36-62.63-48.31-76.05-24.9-30.51-96.42-85.55-134.57-92.47-33.23-6.03-60.35,11.96-92.82,3.28-80.74-21.58-179.91-119.47-259.63-138.73-35.06-8.47-156.14-16.23-191.7-9.66-17.38,3.21-14.34,18.39-25.51,23.08-17.13,7.19-43.78,4.34-64.99,10.33C122.97,108.62,51.97,235.48,36.17,376.79c-11.94,106.78,29.18,191.32,40.55,295.59,4.44,40.78-9.85,111.4,20.54,144.8,25.69,28.22,49.75-33.78,53.69-56.95,24.38-143.29-137.35-294.07-19.19-432.72l20.85,3.84c-28.09,35.12-41.36,177.69-7.28,203.2,3.45,2.58,34.9-6.24,41.03,14.86,4.32,14.87-18.73,49.25-19.55,68.29-1.05,24.25,17.61,57.74,19.66,83.03,4.71,58.13-65.8,233.27-124.9,131.45-31.53-54.33-14.17-120.5-20.09-179.71-5.73-57.25-35.29-116.53-40.4-173.19C-8.23,375.83,43.14,203.34,111.33,123.19,182.83,39.15,308.61,15.62,413.52,1.75Z"/>
  <path d="M727.49,162.89c17.73,15.97,45.41,58.59,45.58,82.16.33,44.78-50.27,127.16-100.22,127.07-15.38-.03-80.86-31.31-93.24-44.07-57.88-59.68,24.35-171.55,88.88-95.31l-6.88,28.78c-15.15,9.8-47.72-18.62-61.1,4.44,28.69,83.13,146.98,59.23,137.78-27.12-3.6-33.82-49.17-59.73-48.21-93.51,25.76-5.83,25.4,6.73,37.41,17.56Z"/>
  <path d="M892.98,389.38c-5.25,5.49-49.65,45.25-44.51,14.16,4.59-27.76,49.06-37.88,53.79-46.05,8.63-14.9-5.48-47.06-2.19-63.96,6.94-35.6,21.54-17.27,23.46,12.65,2.61,40.49-4.08,55.5-30.56,83.19Z"/>
  <path d="M924.35,441.54c.12,51.1-51.99,61.27-34.04.37l34.04-.37Z"/>
  <polygon points="965.69 365.76 957.8 406.03 931.31 407.03 939.2 366.76 965.69 365.76"/>
  <path d="M980.38,311.62c39.25-10.31,25.98,40.57,2.69,40.59l-17.4-10.76,14.71-29.83Z"/>
</svg>