<?xml version="1.0" encoding="UTF-8"?>
<svg id="Calque_1" data-name="Calque 1" xmlns="http://www.w3.org/2000/svg" viewBox="0 0 1207.15 1028.99">
  <defs>
    <style>
      .cls-1 {
        fill: #fff;
      }
    </style>
  </defs>
  <path class="cls-1" d="M160.48,946.8c60.28-129.43-8.55-255.05-21.82-381.64-5.43-51.77,5.55-70.6,43.22-103.79,109.75-17.04,219.66-29.33,329.89-42.85,20.28-2.49,42.41-12.16,63.34-14.28,43.2-4.37,87.78,2.44,131.31-10.94-16.22,28.77,6.58,40.9,10.15,59.68,4.74,24.97-8.46,58.57,8.85,80.34,25.35,16.41,33.23-10.34,45.53-10.65,12.26-.31,26.13,16.73,51.68,15.62,16.35-.71,51.22-16.51,61.69-14.51,15.84,3.03,24.12,42.78,49.76,35.03.82-52.88,25.38-132.22,1.07-179.52-10.67-20.76-32.34-32.91-40.72-44.67-9.41-13.21-16.3-35.48-27.81-51.17-42.62-58.09-125.81-92.16-191.16-118.15,20.12-43.62-37.52-68.33-46.02-101.33-2.25-8.74,8.58-10.22,14.88-12.17-.61,6.09-7.32,14.98-3.07,20.86,40.58,31.07,55.06-36.96,3.07-20.86,1.83-18.37-14.77-5-20.69-20.65,11.46,1.44,18.08,9.32,25.85-2.66-22.02-3.36.92-20.33,7.93-7.76-7.07,23.33,5.39,12.45,17.7,23.53,19.3,17.39,48.1,54.6,54.9,79.65,3.56,13.13-.51,57.47,25.43,52.06,10.52-2.2,3.34-39.59,1.42-47.86-9.57-41.16-22.62-35.6-40.09-58.21-20.54-26.59-31.87-64.85-70.4-69.45-26.46-3.16-48.27,9.96-48.24,37.71.05,54.45,52.49,66.04,56.52,117.06-35.62-4.11-70.25-17.74-106.15-20.58-104.57-8.26-201.83,24.09-289.8,77.6-29.18-19.46-59.35-38.18-95.16-41.94.94-19.44-4.83-80.18-28.99-82.6-35.97-3.6-87.63,94.26-94.6,126.12,34.1,54.19,86.6,69,92,140.65,2.07,27.39-17.91,66.03,12.86,74.94,18.71-4.3,14.04-77.6,10.78-93.39-10.34-50.2-60.54-76.36-85.42-115.85,11.72-39.22,31.43-76.44,59.27-106.29,22.37,25.81-14.06,73.48,20.67,85.85,5.25,1.87,27.84-1.95,45.14,3.52,13.57,4.29,62.41,29.82,68.6,40.23,4.5,7.56.18,28.73,20.7,25.6,15.2-2.33-4.67-33.03-6.33-38.9,1.21-15.39,130.91-65.76,152.69-68.45,49.83-6.15,45.28,18.08,77.13,39.2,34.04,22.58,47.5,15.45,81.04,18.36,35.36,3.07,90.36,22.62,91.48-33.05,75.91,23.13,149.74,71.44,196.74,137,5.3,7.39,4.23,17.1,8.04,23,10.98,16.99,32.59,33.82,37.21,55.91,7.88,37.62-10.93,85.89-4.04,125.58l-39.51-35.42c-30.75,9.39-57.75,25.98-91.25,18.72-14.89-3.23-27.01-22.66-40.07-6.75-3.14,5.29-8.85-2.77-9.63-5.6-8.31-30.39,10.3-32.99,32.89-43.58l10.85,15.28,22.79-7.28-20.85-26.24c-1.67-14.74,12.26-25.49,26.14-22.91-5.11,11.25-1.21,28.27,10.41,33.9,7.93,3.84,16.11-3.95,22.48-3.31,5.58.56,4.77,20.85,21.4,15.89,12.29-3.67,5.82-22.58,2.17-30.58l-23.05,3.52-7.74-11.78c-1.65-9.6,22.35-21.38,26.02-18.02,2.38,24.18,24.42,43.43,38.87,61.99,8.99-6.62,7.01-6.86,5.22-15.73-3.9-19.32-15.15-38.73-2.58-53.88-12.62-20.59-33.86,3.67-43.29,1.74-6.87-1.41-11.06-15.11-20.55-14.16-7.83.78-15.28,12.34-22.34,13.44-4.73.74-38.43,4.81-40.55,4.69-5.48-.3-20.89-14.71-33.73-8.4-1.57,1.38,13.42,25.13-7.72,25.88-8.89.32.57-34.95-16.44-40.61-143.97,5.74-291.2,15.67-432.96,41.42-41.39,7.52-115.53,16.68-142.37,49.08-76,91.75,38.99,284.97,14.88,397.38-1.6,7.48-.36,16.29-10.45,18.3l-.36-51.44-41.04-.3c12.19-93.08-41.26-236.61-1.11-319.23,7.16-14.74,26.99-33.24,31.99-50.83,2.9-10.2-7.62-9.44-12.81-7.72-14.63,4.84-50.38,88.18-53,107.52-11.51,85.12,32.47,227.67,3.32,298.21-15.73,38.06-118.21,131.4-53.23,168.05"/>
  <path class="cls-1" d="M1186.04,241.54c61.19-50.2-22.63-176.22-98.74-128.19l-3.08,21.2c41.02-14.69,88.11-11.85,101.27,36.19,16.24,59.28-79.97,66.86-118.16,84.07-27,12.16-60.6,31.32-44.9,65.76,17.8,4.06,21.75-16.95,35.8-28.31,33.67-27.2,102.25-29.76,127.81-50.73Z"/>
  <path class="cls-1" d="M701.23,310.45c25.3-22.61-110.31-51.55-121.61-51.68-19.26-.21-37,7.87-61.65,4.68-21.23-2.75-42.64-18.63-62.49-20.48-54.56-5.09-74.93,50.27-30.22,82.16,13.36,9.53,125.68,52.88,139.02,52.85,8.58-.02,12.67-.64,17.85-8.02-28.94-26.33-147.37-38.02-154.22-78.77-9.24-54.92,80.16-8.46,99.98-6.59,26.58,2.51,49.16-6.71,77-4.54,35.01,2.73,64.03,20.3,96.34,30.37Z"/>
  <path class="cls-1" d="M1010.33,347.82c-32.54,7.17-26.12,57.96,13.15,49.68,35.01-7.39,30.73-59.34-13.15-49.68Z"/>
  <path d="M21.37,1028.99c-64.98-36.65,37.5-129.99,53.23-168.05,29.15-70.54-14.83-213.09-3.32-298.21,2.62-19.33,38.36-102.68,53-107.52,5.19-1.72,15.71-2.48,12.81,7.72-5,17.6-24.83,36.09-31.99,50.83-40.14,82.63,13.31,226.15,1.11,319.23l41.04.3.36,51.44c10.08-2,8.84-10.82,10.45-18.3,24.11-112.4-90.88-305.63-14.88-397.38,26.84-32.4,100.98-41.56,142.37-49.08,141.76-25.75,288.99-35.67,432.96-41.42,17,5.65,7.55,40.92,16.44,40.61,21.14-.75,6.15-24.5,7.72-25.88,12.84-6.32,28.25,8.1,33.73,8.4,2.12.11,35.82-3.95,40.55-4.69,7.05-1.1,14.51-12.66,22.34-13.44,9.49-.95,13.68,12.75,20.55,14.16,9.43,1.93,30.67-22.34,43.29-1.74-12.56,15.14-1.31,34.55,2.58,53.88,1.79,8.87,3.76,9.11-5.22,15.73-14.45-18.56-36.49-37.8-38.87-61.99-3.66-3.36-27.67,8.42-26.02,18.02l7.74,11.78,23.05-3.52c3.65,8,10.12,26.92-2.17,30.58-16.64,4.96-15.82-15.33-21.4-15.89-6.37-.64-14.56,7.15-22.48,3.31-11.62-5.63-15.51-22.65-10.41-33.9-13.88-2.58-27.81,8.18-26.14,22.91l20.85,26.24-22.79,7.28-10.85-15.28c-22.6,10.59-41.21,13.19-32.89,43.58.78,2.84,6.49,10.89,9.63,5.6,13.06-15.92,25.18,3.52,40.07,6.75,33.5,7.26,60.5-9.33,91.25-18.72l39.51,35.42c-6.89-39.69,11.92-87.96,4.04-125.58-4.62-22.08-26.24-38.92-37.21-55.91-3.81-5.9-2.74-15.6-8.04-23-47.01-65.56-120.83-113.87-196.74-137-1.11,55.67-56.12,36.12-91.48,33.05-33.54-2.91-47,4.22-81.04-18.36-31.85-21.13-27.3-45.36-77.13-39.2-21.77,2.69-151.48,53.06-152.69,68.45,1.65,5.87,21.53,36.57,6.33,38.9-20.51,3.14-16.2-18.04-20.7-25.6-6.2-10.41-55.04-35.94-68.6-40.23-17.3-5.47-39.89-1.66-45.14-3.52-34.73-12.37,1.7-60.04-20.67-85.85-27.85,29.85-47.55,67.07-59.27,106.29,24.88,39.49,75.08,65.65,85.42,115.85,3.25,15.79,7.93,89.09-10.78,93.39-30.77-8.91-10.79-47.55-12.86-74.94-5.41-71.65-57.9-86.46-92-140.65,6.97-31.87,58.63-129.72,94.6-126.12,24.16,2.42,29.93,63.16,28.99,82.6,35.81,3.76,65.97,22.47,95.16,41.94,87.97-53.51,185.22-85.87,289.8-77.6,35.9,2.84,70.53,16.47,106.15,20.58-4.04-51.02-56.47-62.61-56.52-117.06-.03-27.75,21.78-40.86,48.24-37.71,38.53,4.6,49.86,42.86,70.4,69.45,17.47,22.61,30.52,17.05,40.09,58.21,1.92,8.27,9.11,45.66-1.42,47.86-25.94,5.41-21.87-38.93-25.43-52.06-6.8-25.06-35.6-62.27-54.9-79.65-12.31-11.09-24.77-.2-17.7-23.53-7.01-12.57-29.95,4.4-7.93,7.76-7.76,11.98-14.39,4.1-25.85,2.66,5.92,15.65,22.52,2.28,20.69,20.65,51.99-16.1,37.5,51.93-3.07,20.86-4.25-5.88,2.47-14.77,3.07-20.86-6.31,1.95-17.13,3.43-14.88,12.17,8.5,33.01,66.14,57.71,46.02,101.33,65.35,25.99,148.54,60.06,191.16,118.15,11.51,15.69,18.4,37.96,27.81,51.17,8.38,11.76,30.05,23.9,40.72,44.67,24.31,47.3-.26,126.64-1.07,179.52-25.64,7.74-33.92-32.01-49.76-35.03-10.47-2-45.34,13.8-61.69,14.51-25.56,1.11-39.43-15.94-51.68-15.62-12.31.31-20.18,27.06-45.53,10.65-17.31-21.77-4.11-55.37-8.85-80.34-3.56-18.78-26.37-30.91-10.15-59.68-43.53,13.39-88.1,6.57-131.31,10.94-20.93,2.12-43.06,11.79-63.34,14.28-110.23,13.53-220.14,25.81-329.89,42.85-37.67,33.2-48.65,52.03-43.22,103.79,13.27,126.59,82.1,252.21,21.82,381.64"/>
  <path d="M701.23,310.45c-32.32-10.07-61.33-27.64-96.34-30.37-27.85-2.17-50.43,7.05-77,4.54-19.81-1.87-109.22-48.33-99.98,6.59,6.86,40.74,125.28,52.44,154.22,78.77-5.18,7.38-9.27,8-17.85,8.02-13.34.03-125.66-43.33-139.02-52.85-44.71-31.89-24.33-87.26,30.22-82.16,19.84,1.85,41.26,17.73,62.49,20.48,24.65,3.19,42.39-4.89,61.65-4.68,11.29.12,146.9,29.07,121.61,51.68Z"/>
  <path d="M1186.04,241.54c-25.56,20.97-94.14,23.53-127.81,50.73-14.05,11.35-18.01,32.37-35.8,28.31-15.7-34.44,17.9-53.6,44.9-65.76,38.19-17.21,134.41-24.79,118.16-84.07-13.16-48.04-60.25-50.89-101.27-36.19l3.08-21.2c76.11-48.03,159.93,77.99,98.74,128.19Z"/>
  <path d="M1010.33,347.82c43.88-9.66,48.16,42.3,13.15,49.68-39.27,8.28-45.69-42.52-13.15-49.68Z"/>
</svg>