<?xml version="1.0" encoding="UTF-8"?>
<svg id="Calque_1" data-name="Calque 1" xmlns="http://www.w3.org/2000/svg" viewBox="0 0 1243.91 972.23">
  <defs>
    <style>
      .cls-1 {
        fill: #fff;
      }
    </style>
  </defs>
  <path class="cls-1" d="M1170.56,56.74c2.18-2.6,12.44-1.75,14.36-8.49,1.75-6.14-3.63-8.44-4.1-12.64-.7-6.21,6.18-9.29,3.46-18.27-3.22-10.67-29.35-18.56-40.11-17.18-1.12,6.44,1.72,3.41,5.05,4.54,11.34,3.84,38.87,10.14,21.96,24.95l-27.01-7.91c-1.27,13.15,18.53,12.66,25.83,16.24,3.45,1.69,8.15,9.56,1.11,9.72-10.25.24-29.85-9.66-31.26,4.21l19.43,4.35c1.54,8.41-14.1,3.44-12.95,12.91,6.24,2.7,14.74,2.52,20.05-2,3.85-3.28,2.3-8.2,4.16-10.43Z"/>
  <path class="cls-1" d="M1105.31,62.72c3.2-6.34-5.77-12.04-5.92-13.98-.16-2.13,4.64-5.66,3.42-12.44-1.9-10.58-12.32-7.72-19.53-10.88-15.11-6.64-23.19-15.32-42.13-4.17-7.35,4.33-9.4,12.68.39,11.35,1.31-.18,1.3-3.59,2.73-4.33,8.57-4.41,16.84-6.52,26.49-4.36,5.1,5.16-27.23,11.8-18.49,23.88,7.64,5.14,17.6.45,23.95-4.42,4.98-3.82,4.17-11.81,16.13-8.67,3.18,16.08-15.96,16.19-17.26,29.08,7.49,9.99,12.33-5.48,18.31-5.39l11.89,4.34Z"/>
  <path class="cls-1" d="M1031.93,177.1l19.46,35.58c0,1.66-36.06,16.63-18.35,18.51,7.2.76,45.52-21.01,53.53-26.45,4.65-3.16,10.58-7.47,14.51-11.39,4.32-4.3,16.75-16.5,5.36-18.4-13.08,14.67-26.33,25.91-45.22,32.49-26.42-35.06-31.11-76.62,6.39-105.82,21.3-16.59,62.28-25.74,78.74,1.05l-4.43,2.15,8.77,15.07c-1.97,3.78-14.47,7.07-15.02,7.73-4.27,5.1,9.78,11.63,13.85,11.87,3.75.22,8.23-3.19,12.2-2.3,4.52,1.01,10.39,7.75,18.59,9.18,17.15,2.99,21.93,1.6,27.6-14.59,7.58,4.04,19.06,7.98,23.64-2.2,3.39-7.52-1.62-14.51-1.05-15.03,2.23-2.03,21.38-4.09,9.65-17.22-3.25-3.64-8.79-2.59-9.62-6.51,22.49-11.41,5.93-22.92-12.96-19.47,3.18-14.24-16.96-4.08-25.4-2.7-3.25.53-6.51-1.8-9.71-1.16-9.03,1.81-28.4,24.45-26.63,35.26l3.39,3.96c10.12,3.59,11.94-1.69,17.26-3.89,1.58-.65,13.6-.76,17.31-2.48,8.89,4.58,24.21,9.61,28.6,19.11,1.92,4.17,2.37,4.97-1.6,8.01-8.87-16.82-18.81-27.58-37.75-16.14l10.78,11.82c-7.63-.19-14.03-9.33-21.05-10.43-4.09-.64-7.65,2.09-11.23.75-11.93-4.48-6.59-14.66-14.03-22.76-14.21-15.45-49.33-13.26-67.45-6.82-36.78,13.06-59.29,55.21-48.12,93.24-.62-1.73-7.1-4.1-9.6-4.42-54.68-7.14-142.61,52.17-186.65,83.36-29.86,21.15-68.56,48.79-95.18,73.17-13.6,12.44-24.17,27.63-38.8,38.91-.93,4.5,2.21,3.55,5.4,3.25,12.16-1.14,36.36-31.1,47.53-40.98,30.04-26.59,71.78-57.35,104.77-80.84,32.3-23.01,66.61-44.51,103.47-59.47-3.13,7.38-5.88,16.86-6.43,24.82-.65,9.35,2.14,16.44,2.11,23.71-.03,7.78-5.81,16.31-4.34,24.81l-10.69-22.15-6.53-3.73,4.5,29.97c5.29,2.72,6.26,1.05,10.57-1.92.89.97-8.26,16.31-9.09,16.78-2.28,1.3-6.82,0-10.2,1.64-12.03,5.81-26.38,13.58-38.26,20.06-33.32,18.16-60.21,44.46-97.35,53.73-10.47,2.62-32.19,2.26-40.2,7.28-.91.57-12.12,14.86-12.24,15.86-1.92,15.54,6.26,31.26,6.6,46.5-2.49-1.91-10-.19-10.43-.49-1.39-.99-.57-5.58-5.76-6.18-6.36-.73-7.59,5.03-10.81,6.66-5.38,2.72-.16-6.24-6.45-6.57-9.48-.51-9.58,6.96-18.34,6.57-.08-3.82,27.34-22.62,18.33-23.73h-14.02c8.59-9.57,24.26-10.59,36.68-12.95,1.9-5.7-5.86-5.68-6.46-6.51-.64-.89,8.22-10.14,2.24-14.06-16.29-4.51-30.79,6.71-46.28,9.57-2.19,2.79-3.49,9.31,2,8.94s18.91-8.58,26.35-10.39c2.17-.53,7.55-2.21,7.03,1.63-6.2.03-3.42,6.15-9.12,9.23-.93.5-15.24,5.39-16.24,5.54-4.83.74-8.37-1.98-12.19-1.62-10.52.98-28.85,7.95-34.63,17.2-2.09,3.35-7.42,18.32-.08,17.19,8.08-1.24,7.58-12.54,13.9-18.48,5.23-4.91,13.47-7.17,20.48-7.61l3.21,7.84,13.11.98c-7.51,9.46-25.07,13.45-23.76,28.02-5.44-2.15-3.22-17.98-11.92-10.85-5.63,8.69,7.63,19.37,5.45,21.64-7.01.9-7.96-9.55-11.43-12.28-9.03-7.1-15.89,6.03-14.45,14.44l7.24.04,3.52-4.33,2.19,6.41c-29.75,9.21-53.93,28.55-80.58,43.58-78.83,44.46-159.19,86.66-237.87,131.21-4.4,2.49-9.72,8.95-11.8,9.91-1.32.61-21.86-10.89-28.05-4.46,9.17,6.46,22.83,2.24,30.24,10.8-10.27,5.03-3.02,10.91,5.85,5.87,101.57-56.08,200.85-117.26,303.51-171.33,11.76-6.19,28.4-10.3,37.98-15.98,7.44-4.41,10.92-16.35,21.75-13.85-1.61,3.05-1,7.88,2.1,9.72,13.68,8.15,36.36-19.46,46.47-27,2.39,1.57-2.95,7.21,2.21,8.57,13.04,3.43,8.1-10.49,9.97-12.6.78-.89,4.59-.28,6.09-1.35,3.48-2.5,2.86-28.57,2.04-34.36-.99-6.97-4.96-10.17-6.27-16.37,10.32-1.21,64.39-12.78,68.52-17.96,1.05-1.32-.13-4.68,1.86-5.96,92.59-34.33,193.31-67.22,277.87-118.86,3.55-2.17,24.4-18.09,25.15-20.17l-4.3-2.14c1.53-4.07,14.81-12.14,15.14-13.36.52-1.92,1.3-8.87-3.23-7.12-11.15,8.8-24,17.14-36.36,24.08-8.05,4.52-33.98,14.33-38.11,18.01-1.94,1.74-3.67,2.95-1.17,5.46l4.4,4.22-35.63,15.08c4.93-19.39.21-22.79-19.43-21.56-2.43,7.77,11.67,5.32,12.95,6.48-2.8,8.41-2.88,15.18-.04,23.6-49.87,24.54-102.53,43.25-155.38,60.52,13.51-12.13,32.69-19.24,48.64-27.96,3.96-2.17,11.95-10.38,15-10.1,1.7.15,3.95,3.57,6.57,3.65,5.68.16,18.01-26.25,19.51-32.32,4.9-19.87-1.7-37.09,1.08-55.03,4.35-28.12,37.65-20.91,58.14-27.09-5.48,13.73-41.59,27.25-46.04,37.24-3.82,8.57,17,17.74,17.97,16.68l-5.51-15.08c6.67-9.78,44.92-25.29,40.06-38.86Z"/>
  <path class="cls-1" d="M1107.47,103.72l-1.06-8.57c-8.94,9.79-11.82-2.23-17.26-2.29-14.93-.18,12,18.15,14.98,18.61,6.57,1.02,21.73-4.91,29.24-5.61,3.13-3.11-.26-3.91-3.21-4.31-7.96-1.06-14.98,2.08-22.69,2.17Z"/>
  <path class="cls-1" d="M1085.87,101.67l-6.42-2.26-2.5,8.34-10.51.3v6.45c12.25,2.71,17.93.62,19.42-12.84Z"/>
  <path class="cls-1" d="M1094.5,120.99c-3.04,14.05,9.78,18.52,8.84,3.22-1.22-19.96-26.63-3.13-21.76,1.08l12.92-4.3Z"/>
  <path class="cls-1" d="M1131.22,116.7c-12.71-1.02-26.89-.89-18.33,15.08,2.28,4.26,3.98,9.32,9.72,5.38l-4.35-16.15c.93-.85,12.05,2.03,12.96-4.3Z"/>
  <path class="cls-1" d="M1098.83,164.14c-.91-15.34-15.59-24.26-30.2-21.56-1.42,7.68,9.57,2.67,15.75,6.35,5.39,3.21,3.96,16.82,14.45,15.21Z"/>
  <path class="cls-1" d="M1171.57,147.51c-5.66-6.99-19.33-4.7-27.39-4.93-1.06,6.5,1.6,3.46,5.24,4.36,3.64.9,13.57,1.53,15.41,4.11,7.59,10.66-24.11,21.01-30.5,21.53-.44.04-3.01-6.09-6.36-6.21l-5.37,12.88c13.22,2.78,65.91-10.82,48.98-31.74Z"/>
  <path class="cls-1" d="M1152.8,151.24c-13.33-6.39-18.74,2.93-21.57,15.06,11.4,3.75,11.04-8.98,13.28-10.46,3.02-2,10.06,2.9,8.29-4.6Z"/>
  <path class="cls-1" d="M1012.5,382.11c-7.34,22.91-21.69,42.18-28.68,65.2-5.96,19.62-6.43,47.6-13.4,64.29-10.95,26.21-31.02,56.37-41.59,83.58-7.02,18.07-8.84,37.57-15.53,55.69-4.77,12.93-14.46,24.31-15.36,38.48l4.46,3.48c-32.02-12.26-66.05-17.8-98.86-27.37-6.59-1.92-13.54-6.46-20.34-7.75-11.58-2.2-8.57,2.99-.66,7.17,27.94,14.77,86.97,26.27,121.43,38.29,4.69,1.64,26.44,5.51,26.46,8.03-14.22,34.26-39.81,62.92-54.29,96.75-8.9,20.79-24.67,92.19-33.08,102.88-.79,1-2.71,2.91-3.22,2.15,2.04-7.03-5.8-24.96-13.73-23.35-7.71,1.57-4.99,12.64-5.81,17.88-.85,5.41-6.65,5.27.09,11.92-5.98,4.91-40.52-9.63-40.96-1.07,13.35,28.37,81.46,88.87,90.6,27-13.04-2.65-11.12,10.58-18.5,17.2l-11.7-4.29,11.99-4.15c2.1-5.63,1.32-11.37-.74-16.81-1.64-4.32-17.56-20.32-15.57-22.17l11.92,3.64c10.91-1.22,20.2-62.85,24.97-66.05,1.93-1.3,6.85-1.62,6.24,2.98-1.86,14.06-12.01,32.26-13.03,47.47l3.65,5.33,11.56-2.01c-3.92,7.31-.99,25.54-11.81,25.86-2.6.08-19.92-12.74-18.42-3.19,1.21,7.73,22.36,17.24,29.31,12.01l150.14-224.36c17.29,5.59,87.33,5.57,97.91-6.76,6.29-7.33,7.59-32.81,10.85-43.1,2.47-7.78,8.97-16.5,12.23-24.45,26.67-64.88,36.91-112.44,45.17-181.43,1.45-12.07,8.32-27.2,8.58-39.09.35-16.18-9.55-32.5-8.83-49.52.62-14.63,9.01-24.6,12.34-37.41,8.33-32.11-19.86-101.53-35.22-131.85-3.73-7.37-13.16-26.24-22.41-20.76,21.12,41.08,42.91,82.91,47.21,129.76,2.38,25.98-10.62,35.49-12.66,58.02-1.87,20.67,8.25,34.3,7.33,53.16-.56,11.49-5.91,20.78-7.13,31.23-5.68,48.72-11.09,85.15-24.59,132.95-7.73,27.38-24.45,53.5-32.79,79.44-2.98,9.28-4.17,30.32-8.78,36.54-6.14,8.28-59.76,9.99-71.15,8.74-11.11-1.22-25.52-7.72-37.65-9.84-32.58-5.7-67.15,5.5-96.54-2.75-4.15-1.16-7.34-3.87-11.5-4.72-.71-1.04,4.97-5.65,6.16-7.83,17.44-31.79,19.44-63.83,32.66-94.67,10.96-25.56,30.47-55.41,39.91-80.95,6.86-18.54,8.23-41.09,14.08-60.37-7.66,18.81,29.09,2.85,36.69,2.13.83-9.38-11.07-4.07-16.07-4.2-4.78-.12-17.57-5.43-20.62,2.08,1.94-6.41,2.77-12.62,5.43-19.38,6.4-16.21,19.1-31.21,18.3-49.67h-6.46c33.23-10.36,82.35-26.76,113.69-40.63,11.52-5.1,21.5-12.77,33.07-17.66.15-4.08-9.3-2.19-11.37-1.65-10.15,2.68-23.97,10.95-34.94,14.7-106.46,36.44-197.23,61.39-307.79,82.89-8.84,1.72-28.55,5.94-36,9.32-2.93,1.32-3.4.22-2.73,4.81,17.54,4.6,34.72-5.06,51.33-8.01,65.55-11.67,130.89-23.85,194.75-43.76Z"/>
  <path class="cls-1" d="M913.2,412.34c-8.13-1.34-12.04,7.79-15.46,13.66-10.43,17.87-14.87,42.92-23.69,62.63-24.66,55.11-73.97,114.61-113.24,160.85-2.82,3.32-16.79,10.46-11.6,17.45,5.74,7.74,28.45-20.18,32.35-24.77,30.01-35.3,57.92-74.14,83.04-113.36l82.06-60.29c-.82-7.74-2.81-16.83-12.44-14.85-3.98.82-44.5,32.78-46.88,29.88l25.87-71.2Z"/>
  <path class="cls-1" d="M284.5,510c-2.19-2.08-7.55-2.02-9.2-4.83-2.43-4.16.68-9.22-4.08-15.34-7.95-10.21-28.9-12.65-40.59-7.86-2.53,1.04-16.61,11.88-16.74,13.43-.72,8.45,17.4-6.35,18.89-6.96,8.89-3.68,26.88-3.6,33.02,4.65,8.26,11.1-7.35,9.05-13.14,10.91-10.06,3.23-32.45,9.67-27.79,23.48,3.67,10.88,29.14-3.97,35.03-7.6,10.69-6.59,16.68-18.47,16.43,6.72-29.3,1.18-17.15,22.02,3.35,6.61,8.83,5.19-3.96,22.29,4.33,25.83,5.65,2.41,4.26-.43,5.55-3.07,3.22-6.57,5.63-13.5,3.18-20.76-.98-2.91-4.46-5.2-5.07-7.96-.98-4.42,2.99-11.4-3.19-17.26Z"/>
  <path class="cls-1" d="M1118.25,546.12c.26-3.03.16-5.7-1.14-8.55-2.68-5.88-19.49-32.6-23.85-36.58-7.15-6.53-24.06-11.53-19.97,2.62.71,2.45,17.26,20.61,20.67,26.9,6.88,12.69,11.15,29.74,15.88,43.45l10.61-3.07-8.62-23.72,6.43-1.04Z"/>
  <path class="cls-1" d="M340.55,554.08c1.22-.87,2.04-4.09,3.85-5.75,4.35-3.99,12.83-6.26,11.99-13.93-.31-2.81-3.43-4.94-3.76-6.98-.45-2.82,2-5.96,1.15-9.86-1.55-7.13-11.42-14.29-19.04-12.43l12.93,13.98c-1.42,6.51-15.88-1.78-22.46,3.09-12.49,9.23,22.79,5.68,22.46,14.17-1.35,6.27-28.29-3.74-28.02,11.84l6.45,4.35c-7.7,1.82-25.84,2.38-23.75,12.96,3.44,3.49,33.2-7.85,38.21-11.45Z"/>
  <path class="cls-1" d="M205.87,554.09c-3.11-2.36-3.4-9.22-10.5-10.19-10-1.36-20.7,6.51-18.19,17.33,6.75-3.85,9.89-13.01,19.39-10.78,3.13,2.63-10.68,12.66-11.81,15.14-8.14,17.96,19.93,16.92,18.31-2.2,3.94-1.26,11.36,2.96,10.6,7.26-3.23,4.85-9.9,7.22-8.46,14.3,9.61,3.71,11.42-5.03,21.56,2.16,2.35-1.85-1.9-18.5-3.31-21.48-3.14-6.65-12.52-7.68-17.61-11.54Z"/>
  <path class="cls-1" d="M278.55,567.8c-12.28-7.2-15.96,3.4-23.1,5.88-3.94,1.36-7.54-.31-12.59,2.52-8.44,4.73-18.29,28.59-29.06,34.05-1.51,2.71-3.13,6.52-1.15,9.32,8.6,12.13,27.75-23.31,31.42-19.49-2.84,10.99-17.86,14.59-14.97,27.91,12.92,6.02,21.03-6.85,31.24-14.91,6.42-5.08,20.58-7.56,13.99-19.42l12.89-7.63-10.7-5.47,2.05-12.77Z"/>
  <path class="cls-1" d="M977.78,574.36l-12.91-1.43c-4.63,7.51-2.17,18.53,4.32,24.04,5.05,4.29,15.25,8.7,15.23-1.17l-9.86-8.55,3.21-12.89Z"/>
  <path class="cls-1" d="M343.34,582.82c-4.8-5.89-11.14,2.47-12.84,3.12-3.12,1.18-17.48-.75-23.14,5.12l-39.55,28.41,25.9-2.15c-5.81-10.8,7.16-13.27,14.08-19.38l1.04,6.43,17.25-3.23c-5.68,10.6-18.44,13.75-28.71,18.34l-1.48,6.48c12.4-3.79,30.58-10.05,37.66-21.66,3.78-6.19,2.17-11.62,3.84-14.55.69-1.22,9.03-3.16,5.96-6.92Z"/>
  <path class="cls-1" d="M215.75,636.53l1.44-6.31c-6.61-8.02-16.23-6.61-25.63-6.5-11.84,13.72,15.34,13.51,24.19,12.8Z"/>
  <path class="cls-1" d="M187.59,647.23l2.39-7.04c-11.2-9.63-40.55-10.67-49.71,1.96-1.46,2.01.04,4.78-.25,5.07-3.27,3.39-22.01,3.19-18.69,15.16,10.4,7.97,18.65,2.86,29.8.31l2.27,6.42c-10.77,3.83-22.74-.84-30.21,9.77-1.51,7.03,13.23,6.39,17.24,3.21,1.74,7.2-9.42,4.28-10.77,10.77,5.22.72,15.54-8.6,19.41-2.16-5.04-.68-40.14,18.36-34.51,23.75l48.6-25.84-.07-4.38-9.67,4.34c-.84-10.28,15.63-2.93,15.06-11.88-.16-2.47-7.15-1.94-6.44-5.36,9.4.04,18.31-2.46,21.26-12.27l-12.62-11.46,16.91-.34Z"/>
  <path class="cls-1" d="M289.4,647.55c7.78.74,14.07,4.33,20.54,8.62l-3.27,6.47,10.78.03-4.45,13.85,4.58,2.36-4.63,11.63c-7.97-4.95-12.11,7.82-14.92,14.18,4.59,6.34,6.23,1.54,10.78-1.03v9.7c12.79,5.21,8.89-16.49,11.18-23.43.95-2.89,4.97-3.05,6.17-5.11,1.98-3.43,9.3-17.99,8.45-20.82-9.84-6.12-20.19-7.12-29.04-16.44-2.95-4.83,7.72,2.61,7.54-3.25-.09-2.95-11.7-6.58-15.07-5.37l4.32,6.43-17.27-4.27c-.44.33,3.44,5.41,4.32,6.45-2.15-.2-7.49-.86-8.62,1.07l10.78,9.7-16.19-6.49-3.24,4.32,30.2,12.97-1.76-6.23,3.93-1.31c-4.35-5.5-10.6-8.72-15.1-14.04Z"/>
  <path class="cls-1" d="M250.54,660.52c6.19,5.28,16.1,21.5,22.28,24.14,2.85,1.21,5.87.96,5.74-1.5-.1-1.83-22.66-24.56-28.02-22.64Z"/>
  <path class="cls-1" d="M289.39,673.43c3.61-3.22-11.89-11.7-15.09-10.77-1.42,5.24,13.18,12.47,15.09,10.77Z"/>
  <path class="cls-1" d="M779.39,727.38c4.91-13.24,21.5-24.92,24.95-38.74.96-3.83,1.02-3.92-2.3-6.52-7.54,5.02-9,13.91-14.03,20.46-30.35,39.56-67.12,75.91-99.24,114.43-2.79,3.35-5.65,7.47-6.56,11.8l-11.95-19.29c-2.14-1.51-8.73-5.98-10.76-2.35-2.5,5,0,10.82-1.04,15.86-.35,1.71-4.34,1.44-5.52,5.56-7.68,26.7,41.11,59.74,24.98,13.2,5.61-5.22,22.85,19.39,23.65,24.78l-8.57,22.67c-3.31.19-2.66-4.22-5.31-6.51-19.38-16.75-45.38-28.72-61.57-50.67l15.1,3.23c3.51-2.62-19.94-10.17-22.83-10.62-3.19-.49-6.1-1.45-5.21,3.06,15.37,9.73,24.21,26.01,37.82,37.73,6.16,5.31,31.01,24.67,36.93,27.82,12.79,6.79,15.96-10.8,21.07-21.53,6.61-13.87,7.99-10.14,18.6-20.22,49.84-47.37,97.44-96.83,142.38-148.95-5.17-9.28-13.79,4.16-15.01,3.25l-5.37-6.56-20.57,13.02,8.45-23.52c-11.33-6.96-13.32,9.41-23.56,10.58-1.63-1.68,12.45-16.45,3.26-12.91-7.75,2.98-20.82,23.71-27.1,31.18-2.9,3.45-6.02,10.34-10.7,9.78Z"/>
  <path class="cls-1" d="M177.15,684.25c-10.04.28-16.48,12.1-23.72,18.35-8.58,7.41-25.01,18.12-31.42,26.86-2.17,2.95-4.08,4.35-3.13,8.71,5.33,5.33,23.48-20.22,26.54-23.06,2.22-2.06,6.44-2.37,9.08-4.95,8.27-8.07,16.3-16.18,22.65-25.91Z"/>
  <path class="cls-1" d="M300.19,688.57c-7.23-6.97-27.32,18.41-16.15,23.69l16.15-23.69Z"/>
  <path class="cls-1" d="M277.99,688.97c-5.62,1.43-15.12,9.43-6.94,14.64l13.99-11.83c-2.3-2.87-3.17-3.8-7.05-2.82Z"/>
  <path class="cls-1" d="M183.62,692.88c-3.17-3.37-17.19,15.28-15.09,17.24l25.89,2.15c-2.94-7.55-11.56-1.65-17.26-4.32l6.46-15.07Z"/>
  <path class="cls-1" d="M198.73,697.19c-5.52-.89-11.1,2.88-10.77,8.61,1.24,1.26,14.32-5.62,10.77-8.61Z"/>
  <path class="cls-1" d="M216.04,710.12l-7.56-12.97.08,10.89-9.8,3.14c3.16,4.22,8.63,2.46,12.82,4.44,6.3,2.99,8.86,9.49,19.56,6.41l-.03-7.6,41.02-5.39-21.55-11.88,4.3,10.77-17.27-6.43,4.31,6.43-9.37,2.37c-3.26-5.72-7.51-8.61-14.36-8.8l-2.14,8.61Z"/>
  <path class="cls-1" d="M326.08,731.7c6.28-5.87-22.44-12.68-24.73-13.05-1.44-.24-7.85-3.39-7.59,1.19.16,2.87,27.52,10.48,32.32,11.86Z"/>
  <path class="cls-1" d="M312.5,734.5c-1.61-1.49-19.34-9.82-18.74-3.87.12,1.2,18.28,12.06,21.54,9.69-.74-1.64-1.75-4.85-2.8-5.82Z"/>
  <path class="cls-1" d="M142.61,731.72l-12.94,8.6c1.9.62,17.03-5.14,12.94-8.6Z"/>
  <path class="cls-1" d="M317.46,751.11c-5.49-8.02-15.2-10.12-23.72-12.93-.53,12.9,13.61,13.88,23.72,12.93Z"/>
  <path class="cls-1" d="M135.41,823.79c5.54-7.91,6.26-26.56,7.18-37.07.65-7.39,2.71-26.43,2.37-32.37-.49-8.52-8-10.88-10.52-3.83-1.71,4.79-3.77,17.85-4.52,23.53-1.71,12.85-2.44,29.3-.28,41.82-6.1-3.39-8.92-1.99-12.92,3.25l4.3,2.14c-5.92,4.13-10.22,5.64-8.62,14.03l8.6-2.15c2.7,3.61-4.86,46.76,12.96,47.46-.35-10.67-2.42-22.86-2.35-33.44.05-7.94,6.27-17.37-1.95-19.41.99-1.83,4.48-2.16,5.74-3.96Z"/>
  <path class="cls-1" d="M326.7,776.44c-1.88-1.64-1.78-5.91-3.93-7.92-1.58-1.48-20.03-16.89-16.09-7.71,1.39,3.23,13.96,14.05,17.23,17.93,16.06,19.06,37.34,52.02,56.27,66.13,10.49,7.82,30.76,13.2,32.23,29.25-3.08.19-6.13.09-9.19-.5-6.5-1.24-57.63-37.75-63.98-43.93-10.65-10.37-21.93-38.76-34.79-53.69-5.09-5.91-9.18-12.73-17.19-14.09-.74,3.65,1.77,5.72,3.44,8.41,16.86,27.11,36.4,52.63,49.59,82.06l28.96,39.01c-22.99,3.04-25.62-17.87-36.69-31.28-2.67-3.23-22.95-22.19-25.89-23.75-2.19-1.16-4.05-1.36-6.46-1.08l-19.46,48.51c.95,4.67,27.47,2.66,33.44,3.32,3.15.35,12.92.94,14.04,4.25-33.78,5.55-68.14-1.61-102.49.05-29.76,1.44-59.65,8.64-89.61,8.62-3.14,9.38,12.8,9.06,20.46,8.61,30.76-1.81,65.79-11.1,97.2-10.96,15.23.07,72.28,11.24,81.14-.69,2.22-2.99,2.04-6.45,1.97-9.92,7.49,10.63,48.24,18.62,42.3-.06-1.9-5.97-36.34-37.38-31.51-43.1,21.59,15.83,41.57,39.88,70.88,38.51,6.86-10.39,3.13-16.49-4.76-24.8-11.75-12.38-26.91-16.94-41.57-32.8-17.13-18.53-26.49-31.73-45.56-48.4Z"/>
  <path class="cls-1" d="M248.38,779.21c-10.67-5.37-34.19,4.98-36.13,16.55-.21,1.23,1.4,6.9,1.7,7.1,5.41,3.69,13.05-12.01,18.18-15.12,5.38-3.26,13.51-1.98,16.25-8.54Z"/>
  <path class="cls-1" d="M228.97,805.07c3.11.34,5.29,2.18,8.67,1.29,1.21-.32,19.24-12.91,20.54-14.13,5.95-5.63,3.21-13.11-4.9-9.23-3.51,1.68-27.16,18.31-24.32,22.07Z"/>
  <path class="cls-1" d="M266.99,787.97c-3.26.94-5.14,5.08-1.39,7.45,2.58-1.01,21.94,8.53,21.59,2.11-4.04-4.64-14.06-11.32-20.2-9.56Z"/>
  <path class="cls-1" d="M298.03,809.42c-9.21-3.07-19.84-.89-19.42,10.76,1.87,1.9,12.77-3.98,15.14-5.42,2.71-1.65,5.46.43,4.28-5.34Z"/>
  <path class="cls-1" d="M73.07,868.07c-15.73-8.03-27.46-23.12-42.9-31.5-3.8-2.06-4.98-5.22-8.39-.2l17.22,16.16-18.33-6.47-1.08,4.29,25.87,17.28-29.14-10.75c-2.34.64-1.14,5.01-.05,6.53,2.74,3.83,32.87,14.49,38.93,15.05,3.2.3,6.29,1.31,5.37-3.22l-12.93-5.45,5.39-6.36c5.01,6,23.2,18.69,20.03,4.63Z"/>
  <path class="cls-1" d="M59.56,841.76c-3.27.46-2.99,2.56-1.13,5.4,2.97,4.56,34.73,32.85,38.99,34.6,4.16,1.7,6.75-1.08,9.34-.63,1.86.32,12.25,12.12,14.27,2.69.74-3.44-17.33-16.42-20.88-18.02-5.85-2.64-8.68-.63-12.69-2.24-7.97-3.2-20.67-22.81-27.89-21.79Z"/>
  <path class="cls-1" d="M43.31,895.71l.14-13.97c-13.61-5.78-28.32-13.87-43.28-14.06-.93,4.95,2.28,4.88,5.48,6.37,8.48,3.97,20.23,6.54,29.03,10.91.5,3.85-4.86,2.1-7.26,1.87-5.24-.49-10.67-3.14-16.45-1.89-6.74,5.99,28.47,12.7,32.35,10.77Z"/>
  <path class="cls-1" d="M103.76,895.75c-10.14-6.67-16.49,7.87-23,8.26-2.86.17-5.08-3.64-8.23-3.85-4.29-.28-9.99,4.84-14.88,4.31-1.49-.16-1.17-4.46-5.45-5.66-5.62-1.58-12.71-1.21-18.57-.89-3.53.19-27.26,2.26-22.67,8.58,13.09,4.23,26.95-2.16,40.99.05l-25.88,16.17c12.89,7.84,29.2-10.01,43.16-11.86-1.7,3.78-28.61,18.06-11.78,17.36,9.13-.38,19.61-12.77,24.28-10.37.47.24.3,3.29,1.77,3.88,3.73.8,31.79-14.12,34.35-17.31,1.28-1.6,1.29-2.39,1.02-4.35l-21.57,4.28,6.47-8.58Z"/>
  <path d="M995.23,451.17c-5.85,19.28-7.22,41.83-14.08,60.37-9.44,25.53-28.95,55.39-39.91,80.95-13.22,30.84-15.22,62.89-32.66,94.67-1.2,2.18-6.87,6.8-6.16,7.83,4.16.85,7.35,3.56,11.5,4.72,29.39,8.25,63.96-2.95,96.54,2.75,12.13,2.12,26.54,8.61,37.65,9.84,11.39,1.26,65.01-.46,71.15-8.74,4.61-6.22,5.8-27.26,8.78-36.54,8.33-25.93,25.05-52.05,32.79-79.44,13.5-47.8,18.91-84.23,24.59-132.95,1.22-10.45,6.56-19.73,7.13-31.23.93-18.86-9.2-32.48-7.33-53.16,2.04-22.53,15.04-32.03,12.66-58.02-4.3-46.85-26.08-88.68-47.21-129.76,9.25-5.48,18.68,13.39,22.41,20.76,15.36,30.32,43.55,99.73,35.22,131.85-3.32,12.81-11.72,22.79-12.34,37.41-.72,17.02,9.18,33.34,8.83,49.52-.26,11.88-7.13,27.02-8.58,39.09-8.27,68.99-18.5,116.54-45.17,181.43-3.27,7.95-9.77,16.68-12.23,24.45-3.26,10.29-4.56,35.77-10.85,43.1-10.57,12.33-80.62,12.35-97.91,6.76l-150.14,224.36c-6.95,5.23-28.1-4.28-29.31-12.01-1.5-9.55,15.83,3.27,18.42,3.19,10.82-.32,7.9-18.55,11.81-25.86l-11.56,2.01-3.65-5.33c1.03-15.21,11.18-33.41,13.03-47.47.61-4.61-4.31-4.28-6.24-2.98-4.77,3.2-14.06,64.82-24.97,66.05l-11.92-3.64c-1.99,1.85,13.93,17.85,15.57,22.17,2.06,5.44,2.85,11.18.74,16.81l-11.99,4.15,11.7,4.29c7.38-6.62,5.46-19.85,18.5-17.2-9.14,61.87-77.25,1.37-90.6-27,.44-8.56,34.98,5.98,40.96,1.07-6.74-6.65-.94-6.51-.09-11.92.82-5.24-1.9-16.31,5.81-17.88,7.92-1.61,15.77,16.32,13.73,23.35.51.76,2.43-1.15,3.22-2.15,8.41-10.69,24.18-82.09,33.08-102.88,14.48-33.83,40.07-62.49,54.29-96.75-.02-2.52-21.77-6.39-26.46-8.03-34.46-12.01-93.49-23.52-121.43-38.29-7.91-4.18-10.92-9.37.66-7.17,6.8,1.29,13.75,5.83,20.34,7.75,32.81,9.57,66.84,15.11,98.86,27.37l-4.46-3.48c.9-14.18,10.58-25.55,15.36-38.48,6.69-18.12,8.51-37.62,15.53-55.69,10.57-27.21,30.64-57.37,41.59-83.58,6.97-16.69,7.44-44.67,13.4-64.29,6.99-23.03,21.34-42.29,28.68-65.2-63.86,19.91-129.2,32.09-194.75,43.76-16.61,2.96-33.79,12.61-51.33,8.01-.66-4.59-.19-3.48,2.73-4.81,7.45-3.37,27.17-7.6,36-9.32,110.55-21.49,201.32-46.44,307.79-82.89,10.97-3.75,24.79-12.02,34.94-14.7,2.07-.55,11.53-2.44,11.37,1.65-11.57,4.9-21.55,12.57-33.07,17.66-31.35,13.87-80.47,30.27-113.69,40.63h6.46c.8,18.46-11.9,33.46-18.3,49.67-2.67,6.76-3.49,12.98-5.43,19.38,3.05-7.5,15.84-2.2,20.62-2.08,5,.13,16.9-5.17,16.07,4.2-7.6.72-44.34,16.68-36.69-2.13ZM1021.09,712.35c-28.36-7.94-57.37-5.84-86.3-2.16,1.47,11.17-9.74,22.73-10.76,34.47,7.76-12.21,18.51-8.26,25.92-11.83,4.99-2.4,9.71-18.91,21.55-11.9l-2.15,8.62,7.52-4.39c11.57,2.33-1.53,12.31,2.16,19.49,4.29-4.73,14.15-26.57,19.73-27.66,11.47-2.22,6.35,12.68,5.7,18.6-.24,2.19-2.21,5.31,1.53,4.74,3.41-10.16,15.64-16.28,15.09-27.97ZM984.42,757.61c-23.09,24.13-35.55,55.7-54.31,82.71-2.82,4.05-6.59,6.59-9.35,10.08-1.77,2.24-5.09,5.67.04,6.47,3.88.6,4.96-4.03,6.68-6.23,12.25-15.63,31.08-42.99,41.47-59.97,5.94-9.71,11.41-22.35,15.47-33.06ZM941.29,798.61c4.69-2.52,8-10,8.59-15.1-4.69,2.52-8,10-8.59,15.1ZM926.18,824.5c4.02-1.58,6.67-6.94,6.43-10.79-4.02,1.58-6.67,6.94-6.43,10.79ZM835.5,912.96l-6.45-15.07c-1.42,2.25,1.62,20.18,6.45,15.07ZM826.77,923.87c-6.04-.09-12.22-.35-18.28-.1-2.62.11-8.02-1.63-7.52,2.14l23.73,4.36-6.16,11.86,16.96,9.67-8.73-27.93Z"/>
  <path d="M1031.93,177.1c-11.17-38.03,11.34-80.18,48.12-93.24,18.13-6.44,53.25-8.63,67.45,6.82,7.45,8.1,2.11,18.28,14.03,22.76,3.57,1.34,7.14-1.39,11.23-.75,7.02,1.1,13.42,10.24,21.05,10.43l-10.78-11.82c18.95-11.44,28.88-.68,37.75,16.14,3.97-3.04,3.53-3.85,1.6-8.01-4.39-9.5-19.7-14.53-28.6-19.11-3.71,1.72-15.73,1.83-17.31,2.48-5.32,2.2-7.14,7.48-17.26,3.89l-3.39-3.96c-1.77-10.81,17.6-33.45,26.63-35.26,3.19-.64,6.45,1.69,9.71,1.16,8.44-1.38,28.58-11.53,25.4,2.7,18.89-3.45,35.45,8.07,12.96,19.47.83,3.92,6.36,2.87,9.62,6.51,11.73,13.13-7.42,15.19-9.65,17.22-.57.52,4.44,7.51,1.05,15.03-4.58,10.17-16.06,6.24-23.64,2.2-5.67,16.19-10.45,17.58-27.6,14.59-8.2-1.43-14.07-8.17-18.59-9.18-3.97-.89-8.45,2.52-12.2,2.3-4.07-.24-18.12-6.78-13.85-11.87.55-.66,13.05-3.95,15.02-7.73l-8.77-15.07,4.43-2.15c-16.46-26.79-57.44-17.64-78.74-1.05-37.5,29.2-32.81,70.77-6.39,105.82,18.89-6.58,32.14-17.82,45.22-32.49,11.39,1.91-1.04,14.11-5.36,18.4-3.93,3.91-9.86,8.23-14.51,11.39-8.01,5.44-46.33,27.21-53.53,26.45-17.71-1.88,18.35-16.86,18.35-18.51l-19.46-35.58c4.87,13.57-33.39,29.08-40.06,38.86l5.51,15.08c-.97,1.07-21.79-8.11-17.97-16.68,4.45-10,40.56-23.52,46.04-37.24-20.49,6.18-53.79-1.03-58.14,27.09-2.78,17.93,3.82,35.15-1.08,55.03-1.5,6.07-13.82,32.48-19.51,32.32-2.62-.07-4.87-3.49-6.57-3.65-3.05-.28-11.04,7.94-15,10.1-15.94,8.72-35.13,15.83-48.64,27.96,52.85-17.28,105.51-35.99,155.38-60.52-2.83-8.42-2.76-15.19.04-23.6-1.28-1.16-15.38,1.29-12.95-6.48,19.63-1.23,24.35,2.17,19.43,21.56l35.63-15.08-4.4-4.22c-2.5-2.51-.77-3.73,1.17-5.46,4.12-3.68,30.06-13.49,38.11-18.01,12.36-6.95,25.21-15.28,36.36-24.08,4.53-1.75,3.75,5.2,3.23,7.12-.33,1.22-13.6,9.29-15.14,13.36l4.3,2.14c-.75,2.09-21.6,18.01-25.15,20.17-84.56,51.64-185.28,84.53-277.87,118.86-1.98,1.29-.8,4.64-1.86,5.96-4.13,5.18-58.21,16.75-68.52,17.96,1.31,6.2,5.28,9.4,6.27,16.37.82,5.78,1.44,31.85-2.04,34.36-1.49,1.08-5.3.47-6.09,1.35-1.87,2.11,3.07,16.03-9.97,12.6-5.16-1.36.18-7.01-2.21-8.57-10.11,7.54-32.79,35.15-46.47,27-3.1-1.85-3.72-6.68-2.1-9.72-10.83-2.5-14.31,9.44-21.75,13.85-9.59,5.68-26.22,9.78-37.98,15.98-102.66,54.07-201.94,115.25-303.51,171.33-8.86,5.04-16.11-.84-5.85-5.87-7.41-8.56-21.07-4.34-30.24-10.8,6.19-6.43,26.73,5.07,28.05,4.46,2.09-.96,7.4-7.42,11.8-9.91,78.68-44.55,159.05-86.75,237.87-131.21,26.65-15.03,50.82-34.37,80.58-43.58l-2.19-6.41-3.52,4.33-7.24-.04c-1.44-8.4,5.42-21.54,14.45-14.44,3.47,2.73,4.42,13.18,11.43,12.28,2.18-2.27-11.08-12.95-5.45-21.64,8.7-7.13,6.47,8.7,11.92,10.85-1.32-14.57,16.25-18.56,23.76-28.02l-13.11-.98-3.21-7.84c-7.01.45-15.25,2.7-20.48,7.61-6.33,5.94-5.82,17.24-13.9,18.48-7.34,1.13-2.01-13.84.08-17.19,5.78-9.25,24.11-16.21,34.63-17.2,3.82-.36,7.37,2.36,12.19,1.62,1-.15,15.31-5.04,16.24-5.54,5.7-3.08,2.92-9.21,9.12-9.23.53-3.84-4.86-2.16-7.03-1.63-7.44,1.81-20.92,10.02-26.35,10.39s-4.19-6.15-2-8.94c15.49-2.86,29.99-14.08,46.28-9.57,5.98,3.92-2.88,13.17-2.24,14.06.6.84,8.36.81,6.46,6.51-12.42,2.36-28.09,3.38-36.68,12.94h14.02c9,1.12-18.42,19.92-18.33,23.74,8.76.39,8.87-7.08,18.34-6.57,6.29.34,1.07,9.3,6.45,6.57,3.22-1.63,4.45-7.38,10.81-6.66,5.19.59,4.37,5.19,5.76,6.18.43.3,7.94-1.42,10.43.49-.34-15.24-8.52-30.96-6.6-46.5.12-.99,11.33-15.28,12.24-15.86,8.01-5.02,29.72-4.67,40.2-7.28,37.14-9.28,64.03-35.57,97.35-53.73,11.88-6.48,26.22-14.25,38.26-20.06,3.38-1.63,7.92-.34,10.2-1.64.83-.47,9.98-15.8,9.09-16.78-4.31,2.97-5.27,4.64-10.57,1.92l-4.5-29.97,6.53,3.73,10.69,22.15c-1.48-8.5,4.3-17.02,4.34-24.81.03-7.28-2.76-14.36-2.11-23.71.55-7.96,3.3-17.45,6.43-24.82-36.86,14.96-71.17,36.46-103.47,59.47-32.99,23.5-74.73,54.25-104.77,80.84-11.17,9.89-35.37,39.85-47.53,40.98-3.19.3-6.33,1.25-5.4-3.25,14.63-11.28,25.21-26.46,38.8-38.91,26.63-24.37,65.32-52.01,95.18-73.17,44.04-31.2,131.97-90.51,186.65-83.36,2.49.33,8.98,2.69,9.6,4.42ZM1226.19,82.17c-5.54-.35-12.71.72-15.11,6.43,5.54.35,12.71-.72,15.11-6.43ZM1232.66,105.87c-.83-9.3-10.71-9.21-17.25-6.44,3.03,6.53,11.1,6.84,17.25,6.44ZM1193.82,138.23c-4.09-7.2-14.79-12.8-22.32-15.48-10.1-3.59-3.29,11.47,5.17,14.31,5.84,1.96,11.21,1.24,17.15,1.17ZM759.93,408c-1.66-8.7,6.94-25.18-6.44-28.03l6.44,28.03ZM729.73,436.08c-2.55-2.25-11.91,8.04-12.95,10.75,2.75,2.42,13.64-10.14,12.95-10.75ZM686.55,440.39h-6.45v4.29h6.45v-4.29Z"/>
  <path d="M779.39,727.38c4.68.55,7.8-6.34,10.7-9.78,6.28-7.47,19.35-28.2,27.1-31.18,9.19-3.54-4.9,11.23-3.26,12.91,10.24-1.17,12.23-17.53,23.56-10.58l-8.45,23.52,20.57-13.02,5.37,6.56c1.22.91,9.84-12.53,15.01-3.25-44.94,52.11-92.54,101.58-142.38,148.95-10.61,10.08-11.99,6.35-18.6,20.22-5.11,10.73-8.28,28.32-21.07,21.53-5.92-3.14-30.77-22.51-36.93-27.82-13.61-11.72-22.46-28-37.82-37.73-.89-4.52,2.02-3.56,5.21-3.06,2.89.45,26.34,8.01,22.83,10.62l-15.1-3.23c16.19,21.96,42.19,33.92,61.57,50.67,2.65,2.29,2,6.7,5.31,6.51l8.57-22.67c-.8-5.38-18.04-29.99-23.65-24.78,16.12,46.54-32.66,13.49-24.98-13.2,1.18-4.11,5.17-3.85,5.52-5.56,1.03-5.04-1.46-10.86,1.04-15.86,2.03-3.63,8.61.84,10.76,2.35l11.95,19.29c.91-4.33,3.77-8.45,6.56-11.8,32.11-38.51,68.89-74.87,99.24-114.43,5.02-6.55,6.49-15.44,14.03-20.46,3.32,2.6,3.26,2.69,2.3,6.52-3.45,13.83-20.04,25.5-24.95,38.74ZM835.5,725.26l-24.85,23.69c-9.86,13.65-22.62,25-33.43,37.79-2.05,2.42-5.23,3.52-4.29,7.56,23.75-20.17,43.14-44.83,62.58-69.03ZM764.29,744.66c.61.69,13.18-10.2,10.75-12.95-2.71,1.04-13,10.4-10.75,12.95ZM727.57,820.2c-10.38-2.04-18.02,19.15-26.93,17.25-6.32-1.35,1.45-9.66,2.52-12.55,1.55-4.18,4.74-11.3,3.93-15.49-3.88,6.72-19.62,18.35-17.5,25.95,1.99,7.11,14.42,12.23,14.34,21.45l17.18-6.43c1.96-8.79-9.52-.17-8.66-7.53,1.17-10.01,13.59-13.35,15.13-22.65ZM669.27,820.18c-10.19-1.36.29,13.39,4.32,15.11l-4.32-15.11ZM673.59,859.03c2.76-3.53-11.3-22.68-15.07-25.9-1.82,4.57,11.91,29.94,15.07,25.9Z"/>
  <path d="M326.7,776.44c19.06,16.67,28.43,29.87,45.56,48.4,14.66,15.86,29.82,20.43,41.57,32.8,7.89,8.31,11.62,14.41,4.76,24.8-29.32,1.37-49.3-22.68-70.88-38.51-4.83,5.72,29.6,37.13,31.51,43.1,5.95,18.68-34.81,10.69-42.3.06.06,3.46.25,6.93-1.97,9.92-8.86,11.93-65.91.75-81.14.69-31.41-.13-66.44,9.15-97.2,10.96-7.66.45-23.6.77-20.46-8.61,29.96.02,59.85-7.18,89.61-8.62,34.35-1.66,68.72,5.51,102.49-.05-1.11-3.31-10.89-3.9-14.04-4.25-5.97-.66-32.5,1.34-33.44-3.32l19.46-48.51c2.41-.29,4.27-.08,6.46,1.08,2.94,1.55,23.23,20.52,25.89,23.75,11.07,13.41,13.7,34.32,36.69,31.28l-28.96-39.01c-13.19-29.43-32.74-54.94-49.59-82.06-1.67-2.69-4.19-4.76-3.44-8.41,8.02,1.35,12.1,8.18,17.19,14.09,12.86,14.93,24.14,43.32,34.79,53.69,6.35,6.19,57.48,42.69,63.98,43.93,3.06.58,6.11.69,9.19.5-1.47-16.05-21.74-21.43-32.23-29.25-18.94-14.12-40.21-47.07-56.27-66.13-3.27-3.88-15.84-14.7-17.23-17.93-3.94-9.19,14.5,6.23,16.09,7.71,2.15,2.01,2.05,6.27,3.93,7.92ZM311.86,851.65c-2.46-2.33-2.51-6.63-7.35-5.55l-8.63,32.35c13.44.17,29.14.21,40.98,6.49,3.08-3.25-21.3-29.77-25-33.28Z"/>
  <path d="M913.2,412.34l-25.87,71.2c2.38,2.9,42.91-29.06,46.88-29.88,9.62-1.98,11.61,7.11,12.44,14.85l-82.06,60.29c-25.12,39.22-53.03,78.06-83.04,113.36-3.9,4.59-26.61,32.51-32.35,24.77-5.18-6.99,8.79-14.14,11.6-17.45,39.27-46.25,88.59-105.74,113.24-160.85,8.82-19.72,13.26-44.76,23.69-62.63,3.42-5.86,7.33-14.99,15.46-13.66ZM913.21,479.2l23.7-14.01c-3.88-4.83-3.03-2.7-6.43,0-5.76,4.56-11.7,9.24-17.27,14.01ZM908.89,481.4l-24.95,10.64-7.4,15.24c11.3-7.7,23.76-15.15,32.36-25.87Z"/>
  <path d="M187.59,647.23l-16.91.34,12.62,11.46c-2.95,9.81-11.86,12.31-21.26,12.27-.71,3.42,6.28,2.89,6.44,5.36.57,8.96-15.9,1.6-15.06,11.88l9.67-4.34.07,4.38-48.6,25.84c-5.63-5.4,29.47-24.43,34.51-23.75-3.87-6.43-14.19,2.88-19.41,2.16,1.35-6.49,12.51-3.56,10.77-10.77-4,3.18-18.75,3.82-17.24-3.21,7.48-10.61,19.44-5.94,30.21-9.77l-2.27-6.42c-11.15,2.55-19.4,7.66-29.8-.31-3.32-11.97,15.41-11.77,18.69-15.16.28-.29-1.21-3.06.25-5.07,9.16-12.62,38.51-11.59,49.71-1.96l-2.39,7.04Z"/>
  <path d="M278.55,567.8l-2.05,12.77,10.7,5.47-12.89,7.63c6.59,11.85-7.56,14.34-13.99,19.42-10.2,8.06-18.32,20.93-31.24,14.91-2.89-13.33,12.13-16.92,14.97-27.91-3.66-3.83-22.82,31.62-31.42,19.49-1.98-2.8-.36-6.61,1.15-9.32,10.77-5.46,20.62-29.32,29.06-34.05,5.05-2.83,8.66-1.15,12.59-2.52,7.15-2.48,10.82-13.08,23.1-5.88Z"/>
  <path d="M284.5,510c6.18,5.86,2.21,12.84,3.19,17.26.61,2.76,4.09,5.06,5.07,7.96,2.45,7.26.03,14.19-3.18,20.76-1.29,2.64.1,5.49-5.55,3.07-8.29-3.54,4.49-20.65-4.33-25.83-20.5,15.4-32.65-5.43-3.35-6.61.25-25.19-5.73-13.31-16.43-6.72-5.89,3.63-31.36,18.48-35.03,7.6-4.66-13.81,17.73-20.25,27.79-23.48,5.78-1.86,21.4.2,13.14-10.91-6.14-8.25-24.13-8.33-33.02-4.65-1.49.62-19.61,15.42-18.89,6.96.13-1.55,14.21-12.39,16.74-13.43,11.69-4.79,32.65-2.35,40.59,7.86,4.76,6.12,1.65,11.18,4.08,15.34,1.64,2.8,7,2.75,9.2,4.83Z"/>
  <path d="M103.76,895.75l-6.47,8.58,21.57-4.28c.27,1.96.26,2.75-1.02,4.35-2.56,3.19-30.62,18.11-34.35,17.31-1.46-.59-1.3-3.64-1.77-3.88-4.67-2.4-15.16,9.99-24.28,10.37-16.83.7,10.09-13.58,11.78-17.36-13.96,1.84-30.27,19.7-43.16,11.86l25.88-16.17c-14.04-2.21-27.9,4.19-40.99-.05-4.59-6.32,19.14-8.39,22.67-8.58,5.86-.31,12.95-.69,18.57.89,4.28,1.2,3.96,5.5,5.45,5.66,4.89.54,10.59-4.59,14.88-4.31,3.15.21,5.37,4.02,8.23,3.85,6.51-.39,12.86-14.93,23-8.26Z"/>
  <path d="M135.41,823.79c-1.26,1.8-4.75,2.13-5.74,3.96,8.22,2.05,2,11.47,1.95,19.41-.07,10.58,2,22.77,2.35,33.44-17.81-.7-10.26-43.85-12.96-47.46l-8.6,2.15c-1.61-8.39,2.69-9.9,8.62-14.03l-4.3-2.14c4-5.24,6.83-6.64,12.92-3.25-2.16-12.52-1.43-28.97.28-41.82.76-5.68,2.82-18.74,4.52-23.53,2.51-7.05,10.03-4.69,10.52,3.83.34,5.94-1.72,24.97-2.37,32.37-.92,10.52-1.65,29.16-7.18,37.07Z"/>
  <path d="M1105.31,62.72l-11.89-4.34c-5.98-.09-10.82,15.39-18.31,5.39,1.3-12.9,20.44-13,17.26-29.08-11.96-3.14-11.15,4.85-16.13,8.67-6.35,4.87-16.31,9.56-23.95,4.42-8.73-12.08,23.6-18.72,18.49-23.88-9.66-2.15-17.93-.05-26.49,4.36-1.44.74-1.43,4.15-2.73,4.33-9.79,1.33-7.74-7.02-.39-11.35,18.94-11.15,27.02-2.46,42.13,4.17,7.21,3.16,17.63.3,19.53,10.88,1.22,6.78-3.58,10.31-3.42,12.44.14,1.94,9.12,7.64,5.92,13.98Z"/>
  <path d="M1170.56,56.74c-1.87,2.23-.31,7.15-4.16,10.43-5.32,4.53-13.81,4.71-20.05,2-1.15-9.47,14.48-4.5,12.95-12.91l-19.43-4.35c1.41-13.87,21.01-3.98,31.26-4.21,7.04-.16,2.34-8.04-1.11-9.72-7.3-3.58-27.1-3.09-25.83-16.24l27.01,7.91c16.91-14.81-10.62-21.11-21.96-24.95-3.33-1.13-6.18,1.9-5.05-4.54,10.75-1.37,36.89,6.52,40.11,17.18,2.71,8.98-4.16,12.07-3.46,18.27.47,4.2,5.85,6.5,4.1,12.64-1.92,6.74-12.19,5.89-14.36,8.49Z"/>
  <path d="M1118.25,546.12l-6.43,1.04,8.62,23.72-10.61,3.07c-4.72-13.71-8.99-30.76-15.88-43.45-3.41-6.29-19.96-24.44-20.67-26.9-4.09-14.15,12.83-9.15,19.97-2.62,4.36,3.98,21.17,30.7,23.85,36.58,1.3,2.85,1.39,5.52,1.14,8.55Z"/>
  <path d="M340.55,554.08c-5.01,3.6-34.77,14.94-38.21,11.45-2.09-10.58,16.05-11.14,23.75-12.96l-6.45-4.35c-.27-15.59,26.68-5.58,28.02-11.84.33-8.49-34.95-4.95-22.46-14.17,6.59-4.86,21.04,3.42,22.46-3.09l-12.93-13.98c7.62-1.86,17.49,5.3,19.04,12.43.85,3.91-1.6,7.04-1.15,9.86.33,2.04,3.45,4.17,3.76,6.98.84,7.67-7.64,9.94-11.99,13.93-1.81,1.66-2.63,4.87-3.85,5.75Z"/>
  <path d="M289.4,647.55c-.88-1.04-4.75-6.13-4.32-6.45l17.27,4.27-4.32-6.43c3.37-1.2,14.97,2.42,15.07,5.37.19,5.86-10.49-1.58-7.54,3.25,8.85,9.31,19.2,10.32,29.04,16.44.85,2.82-6.47,17.39-8.45,20.82-1.19,2.06-5.21,2.22-6.17,5.11-2.29,6.94,1.6,28.63-11.18,23.43v-9.7c-4.56,2.57-6.2,7.37-10.79,1.03,2.81-6.36,6.95-19.12,14.92-14.18l4.63-11.63-4.58-2.36,4.45-13.85-10.78-.03,3.27-6.47c-6.47-4.29-12.76-7.88-20.54-8.62,4.5,5.32,10.75,8.54,15.1,14.04l-3.93,1.31,1.76,6.23-30.2-12.97,3.24-4.32,16.19,6.49-10.78-9.7c1.13-1.93,6.48-1.27,8.62-1.07Z"/>
  <path d="M343.34,582.82c3.07,3.77-5.26,5.7-5.96,6.92-1.67,2.93-.06,8.36-3.84,14.55-7.09,11.61-25.26,17.87-37.66,21.66l1.48-6.48c10.27-4.59,23.03-7.74,28.71-18.34l-17.25,3.23-1.04-6.43c-6.92,6.11-19.89,8.57-14.08,19.38l-25.9,2.15,39.55-28.41c5.66-5.87,20.02-3.94,23.14-5.12,1.7-.64,8.04-9.01,12.84-3.12Z"/>
  <path d="M205.87,554.09c5.09,3.86,14.47,4.9,17.61,11.54,1.41,2.98,5.66,19.63,3.31,21.48-10.14-7.2-11.96,1.55-21.56-2.16-1.44-7.08,5.23-9.45,8.46-14.3.75-4.3-6.66-8.52-10.6-7.26,1.62,19.12-26.46,20.16-18.31,2.2,1.12-2.47,14.93-12.5,11.81-15.14-9.5-2.23-12.64,6.93-19.39,10.78-2.5-10.82,8.19-18.69,18.19-17.33,7.1.96,7.39,7.83,10.5,10.19Z"/>
  <path d="M73.07,868.07c3.17,14.06-15.02,1.37-20.03-4.63l-5.39,6.36,12.93,5.45c.92,4.53-2.17,3.52-5.37,3.22-6.06-.56-36.19-11.22-38.93-15.05-1.09-1.52-2.28-5.88.05-6.53l29.14,10.75-25.87-17.28,1.08-4.29,18.33,6.47-17.22-16.16c3.41-5.02,4.59-1.86,8.39.2,15.44,8.38,27.17,23.47,42.9,31.5Z"/>
  <path d="M216.04,710.12l2.14-8.61c6.85.19,11.1,3.08,14.36,8.8l9.37-2.37-4.31-6.43,17.27,6.43-4.3-10.77,21.55,11.88-41.02,5.39.03,7.6c-10.7,3.08-13.26-3.42-19.56-6.41-4.18-1.98-9.65-.22-12.82-4.44l9.8-3.14-.08-10.89,7.56,12.97Z"/>
  <path d="M59.56,841.76c7.22-1.01,19.92,18.59,27.89,21.79,4.02,1.61,6.84-.4,12.69,2.24,3.55,1.6,21.61,14.58,20.88,18.02-2.02,9.43-12.4-2.37-14.27-2.69-2.59-.45-5.18,2.33-9.34.63-4.26-1.74-36.02-30.04-38.99-34.6-1.85-2.84-2.14-4.94,1.13-5.4Z"/>
  <path d="M1171.57,147.51c16.93,20.92-35.76,34.52-48.98,31.74l5.37-12.88c3.36.12,5.92,6.25,6.36,6.21,6.39-.52,38.09-10.87,30.5-21.53-1.84-2.57-11.77-3.21-15.41-4.11-3.64-.9-6.29,2.14-5.24-4.36,8.06.23,21.74-2.06,27.39,4.93Z"/>
  <path d="M43.31,895.71c-3.88,1.93-39.09-4.78-32.35-10.77,5.79-1.25,11.22,1.4,16.45,1.89,2.41.22,7.76,1.98,7.26-1.87-8.81-4.37-20.56-6.93-29.03-10.91-3.2-1.5-6.41-1.42-5.48-6.37,14.97.19,29.67,8.28,43.28,14.06l-.14,13.97Z"/>
  <path d="M177.15,684.25c-6.35,9.73-14.38,17.84-22.65,25.91-2.64,2.58-6.86,2.89-9.08,4.95-3.06,2.84-21.21,28.39-26.54,23.06-.94-4.37.97-5.76,3.13-8.71,6.41-8.74,22.83-19.45,31.42-26.86,7.24-6.25,13.68-18.07,23.72-18.35Z"/>
  <path d="M1107.47,103.72c7.71-.09,14.73-3.22,22.69-2.17,2.95.39,6.34,1.19,3.21,4.31-7.51.7-22.67,6.63-29.24,5.61-2.98-.46-29.91-18.79-14.98-18.61,5.43.06,8.32,12.08,17.26,2.29l1.06,8.57Z"/>
  <path d="M977.78,574.36l-3.21,12.89,9.86,8.55c.01,9.87-10.19,5.46-15.23,1.17-6.49-5.51-8.95-16.54-4.32-24.04l12.91,1.43Z"/>
  <path d="M248.38,779.21c-2.75,6.56-10.88,5.28-16.25,8.54-5.13,3.11-12.77,18.8-18.18,15.12-.3-.21-1.9-5.88-1.7-7.1,1.94-11.57,25.46-21.92,36.13-16.55Z"/>
  <path d="M228.97,805.07c-2.85-3.76,20.8-20.39,24.32-22.07,8.11-3.88,10.84,3.6,4.9,9.23-1.3,1.23-19.33,13.81-20.54,14.13-3.38.89-5.57-.95-8.67-1.29Z"/>
  <path d="M215.75,636.53c-8.85.71-36.03.92-24.19-12.8,9.39-.11,19.02-1.52,25.63,6.5l-1.44,6.31Z"/>
  <path d="M1094.5,120.99l-12.92,4.3c-4.87-4.21,20.54-21.04,21.76-1.08.94,15.3-11.88,10.82-8.84-3.22Z"/>
  <path d="M1131.22,116.7c-.91,6.34-12.03,3.45-12.96,4.3l4.35,16.15c-5.74,3.94-7.44-1.12-9.72-5.38-8.56-15.97,5.62-16.1,18.33-15.08Z"/>
  <path d="M1098.83,164.14c-10.49,1.61-9.06-12-14.45-15.21-6.18-3.68-17.17,1.34-15.75-6.35,14.61-2.7,29.29,6.22,30.2,21.56Z"/>
  <path d="M300.19,688.57l-16.15,23.69c-11.16-5.28,8.92-30.66,16.15-23.69Z"/>
  <path d="M183.62,692.88l-6.46,15.07c5.71,2.67,14.32-3.23,17.26,4.32l-25.89-2.15c-2.1-1.96,11.92-20.61,15.09-17.24Z"/>
  <path d="M1152.8,151.24c1.77,7.49-5.28,2.6-8.29,4.6-2.24,1.48-1.88,14.22-13.28,10.46,2.83-12.13,8.23-21.45,21.57-15.06Z"/>
  <path d="M326.08,731.7c-4.8-1.38-32.16-8.99-32.32-11.86-.26-4.58,6.15-1.43,7.59-1.19,2.29.38,31.01,7.19,24.73,13.05Z"/>
  <path d="M250.54,660.52c5.36-1.92,27.92,20.8,28.02,22.64.14,2.46-2.89,2.72-5.74,1.5-6.19-2.64-16.1-18.85-22.28-24.14Z"/>
  <path d="M266.99,787.97c6.14-1.76,16.16,4.91,20.2,9.56.35,6.41-19.01-3.13-21.59-2.11-3.75-2.37-1.87-6.51,1.39-7.45Z"/>
  <path d="M1085.87,101.67c-1.49,13.46-7.17,15.55-19.42,12.84v-6.45s10.5-.3,10.5-.3l2.5-8.34,6.42,2.26Z"/>
  <path d="M317.46,751.11c-10.11.95-24.25-.03-23.72-12.93,8.52,2.81,18.24,4.9,23.72,12.93Z"/>
  <path d="M298.03,809.42c1.19,5.77-1.56,3.69-4.28,5.34-2.38,1.45-13.28,7.32-15.14,5.42-.42-11.64,10.21-13.83,19.42-10.76Z"/>
  <path d="M277.99,688.97c3.87-.98,4.74-.06,7.05,2.82l-13.99,11.83c-8.18-5.21,1.32-13.22,6.94-14.64Z"/>
  <path d="M312.5,734.5c1.05.98,2.06,4.18,2.8,5.82-3.26,2.37-21.42-8.49-21.54-9.69-.59-5.96,17.13,2.37,18.74,3.87Z"/>
  <path d="M289.39,673.43c-1.91,1.71-16.5-5.53-15.09-10.77,3.2-.94,18.7,7.54,15.09,10.77Z"/>
  <path d="M198.73,697.19c3.55,2.99-9.53,9.87-10.77,8.61-.33-5.73,5.25-9.5,10.77-8.61Z"/>
  <path d="M142.61,731.72c4.09,3.46-11.04,9.22-12.94,8.6l12.94-8.6Z"/>
  <path class="cls-1" d="M1021.09,712.35c.55,11.69-11.68,17.81-15.09,27.97-3.74.58-1.77-2.55-1.53-4.74.65-5.91,5.77-20.82-5.7-18.6-5.58,1.08-15.44,22.93-19.73,27.66-3.69-7.18,9.4-17.16-2.16-19.49l-7.52,4.39,2.15-8.62c-11.84-7.02-16.56,9.49-21.55,11.9-7.41,3.57-18.16-.38-25.92,11.83,1.03-11.74,12.24-23.3,10.76-34.47,28.93-3.68,57.95-5.78,86.3,2.16Z"/>
  <path class="cls-1" d="M984.42,757.61c-4.06,10.71-9.53,23.35-15.47,33.06-10.39,16.98-29.22,44.33-41.47,59.97-1.72,2.2-2.81,6.83-6.68,6.23-5.13-.8-1.81-4.23-.04-6.47,2.76-3.49,6.53-6.02,9.35-10.08,18.77-27.01,31.22-58.58,54.31-82.71Z"/>
  <path class="cls-1" d="M826.77,923.87l8.73,27.93-16.96-9.67,6.16-11.86-23.73-4.36c-.5-3.77,4.9-2.03,7.52-2.14,6.06-.25,12.24.01,18.28.1Z"/>
  <path class="cls-1" d="M941.29,798.61c.59-5.1,3.9-12.59,8.59-15.1-.59,5.1-3.9,12.59-8.59,15.1Z"/>
  <path class="cls-1" d="M835.5,912.96c-4.83,5.11-7.87-12.82-6.45-15.07l6.45,15.07Z"/>
  <path class="cls-1" d="M926.18,824.5c-.24-3.85,2.41-9.21,6.43-10.79.24,3.85-2.41,9.21-6.43,10.79Z"/>
  <path class="cls-1" d="M759.93,408l-6.44-28.03c13.38,2.85,4.79,19.33,6.44,28.03Z"/>
  <path class="cls-1" d="M729.73,436.08c.69.61-10.2,13.17-12.95,10.75,1.04-2.71,10.4-12.99,12.95-10.75Z"/>
  <rect class="cls-1" x="680.1" y="440.39" width="6.45" height="4.29"/>
  <path class="cls-1" d="M727.57,820.2c-1.54,9.3-13.96,12.64-15.13,22.65-.86,7.35,10.63-1.27,8.66,7.53l-17.18,6.43c.08-9.22-12.35-14.34-14.34-21.45-2.12-7.6,13.62-19.23,17.5-25.95.81,4.19-2.38,11.31-3.93,15.49-1.07,2.89-8.84,11.2-2.52,12.55,8.91,1.9,16.56-19.29,26.93-17.25Z"/>
  <path class="cls-1" d="M835.5,725.26c-19.44,24.2-38.82,48.87-62.58,69.03-.94-4.04,2.24-5.14,4.29-7.56,10.82-12.79,23.57-24.14,33.43-37.79l24.85-23.69Z"/>
  <path class="cls-1" d="M673.59,859.03c-3.16,4.04-16.89-21.33-15.07-25.9,3.76,3.21,17.82,22.36,15.07,25.9Z"/>
  <path class="cls-1" d="M669.27,820.18l4.32,15.11c-4.03-1.72-14.51-16.47-4.32-15.11Z"/>
  <path class="cls-1" d="M764.29,744.66c-2.25-2.55,8.04-11.91,10.75-12.95,2.43,2.75-10.14,13.64-10.75,12.95Z"/>
  <path class="cls-1" d="M1193.82,138.23c-5.94.06-11.32.78-17.15-1.17-8.46-2.83-15.27-17.9-5.17-14.31,7.53,2.68,18.23,8.28,22.32,15.48Z"/>
  <path class="cls-1" d="M1232.66,105.87c-6.15.4-14.22.1-17.25-6.44,6.54-2.77,16.43-2.87,17.25,6.44Z"/>
  <path class="cls-1" d="M1226.19,82.17c-2.39,5.71-9.57,6.78-15.11,6.43,2.39-5.71,9.57-6.78,15.11-6.43Z"/>
  <path class="cls-1" d="M311.86,851.65c3.7,3.51,28.08,30.03,25,33.28-11.84-6.28-27.54-6.32-40.98-6.49l8.63-32.35c4.84-1.07,4.89,3.22,7.35,5.55Z"/>
  <path class="cls-1" d="M908.89,481.4c-8.6,10.72-21.06,18.18-32.36,25.87l7.4-15.24,24.95-10.64Z"/>
  <path class="cls-1" d="M913.21,479.2c5.57-4.77,11.51-9.44,17.27-14.01,3.4-2.7,2.55-4.83,6.43,0l-23.7,14.01Z"/>
</svg>