<?xml version="1.0" encoding="UTF-8"?>
<svg id="Calque_1" data-name="Calque 1" xmlns="http://www.w3.org/2000/svg" viewBox="0 0 1366 655.09">
  <path d="M964.36,169.94c.91.88.84,3.47,2.22,4.3,1.76,1.05,4.99.09,7.34,1.44,12.92,7.39,34.52,35.87,41.02,49.53,2.35,4.93,3.78,11.33,6.45,16.63,6.15,12.21,15.01,18.66,16.24,33.72.13,1.65-1.14,3.34-.65,5.79.39,1.95,2.66,3.31,2.86,5.29.27,2.63-2.3,5.39-2.03,7.96.24,2.2,2.91,2.73,3.13,6.02s-1.93,6.32-2.02,9.14c-.43,13.16-7.82,39.94-14.35,51.85-2.39,4.35-7.28,10.44-12.82,8.76l.44,3.07c5.34,3.6,10.77-1.42,15.92-.08,1.24.32,1.15,3.44,3.2,3.1,3.5-2.18,5.17-3.91,9.5-4.63,6.31-1.04,9.8,1.34,14.55,1.65,10.71.69,11.47-1.9,23.91,2.12,5.48,1.77,15.21,4.18,21.24,3.77,2.01-.14,3.68-2.12,6.09-2.07s3.65,2.12,5,2.1c2.41-.02,4.79-4.51,9.11.95l1.26-.15c2.23-5.35,9.25,1.57,13.73,1.32,3.71-.21,2.95-2.41,3.69-2.86,4.69-2.89.36,3.89,4.33,3.79,2.64-.07,2.26-3.92,4.91-4.01,2.14-.08,5.34,1.96,8.11,1.97,1.94,0,3.93-1.13,6.01-1.08,7.88.18,18.52,3.48,25.16,3,1.56-.11,2.66-2.02,3.82-1.83,1.93.31,10.49,6.14,15.64,4.47l18.61,13.48c3.94-3.03-1.12-6.37-.36-10.27,1.05-5.39,11.05-9.29,15.96-7.29,1.85,1.08-2.6,6.58,2.46,7.55l-.44-5.39c3.99-5.17,7.44-.26,10.59.08,1.61.18,2.98-1.03,5.42-.32,2.84.83,10.54,11.05,11.49,13.7,1.07,3.01-.81,6.08-.06,7.01,1.19,1.46,3.84.25,4.64,1.64.17.29,2.45,5.99,2.53,6.32,1.14,5.36,1.51,14.71,3.71,20.33.72,1.83,2.73,2.87,3.31,4.72,1.32,4.17-1.46,12.04,5.39,7.52,1.56-1.03,2.61-3.07,4.14-3.88,2.58-1.35,6.7-1.37,9.44-3.58l1.56,2.52-1.84.64,1.31,2.85c4.47-7.32,13.19-2.77,17.89,1.98,1,1.01.47,2.61.78,2.89.52.46,9.29,2.1,12.92,4.71,1.34.97,1.81,3.05,2.21,3.28,1.06.59,8.19.51,9.74,3.37.21.4-1.1,7.02.1,8.87-2.97.16-7.16-.19-9.76-1.69-3.73-2.16-3.67-2.18-8.04-4.08-1.85-.8-3.95-3.98-5.93-4.1-1.38-.08-2.44,1.83-3.85,1.85-.91.01-6.74-2.76-10.05-2.98-5.53-.38-7.85,1.73-10.97,1.86-1.72.07-7.55-2.13-8.41,1.72-.16.72,1.15,8.93,1.77,10,2.83,4.87,11.4-1.21,16.53-.55.55.07,9.55,3.41,10.34,3.79,8.62,4.13,16.78,16.13,25.41,19.74,2.8,1.17,12.2,1.22,12.87,1.68.3.2,1.61,4.96,2.87,6.67,1.76,2.39,5.14,2.87,4.14,6.12-5.59,4.9-11.53,5.72-18.76,3.48-3.81-1.18-3.54-3.63-4.4-4.13-1.09-.63-3.14.06-5.36-1.17-4.52-2.51-9.35-9.24-13.53-12.55-8.61-2.69-18.12-9.06-20.03,4.48l-5-1c-.78,3.16,2.53,1.88,3.78,3.23,1.03,1.11,1.42,5.11,3.05,6.59l-1.82,7.23,3.51-2.03,2.38,1.71c.81,2.23-1.09,4.6-.69,6.61.3,1.53,3.41,4.52,4.34,6.73,2.08,4.96,1.52,8.02,1.47,12.48,0,.34,3.5,1.11,3.05,5.06-.41,3.58-7.44,4.77-1.98,11.1l-.5,1.48c-6.75,5.3-16.51,7.35-24.62,4.49-40.8-14.36-62.93-41-68.22-84.34-.4-3.3.83-5.03,2.05-7.88l-4.62-3.55c-4.33,1.22-1.43,7.97-7.48,6-.37,2.18,2.11,3.19,2.61,4.98,1.05,3.77-7.23,13.33-10.61,15.69-2.99.84-10.22-5.41-14.66-5.56-7.07-.25-15.86.65-22.91-.16-6.25-.72-13.82-3.4-20.18-3.9-23.37-1.85-34.03,7.54-53,17.2-11.83,6.03-25.03,12.42-38.07,14.09-1.31.17-2.63,1.73-4.24,1.73-1.99,0-4.26-2.62-6.85-2.02-.98.23-.96,2.12-1.65,2.58-1.5,1.01-10.49-1.86-13.58-2.29-15.48-2.19-26.74-5.71-41.84-10.53-18.41-5.88-36.54-13.77-55.02-21.24-13.91-5.62-36.1-14.57-50.68-15.63-3.75-.27-10.15,1.29-14,1.14-10.02-.38-26.37-4.23-36.62-6.53-2.98-.67-9.88-4.51-10.45-4.54-1.57-.08-10.87-.19-12.04-.07-1.85.19-3.39,1.93-5.1,1.95-2.03.01-5.29-2.65-8.16-2.9-3.1-.28-11.3,2.63-12.95,0l-.97-4.04-3.02,3.08c-3.48.39-2.48-2.48-4.13-3.02-1.89-.62-4.38,1.09-6.4.93l3.01,5c-3.51-1.76-7.55.34-10.3-.14-2.58-.45-4.2-3.82-6.23-3.86-2.23-.04-4.45,2.84-8.99,1.97-4.93-.95-4.1-.76-9.05-1-4.02-.2-19.6-10.16-24.71-12.44-4.77-2.13-10.87-.33-9.97-8.6l6.01-1.51c-1.7-2.99-5.89-1.77-7.75-2.78-3.49-1.9-6.89-6.99-8.96-8.83-3.42-3.03-6.78-.03-1.3-7.43-3.66-3.45-.35-7.41-1.1-9.9-1.06-3.49-5.04-.7-6.95-.16l2.16-5.35c.84-.76,5.29.38,7.27-.3,1.56-.54,1.44-4.38,5.63-2.85l-.1,6.39,6.12,2.12c-1.68,4.19-9.82-3.09-10,1-.02.39,4.35,5.47,4.7,5.53,2.68.5,5.55-1.39,8.31-1.01l-2.04,4.52c-.05,3.29,6.36,4.8,9.06,4.51l.05-6.98,4.95-1.55-4.44-2.48c-1.83,3.33-2.68,3.42-6.58,2.97,1.99-4.44,7.22-7.49,5.61-13.06-1.06-3.64-10.34-7.57-13.63-9.76-1.36-5.27-2.75-9.69-2.01-15.3l5,3.01.99-4.59,3.02.58c1.18-4.64-5.15-2.85-2.03-6.55,4.09-4.84,16.19-1.79,20.84,1.29,1.33.88,7.44,4.92,7.8,5.25,1.23,1.1,2.03,5.42,4.5,6.54-9.13,3.04-1.28,5.03-.23,6.75.29.48,1.56,8.48,1.24,8.79-4.91,1.58-6.1-4.05-9.94-1.89,1.23,5.01-7.83,14.14,1.91,10.93.07,2.08-.28,4.24.23,6.3,1.41,5.72,4.4,11.22,6.56,16.51,2.17,5.31,6.19,18.7,12.01,20.18,1.78.45,3.4-.79,4.66-.57,2.09.37,13.83,4.7,14.73,1.05,1.22-5-5.59-18.05-8.12-22.92l.48-1.56,3.41-1.08.06-3.77-7.41-1.07c-2.74-3.55-3.01-12.02-4.74-15.38-1.02-1.97-5.89-7.15-7.24-9.81-.5-.98-1.61-4.56-1.41-5.36.24-.97,5.71-4.95,7.34-4.6,3.36.72-2.15,5.99-1.44,8.42,1.09,3.74,8.98.39,8.73-2.92-.14-1.93-6.87-3.94-3.78-5.02,4.06-1.41,10.8-1.05,15.06-.48,1.94-7.79-2.45-8.52-5.22-13.33-.81-1.41-4.78-10.34-4.83-11.34-.19-3.45,2.16-2.68,3.08-4.13,1.42-2.24,1.41-7.56,3.95-8.85,3.1-1.57,9.53,1.87,13.01,3.08,4.86,1.69,9.58,3.68,14.32,4.75,1.05.24,2.11,1.81,3.16,1.65,2.93-1.21,2.29-4.55,3.41-6.67,2.96-5.62,9.81-5.35,14.25-8.8,0-4.26-12.77-.59-15.42-.6-4.62-.02-10.8-2.86-14.16-2.99-2.38-.09-4.57,1.23-6.97,1.12-4.25-.2-9.24-1.74-13.89-1.25-1.51-.45-8.73-8.05-9.29-9.77-1.74-5.37,1.79-6.5,1.65-10.56-.04-1.31-2.28-7.57-3.06-8.1-1.19-.81-10.57-.73-12.53-.41-2.66.44-3.88,2.49-6.11,2.92-12.51,2.37-22.74-4.7-30.53-13.53-18.97-21.51-9.75-40.91,13.02-53.23,6.11-.86,13.74,1.5,19.51.54,1.45-.24,2.58-1.55,4.17-1.85,14.01-2.58,14.88-1.7,22.3-14.82,3.1-5.47,5.48-14.81,8.8-19.3,3.59-4.86,33.57-31.63,38.58-33.66,4.64-1.88,6.58-1.23,11.24-3.87,6.4-3.63,9.09-4.94,16.54-6.5,1.39-.29,3.15,1.07,4.3.38,1.39-.83,1.52-4.02,2.17-4.42.82-.51,2.78.03,4.03-.44,7.66-2.93,17.89-3.03,26.44-2.78,8.24.24,13.83,3.59,20.07,3.99,5.41.35,9.69-1.11,14.87-.82,7.54.43,15.52,3.62,22.98,5.13,6.6,1.33,26.83,4.43,31.61,9.03ZM941.51,170.7c-.02-3.68-2.98-3.68-3,0h3ZM828.12,193.79l-4,1.01v1.99s4.01,0,4.01,0v-3ZM822.11,195.79c-2.43.15-5.09-.32-7.48.06-3.33.53-20.61,15.53-23.16,18.98-1.84,2.48-8.74,15.01-9.45,17.65-.43,1.6.47,3.97-.26,5.25-.3.53-6.19,7.92-7.3,9.25-10.77,12.91-21.8,15.08-38.16,15.82-4.57.21-11.41-2.53-16.11.15s-4.79,6.93-5.76,11.3c-.78,3.5-3.12,4.1.84,8.79,2.45,2.89,9.42,2.24,12.79,3.25,1.79.53,2.95,3.23,5.34,3.52,3.75.46,9.47-3.59,13.85-.83l.59,5.12c2.63.9,2.6-3.13,3.53-3.03,1.35.13,2.19,1.6,3.15,1.73,1.15.16,2.44-.7,3.64-.5,2.98.5,9.45,6.31,6.74,9.83.48.49,3.91-2.42,4.85.66,2.85,9.26-6.79,7.02-6.85,9.88-.06,3.29,6.07.08,6.99-1.5.14,2.76-3.72,7.35.69,8.86.5.17,7.35,1,7.73.93,1.44-.27,4.88-4.37,6.72-5.19,3.69-1.65,17.2-1.21,21.55-.63,1.57.21,8.36,2.61,9.55,3.5,3.4,2.54.06,2.54-.06,5.58,9.63-3.72,13.95,5.24,16.05,13.04h-5.01c-.57,3.18,2.16,4.51,3.99,6.53-1.58,1.09-3.52,4.35-5.02,5-1.99.87-4.63.08-6.05.97-.56.35-4.32,9.18-6.23,11.3-.29.33-2.61,1.37-2.74,1.28l-.94-3.43c-4.67-2.9-3.58,3.64-4.21,4.3-.89.92-12.61.43-14.39.09-3.01-.57-7.64-4.86-11.95-4.06-1.35.29-.76,4.84-3.64,4.11.45,2,2.8,1.5,4.06,2.7,4.07,3.88,2.57,12.12,9.69,13.18,1.51.22,2.39-1.99,4.05-2.6s23.69-2.32,25.89-2.17c1.53.1,2.52,1.83,3.95,1.89,1.68.07,3.08-1.92,4.85-1.78,1.62.13,3.5,2.33,5.32,2.52,2.01.21,6.64-1.67,9.9-1.81,19.47-.81,43.59.05,63.11,1.18,9.45.55,18.69,2.26,28.21,2.9,5.52.37,9.49-1.61,14.54,1.02.78-.85-3.37-12.92-2.84-16.29.87-5.44,8.14-14.4,14.76-11.91.81-4.76,5.17-9.31,1.59-13.89-.79-1.01-1.39-1.66-2.49-.55-3.14,3.77-8.83,4.73-13.53,5.34-1.09.14-2.64-.9-3.98-.78-2.83.25-3.41,3.58-8.8,2.79-5.14-.75-14.33-11.35-16.65-16.19.14-1.69,7.1-9.2,8.55-9.54,1.69-.39,7.2,1.36,9.87,1.35,1.67,0,3.26-1.4,4.98-1.39,2.04.01,4.31,2,5.88,1.69.6-.12,9.41-6.26,10.11-6.89,4.77-4.29,5.58-12.44,10.59-15.01v-1.44c-5.36-3.41-1.01-9.46-4.95-13.83-6.18-6.85-18.33-4.91-25.09-.2-7.47,5.21-11.45,12.17-20.03,17.09-1.48.85-2.23,2.53-3.72,3.37-4.18-2.01-4.47-5.58-9.96-4.85-5.31-6.08-13.44-7.25-13.57-16.66-.03-2.25,1.54-6.06.6-7.53-1.54-2.61-3.25,1.23-4.54.58-1.08-.54-1.65-2.81-2.56-3.52-2.97-2.33-7.31-3.75-9.34-7.79-1-3.91,8.8-11.75,4.94-16.9-4.68.68-10.76-2.77-14.61-2.54s-6.5,4.91-10.53,5.11c.34-3.47-.24-5.29-4.03-5.03,2.02-4.4-.39-4.64-3.63-6.91l-2.32,1.52c-.63,2.3,2.28,4.68-.57,6.4-1.87.39-2.41-2.83-4.18-3.82-2.13-1.2-5.54-.56-7.41-2.63-6.07-6.71,4.23-27.45,5.08-35.67-6.36-1.86-12.33,11.18-16.99,9.54-3.95-1.39-8.92-4.34-8.09-9,1.18-6.6,6.39.08,8.93-1.65l1.1-6.93ZM1001.71,209.83l-.97-3.53-3.03-.47v1.48s4,2.52,4,2.52ZM866.25,221.88c-6.2-1.06-1.25,4.35,0,3v-3ZM904.38,233.92c-3.68.02-3.68,2.98,0,3v-3ZM945.52,248.96h-2v3h2v-3ZM914.29,278.91c.86-3.43,5.08-4.3,4-8.17-.55-1.96-8.89-9.2-10.91-8.29-4.51,2.03.64,8.04,1.76,10.34s-.22,7.1,5.15,6.12ZM928.47,275.05c-.58.58.84,2.98,1.5,2.98,2.78,0,.02-4.5-1.5-2.98ZM912.4,289.09c-1.2-.88-4.64,2.33-4,4h5.01s-1.01-4-1.01-4ZM792,318.18c-5.34-.47-5.3,4.48,0,4v-4ZM806.04,350.29l-3.99,1.51.97,3.02,4.03.47-1.01-5ZM798.02,354.3c-.3-.45-4.99-1.52-4.99.49,0,5.08,7.47,3.25,4.99-.49ZM991.68,357.31c-12.45-.33-2.87,12.59,0,10.02.49-2-2.04-2.73-2.02-4.5.02-1.59,2.75-3.28,2.02-5.52ZM717.5,370.58c-.24-.25-5.46-3.63-5.77-3.77-3.63-1.59-.51,12.01.49,13.58,1.37,2.15,12.66,2.79,14.59,1.52,3.1-2.04-2.35-5.94-2.05-8.56l-6,2.01c-.14-1.45-.26-3.73-1.26-4.78ZM823.1,378.37h-2c-.24,1.85-.04,2.92,1.5,4l.49-4ZM800.03,383.39h-4v2h4v-2ZM733.8,387.39c.32-1.9-1.17-3.33-3-3v3s3,0,3,0ZM901.37,384.39h-3v2h3v-2ZM1235.51,398.43c-.12-.17-2.86-1.19-3.54-.03-3.92,6.73,6.28,3.77,3.54.03ZM795.85,398.6c-6.64-1.64-4.53,4.98,1.17,3.84l-1.17-3.84ZM724.77,417.5h-3v2h3v-2ZM1237.52,417.5c-3.68.02-3.68,2.98,0,3v-3ZM714.73,424.51l.94-3.4-3.43-1.6-1.05,3.03,3.54,1.97ZM1189.35,423.51c.18-3.6-4.97-3.48-7.4-3.93-5.49,8.97,2.61,1.81,7.4,3.93ZM1133.16,434.54c.06-3.53-4.34-4.18-7.02-4,.43,1.68,5.96,4.94,7.02,4ZM1269.63,435.56c-.58-.58-2.99.84-2.99,1.5,0,2.78,4.5.02,2.99-1.5ZM1224.47,444.58c-3.96-.15-3.01,4.25-3,7.02h3s0-7.02,0-7.02ZM797.02,445.59l-3.39.12-1.62,2.37,2.49,1.52,2.51-2.52v-1.48ZM1242.54,462.65l-3.91,1.1c-.35,2.37-.61,3.37,1.88,2.89l2.03-4ZM1312.77,475.68c-1.01-1.02-4.03,1.96-3,3,1.01,1.02,4.03-1.96,3-3ZM1251.56,494.73c.75-.83-4.13-13.1-6.01-11.02.29,1.29,3.71,13.58,6.01,11.02ZM1031.82,492.74c-1.78-1.91-4.49,4.02-1.5,3.99,1.03-.01,2.12-3.32,1.5-3.99ZM1287.7,548.91c3.68-.02,3.68-2.98,0-3v3Z"/>
  <path d="M414.38,436.26c-.36.98-.53,3.41-1.18,3.83-2.17,1.39-7.8-.1-9.19.31-1.79.52-2.12,4.09-4.38,4.76-4.14,1.22-4.94-3.71-7.88-3.94-8.28,1.69-6.49,5.9-3.98,12.1l1.01.97c3.27-4.54,6.16.41,9.25.83,2.13.29,4.93-1.12,7.82-.87,7.17.63,3.81,1.41,12.09.12,5.04-.79,8.94-.41,11.99,3.94l1.54-3.98c2.68-1.3,3.21,2.04,3.5,2.05,1.61.04,6.26-3.32,9.26-3.8,2.36-.38,6.31.91,8.54.49,12.46-2.37,22.2-4.65,35.36-5.77,7.79-.67,14.51-.86,22.22-.3,3.88.28,12.94-1.13,17.92-.8,5.4.36,13.24,2.38,18.08,2.17,5.21-.22,10.8-4.02,15.97-3.06,1.79.33,2.98,2.24,5.01,2.02,1.4-.15,2.56-1.73,4.14-2,6.68-1.12,10,2.19,13.97,2.06,3.1-.11,7.07-2.87,11.1-3.11,4.32-.26,6.48,1.76,8.8,1.75,3.31-.02,10.6-3.1,14.23-2.75,2.33.22,2.84,3.23,5.94,3.04,2.53-.16,8.73-3.31,12.44-3.82,7.38-1.01,14.97-.23,21.9.5,1.9.2,4.24-1.19,6.87-.73.46.08,7.62,3.14,8.52,3.57,5.61,2.66,12.28,20.72,10.87,26.84-.32,1.37-5.9,12.57-6.96,14.1-1.89,2.72-4.27,5.96-6.32,8.72-2.19,2.95-13.53,11.27-12.49,15.32,1.35,2.66,4.37,3.03,6.48,4.7.89.71,1.12,2.24,2.2,3.05,2.8,2.11,6.26.8,8.49,1.98,9.99,5.28,22.55,16.34,31.97,23.5,2.94,2.23,13.43,8.19,14.99,10.1,1.18,1.44,1.01,2.77,1.04,4.47,8.45-1.05,5.57.68,8.5,4.03,1.39,1.6,3.41,2.19,4.53,3.51,6.51,7.68,17.28,29.07,18.07,39.11.3,3.79.47,11.93-.82,15.31-.3.8-5.83,10.34-6.28,10.77-3.68,3.51-16.08,5.4-20.75,3.25-.3-.14-.78-1.72-2.06-2.4-6.64-3.47-12.7-7.95-18.96-11.17-2.49-1.28-5.27-2.16-7.88-3.16-1.81.03-10.12,8.82-12.55,10.48-9.03,6.14-24.68,10.14-35.46,9.27-1.22-.1-2.4-1.52-4.08-1.59-2.55-.11-5.9,1.92-8.86,1.66-5.63-.5-12.16-6.58-18.79-4.8l.99-3c-9.47,2.77-19.12-5.27-27.03-9.59-4.36-2.38-6.74-4.67-9.32-6.23-1.18-.71-6.03-.8-9.14-2.4-3.54-1.82-17.87-13.47-20.21-12.89-3.8.95,1.33,5.26,2.01,7.01.87,2.26,1.68,6.75,1.04,9.06-.74,1.19-12.46,4.88-14.17,4.95-35.59,1.48-73.37,6.92-108.36,1.12-16.13-2.68-41.5.56-59.18-.02-13.88-.45-29.24-3.11-43.11-3.14-4.1,0-8.22,1.84-12.53,1.1,1.99,8.26,5.52,14.17,2.99,23.05-2.59-.01-6.21-.6-6,3.02h5.01c-.8,5.73-5.84,10.09-11.4,6.14l-4.14,4.01c-5.55.41-7.43-4.74-9.17-5.03-1.23-.2-5.25,4.34-9.47.4-1.09-2.28,1.35-5.57-1.92-7.08-1.4-.64-3.31,2.54-6.03,1.12-2.42-1.26-1.64-5.24-2.94-6.15-1.47-1.02-4.76.25-6.7-1.32-1.79-1.46-.97-4.22-1.57-4.95-.46-.55-4.25-.55-5.81-1.73-1.91-1.44-5.47-8.27-9.51-10.55-2.49-1.41-4.88-.44-6.59-1.44-1.02-.59-1.38-2.89-2.52-3.51-2.37-1.29-1.58,4.36-3.21,5.03-2.24.92-6.88.92-9.89,1.93-28.54,9.49-48.88,19.71-80.2,19.21-5.16-.08-7.51-3.49-8.99-3.69-1.69-.23-4.25,1.6-6.62.13l.05-6.55-5.01.57c-6.36-10.86-7.9-22.24,5.69-27.52l3.84,2.85c3.44-2.12-.68-3.71-.42-5.36.41-2.53,7.13-5.36,9-7.1,4.29-4,11.45-13.79,16.68-16.52,2.52-1.32,4.82.66,6.4-.5.89-.66.77-2.71,1.5-3.59.87-1.04,2.6-.7,3.19-1.29.62-.62.27-2.45,1.26-3.23,1.24-.97,4.16-.54,5.42-1.41.93-.65.56-2.31,1.14-3.08,1.31-1.73,4.26.15,3.49-3.04-3.53-1.37-3.75,1.87-5.45,2.08-5.54.7-13.45-1.3-12.61-8.12-2.87-.97-4.94,2.28-7.24,1.85-1.66-.31-5.71-3.44-7.79-4.37-1.85-.83-4.2-.36-6.42-1.6-2.98-1.66-2.82-5.43-4.9-6.27-2.98-1.21-3.89,1.45-6.75.94-5.68-1.03-13.2-6.74-18.13-9.05-2.89-1.35-7.52-.78-9.96-4.07,2.19-2.82,6.34-1.97,6-6.52-7.39-2.27-5.09,6.73-10.33,4.83-1.58-.57-6.58-7.66-9.81-9.28-2.78-1.39-6.74-.93-8.94-2.1-.46-.24-6.13-4.79-7.97-6.08-1.55-1.09-9.77-7.19-10.17-7.89-1.32-2.35-.73-4.3-1.41-6.61-.46-1.55-2.13-3.09-2.29-4.63-.27-2.59,2.59-8.27,5.15-9.44,5.96-2.71,3.87.45,6.03,2.13,2.99,2.33,8.51-.04,7.64-4.08-3.81.39-6.07-1-6.06-5-6.52,1.95-13.19.35-19.31-2.25-1.82-.77-2.59-2.91-4.46-3.56-3.31-1.16-9.26-.46-12.3-1.75-2.6-1.11-10.02-9.72-12.52-11.56-2.46-1.81-6.66-2.04-8.63-5.44-1.64-2.82.47-5.34-.88-6.1-10.08.63-15.37-10.07-19.08-18.03,2.46-6.53,2.44-11.09,6.99-17.05,3.65-4.78,7.82-6.35,11.56-9.51,2.99-2.54,2.67-7.27,8.47-5.04l2.67-6.89c14.24-1.47,29.16-2.08,43.05.85l1.49,4.04c2.47.55,3.12-3.05,5.31-2.84,4.77.46,7.24,5.96,10.22,5.96,2.75,0,4.29-2.69,7.11-3.09,3.73-.54,7.14,1.38,10.97,1.04,10.84-.98,21.78-3.96,32.37-5.82,5.71-1.01,19.39-4.22,23.97-4.2,2.75.01,4.32,2,5.82,2.01.32,0,1.18-2.53,3.56-3.6,6.39-2.87,16.34-.21,23.1-.48l-2.97,4.52c2.7,3.13,6.25,3.12,8.95,0l-1.97-4.51c1.12-.2,2.01.12,3.05.45,4.37,1.4,10.04,6.27,12.79,7.53,11.29,5.19,20.04,13.16,29.42,17.49,3.5,1.62,6.1,1.07,8.98,2.06,2.02.7,3.27,3.03,4.7,3.41,2.33.62,5.7-1.47,8.81-.9,2.71.5,1.8,3.26,3.99,3.17s3.34-1.76,5.09-2.09c5.52-1.03,10.42,3.66,15.29,5.69,2.58,1.07,5.93.76,8.18,1.85,1.58.77,2.85,3.5,4.01,3.92s2.76-.75,5.01.03c2.87,1,5.31,4.97,7.55,6.58,1.55,1.11,3.95.69,5.06,1.96,1.26,1.44,2.77,8.03,4.49,10.29,2.95,3.89,6.79,3.87,11.08,2.25,4.29-1.62,9.34-4.1,13.83-5.23,8.01-2.03,16.14-2.88,24.28-4.29-4.11,12.56,5.61.47,10.75-.8,4.07-1.01,10.57-.42,14.64-1.41,6.62-1.62,3.32-3.79,12.74-.8.2-.55-.49-1.41.59-2.09,7.54-4.78,12.03,6.29,15.82,5.9,1.56-.16,3.4-2.23,4.97-3.01,1.45-.72,3.42-.55,4.67-1.35s1.64-3.3,3.04-3.98c4.62-2.25,9.58.45,14.07.53l-1.95,5.44c8.33,2.92,1.03,5.57-4.07,6.59l2-5.01c-5.6-2.12-9.11,5.31-12.65,5.73-2.83.33-8.09-1.89-10.88-1.69-2.57.18-5.99,3.3-9.57,1.97-.71-3.53,4.75-1.18,4.01-5-3.71-1.16-6.17-2.8-10.03-4.03ZM158.5,391.13c-5.34-.47-5.3,4.48,0,4v-4ZM34.06,399.12c.86-7.13-5.03-5.89-4.99.02l4.99-.02ZM64.19,396.14l-4-1.01c-1.61,7.61,5.61,2.74,4,1.01ZM40.11,396.14c-1.3,4.84,8.05,7.72,9.02,3.49.84-3.62-4.56-1.59-5.39-1.76-1.31-.26-1.84-2.3-3.63-1.73ZM215.7,398.15c-.84-.93-20.94,3.96-24.8,3.75-1.55-.08-2.46-1.76-3.62-1.6-1.24.17-10.54,4.54-13.29,4.89-2.79.36-7.72-.81-11.37.55-3.08,1.15-8.06,6.11-8.73,6.23-1.26.22-3.12-1.03-4.86-.82-2.2.27-2.97,2.89-5.1,3.1-2.33.23-3.98-1.92-5.96-1.96-2.03-.04-6.54,2.21-9.31,2.66-7.66,1.23-16.58,1.87-21.97-4.57-3.3-.72-3.05,5.19-9.86,3.82-2.04-.41-2.71-2.16-4.29-2.74-2.24-.82-4.57-1.04-6.97-2.06-3.17-1.33-3.53-5.36-8.3-1.69-1.93,1.48-2.08,4.21-4.53,4.53-2.31.29-1.58-2.53-2.93-2.78-3.02-.55-8.77,2.95-12.1,2.82s-5.55-2.93-8.1-3.06c-1.72-.09-3.65,1.23-4.83,1.06-.65-.09-1.2-4.6-7.01-3.14-3.92,3.48,4.79,11.34,4.2,14.45-2.82,2.46-4.77,6.11-7.37,8.67-2.41,2.37-7.34,2.8-6.52,7.01,5.19-.08,5.43,3.65,5.01,8.04,10.75-1.22,7.19,2.37,9.56,7.99,2.23,5.31,5.26,1.1,7.99.92,1.81-.12,13.49,1.72,14.54,2.64,1.25,1.1,1.18,4.07,2.59,4.48.81.24,6.29-2.67,10.93-1.94,7.21,1.14,14.28,1.91,21.25,2.66,2.19.24,4.61-1.48,7.7-.53,1.56.48,2.58,3.1,4.08,2.75,1.34-.31,3.17-3.52,7.29-3.9,4.94-.46,8.32,2.59,11.08,2.76,1.58.1,3.92-2.56,6.82-2.64,5.44-.15,17.56,3.2,22.59,5.37.92.39,5.92,5.75,6.32,6.81.95,2.45-.76,4.54-.17,5.56.52.89,4.1.83,4.85,5.74,1.06,6.98-.98,8.59-6.59,11.35-6.93,3.4-29.01,6.56-35.73,3.87-1.63-.65-2.55-2.64-4.32-2.81-2.1-.19-3.72,2.26-6.94,2.16-3.39-.1-4.92-2.88-7-3-3.77-.22-7.8,4.11-11.99,2.98-.9-.26-1.03-6.15-5.11-5.08-2.61,1.68-.39,3.69-.52,6.01-8.24-1.96-14.59,7.98-3.01,6.46l2.04,4.56,6.88-.87c1.04,7.29,5.59,3.76,9.49,5.06,1.66.55,1.79,3.32,3.25,3.68.82.2,2.73-.75,5.2-.18,6.25,1.42,24.72,9.2,31.07,12.16,3.98,1.86,6.13,6.78,12.18,5.38l2.78,5.82c8.94-3.89,11.03,4.66,18.2,5.93,2.19.39,2.93-1.63,4.55-1.64,4.23-.02,9.63,7.28,13.15.72,1.57-2.93,1.47-5.47,4.14-8.9,1.16-1.49,3.43-2.18,3.96-3.07.95-1.6.3-4.46,1.26-6.77,1.07-2.6,20.01-24.16,22.83-26.32,1.94-1.49,4.09-2.49,6.45-3.1l-4.43-12.98-2.02-.98c-1.6,4.16-6.63,1.8-8.11-1.02-1.19-2.26,2.33-6.22-1.44-9,2.63-1.42,5.13.27,7.46,0,1.31-.16,2.33-1.57,3.1-1.64,1-.08,5.49,2.65,7.82,1.82,3.32,1.18,3.47,9.26,8.74,6.35,1.51-.84,1.71-3.16,2.14-3.43s8.66.02,9.38.89c.88,1.05,1.02,3.59,1.55,4.99l2.95.05v-4.03c3.1-.5,5.71,1.51,8.61,1.94,4.55.67,24.79,3.22,27.86,2.78.52-.07,9.27-3.88,9.67-4.23,3.67-3.27,6.94-19.29,6.03-24.02-.68-3.51-8.3-8.4-11.47-9.61-3.05-1.16-6.65-.82-9.52-2.52-2.25-1.34-2.78-4.61-5-5.03-2.05-.39-4.17.86-6.51.58-6.31-.77-8.92-5.91-16.03-5.72-2.67.07-3.14,3.25-7.99-.45-3.28-2.5-1.97-3.86-3.61-6.41-2.95-4.58-8.01-2.59-11.84-4.21-2.64-1.12-5.62-7.21-9.33-8.8-2.52-1.07-3.86.54-5.35.28-2.48-.43-7.36-6.25-9.11-7.83-2.72-2.46-5.95-.55-4.55-7.99ZM226.75,409.17c2.52,1.76,4.32-4.89,1.5-4.99-3.11-.11-2.57,4.24-1.5,4.99ZM59.16,406.17c-.67-.62-3.98.47-3.99,1.5-.03,2.99,5.9.28,3.99-1.5ZM15.01,422.23c-6.34.87-.98,5.44.52,3l-.52-3ZM13,429.25c-.65-.65-5.56.03-5.01,2.49.87,3.85,7.3-.2,5.01-2.49ZM363.19,445.3l-2.9,1.67c.09,7.73,1.65,4.1,4.24,4.62,1.03.2,2.03,1.94,3.16,1.74,2.97-.5,1.19-5.88-3.48-3.01l-1.02-5.02ZM331.09,458.33l-.97-3.53-3.03-.47.97,3.53,3.03.47ZM668.23,461.34c.25-1.84.06-2.93-1.5-3.99l-1.5,1.5v1.48s2.99,1.01,2.99,1.01ZM153.49,618.84h14.55c8.27,0,5.78-1.6,11.49-3.56,11.45-3.92,32.73-7.16,42.01-12.73,10.81-6.5,20.02-11.1,34.01-10.5,1.99.09,3.26,1.66,4.89,1.75,2.22.12,3.28-1.85,4.97-2.03,6.94-.75,23.53.95,32.06,1,23.8.15,48.48-2.12,72.3-1.05,3.62.16,8.95,2.23,11.96,2.01,1.9-.14,3.57-1.85,6.07-2.04,3.36-.25,6.6.33,11.07.09,28.36-1.55,57.29,4.06,86.1,2.93,7.11-.28,14.73-2,22.29-1.82,2.67.07,3.63,2.5,5.95,2.89l-.49-3.01c4.3.78,8.49-.9,12.5-1.05,2.74-.11,11.31,1.09,12.01.94,4.14-.89-1.94-8.96-2.81-11.05-1.69-4.07-7.26-17-6.68-20.41.32-1.86,10.37-7.67,12.6-7.63,5.73.1,16.86,14.25,21.19,17.99,4.92,4.25,8.26,5.53,13.41,10.67,1.13,1.12,3.53,1.13,4.91,2.11,12.32,8.76,19.13,13.34,33.32,18.85,7.09,2.75,15.08,5.83,22.3,7.79,5.42,1.47,6.78-.23,11.16-.2,14.1.1,24.52,2.38,35.21-9.95,2.58-2.97,1.96-6.45,4.38-8.66.8-.73,8.92-5.48,9.66-5.45,2.95,2.42,5.88,4.88,9.16,6.87,3.78,2.29,8.17,3.55,11.63,5.43,4.79,2.6,22,16.79,22.77,4.23.57-9.3-5.6-15.43-11.98-21.03-11.53-10.12-29.29-21.9-42.1-30.14-7.04-4.53-17.63-9.58-23.64-14.49-5.36-4.37-3.14-6.18-4.98-9.08-1.21-1.91-4.3.5-6.27-1.21-.93-.81-1.36-2.93-2.26-4.01-1.5-1.81-4.36-1.88-4.19-5.62l-10.39-.12c-.58-5.17-10.03-16.32-7.06-21.11,1.56-2.52,15.48-6.51,19.08-9.03,2.92-2.03,11.65-11.44,13.6-14.5.79-1.24,1.27-1.96.96-3.54-7.15.33-14.46-.45-21.61-.05-17.63.99-35.42,2.48-53.1,3.09-19.74.69-39.78.8-59.25-.03-23.85-1.01-41.44,2.03-64.2,4.01-4.01.35-9.1-1.15-11.82-.8-9.85,1.27-21.61,5.02-32.39,3.87-2.1-.22-3.76-2.04-4.76-1.88-1.15.18-2.15,1.8-5.2,1.94-6.91.32-22.62-1.59-29.36-2.89-10.28-1.99-19.68-4.1-29.99-5.96-1.1-.2-2.58.83-3.83.68-.45-.06-7.82-2.65-8.17-2.9-1.77-1.25-1.2-2.83-.39-4.57l-2.52-.53c-4.1,8.98-3.3,24.72-9.07,32.07-9.57,12.19-27.27,10.03-41.02,7.98-2.84-.42-6.88-.68-8.88-1.06-2.55-.49-3.86-3.74-7.77-1.86l1.91,9.94c-6.89.53-3.17,4.08-4.8,7.66-1.1,2.42-14.24,16.07-17.15,19.04-5.62,5.72-12.11,10.58-17.75,15.87-2.4,2.25-7.78,9.63-9.81,10.75-2.51,1.39-4.89.46-6.58,1.44-.4.23-6.44,5.46-6.74,5.81-10.81,12.51-24.61,18.24-35.84,29.86-3.6,3.73-6.42,2.96-11.9,9.68-1.83,2.24-5.93,3.02-4.71,8.32ZM326.07,471.37c.62-.67-.47-3.98-1.5-3.99-2.99-.03-.28,5.9,1.5,3.99ZM117.36,473.39c-.14-.14-3.86-.14-4.01,0-1.94,1.95,2.89,5.6,4,2.49.16-.44.09-2.4,0-2.49ZM102.31,480.41c-1.04-1.03-4.02,1.99-3,3s4.02-1.99,3-3ZM666.74,482.43l-1.5,2.47,1.5,1.5,1.5-2.47-1.5-1.5ZM138.43,486.43h-3s0,4,0,4h1.48c1.58-1.06,1.75-2.15,1.52-4ZM102.31,488.43l-5.01,1.01c-.24,6.34,6.15,4.95,5.01-1.01ZM162.51,488.43c-1.83-.33-3.32,1.1-3,3h3s0-3,0-3ZM85.26,496.45c3.94,0,4-3.98,0-4v4ZM188.61,577.72c2.51.4,5.67-.5,6.01-3.5l-6.01-1.52v5.02ZM173.56,590.75c2,.31,3.93-.14,4-2.49l-1.5-1.5-2.5,2.5v1.48ZM165.52,601.78c.62-.67-.47-3.98-1.5-3.99-2.99-.03-.28,5.9,1.5,3.99ZM140.44,614.84c-.49-.63-3.42-1.12-4,.51-1.73,4.87,5.78,1.75,4-.51ZM269.88,617.84c-1.08,7.97,3.3,5.73,7.61,7.95,4.05,2.09,8.39,6.07,13.15,8.92,9.15,5.49,10.06,7.83,18.85-1.78-.97-3.19-1-12.87-4.14-13.92-4.83-1.62-16.82.79-22.86-.22-2.3-.38-4.45-2.64-5.06-2.63-.81,0-4.87,3.09-7.55,1.68ZM150.47,619.85l-3.53.97-.47,3.03,3.53-.97.47-3.03ZM179.58,624.86c.98,1,4.77-.51,4-3.5-.92-3.56-6.3,1.14-4,3.5ZM292.96,638.91h-3c-.23,1.85-.06,2.94,1.52,4h1.48s0-4,0-4ZM307.01,649.94c.38-5.02-3.38-5.02-3,0h3Z"/>
  <path d="M951.83,50.27c1.74.07,3.61-.31,5.32.19,5.99,1.76,11.14,12.26,17.27,13.83l24.1,22.1c1.57,3.46-5.49,6.95-3.55,12.02-4.64,1.15-7.28-6.98-11.03-2.5-.45,2.13,6.24,5.91,6.88,8.23,1.09,3.95-3.62,4.82-2.87,7.79.54,2.13,4.72.93,5.02.51.15-.2-2.23-7.24.98-4,.24.24,1.24,4.84,2.17,6.37,2.18,3.59,8.09,5.43,2.88,10.18,1.81,2.15,4.83,1.28,6.98,3.04,2.72,2.22,2.35,7.2,4.04,9,.89.95,3.24,1.23,4.54,2.48,6.12,5.89,12.77,15.46,18.51,21.62,2.38,2.56,10.22,6.03,8.41,10.23-.84,1.94-3.84,1.6-3.35,4.29.77.69,6.97-2.7,10.62-.04,6.17,5.84,11.57,12.52,17.42,18.65,3.87,4.06,12.21,8.09,11.09,14.5,5.15-2.57,9.41,4.23,9.03,9.04,3.29-1.98,6.01.99,8.57.92,1.56-.05,3.63-2.59,6.39-.83-.46,5.62,1.6,11.04,6.6,5.09l15.25,8.75c4.46.4,2.85-12.96,3.78-15.98,1.53-4.96,5.94-3.49,6.49-4.04.42-.42-.31-6.41,2.11-8.42.46-.38,9.55-4.46,10.46-4.59,1.68-.24,7.55-.27,8.92.2,1.66.57,4.05,7.18,6.71,3.41,1.19-1.69,2.48-7.83,2.88-10.19.96-5.71.15-13.99,1.12-18.94.45-2.3,2.7-3.14,2.89-4.17.2-1.13-2.17-3.44-2.49-5.31-.49-2.92.76-10.03.34-13.36-6.07-47.93-45.57-86.34-95.42-82.93l-31.77,4.94c.17,4.58,5.23,6.91,5.63,11.97l12.93,12.11.52,4h-4.03s1.01,7.02,1.01,7.02c-2.02.37-2.66-1.81-4.56-2.03-5.24-.61-4.51,6.35,1.52,5.09,1.37,5.64-2.9,6.73-7.47,8.07-1.74.57-4.95-7.03-6.54-5.09-2.8,3.42,6.27,5.31,1.54,9.12-3.57,2.87-7.52-3.62-9.53-5.66-.98-.99-2.56-1.43-3.49-2.53-.66-.78-5.92-8.5-6.09-9.02-.84-2.43,2.51-6.69,1.51-7.96-1.56-1.97-2.12,1.89-2.63,2.02-4.22,1.05-4.89-3.94-6.96-6.97-1.26-1.84-4.39-7.49-4.71-7.83-2.37-2.48-12.64-3.41-13.58-9.03-.51-3.07,2.81-3.59-2.19-5.77,1.64-5.61,5.37-1.95,7.01-3l.97-1.06c-2.15-4.43-.06-2.87,2.05-4.92,4.22-4.09,3.2-5.47,9.48-2.56,2.13-2.45,1.2-4.55,4.03-7.04,4.63-4.08,9.67-3.62,14.28-5.79,2.78-1.3,14.68-8.01,16.89-8.21,3.08-.28,7.63,1.83,11.98.95,2.32-.47,3-2.8,5.04-3.01.78-.08,8.55.85,9.97,1.07,32.3,5.1,59.04,25.57,81.88,47.55,10.47,10.08,18.43,23.57,23.49,36.71,1.4,3.63,4.82,7.5,6.03,10.03,2.99,6.24,9.24,33.82,9.51,40.75.12,3.12-1.98,5.43-1.75,6.69.2,1.15,2.17,2.52,2.62,4.4,1.67,7.14-2.3,33.96-6.07,40.67-4.22,7.5-9.33,12.89-14.48,19.12-1.56,1.89-2.17,5.49-3.89,7.65-1.23,1.54-10.15,11.85-10.95,11.86l-3.97-1.84-3.04,3.13c-1.13-.01-2.21-1.5-3.32-1.78-7.33-1.84-18.15-8.65-24.83-13.3-1.62-1.13-2.07-3.41-3.18-4.09-3.4-2.08-10.02-1.8-12.98-6.89l-4.69,3.81c-1.98-1.24-4.34-1.69-6.4-2.7-16.04-7.9-31.89-26.23-44.52-38.76-19.71-19.56-40.19-40.03-57.15-61.24-2.9-3.63-4.42-5.67-4.48-10.62-5.98.27-4.82-4.03-7.15-7.85-3.32-5.46-7.69-10.7-10.65-16.44-.97-1.87-.9-5.24-2.06-6.48-1.03-1.1-7.63-3.45-9.68-4.9-18.02-12.74-39.11-28.74-56.52-42.53-7.1-5.62-32.57-27.2-35.67-33.79-4.58-9.75,1.66-7.87,3.89-10.71,2.29-2.92-1.64-5.74,5.16-4.37,18.08,3.64,40.65,22.46,55,33.3,3.1,2.34,15.68,9.5,16.99,11.1,1.46,1.79,1.05,3.46,1.01,5.52ZM961.86,67.33h-2v3h2v-3ZM1029.1,79.36c-.49-.05-1.35-.96-2.49-.9-2.51.12-8.93,3.28-8.59,6.38.69,6.39,13.68,6.1,14.1,16.6-3.58-1.18-9.15-1.39-7.02,4.01l2-3,5.01,1c0-.66.03-1.34,0-2,4.6,1.52,3.09,4.37,5.04,5.53,1.14.68,3.02.18,3.79.68.81.53.84,6.03,4.16,3.78,2.12-1.44-.58-5.03-.62-5.64-.26-3.41.3-8.13-.27-11.81-5.8-1.28-13.46-9.05-15.11-14.62,1.32.12,2.7-.06,4.02,0l-.09-2.91-4.93-1.09c.96,1.32.65,2.82,1,4ZM997.99,132.53h-2v3h2v-3ZM1009.02,137.55l-3.03.47-.97,3.53,3.03-.47.97-3.53ZM1179.6,186.69c1.28-.99,1.4-6.07-2.49-5-3.67,1.01.89,6.24,2.49,5ZM1117.39,233.84c.6-3.34-5.23-5.61-6.01-2.49-.68,2.72,4.54,2.79,6.01,2.49ZM1121.4,233.86c-.76-.61-2.47.55-2.95,1.55.07,6.95,5.48.47,2.95-1.55ZM1138.46,235.86h-1.48s-3.51,2.5-3.51,2.5l1.51,1.51,3.39-1.11.09-2.9ZM1144.52,245.86c4.45,2.73,3.97-11.19-3.42-8.93-5.05,1.55,1.23,5.8,2.66,6.97.92.75.68,1.91.77,1.96ZM1141.48,252.92c-.58.58.84,2.98,1.5,2.98,2.78,0,.02-4.5-1.5-2.98Z"/>
  <path d="M704.27,388.93c1.03.62,6.55,5.35,7,5.5,1.33.46,2.99.09,4.4.16l-1.68,3.06c-3.08-.76-6.94-.12-9.71-.38-5.44-.5-5.14-1.65-11.93.58-8.02,2.62-11.18,3.77-20.43,4.67-11.47,1.11-20.91,2.29-32.27,5.84-.95.3-8.34,2.03-8.78,1.98-1.92-.22-2.17-5.62-6.45-3.69l-1.58,4.99c-2.02.52-3.62-2.28-5.94-2.07-1.96.17-2.67,2.66-6.01,3.13-3.97.56-10.63-.06-5.93-4.92,3.9-4.04,3.77-2.07,8.37-1.15l1.01-6.01c-2.5-1.47-12.93,2.72-13.86,4.19-1.11,1.75.94,5.98-3.48,8.12-3.73,1.81-4.16-2.82-6.22-2.28-1.39.36-1.22,3.42-1.69,3.83-2.12,1.84-10.61-.04-12.18.33-1.89.44-3.51,4.27-5.41,4.71s-11.88-1.23-15.89-.88c-4.63.41-8.4,5.56-6.48-3.47l-2.53-.53c-1.74,3.56-2.63,6.84-7.52,6.03,3.49-8.84-6.01-7.4-11.02-4.48-3.11,1.81-.4,5.91-8.55,6.3-1.44.07-3-.95-4.87-.74-3.8.41-7.68,2.39-11.69,1.94l.12-3.89,5.9-1.13-2.03-6.55c2.02-6.05,8.03.04,11.45-.45,1.61-.23,3.57-1.97,5.8-2.43,2.82-.58,5.61.26,9.24-.71,2.49-.67,4.49-2.55,7.11-2.92l3.02,4.03c1.19-4.2,5.81-6.61,9.94-5.78,1.4.28,2.13,2.82,3.95,2.65,1.36-.13,4.17-2.88,6.62-3.45,3.69-.86,7.07,0,10.56-.48,2.43-.33,5.72-3.58,9.43-1.81l1.65,3.86c2.65-1.23.09-4.57.5-5.01.67-.71,15.77-1.79,18.48-2.11,2.39-.28,4.44-1.64,7.11-1.92,5.16-.54,11.4,1.87,14.07,1.58,1.48-.16,3.36-2.8,5.25-3.34,3.97-1.13,14.03-3.68,17.91-4.18,5.74-.73,1.77,1.59,4.94,4.93,1.8.37,2.48-2.74,4.78-2.78,3.61-.05,6.83,3.77,8.08,3.65.44-.04,7.32-4.03,7.7-4.42,1.68-1.72-.02-4.06,4.62-4.43,2.77-.22,5,1.12,6.88.94,1.32-.13,2.33-1.5,3.36-1.68,7.68-1.38,8.31-.91,14.89,3.07ZM678.11,391.62l-1.57,2.44c9.19,9.42,8.22-4.47,1.57-2.44ZM644.42,399.6c-8.03-.81-5.91,8.3,0,1.48v-1.48ZM559.13,410.63c-2.53-.25-3.39,1.6-3,4.01l2.99-2.52v-1.49Z"/>
  <path d="M349.91,363.62c2.65,2.88,5.23-2.41,5.77-1.76l-2.9,10.4,1.49,1.48c2.41-1.39,4.99.33,6.89.14,1.65-.16,2.68-1.96,5.01-2.05,1.2-.04,12.96,1.3,13.58,1.59.66.3,5.89,5.69,5.97,6.14.68,3.83-7.34,4.1-8.99,4.85-8.84,4.01-10.65,5.07-21.38,4.48-6.48-.35-14.94-1.98-21.09-3.81-2.98.74-2.12,5.27-3.63,6.41-.88.66-3.02.44-4.57,1.45-3.94,2.57-2.75,5.42-8.69,7.34-4.72,1.53-9.02,2.05-13.82.74-.13.89-.01,2.3-.51,2.98-1.85,2.51-22.72,2.74-26.45-1.15l-.17-8.86,7.52,3.1c2.12.16,2.03-2.83,3.23-3.11,3.11-.72,7.07-1.13,10.32-2-.52,4,.3,6.32,4.5,7.03,1.3-1.05,1.85-1.55,1.38-3.35-.64-2.45-6.86-4.44,2.48-4.72l2.24,3.02c6.12-1.46,5.83-8.66,12.55-10.57-2.29-5.85-9.28-16.09-3.54-21.47,1.11-1.05,2.92-.9,3.93-2.09.66-.78.49-2.38,1.61-3.41.35-.32,7.57-4.87,8.02-5.03,3.13-1.12,18.08-.08,18.92,3.13.52,2-2.46,6.07.35,9.13ZM343.65,361.86c1.78,1.91,4.49-4.02,1.5-3.99-1.03.01-2.12,3.32-1.5,3.99ZM329.59,363.88c-.76-.75-4.06-.47-3,2.49,1.25,3.46,4.32-1.18,3-2.49ZM346.65,370.9c-3.97,1.46-8.19-3.02-11.45-2.08-1.11.32-2.27,5.31.42,6.61,4.05,1.94,4.57-1.74,6.65-2.24,1.41-.34,4.51,2.01,4.38-2.28ZM365.71,374.91c-3.68.02-3.68,2.98,0,3v-3ZM318.55,391.96c-2.9-2.05-5.14,3.49-2.99,5.01,2.9,2.05,5.14-3.49,2.99-5.01Z"/>
  <path d="M511.71,412.19c.52,7.03-6.27,7.69-7.07,12.99l-8.97-.95c-.53,1.41,4.03.86,2,2.99-.58.61-4.98.71-6.25,1.28-3.22,1.45-3.38,3.88-8.29,3.84-1.92-.02-4.69-1.38-5.91-1.01-1.14.34-1.27,2.3-1.9,2.63-2.65,1.38-20.32,6.83-21.8,5.32l-.43-6.09-7.57-3.45,4.5-3.55c7.55,6.09,13.91,4.3,21.47-.56,1.11-.72,1.38-2.8,2.76-3.26,1.91-.63,4.48.48,6.37-.66,1.17-.71,1.23-3.1,3.96-4.06,1.26-.45,8.38-1.63,9.53-1.48,2.56.33,2.97,3.31,5.57,3.04l.94-4.59,11.11-2.43ZM494.65,424.22c.23-1.85.06-2.94-1.52-4h-1.48s0,4,0,4h3ZM484.62,428.23c2.45.35,7.05.22,6.01-3.5-1.01-3.62-7.25.62-6.01,3.5ZM482.6,424.23l-3,4,4,1-1.01-5.01Z"/>
  <path d="M809.53,261.84c4.64-3.24,8.42,4.77,8.03,8.49-.18,1.77-5.7,7.42-7.59,7.6l-4.46-2.57,3-3.5c-4.27,2.25-11.68-3.83-11.99-7.5s8.32-7.51,10.5-10.55l2.51,8.03Z"/>
  <path d="M188.14,444.62h-1.48c-2.35-4.74-6.63-1.83-8.6-2.54-2.38-.86-8.06-7.2-7.57-10.53.23-1.54,3.34-8.87,4.62-9.56,2.37-1.26,15.05,5.81,16.29,8.85,2.67,6.53-1.79,8.23-3.26,13.78Z"/>
</svg>