<?xml version="1.0" encoding="UTF-8"?>
<svg id="Calque_1" data-name="Calque 1" xmlns="http://www.w3.org/2000/svg" viewBox="0 0 1093.58 763.62">
  <defs>
    <style>
      .cls-1 {
        fill: #fff;
      }
    </style>
  </defs>
  <path class="cls-1" d="M738.8,61.41c-4.74-9.37-18.13-2.75-24.86-6.16-2.26-1.14-6.08-10.68-8.88-14.17-5.01-6.26-22.82-23.11-30.75-22.31-15.28,11.85-17.44,27.21-21.12,44.82-.36,1.74-2.55,3.46-2.96,5.89-.83,4.86-1.93,17.4,5.22,16.76,3.95-10.02,7.18-51.89,17.59-54.18,3.37-.74,28.04,20.15,33.02,24.06,1.5,1.18,1.85,3.43,3.02,4.87l29.73.42Z"/>
  <path class="cls-1" d="M876.53,113.46c-3.73-3.68-12.8-5.74-13.63-12.24l6.83-65.55-3.17-8.89-7.93-.77-44.86,28.11c-3.51.54-15.64-9.88-22.73-10.35-32.07-2.11-50.4,35.78-52.31,62.8-1.63,23.07,3.74,47.96,15.66,67.83,2.29,3.82,15.73,17.95,19.29,19.86,4.16,2.23,6.64.16,8.27.76,20.59,7.56,26.86,5.92,46.22,10.23,5.27,1.17,13.03,5.78,18.02,6.81,4.72.98,10.2-1.25,14.97,1.88l2.65-5.32c9.28,9.57.99,8.46-.52,10.92-3.06,5,3.45,11.99,9.24,10.46l16.18-40.9c9.25,6.79,13.62.82,21.38.14,4.88-.43,36.49-1.96,38.68-1.51,2,.41,3.35,3.75,5.92,4.52,2.66.8,22.62,4.7,23.53,3.93.27-5.47-9.96-8.42-14.23-9.7-22.37-6.67-52.79-6.26-75.36-.99l-1.77-3.48c3-2.85,6.59-7.79,7.98-11.57,1.91-5.17-4.77,1.66-3.54-3.52,3.02-12.72,7.73-5.78,14.66-6.6,9.01-1.06,21.21-4.9,30.76-4.73,11.24.2,24,5.79,36.19,3.35l-.1-5.19c-16.42-4.87-35.09-7-52.21-5.43-8.18.75-25.8,9.76-28.92-1.27-1.39-4.91.23-9.01-2.3-15.42-1.16-2.93-10.47-15.82-12.85-18.18Z"/>
  <path class="cls-1" d="M342.81,131.87c18.47-18.13-20.49-57.33-37.79-35.12-13,16.69.33,46.9,21.04,44.12,1.29-.17,15.8-8.07,16.75-9Z"/>
  <path class="cls-1" d="M251.62,99.23c-12.03,10.31-12.96,29.91-3.24,42.04,26.96,33.65,55.49-22.06,35.56-40.87-9.07-8.55-22.7-9.41-32.31-1.17Z"/>
  <path class="cls-1" d="M641.25,118.18c-2.96-3.38-17.11,19.25-18.47,21.41-7.19,11.41-15.36,26.35-19.62,38.9l-34.55,13.34,1.69,5.31,36.22-9.5c2.58,5.77,20.53,20.85,16.78,26.09-1.74.83-4.24,1-5.7,2.19-4.8,3.89-11.25,8-15.25,11.42-7.16,6.12-10.24,14.69-19.36,16.97-.65,8.51,2.7,20.99,13.14,14.03l38.92-35.52c1.74,0,15.03,22.35,22.16,19.46,2.3-9.7-2.35-7.77-5.3-11.46-2.09-2.61-12.13-14.44-12-16.04,2.33-5.61,17.85-11.64,13.57-18.41-.43-.68-5.91-2.07-7.42-1.7-4.49,1.09-8.29,11.7-14.2,10.19-3.98-1.01-12.1-15.77-17.19-18.45-.62-3.98.76-2.03,2.61-2.64,5.81-1.93,30.01-6.48,31.06-11.55,2.48-11.97-29.78,6.83-33.69,2.67.27-9.58,30.99-51.7,26.6-56.72Z"/>
  <path class="cls-1" d="M699.62,162.32c3.49-6.55,9.34-34.9-2.49-33.62-7.36.8-14.41,38.46,2.49,33.62Z"/>
  <path class="cls-1" d="M332.11,202.72c6.46-5.72,4.91-33.32.27-40.83-8.21-13.3-42.23-12.35-54.26-3.56-.93.68-10.74,10.11-11.17,10.75-5.95,8.83-4.83,25.74-1.26,35.56,15.18,2.39,36.62,13.81,50.9,8.21,4.22-1.66,4.63-4.56,6.74-5.97,2.64-1.77,6.48-2.12,8.78-4.15Z"/>
  <path class="cls-1" d="M756.04,195.85c5.02-3.49-1.13-18.05-11.03-17.56-13.29.65-.75,14.44-.91,20.35-.15,5.49-11.6,24.62-8.84,27.69l9.02-2.9,5.14-18.36c2.67,12.14,10.27,21.11,21.29,26.59,1.19-1.24-16.19-21.51-17.84-25.58-5.03-12.44.2-8.15,3.18-10.22Z"/>
  <path class="cls-1" d="M502.9,401.88c3.26-4.4-10.55-29.86-13.5-35.24-21.52-39.34-52.07-80.92-85.77-111.07-9.6-8.58-21.09-15.56-30.19-24.83-17.65-.17-1.06,13.86,5.31,19.56,55.68,49.76,76.42,78.27,116.03,141.11,2.7,4.29,1.21,9.3,8.12,10.47Z"/>
  <path class="cls-1" d="M624.15,299.66c4.67-4.32,32.41-25.2,33.06-28.14.32-2.35-2.19-4.88-4.38-4.39-1.12.25-16.21,11.59-18.52,13.43-29.24,23.24-64.34,54.35-92.4,79.62-5.22,4.7-29.78,27.08-31.1,30.96-1,2.92-.94,5.94-.79,8.96,4.88,1.17,4.05-.74,5.82-2.23,36.56-30.84,73.05-65.65,108.31-98.21Z"/>
  <path class="cls-1" d="M63.15,501.09c-2.3-5.85,6.9-9.89.78-14.1l-21.3,12.36c-11.21-2.94-2.37-14.52-.93-21.87-1.52-5.49-16.37-1.58-11.99-15.86,3.03-9.89,20.02-4.95,26.78-6.92,10.23-2.97,15.17-25.63,18.98-34.22,11.44-25.83,22.88-52.06,37.51-75.98,7.68-12.56,21.69-28.14,28.48-40.68,1.71-3.16,3.58-6.31,3.18-10.11-24.78,28.67-45.49,63.59-63.03,97.44-9.13,17.61-15.57,36.57-25.53,53.79-3.74,4.78-18.92-1.19-28.39,7.56-7.99,7.38-9.94,27.77,3.32,29.32-4.91,22.65,1.44,33.63,24.01,21.08,2.05,9.64,11.99,10.92,20.57,8.12,3.72-1.21,6.24-6.22,9.6-6.29,7.27-.14,7.18,7.89,20.32-1.02,7.84-5.32,35.99-42.34,43.46-52.3,4-5.34,24.45-33.47,25.1-37.03,1.97-10.82-7.48-1.94-10.82,1.66-19.6,21.11-35.96,53.84-56.47,73.87-2.33,2.27-6.28,3.7-8.26,6.93l-9.71-4.57c-9.85,4.07-13.54,14.09-25.68,8.81Z"/>
  <path class="cls-1" d="M917.95,323.86c5.99-2.9,5.53-10.39,5.29-15.96-6.87,2.79-5.42,9.76-5.29,15.96Z"/>
  <path class="cls-1" d="M953.05,470.69c2.13-3.54-2.49-14.95-4.11-19.13-8.35-21.64-38.84-68.69-59.14-79.18-2.42-1.25-3.99-3.22-7.33-2.4l1.65,8.09c19.09,14.03,33.97,33.14,45.89,53.42,3.88,6.61,15.53,26.9,14.51,33.21-1.44,8.93-13.9,11.02-2.51,25.72,12.54,16.19,21.15-7.36,36.22.12-4.61-28.85-18.06,2.95-29.39-5.18-10.45-7.5,3.09-12.8,4.21-14.66Z"/>
  <path class="cls-1" d="M632.38,371.74c-3.65-.98-4.83,1.22-7.16,2.58-8.49,4.95-17.63,14.08-25.98,20.13-8.99,6.51-25.3,10.68-25.38,23.37,6.8.06,12.71-4.04,18.23-7.46,6.46-4.01,17.56-12.41,23.44-17.35,3.6-3.01,21.24-16.68,16.83-21.27Z"/>
  <path class="cls-1" d="M903.74,511.8c-3.1-11.43,5.43-24.67,5.35-34.59-.04-4.68-3.07-9.03-3.59-14.14-2.14-20.88,1.11-44.05-8.04-62.89-.89-1.82-6.45-7.06-7.89-5.39-2.05,4.67,2.9,10.62,2.89,13.29,0,1.88-2.59,4.44-2.8,7.18-1.16,14.6,5.25,31.58,4.86,46-.33,11.98-6.29,29.71-3.21,42.2.18.73,11.43,9.51,12.44,8.34Z"/>
  <path class="cls-1" d="M997.77,479.88c26.64,7.08,39.68-14.03,23.03-36.33-6.05-8.11-16.6-11.11-21.29-17.73-5.74-8.1-3.95-20.49-12.39-25.72,2.7,8.83,4.19,21.81,8.48,29.62,6.71,12.22,23.11,14.2,25.11,28.14,1.24,8.63-3.09,15.09-11.86,16.4-7.84,1.18-13.74-12.62-17.37-6.84,1.92,15.5-7.27,15.51-11.47,26.64,11.05,1.96,16.34-3.9,17.76-14.18Z"/>
  <path class="cls-1" d="M421.35,479.9c11.38,1.17,9.48-13.92,8.91-22.23-.48-7.03-3.57-33.9-5.44-38.89-.89-2.38-2.94-7-6.12-6.25-9.85,8.63-1.92,19.36-1.02,27.57,1.48,13.44-2.2,26.58,3.66,39.8Z"/>
  <path class="cls-1" d="M159.75,444.44c-8.19,8.24-1.89,19.92-2.63,31.1-.95,14.53-8.86,27.14,2.61,41.56,6.89-4.51,7.5-14.35,8.05-22.06,1.12-15.68-1.07-31.08-3.64-46.16-.4-2.35-1.7-5.06-4.39-4.45Z"/>
  <path class="cls-1" d="M453.25,697.98c7.06-12.76,3.97-25.04,5.34-38.09,2.16-20.57,5.92-34.96,3.55-56.78-3.02-27.79-9.42-78.45-21.52-102.6-1.22-2.43-6.04-10.86-7.78-11.73-5.21-2.61-2.51,10.08-2.62,11.39-3.45,41.65,15.96,97.51,18.44,142.62.88,16.01-3.65,36.19-1.74,49.98.55,3.93,3.83,8.79,3.05,13.82,5.16,1.86,21.05,7.15,21.09,13.58.04,5.74-10.47,3.31-13.38,9.8-3.06,6.84,7.02,21.36-9.11,21.15-10.15-.13-13.43-19.43-21.05-19.49-5.69-.04-7.78,12.84-13.35,16.84-16.11,11.59-15.64-20.59-18.19-29.57-6.35-22.33-20.56-41.4-34.88-59.11-4.82-5.96-11.82-14.55-16.92-20.32-10.73-12.17-22.12-25.07-39.98-20.42-36.49,9.5-66.3,74.39-85.42,104.32-11.37,17.8-25.21,39.12-47.03,19.21l-2.75-.03c-5.86.99-6.86,7.59-11.25,10.21-9.94,5.93-15.33-2.86-14.89-12.22-7.71.66-15.13,4.76-16.08-6.15,3.18-12.68,22.16,1.64,22.87-10.99.14-2.42-3.07-4.25-3.2-6.78-.14-2.85,3.9-11.17,3.57-19.59-1.23-32.17-6.01-60.15-3.6-93.88,1-14.02,6.38-27.56,5.28-41.69-10.85,13.41-10.68,34.64-12.39,51.43-16.29-1.22-29.59,14.45-43.1,21.63-29.28,15.58-56.45,12.41-74.03-17.15-17.06-28.7-18.05-61.21,6.25-86.08,1.51-1.54,3.45-4.97,5.38-1.78,3.57,25.85,43.81,66.8,69.32,67.22,6.69.11,24.92-3.57,25.52-12.21-33.2,11.28-63.38-15.46-78.77-42.71-11.37-20.13-6.81-40.67-30.11-12.08-6.97,8.55-15.77,22.35-18.37,33.06-3.81,15.69-.68,51.84,17.28,58.1l-3.61,5.24c16.49,32.14,51.33,34.37,81.07,18.97,13.66-7.08,27.69-17.64,41.36-25.12l-1.4,41.67,6.75,55.85c-17.43-4.29-32.12,24.31-17.72,32.88,3.36,2,6.56-.85,8.94,0,3.94,1.4,5.87,11.34,13.62,12.92,11.31,2.32,13.78-8.05,22.66-11.65,19.8,20.46,40.49-1.95,52.01-19.35,15.39-23.26,27.39-50.78,44.63-74.18,8.67-11.76,30.09-36.2,46.14-32,13.31,3.48,30.69,31.35,39.85,41.77,3.75,4.26,20.25,17.79,21.26,19.53.62,1.07,8.92,20.86,9.39,22.53,3.23,11.39,3.27,26.37,8.42,37.69,9.79,21.52,23.93,12.17,35.45-1.72,8.33,9.92,22.01,20.94,33.8,8.93,6.98-7.11,2.33-13.63,5.2-19.63,1.31-2.75,7.92-4.66,10.53-8.97,10.15-16.75-10.38-25.03-23.81-28.26Z"/>
  <path d="M876.53,113.46c2.39,2.35,11.69,15.25,12.85,18.18,2.54,6.41.91,10.5,2.3,15.42,3.12,11.03,20.75,2.02,28.92,1.27,17.13-1.57,35.79.55,52.21,5.43l.1,5.19c-12.19,2.44-24.95-3.15-36.19-3.35-9.55-.17-21.75,3.67-30.76,4.73-6.93.82-11.64-6.12-14.66,6.6-1.23,5.18,5.45-1.65,3.54,3.52-1.39,3.77-4.98,8.72-7.98,11.57l1.77,3.48c22.57-5.27,52.99-5.67,75.36.99,4.27,1.27,14.5,4.23,14.23,9.7-.91.77-20.87-3.13-23.53-3.93-2.57-.77-3.92-4.11-5.92-4.52-2.19-.45-33.8,1.09-38.68,1.51-7.75.68-12.12,6.65-21.38-.14l-16.18,40.9c-5.79,1.53-12.3-5.46-9.24-10.46,1.51-2.46,9.79-1.36.52-10.92l-2.65,5.32c-4.77-3.13-10.25-.91-14.97-1.88-4.99-1.03-12.76-5.64-18.02-6.81-19.37-4.31-25.63-2.67-46.22-10.23-1.63-.6-4.11,1.47-8.27-.76-3.56-1.91-16.99-16.04-19.29-19.86-11.92-19.87-17.29-44.76-15.66-67.83,1.9-27.02,20.24-64.9,52.31-62.8,7.09.47,19.22,10.89,22.73,10.35l44.86-28.11,7.93.77,3.17,8.89-6.83,65.55c.83,6.5,9.9,8.55,13.63,12.24ZM822.16,132.35c-.92-11.93-11.82-10.69-20.76-13.82s-10.83-10.04-21.6-1.04c-7.87,6.57-4.78,15.28-7.42,22.42-.59,1.61-3.38,1.35-3.53,2.4-.58,4.13,5.33,9.63,3.65,14.86l-7.1,1.76,8.86.03-1.79,5.27c10.42,6.97,34.03,7.06,41.63-3.58,2.53-3.54,3.77-11.02,6.77-13.62,3.95-3.44,10.93-.74,4.88-12.13l-8.91.99c-1.02-4.95,1.82-3.46,5.32-3.54ZM861.17,199.75h-5.3v3.53h5.3v-3.53Z"/>
  <path d="M644.35,709.96c-5.62,5.89-27.52,6.85-24.36,25.26,12.28-3.89,9.82,3.25,15.81,8.12,7.88,6.42,13.14-1.78,22.29-1.13,8.33.59,13.37,9.11,22.05,5.28-2.85-12.93,7.04-21.31,10.92-30.74,3-7.28,2.23-16.65,4.43-23.94,2.56-8.47,29.1-42.98,36.38-48.74,17.78-14.06,51.61-16.75,71.36-6.05,13.56,7.35,49.77,45.03,58.3,58.74,6.49,10.43,11.81,22.29,10.3,34.92l20.21-5.25c5.23,1.54-.66,14.69,9.33,15.49,8.99.71,13.81-12.9,19.5-13.4,6.45-.57,10.28,9.62,19.94,3.92,7.32-4.32,8.81-10.9,6.88-18.99-2.27-9.51-11.73-5.87-15.95-14.18-2.41-4.74-5-23.03-5.07-28.73-.5-41.07,14.2-78.6-5.12-118.9-1.86-3.88-16.65-23-14.26-25.62,22.77,9.13,25.85,37.99,36.7,56.89,6.76,4.49,45.75-7.16,54.16-11.28,13.62-6.66,21.67-19.14,27.71-32.58,15.7-34.91,8.3-69.09,44.55-91.99,2.34-1.48,3.38-3.58,7.13-2.61.43,6.27-7.21,7.02-10.52,9.86-5.27,4.53-15.83,18.08-18.26,24.3-5.06,13-5.06,31.8-9.03,45.94-3.42,12.18-11.69,32.7-19.81,42.25-18.62,21.89-54.99,24.48-80.71,31.94,3.56,10.59,1.75,19.96-1.77,30.09,3.18,2.85,51.07-10.68,57.98-13.83,52.85-24.05,53.12-63.3,72.93-109.72,8.63-20.21,25.73-38.19,18.06-60.84,3.95-3.88,7.1,10.55,7.15,13.38.34,19.33-12.12,35.84-19.11,53.56-9.78,24.77-16.14,59.41-32.43,79.29-20.39,24.88-46.87,38.56-77.62,46.52-7.36,1.9-26.2,1.71-29.23,8.01s-1.28,36.55,1.31,43.99c2.54,7.29,8.26,5.88,12.44,10.62,2.15,2.43,7.87,13.78,7.97,16.99.03.88-3.42,15.82-3.88,17.16-1.36,3.96-14.43,9.86-18.2,9.95-4.32.1-10.51-4.79-12.48-4.63-1.79.14-5.86,6.33-9.23,7.97-11.23,5.46-21.85,5.09-25.54-8.34-1.74-1.23-10.74,6.5-19.22.67-7.46-5.13-4.04-15.52-5.82-22.54-3.79-14.98-49-62.63-63.63-69.37-14.35-6.61-31.23-6.85-46.69-4.52-12.78,1.92-30.59,26.06-38.28,36.2-2.29,3.02-7.5,6.33-8.93,8.81-6.37,11.12-3.13,22.05-5.65,31.59-1.11,4.2-9.84,14.91-12.39,21.3-2.23,5.58.11,11.84-5.74,15.63-6.13,3.98-18.02-3.56-24.95-3.79-8.34-.28-15.83,7.14-24.88.19-1.92-1.47-2.48-5.18-4.36-6.27-4.75-2.76-9.75,1.09-13.68-7.63-5.99-13.28,7.58-35.67,22.6-36.71,1.53-1.11,3.14-17.88,2.96-21.08-.16-2.87-2.6-5.94-2.85-9.24-3.38-44.6.2-91.52-1.83-136.46-1.25-27.51-7.7-55.7-5.46-83.33,1.14-14.07,8.38-26.65,10.24-39.41,1.23-8.4-2.36-18.2,4.92-23.46,2.72-.57,3.98,2.08,4.4,4.43,2.96,16.62-5.1,35.14-8.72,51.27,3.55,3.78,8.16,3.42,12.37,7.14,12.6,11.11,28.24,45.55,27.9,62.15-.16,8.12-5.1,14.29-6.26,21.74-1.98,12.76-2.86,33.29-8.03,45.17-3.92,8.99-21.62,22.32-22.57,30.78-.47,4.17,1.56,7.41,1.42,10.48-1.29,27.34,1.36,46.01,2.22,72.62.13,3.89.36,11.87-2.33,14.7ZM641.24,462.15l1.75-4.43-2.65-2.64h-2.62s0,7.07,0,7.07h3.52ZM657.21,506.48c.26-3.38.49-7.78-3.52-8.86v8.86s3.52,0,3.52,0ZM648.35,508.27h-3.55v32.8c0,1.06,2.47,4,1.79,6.2h1.75s0-39,0-39ZM658.97,520.67v-8.85h-1.73c-1.14,3.28-1.14,5.57,0,8.84h1.73ZM664.3,554.38h-3.53v5.3h3.53v-5.3Z"/>
  <path d="M109.18,119.95c.73-12.05,22.24-52.65,29.45-65.42,7.8-13.82,27.51-46.56,41.48-52.49,17.6-7.47,23.46,7.06,30.18,20.38h2.62c2.96-3.14,3.31-6.18,7.57-8.4,6.7-3.5,30.7-7.87,38.97-8.91,29.7-3.76,68.71,5.34,93.29,22.94,3.21,2.3,8.75,6.11,5.61,10.35-5.39.69-32.36-15.81-41.72-18.58-26.24-7.77-57.26-7.78-83.69-.43-6.56,1.82-11.71,7.63-19.13,6.6.77,6.23,2.84,12.03,1.69,18.52-6.45,36.31-12.14,67.47-27.01,102.43-9.01,21.2-24.45,43.33-36.57,62.87l.03,2.1c9.56,2.39,5.01,9.82,6.09,14.68,1.2,5.4,10.03,25.32,3.44,28.11-3.85,1.63-3.56.08-4.81-2.27-1.32-2.49-5.27-9.91-5.88-11.84-1.65-5.22-1.43-22.99-8.65-23.02-2.49,0-5.15,1.83-8.78,1.6-19.81-1.26-40.92-30.6-43.59-48.78-1.81-12.34,8.35-44.02,19.39-50.43-.38,6.28,2.54,11.53-3.55,17.71,7.27,4.94,13.16-13.98,14.99-19.57,1.3-3.96,2.67-8.12,2.73-12.33-4.93,1.76-5.1,9.66-7.99,12.44-2.58,2.48-5.32,1.24-6.18,1.74ZM162.38,54.35c-3.74-1.47-8.34,9.16-4.42,10.59l4.42-10.59ZM144.65,61.44c-1.02-1.02-5.28,1.48-5.28,2.65,0,4.91,7.96.03,5.28-2.65ZM153.54,84.48l3.52-2.69-2.66-4.4-.86,7.08ZM153.51,93.34l-.87-7.07c-2.73,1.91-3.09,3.81-2.66,7.07h3.53ZM151.74,96.9h-3.53v7.07h3.53v-7.07ZM130.46,132.37h-3.53v5.3h3.53v-5.3ZM138.94,185.18l-.39-8.61-7.96-1.55c-3.16,9.19-1.28,17.63,8.35,10.15ZM112.25,184.27l-6.6-2.26c-2.86,3.02,15.03,23.95,17.72,21.26l-11.12-19ZM158.84,182.02c-2.7-2.73-10.78,8.7-8.85,12.39,4.7.7,7.45-9.15,8.85-12.39ZM141.11,203.29l-14.16.88c2.5,4.54,14.69,6.04,14.16-.88Z"/>
  <path d="M453.25,697.98c13.44,3.23,33.96,11.51,23.81,28.26-2.61,4.31-9.22,6.23-10.53,8.97-2.87,6,1.79,12.52-5.2,19.63-11.79,12-25.47.99-33.8-8.93-11.52,13.89-25.66,23.24-35.45,1.72-5.15-11.32-5.19-26.3-8.42-37.69-.47-1.67-8.77-21.46-9.39-22.53-1-1.74-17.51-15.27-21.26-19.53-9.16-10.42-26.54-38.29-39.85-41.77-16.05-4.19-37.48,20.24-46.14,32-17.25,23.4-29.24,50.92-44.63,74.18-11.51,17.4-32.21,39.81-52.01,19.35-8.88,3.61-11.35,13.97-22.66,11.65-7.75-1.59-9.68-11.52-13.62-12.92-2.38-.85-5.59,2-8.94,0-14.4-8.56.29-37.17,17.72-32.88l-6.75-55.85,1.4-41.67c-13.68,7.48-27.7,18.05-41.36,25.12-29.74,15.4-64.58,13.18-81.07-18.97l3.61-5.24c-17.96-6.26-21.09-42.41-17.28-58.1,2.6-10.7,11.4-24.5,18.37-33.06,23.3-28.59,18.74-8.04,30.11,12.08,15.39,27.25,45.57,53.99,78.77,42.71-.61,8.64-18.83,12.32-25.52,12.21-25.52-.42-65.76-41.37-69.32-67.22-1.93-3.19-3.87.24-5.38,1.78-24.3,24.87-23.31,57.38-6.25,86.08,17.58,29.56,44.75,32.73,74.03,17.15,13.51-7.19,26.81-22.85,43.1-21.63,1.71-16.79,1.54-38.02,12.39-51.43,1.1,14.13-4.28,27.67-5.28,41.69-2.42,33.74,2.36,61.71,3.6,93.88.32,8.42-3.71,16.74-3.57,19.59.12,2.53,3.33,4.36,3.2,6.78-.71,12.63-19.69-1.69-22.87,10.99.95,10.91,8.36,6.81,16.08,6.15-.44,9.36,4.95,18.15,14.89,12.22,4.39-2.62,5.38-9.23,11.25-10.21l2.75.03c21.82,19.91,35.66-1.41,47.03-19.21,19.11-29.92,48.93-94.81,85.42-104.32,17.86-4.65,29.26,8.25,39.98,20.42,5.09,5.77,12.1,14.37,16.92,20.32,14.32,17.71,28.52,36.78,34.88,59.11,2.56,8.98,2.08,41.16,18.19,29.57,5.57-4,7.65-16.88,13.35-16.84,7.62.06,10.9,19.36,21.05,19.49,16.13.21,6.05-14.31,9.11-21.15s13.42-4.06,13.38-9.8c-.04-6.42-15.94-11.72-21.09-13.58.77-5.03-2.51-9.89-3.05-13.82-1.91-13.79,2.62-33.97,1.74-49.98-2.49-45.11-21.89-100.98-18.44-142.62.11-1.3-2.59-13.99,2.62-11.39,1.74.87,6.56,9.31,7.78,11.73,12.11,24.15,18.51,74.81,21.52,102.6,2.37,21.82-1.39,36.21-3.55,56.78-1.37,13.05,1.72,25.33-5.34,38.09Z"/>
  <path d="M383.68,26.31c31.54-4.45,54.47,53.54,62.51,76.76,9.66,27.87,24.76,75.92-.89,98.46-9.68,8.51-23.24,8.41-34.99,4.78-22.08-6.81-17.73-28.66-23.26-45.9-3.21-10.01-13.18-21.5-14.97-31.14-3.06-16.55,3.06-30.94,2.94-45.49-.06-7.6-4.24-16.68-4.99-23.39-1.28-11.52-.87-32.04,13.64-34.09ZM378.78,47.25c3.71-1.43,5.93-4.87,5.29-8.86-3.3,1.29-5.48,5.7-5.29,8.86ZM416.01,89.79l-7.08-10.62c-1.14,2.02,4.24,13.77,7.08,10.62ZM423.09,144.77c-1.38-11.18-5.28-26.58-14.15-33.69,2.71,10.81,5.92,26.35,14.15,33.69ZM408.91,194.41c1.9-1.91-6.66-9.88-8.84-10.63-1.32,3.01,6.46,13.03,8.84,10.63ZM444.38,185.56c-3.09-2.67-26.55,7.3-26.56,9.74,4.8,9.37,31.21-5.72,26.56-9.74Z"/>
  <path d="M63.15,501.09c12.14,5.28,15.83-4.74,25.68-8.81l9.71,4.57c1.98-3.24,5.93-4.66,8.26-6.93,20.51-20.03,36.87-52.76,56.47-73.87,3.34-3.6,12.79-12.48,10.82-1.66-.65,3.56-21.1,31.69-25.1,37.03-7.47,9.96-35.63,46.98-43.46,52.3-13.14,8.92-13.05.88-20.32,1.02-3.36.06-5.89,5.08-9.6,6.29-8.58,2.8-18.53,1.51-20.57-8.12-22.57,12.56-28.92,1.58-24.01-21.08-13.26-1.55-11.31-21.94-3.32-29.32,9.47-8.75,24.66-2.78,28.39-7.56,9.96-17.22,16.4-36.18,25.53-53.79,17.54-33.85,38.25-68.77,63.03-97.44.41,3.8-1.47,6.95-3.18,10.11-6.79,12.54-20.8,28.12-28.48,40.68-14.63,23.93-26.07,50.15-37.51,75.98-3.8,8.59-8.75,31.25-18.98,34.22-6.77,1.97-23.75-2.97-26.78,6.92-4.37,14.27,10.47,10.37,11.99,15.86-1.44,7.36-10.29,18.93.93,21.87l21.3-12.36c6.12,4.21-3.08,8.25-.78,14.1Z"/>
  <path d="M332.11,202.72c-2.29,2.03-6.14,2.39-8.78,4.15-2.11,1.41-2.52,4.31-6.74,5.97-14.28,5.6-35.72-5.81-50.9-8.21-3.57-9.82-4.69-26.73,1.26-35.56.43-.64,10.25-10.07,11.17-10.75,12.03-8.79,46.05-9.74,54.26,3.56,4.64,7.52,6.19,35.11-.27,40.83ZM276.33,178.03c24.48,10.79,29.45-22.4,1.75-10.81-4.26,1.78-4.21,7.7-1.75,10.81Z"/>
  <path d="M985.71,377.39c-1.48,2.54.46,7.79-.62,10.95l-2.36,2.61c-29.38-5.6-54.37-12.83-63.86-44.09-1.99-6.55-4.48-15.38-.06-21.22l6.2,12.4c-4.14-9.02,3.09-10.05,3.73-16.81.67-7.1-4.37-13.36-2.22-20.88l-40.5-40.32c14.06,2.79,23.21,17.03,32.71,26.68,11.73,11.93,24.67,24.18,35.58,37.12,13.06,15.49,24.6,32.44,36.19,48.99l-.73,2.51c-.98.9-3.58,1.22-4.07,2.05ZM964.06,348.69c-12.83-2.96-14.01,10.74-1.07,5.45l1.07-5.45ZM976.46,378.81c-2.78-7.19-11.73-5.3-16.93-8.76-3.34-2.22-4.08-7.42-7.88-8.95,1.15,5.37,1.6,7.64-.99,12.54l2.19,3.61,23.62,1.56Z"/>
  <path d="M441.42,404.82c6,4.55,13.09,8.68,19.04,13.84,3.19,2.77,16.01,18.02,18.76,18.48,1.78.3,6.2-3.6,9.37-4.37,22.53-5.42,38.75,19.61,35.6,40.04,6.78,3.25,20.96-6.79,19.32-12.94-1.12-4.19-7.79-5.03-6.59-14.16.96-7.27,15.07-9.05,13.53-16.06-1.76-7.97-36.02-15.36-43.98-16.23,1.8-1.77,1.99-5.02,4.69-5.94,8.05-2.73,43.47,6.34,47.22,14.35,6.06,12.93-10.67,25.36-10.72,27.01-.03,1.13,4.69,5.58,4.4,10.41-.32,5.49-10.5,21.08-15.48,23.29-4.54,2.02-9.59-.19-14.14,1.82-4.02,1.78-6.89,9.56-13.7,11.12-22.73,5.21-44.37-16.34-40.84-39.06.65-4.2,4.61-10.93,4.52-12.58-.32-5.83-16.05-13.22-17.48-21.49-14.37-4.62-26.11-16.76-38.83-25.13l1.55-5.21,4.24-2.27c4.64.43,15.75,12.25,19.5,15.09ZM511.5,484.93c2.8-15.96,12.44-25.2-2.29-38.8-9.67-8.92-21.09-10.32-30.04.27-17.45,20.65,11.25,44.07,32.34,38.53Z"/>
  <path d="M641.25,118.18c4.4,5.02-26.33,47.13-26.6,56.72,3.92,4.16,36.18-14.65,33.69-2.67-1.05,5.07-25.25,9.62-31.06,11.55-1.85.61-3.23-1.34-2.61,2.64,5.09,2.68,13.21,17.44,17.19,18.45,5.91,1.51,9.71-9.1,14.2-10.19,1.52-.37,7,1.02,7.42,1.7,4.28,6.77-11.24,12.8-13.57,18.41-.13,1.61,9.91,13.43,12,16.04,2.95,3.68,7.6,1.76,5.3,11.46-7.13,2.88-20.42-19.47-22.16-19.46l-38.92,35.52c-10.44,6.96-13.78-5.52-13.14-14.03,9.12-2.28,12.2-10.86,19.36-16.97,4-3.42,10.45-7.54,15.25-11.42,1.47-1.19,3.96-1.36,5.7-2.19,3.74-5.24-14.21-20.32-16.78-26.09l-36.22,9.5-1.69-5.31,34.55-13.34c4.26-12.55,12.43-27.49,19.62-38.9,1.36-2.16,15.51-24.79,18.47-21.41Z"/>
  <path d="M502.9,401.88c-6.91-1.17-5.42-6.18-8.12-10.47-39.61-62.84-60.35-91.36-116.03-141.11-6.37-5.69-22.97-19.72-5.31-19.56,9.1,9.27,20.59,16.25,30.19,24.83,33.71,30.15,64.25,71.73,85.77,111.07,2.95,5.39,16.76,30.84,13.5,35.24Z"/>
  <path d="M624.15,299.66c-35.26,32.56-71.75,67.37-108.31,98.21-1.76,1.49-.94,3.4-5.82,2.23-.16-3.02-.21-6.04.79-8.96,1.33-3.88,25.88-26.26,31.1-30.96,28.06-25.27,63.16-56.38,92.4-79.62,2.31-1.83,17.4-13.17,18.52-13.43,2.19-.5,4.7,2.04,4.38,4.39-.66,2.93-28.39,23.82-33.06,28.14Z"/>
  <path d="M251.62,99.23c9.61-8.24,23.24-7.39,32.31,1.17,19.93,18.8-8.6,74.51-35.56,40.87-9.71-12.12-8.78-31.73,3.24-42.04ZM272.34,142.99c-.79-5.73-5.94-6.88-6.98-13.39-.69-4.31-.44-11.3-.02-15.77.43-4.5,6.29-8,.76-11.62-8.15,1.79-16.32,9.3-18.18,17.36-2.14,9.29,12.94,28.52,24.41,23.42Z"/>
  <path d="M342.81,131.87c-.95.93-15.46,8.82-16.75,9-20.7,2.78-34.04-27.43-21.04-44.12,17.3-22.21,56.26,16.99,37.79,35.12ZM320.23,100.45c-19.45.2-14.51,23.41-.87,30.12.59-7.45-3.96-11.92-2.78-20.47.63-4.59,3.39-5.64,3.64-9.65Z"/>
  <path d="M953.05,470.69c-1.12,1.86-14.65,7.15-4.21,14.66,11.32,8.13,24.77-23.66,29.39,5.18-15.08-7.47-23.68,16.07-36.22-.12-11.39-14.7,1.07-16.79,2.51-25.72,1.02-6.31-10.63-26.6-14.51-33.21-11.92-20.28-26.8-39.39-45.89-53.42l-1.65-8.09c3.34-.82,4.91,1.15,7.33,2.4,20.3,10.49,50.78,57.54,59.14,79.18,1.61,4.18,6.23,15.59,4.11,19.13Z"/>
  <path d="M903.74,511.8c-1.01,1.18-12.26-7.61-12.44-8.34-3.08-12.49,2.88-30.22,3.21-42.2.39-14.42-6.01-31.4-4.86-46,.22-2.74,2.8-5.3,2.8-7.18,0-2.67-4.94-8.62-2.89-13.29,1.44-1.67,7,3.57,7.89,5.39,9.16,18.84,5.9,42.01,8.04,62.89.52,5.11,3.56,9.46,3.59,14.14.08,9.93-8.46,23.17-5.35,34.59Z"/>
  <path d="M738.8,61.41l-29.73-.42c-1.17-1.44-1.52-3.69-3.02-4.87-4.98-3.9-29.65-24.8-33.02-24.06-10.41,2.3-13.64,44.17-17.59,54.18-7.15.64-6.05-11.9-5.22-16.76.42-2.43,2.6-4.15,2.96-5.89,3.68-17.62,5.84-32.97,21.12-44.82,7.94-.8,25.74,16.05,30.75,22.31,2.8,3.5,6.62,13.03,8.88,14.17,6.74,3.4,20.13-3.21,24.86,6.16Z"/>
  <path d="M997.77,479.88c-1.42,10.28-6.71,16.14-17.76,14.18,4.21-11.13,13.39-11.14,11.47-26.64,3.62-5.78,9.53,8.02,17.37,6.84,8.77-1.32,13.1-7.78,11.86-16.4-2-13.94-18.4-15.92-25.11-28.14-4.29-7.81-5.79-20.8-8.48-29.62,8.44,5.23,6.65,17.62,12.39,25.72,4.69,6.61,15.24,9.61,21.29,17.73,16.65,22.31,3.61,43.41-23.03,36.33Z"/>
  <path d="M159.75,444.44c2.69-.62,3.99,2.1,4.39,4.45,2.56,15.07,4.76,30.47,3.64,46.16-.55,7.71-1.16,17.55-8.05,22.06-11.46-14.42-3.56-27.03-2.61-41.56.73-11.18-5.56-22.85,2.63-31.1Z"/>
  <path d="M421.35,479.9c-5.86-13.22-2.18-26.36-3.66-39.8-.9-8.22-8.84-18.94,1.02-27.57,3.18-.75,5.23,3.87,6.12,6.25,1.86,5,4.95,31.86,5.44,38.89.57,8.31,2.46,23.4-8.91,22.23Z"/>
  <path d="M756.04,195.85c-2.97,2.07-8.21-2.22-3.18,10.22,1.65,4.08,19.03,24.35,17.84,25.58-11.02-5.48-18.61-14.45-21.29-26.59l-5.14,18.36-9.02,2.9c-2.77-3.07,8.69-22.2,8.84-27.69.16-5.92-12.38-19.7.91-20.35,9.9-.49,16.05,14.07,11.03,17.56Z"/>
  <path d="M632.38,371.74c4.4,4.6-13.24,18.26-16.83,21.27-5.89,4.93-16.98,13.34-23.44,17.35-5.52,3.43-11.43,7.52-18.23,7.46.08-12.7,16.39-16.86,25.38-23.37,8.35-6.05,17.48-15.18,25.98-20.13,2.33-1.36,3.5-3.56,7.16-2.58Z"/>
  <path d="M699.62,162.32c-16.9,4.85-9.85-32.82-2.49-33.62,11.83-1.28,5.98,27.07,2.49,33.62Z"/>
  <path d="M917.95,323.86c-.14-6.2-1.59-13.16,5.29-15.96.25,5.57.71,13.06-5.29,15.96Z"/>
  <path class="cls-1" d="M822.16,132.35c-3.5.09-6.33-1.41-5.32,3.54l8.91-.99c6.06,11.4-.92,8.69-4.88,12.13-3,2.61-4.24,10.09-6.77,13.62-7.6,10.63-31.21,10.55-41.63,3.58l1.79-5.27-8.86-.03,7.1-1.76c1.67-5.23-4.24-10.73-3.65-14.86.15-1.06,2.93-.79,3.53-2.4,2.64-7.14-.45-15.85,7.42-22.42,10.77-9,12.75-2.06,21.6,1.04s19.84,1.89,20.76,13.82ZM796.83,125.78c-15.45-9.83-16.37,16.41-12.51,25.67.78,1.87,8.3,7.19,10.34,7.57,3.51.66,2.28-.82,3.08-2.33,3.5-6.6,5.76-26.66-.91-30.91Z"/>
  <path class="cls-1" d="M276.33,178.03c-2.46-3.11-2.52-9.03,1.75-10.81,27.7-11.59,22.73,21.6-1.75,10.81Z"/>
  <path class="cls-1" d="M272.34,142.99c-11.48,5.11-26.56-14.13-24.41-23.42,1.86-8.06,10.02-15.58,18.18-17.36,5.53,3.62-.34,7.11-.76,11.62-.42,4.47-.67,11.46.02,15.77,1.04,6.51,6.19,7.66,6.98,13.39Z"/>
  <path class="cls-1" d="M320.23,100.45c-.25,4.01-3.01,5.06-3.64,9.65-1.18,8.55,3.37,13.02,2.78,20.47-13.64-6.71-18.58-29.93.87-30.12Z"/>
  <path d="M796.83,125.78c6.67,4.24,4.41,24.3.91,30.91-.8,1.51.43,2.99-3.08,2.33-2.04-.38-9.56-5.7-10.34-7.57-3.86-9.26-2.94-35.5,12.51-25.67Z"/>
</svg>