<?xml version="1.0" encoding="UTF-8"?>
<svg id="Calque_1" data-name="Calque 1" xmlns="http://www.w3.org/2000/svg" viewBox="0 0 1209.19 1078.33">
  <defs>
    <style>
      .cls-1 {
        fill: #fff;
      }
    </style>
  </defs>
  <path class="cls-1" d="M471.39,45.2c1.66,7.61,8.48,8.91,15.23,8.96,54.38.48,120.81-13.95,176.45-17.78,50.93-3.5,103.25-6.71,153.97-9.03,52.48-2.4,111.43,4.54,163.18-4.23,5.78-.98,12.57-4.36,11-10.94-4.15-17.38-92-2.09-108.1-2.11-51.79-.07-106.54-8.52-158.23-9.15-122.98-1.5-246.17-3.34-368.01,13.44-.17,7.19,15.18,8.96,19.74,8.82,46.57-1.37,94.07-9.98,141.03-10.81,59.04-1.04,119.19,4.76,178.4,1.96l-2.1,8.71c-7.81-5.81-17.28-4.98-26.38-4.38-65.35,4.29-131.85,15.49-196.18,26.53Z"/>
  <path class="cls-1" d="M440.53,181.67l-7.12-17.3c-65.06,6.73-132.32,3.16-197.43,13.27-5.74.89-23.16,4.78-28.92,6.46-7.84,2.27-10.51.47-8.78,10.78l134.17-13.37,108.09.16Z"/>
  <path class="cls-1" d="M1147.83,952.67c-2.29,7.72-32.4,45.41-39.16,51.14-52.45,44.42-164.53,9.86-192.5-49-14.52-30.56,17.08-93.03,37.43-117.03,9.51-11.22,27.85-9.65,15.57-30.61l13.33-2.3c-10-38.37-11.91-90.63-26.74-126.64-2.09-5.07-10.22-2.01-8.57-5.41l24.19-15.34c15.42,7.04,30.92,17.05,48.1,9.2,15.31-44.97-2.72-67.12-50.25-62.12,2.9,28.64,49.01,8.54,35.2,44.04l-30.68-.04c-8.02-23.89-10.92-38.31-37.08-44.56-6.6-1.57-13.16-6.77-18.17.53-9.46,17.09,42.39,13.92,37.5,37.35-4.28,20.52-47.99-19.03-61.67-10.9-6.03,29.37,30.86,21.24,43.95,41.82-24.42,8.88-8.72,35.36-4.32,55.05h-83.7c6.75-16.47,16.44-29.78-2.96-43.28l-129.19-14,44.1-132.09c6.08-1.21,5.62-.92,9.13,2.81,27.16,28.85,54.11,68.15,84.84,92.48,4.76,3.76,9.59,6.99,16.09,5.98,1.92-8.9-1.97-11.76-6.39-17.8-17.79-24.28-78.62-89.71-101.43-110-2.05-1.82-25.01-16.84-26.59-17.48-19.93-8,14.98,31.65,19.76,32.99-11.65,9.91-18.07,23.71-24.01,37.52-8.38,19.48-30.91,74.14-35.16,91.98-1.12,4.68,2.12,9.04,2.04,13.62-13.16,1.32-86.83-5.62-88.03,11.03l220.17,24.27-16.57,29.37,12.18,16.74c-9.73,27.61-65.65,82.15-61.68,107.99-8.42.46-24.53-2.44-33.02-4.51-5.14-1.26-8,3.34-6.56-6.41,12.64-22.09,52.73-88.09,52.58-109.8-.18-27.59-40.42-10.79-63.87-11.19-11.94-.21-36.31-2.79-47.82-5.05-23.5-4.61-50.08-23.61-66.5-26.06-6.76-1.01-7.66-.17-6.55,6.57l21.96,24.27c-54.28-8.23-108.37-4.3-163.02-4.38-5.31-22.28,15.56-25.98,24.89-36.77,16.7-19.3,52.68-63.06,19.19-79.91,33.05-39.82,90.06-62.4,123.31-101.36,4.04-4.73,18.57-20.5,6.51-24.07-16.4-4.85-20.86,13.76-32.88,24.16-19.4,16.78-100.11,71.3-103.86,89.87-1.34,6.67,6.14,12.31,6.4,19.98.99,30-30.73,62.59-54.59,77.27-8.33-25.58,9.97-52.53-.69-78.21-3.69-8.88-25.95-16.04-30-23.18-4.34-7.66-.18-19.84-8.55-26.68l-33.4-21.6,49.46,8.03c32.1-25.89,87.84-37.61,118.08-62.98,15.51-13.01-20.79-10.35-22.19-11.19-1.17-.71,6.88-15.16-13.2-19.77,7.99-10.65,27.34-22.71,32.11-34.5,3.69-9.12-6-11.27-3.79-16.17,6.57-14.51,48.54-38.92,53.34-61.84,12.48-3.25,10.6,7.42,17.93,12.7,23.77,17.12,55.53,32.01,85.42,31.56l-20.4,21.66c-11.43,1.96-15.94-26.87-23.63-17.28-3.56,4.43,12.63,41.43,32.23,30.39,35.42-19.96,55.23-76.35,95.5-12.84-8.84.57-30.03-12.18-35.21-.01l57.06,17.93c5.84,8.09-22.5,40.47,2.32,43.77,5.41-1.2,15.09-26.15,14.4-32.42-1.83-16.76-56.8-71.72-73.35-75.52-10.1-2.32-25.21,9.71-33.54,15.43,1.15-48.61,53.96-55.05,94.77-52.79-4.78-23.64,6.93-14.29,15.31-22,2.23-2.05,14.18-23.24,19.91-30.89-.37,11.99-12.92,46.94,2.81,52.27,25.65,8.69,39.83-18.47,45.7-39.04l57.21,26.47c-2.1,12.35-31.91,10.2-34.73,13.65l-.52,17.11c24.76,4.59,40.24-10.35,61.49-17.82,5.63-21.68-26.78-26.15-32.63-34.84-4.05-6.03,5.41-32.52-12.22-40.97-17.15-8.22-36.6,1.92-38.19.78-2.3-1.64-3.38-17.63-15.11-16.6-13.28,1.16-25.56,27.98-33.81,39.01.44-14.51.8-17.97-13.19-24.18l37.42-55.02,24.29,43.95c32.04,1.95,2.86-50.49-6.41-57.47-14.53-10.93-25.41-3.1-35.03-4.29-3.2-.4-2.42-8.46-5.39-8.97-8.75-1.49-19.52,8.13-26.7,8.19-6.58.05-10.18-8.08-20.08-7.29-25.17,2.02-55.91,49.13-51.81,74.22l21.96-8.79,4.45,21.98c-36.16,9.54-31.3-22.7-48.27-37.58-29.65-25.99-86.88,6.37-116.98,6.09-25.16-.23-38.21-33.96-82.65-24.7-22.53,4.7-33.52,27.04-46.32,34.08-16.77,9.21-43.06,7.84-51.85,35.14-7.69,23.87,3.84,26.83,9.98,43.34,3.12,8.39.81,18.44,6.94,26.16,7.06,8.89,31.39,12.84,42.42,17,3.91,1.48,7.14,8.2,12.36,9.81,22.36,6.9,53.3-15.58,76.11-14.62l-183.64,173.36-10.29,3.14c-11.17-19.72-16.17-27.65-35.65-39.62-4.32-2.66-11.88-1.21-15.87-3.76-5.76-3.68-5.41-17.68-21.18-20.67-16.79-3.19-43.09.86-61.72.09-28.95-1.2-63.58-6.19-92.52-4.75-9.72.48-48.35,6.18-50.49,15.69.19,15.44,24.84,19.66,29.62,25.37,2.45,2.92,1.61,10.16,5.54,14.06,10.09,10.02,40.65,7.65,54.1,12.14,13.35,4.46,17.44,15,40.82,16.55,21.39,1.42,48.93-9.05,66.1-6.73,6.02.81,15.4,11.19,23.95,13.53,14.22,3.9,70.47,6.89,78.68,20.42,2.37,3.9-.23,13.76,3.02,21.14,3.5,7.96,19.78,13.82,19.9,24.32-17.94,7.59-9.91,32.48-17.96,48.21l9,6.79c-10.96,1.25-20.64,6.42-24.42,17.31l6.77,35.45c-10.55,1.3-21.81,1.21-24.62,13.14-6.7,28.45,25.24,31.17,45.85,34.03,50.53,7.02,126.8,3.39,179.37,1.52,5.92-.21,10.14-2.34,15.28-4.49l-31.19,43.7c-51.68-31.38-104.46-37.2-157.93-5.99-77.31,45.11-97.06,143.77-46.24,217.46,29.05,42.12,123.15,70.14,170.57,47.78,12.06-5.69,9.05-20.76,18.38-30.08,11.2-11.18,33.65-15.37,46.51-32.79,8.35-11.3,8.41-22.94,16.06-33.27l31.89.68c5.78,13.41.19,35.09,12.19,42.82,18.59,11.97,26.29-3.46,33.84-2.97,7.89.51,18.45,14.66,28.01,16.11,15.68,2.38,37.8-6.59,34.27-25.78l-28.44-28.46c4.55-9.85,24.63-18.26,28.42-24.49,3.22-5.3.44-12.16,5.26-17.7,14.56-16.72,57.76,10.97,67.81-19.47-.01-16.43-62.2-28.07-66.35-55.05,6.9-.37,9.18.89,15.22-4.48,26.38-23.44,47.3-81.73,70.69-110.04h77.1c-22.35,28.48-56.73,44.44-83.77,68.21-10.89,9.58-61.41,54.78-48.38,68.31,23.1-2.31,39.27-31.01,57.19-46.29,28.98-24.71,61.13-45.42,88.12-72.6,2.55,17.42,14.84,28.39,26.48,39.59-96.25,5.28-97.91,163.15-41.81,215.82,15.34,14.41,67.63,32.51,88.49,35,12.56,1.49,67.95-12.1,83.45-17.17,76.71-25.06,90.51-90.18,70.4-163.22"/>
  <path class="cls-1" d="M1123.67,861.45c-16.27,14.32-49.89,25.22-39.87,51.39l39.56-26.43"/>
  <path class="cls-1" d="M1169.74,873.11c-20.65-74.98-69.25-112.38-149.44-100.8-17.38,2.51-27.97,6.1-24.63,25.98l19.76-8.94c5.14,15.36,57.45,14.79,63.9,28.81-22.06,14.42-43.08,45.49-30.77,72.63,4.93,3.51,28.18-19.53,30.94-24.06,4.94-8.13,9.75-44.07,26.25-35.61,8.98,8.92,20.09,15.96,17.93,30.32"/>
  <path class="cls-1" d="M897.2,346.21c-20.38-24.04-72.61-2.81-81.86,26.47l10.65,10.92c12.41-11.11,24.72-18.29,41.93-14.83l-4.48,46.37c-18.33-3.77-45.76-11.21-61.56,2.19.11,13.89,53.65,12.98,62.81,10.83,2.87-.67,3.28-5.81,5.11-6.85,3.33-1.89,8.59-1.75,9.84-2.92,9.59-8.96,3.33-38.73,10.32-51.71l17.6,2.08c-3.47-5.77-6.83-18.39-10.37-22.56Z"/>
  <path class="cls-1" d="M1007.59,399.56c-18.52.51-48.71,3.12-67.02,6.62-7.19,1.38-14.48-1.82-19.73,6.75,5.28,8.03,11.66,6.22,19.54,6.8,31.52,2.34,61.93-3.38,92.7-4.54,7.34-.28,16.28,5.37,21.95,4.36,13.05-2.33.61-14.63-8.44-17.98-13.44-4.98-25.35-2.4-39.01-2.02Z"/>
  <path class="cls-1" d="M576.62,700.9c6.17-25.62,12.85-51.17,23.79-75.29,25.86-57,75.11-116.92,105.2-172.3,5.22-9.61,18.44-25.97,5.87-33.68l-48.46,57.1c-11.61-6.1-52.39-54.95-63.86-43.95,2.74,27.89,36.26,41.95,57.15,55-35.29,69.64-92.4,132.16-96.8,213.67l17.1-.54Z"/>
  <path class="cls-1" d="M898.7,600.09c10.62-10.29-57.08-59.19-63.83-66.07-25.89-26.35-49.14-61.57-74.86-88.12-5.47-5.64-10.88-14.27-19.86-13.14-3.3,3.38,10.15,20.06,13.3,24.09,18.76,23.98,43.56,54.92,63.71,77.25,8.35,9.26,71.17,76.04,81.54,65.98Z"/>
  <path class="cls-1" d="M947.16,600.09c3.23-3.05-6.08-16.64-8.76-19.83-21.44-25.58-69.96-66.89-97.32-87.69-4.53-3.44-31.87-23.06-34.86-20.16-2.35,9.75,5.66,9.76,10.11,14.08,29.14,28.31,83.85,85.82,113.03,107.22,6.03,4.43,8.9,8.3,17.8,6.38Z"/>
  <path class="cls-1" d="M1209.19,485.72c-26.88-5.22-68,.46-96.71-1.23-15.68-.92-33.51-6.79-48.61-7.64-41.83-2.37-83.97,1.1-125.5-4.42,4.48,23.74,31.62,9.59,50.61,13.22l33.07,8.71c-13.3,2.32-78.32-.24-74.85,15.39l10.91,6.81c35.88-3.77,74.77-15.31,110.28-17.7,46.01-3.1,91.24,7.98,136.71,4.54"/>
  <path class="cls-1" d="M1198.3,626.54h-112.34c-1.57,0-6.56,5.85-11.02,4.47l7.22,13.5,116.17-4.77"/>
  <path class="cls-1" d="M211.44,719.01c1.47-7.15-1.86-9.15-7.15-12.63-17.46-11.51-101.28-7.56-127.14-9.43-25.12-1.81-51.14-11.72-77.15-8.71,5.46,10.93,26.45,10.6,38.08,12.53,57.09,9.47,115.63,14.15,173.36,18.23Z"/>
  <path class="cls-1" d="M1022.08,908.43c-1.2-13.36-18.99-51.17-26.25-64.05-3.4-6.02-3.68-12.79-13.38-10.81-3.85,4.35,25.42,69.37,31.85,73.94,2.84,2.02,5.5.5,7.78.91.1,1.15-4.55,7.95-4.13,14.82,1.18,19.32,10.72,31.39,30.65,22.67,17.69-31.67-2.48-33.1-26.52-37.49Z"/>
  <path class="cls-1" d="M998.65,936.2c-3.24-3.9-10.99-4.3-14-10.11-4.24-8.18.99-22.71-10.98-26.46-5.94,15.6-6.06,31.33,4.26,45.15,15.06,20.18,35.56,9.29,20.72-8.58Z"/>
  <path class="cls-1" d="M299.52,1049.36c16.54-15.91-22.3-44.44-33.84-51.99-9.22-6.03-37.8-17.18-41.09-20.58-5.26-5.44-5.35-19.08-11.09-28.56-17.96-29.65-63-43.38-95.7-38.75-27.13,3.84-20.43,15.66-38.48,27.61-1.45,9.11,2.25,7.58,9.15,4.73,10.55-4.35,21.78-13.78,33.69-14.83,30.12-2.64,74.98,13.36,80.47,47.47-109.56-7.65-23.65,120,13.67,22.38l5.78-.32,52.49,27.18c10.56-1.2,16.76,33.51,24.96,25.64Z"/>
  <path class="cls-1" d="M942.73,908.42c-11.61-12.4-10.98,28.62-4.75,37.07l13.59,2.55-8.84-39.62Z"/>
  <path d="M1169.74,873.11c20.11,73.03,6.31,138.16-70.4,163.22-15.5,5.06-70.89,18.66-83.45,17.17-20.86-2.48-73.15-20.59-88.49-35-56.09-52.67-54.44-210.54,41.81-215.82-11.64-11.19-23.93-22.17-26.48-39.59-26.99,27.18-59.13,47.89-88.12,72.6-17.92,15.28-34.09,43.97-57.19,46.29-13.03-13.53,37.48-58.73,48.38-68.31,27.03-23.77,61.42-39.73,83.77-68.21h-77.1c-23.39,28.31-44.3,86.6-70.69,110.04-6.04,5.36-8.32,4.1-15.22,4.48,4.15,26.99,66.34,38.63,66.35,55.05-10.05,30.44-53.25,2.75-67.81,19.47-4.82,5.54-2.04,12.4-5.26,17.7-3.79,6.23-23.87,14.65-28.42,24.49l28.44,28.46c3.53,19.19-18.59,28.16-34.27,25.78-9.56-1.45-20.13-15.6-28.01-16.11-7.55-.49-15.25,14.94-33.84,2.97-12-7.73-6.41-29.41-12.19-42.82l-31.89-.68c-7.65,10.33-7.72,21.97-16.06,33.27-12.86,17.41-35.31,21.61-46.51,32.79-9.33,9.31-6.31,24.39-18.38,30.08-47.42,22.36-141.52-5.66-170.57-47.78-50.82-73.69-31.07-172.35,46.24-217.46,53.48-31.21,106.26-25.38,157.93,5.99l31.19-43.7c-5.15,2.15-9.36,4.28-15.28,4.49-52.57,1.87-128.84,5.49-179.37-1.52-20.62-2.86-52.55-5.57-45.85-34.03,2.81-11.94,14.07-11.84,24.62-13.14l-6.77-35.45c3.78-10.89,13.46-16.06,24.42-17.31l-9-6.79c8.05-15.73.02-40.62,17.96-48.21-.12-10.5-16.39-16.36-19.9-24.32-3.25-7.39-.65-17.24-3.02-21.14-8.21-13.53-64.45-16.52-78.68-20.42-8.54-2.34-17.93-12.72-23.95-13.53-17.17-2.32-44.71,8.15-66.1,6.73-23.38-1.55-27.46-12.09-40.82-16.55-13.45-4.49-44.01-2.12-54.1-12.14-3.93-3.91-3.1-11.14-5.54-14.06-4.79-5.71-29.43-9.93-29.62-25.37,2.15-9.51,40.77-15.2,50.49-15.69,28.95-1.44,63.58,3.56,92.52,4.75,18.63.77,44.93-3.28,61.72-.09,15.77,2.99,15.43,16.99,21.18,20.67,3.99,2.55,11.55,1.1,15.87,3.76,19.48,11.98,24.48,19.9,35.65,39.62l10.29-3.14,183.64-173.36c-22.8-.97-53.75,21.52-76.11,14.62-5.22-1.61-8.46-8.33-12.36-9.81-11.03-4.17-35.35-8.11-42.42-17-6.13-7.72-3.83-17.77-6.94-26.16-6.13-16.51-17.66-19.47-9.98-43.34,8.79-27.3,35.08-25.92,51.85-35.14,12.81-7.04,23.79-29.38,46.32-34.08,44.43-9.26,57.49,24.47,82.65,24.7,30.11.28,87.33-32.08,116.98-6.09,16.98,14.88,12.11,47.12,48.27,37.58l-4.45-21.98-21.96,8.79c-4.11-25.09,26.63-72.2,51.81-74.22,9.9-.79,13.5,7.34,20.08,7.29,7.18-.06,17.95-9.68,26.7-8.19,2.97.51,2.19,8.57,5.39,8.97,9.62,1.19,20.51-6.65,35.03,4.29,9.27,6.98,38.46,59.43,6.41,57.47l-24.29-43.95-37.42,55.02c13.99,6.2,13.63,9.67,13.19,24.18,8.26-11.02,20.53-37.85,33.81-39.01,11.73-1.02,12.81,14.96,15.11,16.6,1.59,1.14,21.04-9,38.19-.78,17.63,8.45,8.17,34.94,12.22,40.97,5.84,8.69,38.26,13.16,32.63,34.84-21.24,7.47-36.72,22.41-61.49,17.82l.52-17.11c2.82-3.44,32.63-1.3,34.73-13.65l-57.21-26.47c-5.87,20.57-20.05,47.73-45.7,39.04-15.73-5.33-3.18-40.27-2.81-52.27-5.73,7.65-17.68,28.84-19.91,30.89-8.38,7.71-20.09-1.64-15.31,22-40.81-2.25-93.62,4.18-94.77,52.79,8.34-5.72,23.44-17.75,33.54-15.43,16.55,3.8,71.52,58.76,73.35,75.52.68,6.27-8.99,31.23-14.4,32.42-24.82-3.3,3.52-35.68-2.32-43.77l-57.06-17.93c5.18-12.17,26.37.59,35.21.01-40.27-63.51-60.08-7.12-95.5,12.84-19.6,11.04-35.79-25.96-32.23-30.39,7.69-9.59,12.2,19.24,23.63,17.28l20.4-21.66c-29.89.45-61.65-14.44-85.42-31.56-7.33-5.28-5.45-15.95-17.93-12.7-4.8,22.92-46.77,47.33-53.34,61.84-2.22,4.9,7.48,7.05,3.79,16.17-4.77,11.79-24.12,23.85-32.11,34.5,20.07,4.61,12.02,19.06,13.2,19.77,1.39.84,37.7-1.82,22.19,11.19-30.24,25.37-85.98,37.09-118.08,62.98l-49.46-8.03,33.4,21.6c8.37,6.84,4.22,19.02,8.55,26.68,4.05,7.15,26.31,14.3,30,23.18,10.66,25.68-7.63,52.63.69,78.21,23.87-14.68,55.59-47.26,54.59-77.27-.25-7.67-7.74-13.31-6.4-19.98,3.74-18.57,84.46-73.09,103.86-89.87,12.02-10.4,16.48-29,32.88-24.16,12.07,3.57-2.47,19.34-6.51,24.07-33.25,38.97-90.27,61.54-123.31,101.36,33.48,16.85-2.49,60.61-19.19,79.91-9.33,10.78-30.2,14.49-24.89,36.77,54.65.08,108.74-3.85,163.02,4.38l-21.96-24.27c-1.11-6.75-.21-7.58,6.55-6.57,16.43,2.45,43,21.45,66.5,26.06,11.51,2.26,35.88,4.84,47.82,5.05,23.45.41,63.69-16.39,63.87,11.19.14,21.71-39.95,87.71-52.58,109.8-1.44,9.76,1.42,5.16,6.56,6.41,8.49,2.07,24.6,4.97,33.02,4.51-3.97-25.84,51.95-80.38,61.68-107.99l-12.18-16.74,16.57-29.37-220.17-24.27c1.19-16.65,74.87-9.71,88.03-11.03.09-4.57-3.16-8.93-2.04-13.62,4.25-17.85,26.78-72.51,35.16-91.98,5.94-13.81,12.36-27.6,24.01-37.52-4.78-1.34-39.69-40.99-19.76-32.99,1.59.64,24.54,15.66,26.59,17.48,22.81,20.29,83.64,85.72,101.43,110,4.42,6.03,8.3,8.89,6.39,17.8-6.5,1-11.33-2.22-16.09-5.98-30.73-24.33-57.68-63.63-84.84-92.48-3.51-3.73-3.04-4.01-9.13-2.81l-44.1,132.09,129.19,14c19.4,13.51,9.71,26.81,2.96,43.28h83.7c-4.4-19.69-20.1-46.17,4.32-55.05-13.09-20.59-49.98-12.45-43.95-41.82,13.68-8.13,57.39,31.41,61.67,10.9,4.88-23.43-46.97-20.26-37.5-37.35,5.01-7.3,11.57-2.1,18.17-.53,26.16,6.24,29.06,20.67,37.08,44.56l30.68.04c13.81-35.5-32.3-15.4-35.2-44.04,47.53-5,65.56,17.15,50.25,62.12-17.18,7.85-32.68-2.16-48.1-9.2l-24.19,15.34c-1.65,3.4,6.48.34,8.57,5.41,14.84,36.01,16.74,88.27,26.74,126.64l-13.33,2.3c12.28,20.96-6.05,19.39-15.57,30.61-20.35,24-51.95,86.47-37.43,117.03,27.97,58.86,140.05,93.42,192.5,49,6.76-5.72,36.87-43.42,39.16-51.14"/>
  <path d="M1123.67,861.45c2.17-14.36-8.95-21.4-17.93-30.32-16.5-8.46-21.31,27.48-26.25,35.61-2.76,4.53-26.01,27.57-30.94,24.06-12.31-27.14,8.71-58.21,30.77-72.63-6.45-14.02-58.76-13.45-63.9-28.81l-19.76,8.94c-3.34-19.88,7.26-23.47,24.63-25.98,80.2-11.58,128.79,25.82,149.44,100.8"/>
  <path d="M1123.36,886.41l-39.56,26.43c-10.02-26.17,23.6-37.07,39.87-51.39"/>
  <path d="M563.9,225.69c-14.26-21.14-38.7-8.62-57.24-4.31-1.05,7.66,10.02,4.15,15.34,4.35,13.93.52,28-.33,41.9-.04Z"/>
  <path d="M801.85,238.95c8.21-3.22,13.6-14.16,13.13-22.02-9.21,3.55-14.74,12.1-13.13,22.02Z"/>
  <path d="M590.31,239c-41.92.61-88.81,1.54-128.67,14.48-4.62,1.5-13.3,1.11-12.26,7.45l140.93-21.93Z"/>
  <path d="M682.85,243.4c-19.08-2.2-4.63,32.45-4.52,41.16,4.09,7.27,18.48,1.84,22.55-3.36l3.96-20.2-15.31,17.57c-13.53-9.42-13.93-21.23-6.68-35.17Z"/>
  <path d="M806.17,243.36c-10.33,7.73-30.11-5.03-35.18,8.76,8.49-3.04,38.38,8.43,35.18-8.76Z"/>
  <path d="M872.27,252.19c-8.39-9.62-37.37,46.64-30.79,57.21,26.97-8.41,35.18-31.02,30.79-57.21Z"/>
  <path d="M804,269.78c-22.67,1.04-45.64-.76-68.29,0,4.34,35.67-42.83,56.41-72.29,52.78-13.85-1.71-22.7-15.96-26.76-16.26-15.87-1.16-24.6,21.35-32.35,31.78l41.03,37.44,11.06-6.63c-2.78-5.42-47.91-29.24-39.61-37.44l64.03,34.19c23.53-45.45,57.38-60.53,107.76-51.88-5.81-13.67-25.49-8.25-37.5-8.75-6.76-.28-17.42,4.1-15.32-6.56,12.44-15.59,54.46-.55,65.34-7.4,1.02-6.89,7.9-14.13,9.45-19.18,3.91-12.72-6.2-2.13-6.55-2.11Z"/>
  <path d="M916.32,287.38l-4.07-20.1-22.29,4.77c-3.52,8.03,23.85,17.96,26.37,15.33Z"/>
  <path d="M563.87,283.05c-10.58-4.36-21.56-2.9-26.4,8.71,7.15-.32,24.8.59,26.4-8.71Z"/>
  <path d="M466.98,331.39c-12.18-19.55-35-16.22-14.96,4.18l14.96-4.18Z"/>
  <path d="M281.93,481.24c-10.19,2.57-33.84-5.81-39.61,4.31,10.16-2.6,33.47,5.85,39.61-4.31Z"/>
  <path d="M418.54,516.41c3.8,3.69,26.05-11.81,26.32-15.39,1.14-15.08-34.04,7.92-26.32,15.39Z"/>
  <path d="M176.22,507.67c-10.33,1.04-30.09-9.41-35.22,4.32,11.77-3.15,29.47,11.22,35.22-4.32Z"/>
  <polygon points="343.65 512.05 317.23 516.38 343.58 525.24 343.65 512.05"/>
  <path d="M273.12,520.88c-22.39,4.03-50.03-12.2-66.04,8.72l32.48-.5,33.56-8.22Z"/>
  <path d="M365.65,542.82c-9.38-19.53-31.41-5.63-48.44-8.72l48.44,8.72Z"/>
  <path d="M419.58,669.75c-1.12-2.4,13.56-42.03,7.7-52.01-35.98,11.16,1.36,68.68-39.6,70.53,11.71,14.14,9.82,40.95,35.23,35.14-14.75-17.15,6.55-39.04,4.74-50.33-.41-2.56-7.74-2.59-8.08-3.32Z"/>
  <path d="M616.77,741.06c-9.36,6.01-193.77,0-222.48,0-.72,0-12.88,4.32-10.99,8.76,41.97-1.54,84.3,2.98,125.96,2.64,28.32-.23,63.59-7.24,92.24-7.17,10.99.03,18.2,7.85,28.51,9.06l-47.39,68.25c18.03,19.13,35.76,45.59,31.96,72.63l33.02-.06c-6.76-20.24-5.47-46.58-4.59-68.41.71-17.57,2.47-44.58,4.37-61.7.74-6.6.53-11.12,6.89-15.18,7.63-1.62,47.07,55.62,49.54,64.94,5.16,19.39-7.74,42.22-3.31,62.75l30.08-67.53-34.45-62.45c-7.87-4.69-22.06-.76-32.08-3.16-9.92-2.38-38.54-16.66-40.73-16.51-4.61.33-5.94,12.74-6.56,13.14Z"/>
  <path d="M683.54,894.8c-6.44-6.32,4.19-54.34,5.79-66.15l-24.05-39.12c2.83,39.85-11.34,80.18-4.56,118.69-41.55,14.64-86.27,13.55-130.03,13.23-19.57-.14-32.83,5.1-54.87-4.19l.17,12.91,30.64.32-4.39,13.14c36.15,1.78,72.07,9.7,107.98,13.21,32.16,3.14,64.42-6.2,94.92,11.23l48.21-33.17-57.26-.09c-1.22-1.69,13.82-25.77-1.3-38.61-2.67-2.27-9.86-.05-11.23-1.4Z"/>
  <path d="M462.58,965.69c2.86-.32,5.91.12,8.78.02,3.23,3.96-26.47,71.26-35.21,79.2,9.84.37,19.64,8.36,29.05,8.72,6.36.25,66.83-23.62,76.78-28.37,11.4-5.45,72.12-40.29,57.17-55.15-16.8-2.74-98.94-1.34-104.83-10.1-1.83-2.72.23-9.85-1.42-11.27-2.64-2.27-10.96.84-15.86-1.9-23.96-13.4-14.79-48.76,15.41-43.79l60.7-78.41c-57.77-50.65-185.48,7.05-196.02,77.46-7.28,48.62,18.84,123.16,70.11,138.47,5.91-25.98,26.15-51.52,35.32-74.88-11.69,1.29-36.73,24.89-52.68,28.92-7.82,1.98-8.01,2.06-13.3-4.67-.44-10.38,53.49-43.19,63.87-46.2,12.05-3.5,4.18,16.68,2.11,21.95Z"/>
  <path d="M576.44,838.8l-11.72.26-49.25,60.54,92.49-4.43c-8.84-20.21-18.51-38.6-31.52-56.37Z"/>
  <path d="M471.39,45.2c64.33-11.04,130.83-22.24,196.18-26.53,9.1-.6,18.57-1.43,26.38,4.38l2.1-8.71c-59.22,2.8-119.36-3-178.4-1.96-46.96.83-94.47,9.44-141.03,10.81-4.57.13-19.91-1.63-19.74-8.82C478.71-2.41,601.91-.57,724.89.93c51.7.63,106.44,9.08,158.23,9.15,16.09.02,103.95-15.27,108.1,2.11,1.57,6.58-5.22,9.96-11,10.94-51.75,8.77-110.7,1.83-163.18,4.23-50.71,2.32-103.04,5.53-153.97,9.03-55.64,3.83-122.06,18.26-176.45,17.78-6.75-.06-13.57-1.35-15.23-8.96Z"/>
  <path d="M576.62,700.9l-17.1.54c4.4-81.51,61.51-144.03,96.8-213.67-20.89-13.04-54.41-27.11-57.15-55,11.47-11.01,52.25,37.85,63.86,43.95l48.46-57.1c12.57,7.72-.65,24.08-5.87,33.68-30.09,55.38-79.34,115.31-105.2,172.3-10.94,24.12-17.62,49.67-23.79,75.29Z"/>
  <path d="M299.52,1049.36c-8.19,7.88-14.4-26.84-24.96-25.64l-52.49-27.18-5.78.32c-37.32,97.62-123.23-30.04-13.67-22.38-5.5-34.11-50.36-50.11-80.47-47.47-11.91,1.04-23.14,10.47-33.69,14.83-6.91,2.85-10.6,4.37-9.15-4.73,18.06-11.95,11.35-23.77,38.48-27.61,32.7-4.63,77.74,9.1,95.7,38.75,5.74,9.47,5.82,23.12,11.09,28.56,3.29,3.4,31.87,14.55,41.09,20.58,11.54,7.54,50.38,36.08,33.84,51.99ZM202.63,992.14c-15.3,1.04-43.09-7.68-39.6,17.51,18.33,8.56,35.87,3.74,39.6-17.51Z"/>
  <path d="M1205.1,503.42c-45.47,3.44-90.7-7.64-136.71-4.54-35.51,2.39-74.4,13.93-110.28,17.7l-10.91-6.81c-3.47-15.63,61.55-13.08,74.85-15.39l-33.07-8.71c-18.99-3.63-46.13,10.52-50.61-13.22,41.53,5.51,83.67,2.04,125.5,4.42,15.1.86,32.93,6.72,48.61,7.64,28.71,1.69,69.83-3.99,96.71,1.23"/>
  <path d="M897.2,346.21c3.53,4.17,6.89,16.79,10.37,22.56l-17.6-2.08c-6.99,12.98-.73,42.75-10.32,51.71-1.24,1.16-6.5,1.03-9.84,2.92-1.83,1.04-2.24,6.17-5.11,6.85-9.16,2.15-62.7,3.05-62.81-10.83,15.79-13.4,43.23-5.96,61.56-2.19l4.48-46.37c-17.21-3.47-29.52,3.72-41.93,14.83l-10.65-10.92c9.25-29.28,61.48-50.51,81.86-26.47Z"/>
  <path d="M440.53,181.67l-108.09-.16-134.17,13.37c-1.73-10.32.95-8.51,8.78-10.78,5.76-1.67,23.18-5.56,28.92-6.46,65.12-10.11,132.37-6.54,197.43-13.27l7.12,17.3Z"/>
  <path d="M898.7,600.09c-10.38,10.06-73.19-56.72-81.54-65.98-20.15-22.33-44.95-53.27-63.71-77.25-3.16-4.03-16.61-20.72-13.3-24.09,8.98-1.13,14.39,7.49,19.86,13.14,25.73,26.55,48.97,61.77,74.86,88.12,6.76,6.88,74.45,55.78,63.83,66.07Z"/>
  <path d="M211.44,719.01c-57.73-4.08-116.27-8.77-173.36-18.23-11.63-1.93-32.62-1.6-38.08-12.53,26.01-3.01,52.04,6.9,77.15,8.71,25.86,1.86,109.68-2.09,127.14,9.43,5.28,3.48,8.62,5.48,7.15,12.63Z"/>
  <path d="M947.16,600.09c-8.9,1.91-11.77-1.96-17.8-6.38-29.18-21.4-83.89-78.91-113.03-107.22-4.45-4.32-12.46-4.32-10.11-14.08,2.98-2.9,30.33,16.72,34.86,20.16,27.36,20.8,75.88,62.11,97.32,87.69,2.67,3.19,11.98,16.78,8.76,19.83Z"/>
  <path d="M1007.59,399.56c13.66-.38,25.56-2.95,39.01,2.02,9.05,3.35,21.49,15.65,8.44,17.98-5.67,1.01-14.61-4.63-21.95-4.36-30.77,1.16-61.18,6.87-92.7,4.54-7.88-.58-14.26,1.23-19.54-6.8,5.25-8.57,12.54-5.37,19.73-6.75,18.31-3.51,48.5-6.11,67.02-6.62Z"/>
  <path d="M1198.33,639.74l-116.17,4.77-7.22-13.5c4.45,1.38,9.45-4.47,11.02-4.47h112.34"/>
  <path d="M1022.08,908.43c24.04,4.4,44.21,5.82,26.52,37.49-19.93,8.71-29.47-3.35-30.65-22.67-.42-6.87,4.24-13.67,4.13-14.82-2.28-.42-4.93,1.11-7.78-.91-6.43-4.57-35.7-69.59-31.85-73.94,9.7-1.98,9.98,4.79,13.38,10.81,7.26,12.87,25.05,50.69,26.25,64.05Z"/>
  <path d="M998.65,936.2c14.84,17.87-5.67,28.76-20.72,8.58-10.31-13.82-10.2-29.55-4.26-45.15,11.96,3.75,6.74,18.28,10.98,26.46,3.01,5.81,10.76,6.21,14,10.11Z"/>
  <path d="M942.73,908.42l8.84,39.62-13.59-2.55c-6.23-8.45-6.86-49.47,4.75-37.07Z"/>
  <path class="cls-1" d="M468.5,965.69c-9.16,23.36-29.41,48.9-35.32,74.88-51.27-15.31-77.39-89.86-70.11-138.47,10.54-70.4,138.25-128.1,196.02-77.46l-60.7,78.41c-30.21-4.97-39.38,30.39-15.41,43.79,4.9,2.74,13.22-.37,15.86,1.9,1.65,1.42-.41,8.55,1.42,11.27,5.89,8.75,88.04,7.35,104.83,10.1,14.95,14.86-45.78,49.71-57.17,55.15-9.95,4.75-70.42,28.62-76.78,28.37-9.42-.37-19.21-8.36-29.05-8.72,8.73-7.94,38.44-75.24,35.21-79.2-2.88.1-5.92-.34-8.78-.02,2.07-5.27,9.94-25.45-2.11-21.95-10.38,3.02-64.31,35.82-63.87,46.2,5.29,6.73,5.48,6.64,13.3,4.67,15.95-4.03,40.99-27.63,52.68-28.92ZM442.04,886.43c-27.79-1.08-4.83,56.9,6.63,57.15,19.37.41-11.68-49.22-6.63-57.15ZM411.2,939.24c.47-16.05-2.62-38.99-17.55-48.43-3.16,15.15-3.47,45.75,17.55,48.43ZM490.5,1000.95c-13.47-3.46-9.96,19.36-13.15,26.4,9.94-3.91,13.82-16.49,13.15-26.4Z"/>
  <path class="cls-1" d="M683.54,894.8c1.37,1.34,8.56-.87,11.23,1.4,15.12,12.84.08,36.92,1.3,38.61l57.26.09-48.21,33.17c-30.5-17.43-62.77-8.09-94.92-11.23-35.9-3.51-71.82-11.43-107.98-13.21l4.39-13.14-30.64-.32-.17-12.91c22.03,9.28,35.29,4.04,54.87,4.19,43.76.32,88.48,1.41,130.03-13.23-6.78-38.51,7.4-78.84,4.56-118.69l24.05,39.12c-1.6,11.81-12.23,59.83-5.79,66.15Z"/>
  <path class="cls-1" d="M804,269.78c.34-.02,10.45-10.61,6.55,2.11-1.55,5.05-8.43,12.3-9.45,19.18-10.88,6.85-52.9-8.19-65.34,7.4-2.1,10.66,8.56,6.28,15.32,6.56,12,.5,31.69-4.92,37.5,8.75-50.38-8.65-84.23,6.43-107.76,51.88l-64.03-34.19c-8.31,8.19,36.82,32.02,39.61,37.44l-11.06,6.63-41.03-37.44c7.75-10.43,16.48-32.94,32.35-31.78,4.06.3,12.92,14.55,26.76,16.26,29.46,3.63,76.63-17.11,72.29-52.78,22.65-.76,45.62,1.04,68.29,0Z"/>
  <path class="cls-1" d="M576.44,838.8c13.01,17.77,22.68,36.16,31.52,56.37l-92.49,4.43,49.25-60.54,11.72-.26Z"/>
  <path class="cls-1" d="M419.58,669.75c.34.73,7.67.76,8.08,3.32,1.82,11.29-19.49,33.18-4.74,50.33-25.41,5.82-23.52-21-35.23-35.14,40.95-1.85,3.62-59.37,39.6-70.53,5.85,9.98-8.82,49.61-7.7,52.01Z"/>
  <path class="cls-1" d="M590.31,239l-140.93,21.93c-1.04-6.34,7.64-5.95,12.26-7.45,39.86-12.94,86.75-13.87,128.67-14.48Z"/>
  <path class="cls-1" d="M563.9,225.69c-13.89-.28-27.97.57-41.9.04-5.32-.2-16.39,3.31-15.34-4.35,18.54-4.31,42.98-16.84,57.24,4.31Z"/>
  <path class="cls-1" d="M682.85,243.4c-7.26,13.94-6.86,25.75,6.68,35.17l15.31-17.57-3.96,20.2c-4.07,5.19-18.46,10.63-22.55,3.36-.11-8.71-14.56-43.36,4.52-41.16Z"/>
  <path class="cls-1" d="M273.12,520.88l-33.56,8.22-32.48.5c16.01-20.92,43.65-4.69,66.04-8.72Z"/>
  <path class="cls-1" d="M418.54,516.41c-7.72-7.48,27.46-30.48,26.32-15.39-.27,3.59-22.52,19.08-26.32,15.39Z"/>
  <path class="cls-1" d="M365.65,542.82l-48.44-8.72c17.03,3.09,39.06-10.81,48.44,8.72Z"/>
  <path class="cls-1" d="M466.98,331.39l-14.96,4.18c-20.04-20.39,2.79-23.73,14.96-4.18Z"/>
  <path class="cls-1" d="M176.22,507.67c-5.75,15.53-23.46,1.17-35.22,4.32,5.13-13.73,24.89-3.28,35.22-4.32Z"/>
  <path class="cls-1" d="M806.17,243.36c3.2,17.19-26.7,5.72-35.18,8.76,5.07-13.79,24.85-1.03,35.18-8.76Z"/>
  <polygon class="cls-1" points="343.65 512.05 343.58 525.24 317.23 516.38 343.65 512.05"/>
  <path class="cls-1" d="M563.87,283.05c-1.6,9.29-19.25,8.39-26.4,8.71,4.84-11.61,15.82-13.07,26.4-8.71Z"/>
  <path class="cls-1" d="M281.93,481.24c-6.13,10.17-29.45,1.72-39.61,4.31,5.77-10.13,29.41-1.75,39.61-4.31Z"/>
  <path class="cls-1" d="M801.85,238.95c-1.61-9.92,3.92-18.47,13.13-22.02.47,7.86-4.92,18.8-13.13,22.02Z"/>
  <path class="cls-1" d="M202.63,992.14c-3.73,21.25-21.27,26.07-39.6,17.51-3.49-25.19,24.3-16.47,39.6-17.51Z"/>
  <path class="cls-1" d="M872.27,252.19c4.39,26.2-3.83,48.8-30.79,57.21-6.58-10.58,22.4-66.84,30.79-57.21Z"/>
  <path class="cls-1" d="M916.32,287.38c-2.51,2.63-29.88-7.3-26.37-15.33l22.29-4.77,4.07,20.1Z"/>
  <path d="M436.12,886.43c-5.05,7.93,26.01,57.56,6.63,57.15-11.46-.24-34.43-58.23-6.63-57.15Z"/>
  <path d="M405.28,939.24c-21.02-2.67-20.71-33.27-17.55-48.43,14.94,9.44,18.02,32.37,17.55,48.43Z"/>
  <path d="M484.58,1000.95c.67,9.91-3.22,22.49-13.15,26.4,3.2-7.04-.31-29.86,13.15-26.4Z"/>
</svg>