<?xml version="1.0" encoding="UTF-8"?>
<svg id="Calque_1" data-name="Calque 1" xmlns="http://www.w3.org/2000/svg" viewBox="0 0 73 73">
  <defs>
    <style>
      .cls-1, .cls-2 {
        stroke-width: 0px;
      }

      .cls-2 {
        fill: #ffd9eb;
      }
    </style>
  </defs>
  <circle class="cls-2" cx="36.5" cy="36.5" r="36.5"/>
  <path class="cls-1" d="M21.09,58.65v-7.62c.18-.44.71-1.09,1.59-1.96.88-.87,1.95-1.85,3.21-2.96,1.26-1.1,2.58-2.22,3.98-3.38,1.39-1.15,2.67-2.21,3.85-3.19,1.4-1.16,2.76-2.36,4.08-3.62,1.32-1.25,2.42-2.58,3.29-3.99.87-1.41,1.3-2.9,1.3-4.46,0-1.96-.46-3.53-1.39-4.71-.93-1.18-2.41-1.77-4.43-1.77-1.62,0-2.9.35-3.85,1.06-.95.71-1.63,1.7-2.03,2.97-.4,1.27-.6,2.76-.6,4.46h-9.3c0-3.24.62-6.04,1.85-8.4,1.23-2.36,3.03-4.17,5.4-5.44s5.27-1.91,8.69-1.91,6.09.61,8.32,1.83c2.23,1.22,3.91,2.87,5.03,4.95s1.68,4.43,1.68,7.05c0,1.76-.33,3.41-1,4.94-.67,1.53-1.54,2.95-2.61,4.25-1.07,1.3-2.22,2.49-3.43,3.55-1.22,1.07-2.37,2.04-3.45,2.9-1.82,1.44-3.4,2.71-4.74,3.81-1.34,1.1-2.41,2.03-3.2,2.79s-1.27,1.34-1.45,1.74h19.62v7.11h-30.39Z"/>
</svg>