<?xml version="1.0" encoding="UTF-8"?>
<svg id="Calque_1" data-name="Calque 1" xmlns="http://www.w3.org/2000/svg" viewBox="0 0 73 73">
  <defs>
    <style>
      .cls-1, .cls-2 {
        stroke-width: 0px;
      }

      .cls-2 {
        fill: #ffd9eb;
      }
    </style>
  </defs>
  <circle class="cls-2" cx="36.5" cy="36.5" r="36.5"/>
  <path class="cls-1" d="M43.59,35.31c1.72.06,3.21.55,4.49,1.47,1.27.92,2.24,2.14,2.91,3.66.67,1.52,1,3.24,1,5.16,0,2.46-.53,4.74-1.59,6.83s-2.71,3.77-4.93,5.04c-2.23,1.27-5.11,1.9-8.62,1.9-3,0-5.5-.39-7.5-1.18-2-.79-3.58-1.88-4.76-3.25-1.17-1.38-2-2.96-2.49-4.75-.49-1.79-.73-3.71-.73-5.75v-.12h9.3v.12c0,2.02.25,3.59.77,4.71.51,1.12,1.23,1.9,2.17,2.34.94.44,2.06.66,3.36.66,1.7,0,3.07-.53,4.12-1.59,1.05-1.06,1.57-2.79,1.57-5.19,0-1.02-.12-1.93-.34-2.73-.23-.8-.59-1.48-1.09-2.04-.5-.56-1.18-.98-2.04-1.27-.86-.29-1.92-.44-3.18-.44h-1.56v-6.51h1.56c1.24,0,2.28-.17,3.14-.5.85-.33,1.53-.78,2.05-1.35s.9-1.22,1.12-1.95c.23-.73.34-1.48.34-2.26,0-1.86-.52-3.21-1.56-4.05-1.04-.84-2.37-1.26-3.99-1.26-1.86,0-3.4.51-4.62,1.53-1.22,1.02-1.83,2.87-1.83,5.55h-9.3c0-1.92.29-3.75.87-5.48s1.49-3.26,2.73-4.59,2.85-2.38,4.83-3.14c1.98-.76,4.36-1.14,7.14-1.14,3.52,0,6.39.58,8.61,1.74,2.22,1.16,3.85,2.66,4.89,4.5,1.04,1.84,1.56,3.79,1.56,5.85,0,1.68-.33,3.23-1,4.65-.67,1.42-1.64,2.56-2.91,3.42-1.27.86-2.77,1.33-4.49,1.41Z"/>
</svg>