<?xml version="1.0" encoding="UTF-8"?>
<svg id="Calque_1" data-name="Calque 1" xmlns="http://www.w3.org/2000/svg" viewBox="0 0 1084.4 1139.87">
  <path d="M544.65,135.55l19.42-29.9,43.89,14.36c42.58-60.86,159.06-105.94,232.84-95.68,137.12,19.07,229.66,141.11,239.6,273.62,7.3,97.4,11.65,272.06-52.52,347.23-134.83,157.96-344.85,257.68-487.18,418.56-15.29,17.28-37.79,60.65-48.59,70.58-8.24,7.58-12.78,5.31-22.99,4.94-5.25-22.1,11.61-38.13,14.6-56.94,12.69-79.94-90.7-212.07-146.54-267.73C192.27,670.17,18.07,593,1.18,358.12-8.61,221.98,42.26,87.21,167.87,26.92c122.92-59,314.48-20.22,376.78,108.63ZM272.68,60.17l-14.93,3.69,22.52,26.46-7.6-30.15ZM152.07,98c-5.1,6.49,7.06,25.25,18.74,22.49l18.77-26.45c-5.02-16.52-36.35,2.47-37.51,3.96ZM718.12,82.82l-22.61.04,7.64,22.55,14.97-.03v-22.56ZM99.12,309.18l-45.12-128.23c-11.73,28.92-19.25,53.99-15.66,86.14,25.39,6.22,37.63,29.86,60.78,42.09ZM710.54,316.72l-30.05-45.27c6.66,20.03,6.73,41.57,30.05,45.27ZM61.45,414.76l-30.12-45.2-.04,45.31,30.16-.11ZM989.98,580.86c36.93-21.41,38.21-74.97,37.59-113.16l-10.78,45.83-26.9,7.18.09,60.16ZM937.06,641.16l-60.31-82.94c-4.66,14.26,48.98,94.75,60.31,82.94Z"/>
</svg>