<?xml version="1.0" encoding="UTF-8"?>
<svg id="Calque_1" data-name="Calque 1" xmlns="http://www.w3.org/2000/svg" viewBox="0 0 1133.57 1262.09">
  <defs>
    <style>
      .cls-1 {
        fill: #fff;
      }
    </style>
  </defs>
  <path class="cls-1" d="M461.33,56.88c-20.52-20.72-30.07-44.87-65.89-51.14C333.33-5.13,259.93.29,195.9,14.91c-45.81,10.46-91.26,29.25-122.53,65.48-31.96,37.03-12.03,13.19-45.23,36.44-3.09,2.16-30.04,39.96-28.04,41.46l40.81-8.08c-17.85,44.83-.41,34.39,16.47,55.35,150.85,187.31,291.3,382.51,441.62,569.7,25.92,32.28,114.61,113.21,128.27,137.52,4.96,8.83-.23,22.92,3.54,28.76,4.17,6.46,26.66,5.05,30.33,10.86,4.94,7.84-3.21,27.47,8.7,44.39,3.04,4.31,72.06,54.89,84.39,63.19,99.18,66.77,204.88,119.17,309.25,172.14,18.16,9.22,23.53,33.08,48.4,29.64-3.36-26.5,20.6-25.42,21.63-54.16,1.31-36.36-22.2-136.33-33.84-174.68-25.34-83.46-76.35-166.64-98.6-252.87l-19.89-8.74-8.11,24.52c-1.78-11.6-5-24.1-10.48-34.52-80.21-152.57-180.17-271.81-281.02-409.65-69.7-95.27-138.42-212.16-220.25-294.77Z"/>
  <path d="M461.33,56.88c81.83,82.61,150.55,199.5,220.25,294.77,100.85,137.84,200.81,257.09,281.02,409.65,5.48,10.42,8.69,22.92,10.48,34.52l8.11-24.52,19.89,8.74c22.26,86.24,73.26,169.41,98.6,252.87,11.64,38.35,35.15,138.32,33.84,174.68-1.03,28.74-24.99,27.67-21.63,54.16-24.87,3.45-30.24-20.42-48.4-29.64-104.38-52.97-210.08-105.37-309.25-172.14-12.34-8.3-81.36-58.88-84.39-63.19-11.92-16.92-3.76-36.54-8.7-44.39-3.67-5.81-26.16-4.41-30.33-10.86-3.77-5.84,1.42-19.93-3.54-28.76-13.66-24.31-102.35-105.24-128.27-137.52C348.69,588.05,208.24,392.86,57.39,205.55c-16.88-20.96-34.33-10.52-16.47-55.35L.11,158.27c-2.01-1.5,24.95-39.3,28.04-41.46,33.2-23.25,13.27.59,45.23-36.44,31.27-36.22,76.72-55.02,122.53-65.48C259.93.29,333.33-5.13,395.44,5.74c35.82,6.27,45.37,30.42,65.89,51.14ZM395.92,97.64c-15.39-14.45-15.44-35.93-48.36-29.33l-4.54,23.8-40.38.94,16.28,12.14c-11.57,13.25-34.99,24.62-52.1,20.86-5.79-1.27-5.35-17.1-8.84-16.7-6.24.71-21.66,13.34-35.23,14.93-14.98,1.76-29.23-6.52-37.83-5.01-11.71,2.05-27.11,32.51-37.31,43.83-11.31,12.56-32.36,5.89-23.68,30.57l534.42,665.65c22.25-15.16,57.69-58.05,20.07-67.45l8.43-24.59c42.67-12.42,92.42-14.92,134.61-25.06,21.45-5.16,38.89-27.51,65.82-14.19,30.07-19.32-.2-22.18-9.42-33.08-53.56-63.25-107.61-124.75-155.83-192.51-12.34-17.34-2.34-40.85-43.33-41.8l16.29-24.32c-41.04,11.02-49.72-38.55-69.98-64.93-54.98-71.57-123.53-131.61-174.98-200.98-23.8-32.08-14.92-50.52-16.66-52.94-.49-.67-10.4,6.28-16.34,3.04-1.9-1.04-14.9-17.08-21.09-22.89ZM932.09,771.44c-22.76-14.26-164.73,51.48-169.82,59.02-3.44,5.08-25.72,91.9-26.03,101.54-1.05,32.64,22.99,25.12,40.49,39.82,9.69,8.14,13.68,22.42,18.82,25.91,23.85,16.23,73.72,30.61,99.7,51.68l12.22-.14,12.18-30.65c33.59,8.6,56.83-13.84,81.74,20.48l27.94-18.32-91.09-186.57c-6.46-16.69,12.44-26.47-14.99-35.13l8.84-27.64ZM713.71,863.67c-5.61,7.26-29.93,72.54-6.44,70.99,12.38-.82,36.32-65.75,28.53-81.57-.72-.99-20.41,8.41-22.09,10.58Z"/>
  <path class="cls-1" d="M395.92,97.64c6.19,5.81,19.19,21.85,21.09,22.89,5.94,3.24,15.85-3.72,16.34-3.04,1.74,2.42-7.14,20.86,16.66,52.94,51.45,69.36,120,129.41,174.98,200.98,20.27,26.38,28.94,75.95,69.98,64.93l-16.29,24.32c41,.95,30.99,24.45,43.33,41.8,48.22,67.75,102.27,129.26,155.83,192.51,9.23,10.89,39.49,13.76,9.42,33.08-26.92-13.33-44.37,9.03-65.82,14.19-42.18,10.14-91.93,12.64-134.61,25.06l-8.43,24.59c37.62,9.4,2.18,52.29-20.07,67.45L123.92,193.67c-8.67-24.68,12.37-18.01,23.68-30.57,10.2-11.32,25.61-41.78,37.31-43.83,8.6-1.51,22.85,6.77,37.83,5.01,13.56-1.59,28.99-14.22,35.23-14.93,3.49-.4,3.05,15.43,8.84,16.7,17.11,3.76,40.53-7.61,52.1-20.86l-16.28-12.14,40.38-.94,4.54-23.8c32.92-6.6,32.98,14.88,48.36,29.33ZM403.34,351.84c-12.09-13.3-28.3-53.44-47.27-71.22-13.58-12.73-45.72-37.04-61.61-28.31,13.44,12.8.56,27.03,24.43,12.25-4.73,14.17-2.04,36.43,6.01,48.93,34.96,54.3,109.81,119.74,149.39,169.89,44.29,56.12,84.92,131.46,130.63,185.93,20.8,24.78,53.05,30.83,47.82-6.33-.95-6.73-66.66-110.51-71.63-115.16-9.83-9.2-23.18-3.87-25.08-5.43-.94-.77,7.24-12.09,3.92-23.9-4.11-14.6-18.19-19.63-25.51-28.37-14.83-17.69-23.66-33.35-34.97-49.9-38.85-56.84-65.64-54.86-96.13-88.39ZM572.27,419.88c13.74-19.31-12.63-62.09-32.4-36.81,18.67,33.68,16.52,53.8,57,65.48l-16.17,4.16c-6.13,19.22,15.33,17.77,21.63,27.06,24.3,35.81,42.93,64.61,68.35,90.93,11.16,11.55,38.93,31.39,56.99,28.99,13.28-14.3-32.45-72.36-44.66-82.18-8.79-7.07-24.26-5.79-27.87-8.7-1.02-.82,5.32-13.45-1.61-26.06-15.46-28.11-51.31-30.63-49.15-61.73l-32.11-1.13Z"/>
  <path class="cls-1" d="M932.09,771.44l-8.84,27.64c27.43,8.67,8.53,18.44,14.99,35.13l91.09,186.57-27.94,18.32c-24.91-34.32-48.14-11.89-81.74-20.48l-12.18,30.65-12.22.14c-25.98-21.08-75.85-35.45-99.7-51.68-5.14-3.5-9.14-17.78-18.82-25.91-17.5-14.7-41.55-7.19-40.49-39.82.31-9.64,22.59-96.46,26.03-101.54,5.1-7.54,147.06-73.28,169.82-59.02Z"/>
  <path class="cls-1" d="M713.71,863.67c1.68-2.17,21.37-11.57,22.09-10.58,7.79,15.82-16.15,80.75-28.53,81.57-23.5,1.55.82-63.74,6.44-70.99Z"/>
  <path d="M403.34,351.84c30.49,33.53,57.27,31.55,96.13,88.39,11.31,16.55,20.14,32.21,34.97,49.9,7.32,8.73,21.4,13.76,25.51,28.37,3.32,11.81-4.86,23.14-3.92,23.9,1.9,1.56,15.25-3.77,25.08,5.43,4.97,4.65,70.68,108.43,71.63,115.16,5.23,37.16-27.02,31.12-47.82,6.33-45.71-54.47-86.34-129.81-130.63-185.93-39.58-50.15-114.43-115.59-149.39-169.89-8.05-12.5-10.73-34.76-6.01-48.93-23.88,14.78-10.99.54-24.43-12.25,15.89-8.73,48.03,15.59,61.61,28.31,18.97,17.78,35.18,57.91,47.27,71.22Z"/>
  <path d="M572.27,419.88l32.11,1.13c-2.16,31.1,33.69,33.62,49.15,61.73,6.93,12.6.59,25.23,1.61,26.06,3.61,2.92,19.09,1.64,27.87,8.7,12.21,9.82,57.94,67.88,44.66,82.18-18.06,2.4-45.83-17.43-56.99-28.99-25.42-26.31-44.05-55.12-68.35-90.93-6.3-9.28-27.76-7.83-21.63-27.06l16.17-4.16c-40.48-11.69-38.33-31.81-57-65.48,19.77-25.28,46.14,17.5,32.4,36.81Z"/>
</svg>