<?xml version="1.0" encoding="UTF-8"?>
<svg id="Calque_1" data-name="Calque 1" xmlns="http://www.w3.org/2000/svg" viewBox="0 0 949.84 1429.17">
  <defs>
    <style>
      .cls-1 {
        fill: #fff;
      }
    </style>
  </defs>
  <path class="cls-1" d="M338.04,453.13c-13.44-19.56-11.94-49.98-26.26-70.58C229.21,263.74,138.46,149.72,75.97,17.9L14.59,0C19.08,22.15.74,47.49,1.69,65.37c7.06,133.04,87.74,194.74,150.48,299.85,33.07,55.4,218.6,355.41,216.24,383.88,1.11,43.98-49.48,46.87-65.89,69.46-39.97,55.02-210.63,264.36-221.73,298.42-9.58,29.41,8.58,54.88-4.09,81.89-12.46,26.57-62,48.41-72.71,88.84-15.86,59.9,16.9,90.55,73.09,54.29,88.97-57.42,319.04-489.94,369.51-477.31,27.39,47.57,72.94,81.87,105.01,124.63,50.22,66.98,234.47,392.65,275.72,413.13,16.58,8.23,94.32,7.8,122.51,26.72-8.42-58.53-24.23-97.98-52.93-149.99-71.79-130.06-189.51-304.97-274.1-431.97-29.85-44.82-87.36-37.44-73.92-148.32,1.53-12.64,114.31-192.67,131.86-217.96,24.76-35.68,255.03-300.05,233.78-321.9l-62.05-2.24-370.62,443.17c-36.55,9.18-79.81-85.73-99.74-112.54-12.34-16.59-36.5-23.28-44.07-34.3Z"/>
  <path d="M338.04,453.13c7.57,11.02,31.73,17.71,44.07,34.3,19.93,26.8,63.19,121.72,99.74,112.54l370.62-443.17,62.05,2.24c21.25,21.85-209.02,286.22-233.78,321.9-17.55,25.29-130.32,205.31-131.86,217.96-13.45,110.88,44.07,103.5,73.92,148.32,84.58,126.99,202.31,301.91,274.1,431.97,28.71,52.01,44.51,91.46,52.93,149.99-28.18-18.91-105.93-18.49-122.51-26.72-41.26-20.48-225.5-346.16-275.72-413.13-32.07-42.76-77.62-77.06-105.01-124.63-50.47-12.63-280.54,419.89-369.51,477.31-56.18,36.26-88.95,5.61-73.09-54.29,10.71-40.43,60.25-62.26,72.71-88.84,12.66-27.01-5.49-52.48,4.09-81.89,11.09-34.06,181.76-243.4,221.73-298.42,16.41-22.59,67-25.48,65.89-69.46,2.36-28.47-183.17-328.48-216.24-383.88C89.43,260.1,8.75,198.41,1.69,65.37.74,47.49,19.08,22.15,14.59,0l61.39,17.9c62.49,131.81,153.24,245.83,235.81,364.64,14.32,20.6,12.82,51.02,26.26,70.58Z"/>
</svg>