<?xml version="1.0" encoding="UTF-8"?>
<svg id="Calque_1" data-name="Calque 1" xmlns="http://www.w3.org/2000/svg" viewBox="0 0 1163.6 1172.92">
  <path d="M184.34,125.3c-2.4,2.76-10.35,1.68-14.71,1.56l-.03,8.21,84.42,16.92-59.09-101.25c141.55-17.92,284.05-.17,426.29,8.75,120.16,7.54,251.94,8.75,371.26,25.85,19.96,2.86,76.24,12.51,92.05,17.79,19.59,6.54,16.99,32.15,39.26,32.53l-7.94,20.94-262.4,202.33c-.13,37.91,199.47,105.35,215.55,147.67,3.01,7.93-3.82,17.25-3.97,25.55l97.96,33.44c7.1,50.93-49.22,51.05-85.79,35.02l-8.84,16.53c-252.22-6.26-514.12,10.23-759.59-51.22-22.48,48.24-73.68-9.85-96.91-33.73l8.43,532.09c10.8,10.46,130.89,3.43,154.46,10.3,11.41,3.33,27.75,23.56,44.79,31.25,33.05,14.92,64.45,7.24,87.78,47.22-29.54,28.26-81.94,12.71-113.91,14.34-131.08,6.68-266.63,15.23-392.84-27.3-4.77-6.45,21.05-72.8,33.84-79.82,36.78-20.19,86.71,21.85,118.67-10.01L76.56,0l85.35,4.03c7.68,24.54,39.93,101.09,22.43,121.26ZM482.08,76.06c-23.21,15.81-40.79,1.63-63.45.03-9.35-.66-31.46-6.18-29.36,8.32l92.84,42.29-.04-50.64ZM1098.94,135.26l-50.73-.05.08,33.71,50.65-33.66ZM921.47,236.59l-24.57.61-9.19,33.05c16.26,3.28,23.42-11.15,33.71-21.16l.04-12.5ZM845.42,304.08c2.69-15.96-9.89-28.07-25.3-25.21l8.55,25.24,16.76-.03ZM684.93,456.09c-13.39-21.96-41.52-45.82-67.59-50.52,13.39,21.96,41.52,45.82,67.59,50.52ZM558.2,549c-2.56-14.36-50.42-50.72-59.11-42.1l9.52,41.05,49.59,1.05ZM786.26,549.2l-42.1-25.45-.12,33.75,42.22-8.3ZM1090.42,574.54l-92.83-50.75c-1.62,44.24,24.66,54.72,63.42,59.07,8.76.98,31.73,5.86,29.41-8.32Z"/>
</svg>