<?xml version="1.0" encoding="UTF-8"?>
<svg id="Calque_1" data-name="Calque 1" xmlns="http://www.w3.org/2000/svg" viewBox="0 0 1110.42 987.87">
  <defs>
    <style>
      .cls-1 {
        fill: #fff;
      }
    </style>
  </defs>
  <path class="cls-1" d="M603.2.05c-18.15-1.15-10.56,17.85-14.3,27.44-34.79,89.09-83.46,160.47-127.2,242.28-14.57,27.24-30.93,95.5-63.59,98.42-13.73,1.23-24.05-13.39-25.98,9.74-82.86,28.67-170.68,76.63-256.33,95.8-16.39,3.67-111.89,13.96-115.24,25.55-1.58,5.45.31,9.38,4.33,13.18,8.64,8.16,67.77,22.93,84.71,29.66,37.05,14.71,310.13,136.92,317.86,152.79,4.24,8.7,2.61,18.49,1.13,27.57-11.33,69.56-55.7,163.77-72.69,235.18-10.78,55.71,29.3,20.26,53.22,4.85,41.29-26.59,76.42-56.84,108.39-93.95,19.29-22.39,107.83-151.13,125.36-151.52,8.06-.18,22.14,9.98,28.83,15.19,73.61,57.28,140.88,159.96,220.1,210.95,26.99,17.37,17.13-6.09,38.68-6.73,6.21-19.34-8.17-34.2-11.51-51.19-5.57-28.33-6.78-56.69-14.46-86.7-12.76-49.93-50.7-122.31-56.96-167.41-1.83-13.17,9.93.42,17.59-2.18l-8.29-45.31c29.47-22.74,66.02-39.57,97.68-61.04,46.51-31.53,130.5-104.35,163.67-148.64,22.78-30.41,12.67-45.43-22.17-48.4-62.38-5.32-105.36,13.16-163.28,21.33-74.71,10.53-150.85,18.78-225.99,22.61-5.31-42.78-7.17-104.88-19.54-145.38-5.19-16.99-13.72-15.87-14.85-17.98-.96-1.79,4.11-8.72,2.77-13.68-12.18-45.13-28.76-90.08-41.08-135.11-4.68-17.11-7.36-39.45-10.88-57.29Z"/>
  <path d="M603.2.05c3.52,17.84,6.2,40.19,10.88,57.29,12.32,45.03,28.89,89.98,41.08,135.11,1.34,4.96-3.73,11.9-2.77,13.68,1.14,2.11,9.66.99,14.85,17.98,12.37,40.5,14.23,102.6,19.54,145.38,75.13-3.82,151.28-12.07,225.99-22.61,57.92-8.17,100.9-26.65,163.28-21.33,34.83,2.97,44.94,17.99,22.17,48.4-33.18,44.29-117.16,117.11-163.67,148.64-31.66,21.47-68.21,38.29-97.68,61.04l8.29,45.31c-7.66,2.61-19.42-10.99-17.59,2.18,6.27,45.1,44.2,117.48,56.96,167.41,7.67,30.02,8.89,58.37,14.46,86.7,3.34,16.99,17.71,31.85,11.51,51.19-21.55.64-11.69,24.1-38.68,6.73-79.22-50.98-146.49-153.67-220.1-210.95-6.69-5.21-20.78-15.37-28.83-15.19-17.54.39-106.07,129.13-125.36,151.52-31.97,37.11-67.1,67.36-108.39,93.95-23.92,15.41-64,50.86-53.22-4.85,16.99-71.41,61.36-165.61,72.69-235.18,1.48-9.08,3.11-18.87-1.13-27.57-7.73-15.86-280.81-138.07-317.86-152.79-16.95-6.73-76.08-21.49-84.71-29.66-4.02-3.81-5.91-7.73-4.33-13.18,3.35-11.6,98.85-21.89,115.24-25.55,85.64-19.16,173.47-67.13,256.33-95.8,1.94-23.13,12.26-8.51,25.98-9.74,32.66-2.93,49.02-71.18,63.59-98.42,43.74-81.81,92.41-153.19,127.2-242.28,3.75-9.59-3.84-28.58,14.3-27.44ZM598.78,70.4c2.55-28.48-17.74-23.82-11.01-8.69,1.11,2.49,7.56,8.06,11.01,8.69ZM576.78,136.37l-8.7-35.15-8.74,30.58,17.44,4.58ZM557.84,166c3.15-6.72,2.86-22.64-.79-29.61l-24.17,46.21,19.77,15.32c4.56-8.48-4.82-17.08-2.29-27.79.72-3.07,6.92-2.96,7.47-4.14ZM629.57,211.14c-2.05-11.07-2.82-33.15-13.1-39.55-5.11,12.26,1.99,31.98,13.1,39.55ZM527.81,219.53l.58-17.18c-44.33,50.59-69.5,115.02-100.24,174.51l27.7,40.92c13.53-10.12-1.67-26.31,2.18-40.95.89-3.39,8.78-2.81,8.91-5.47.37-7.44-8.64-23.77-4.78-34.69l13.02-2.61c-1.85-22.34,6.01-35.45,19.93-50.78,1.83-2.02,8.28-1.16,9.98-2.84,5.14-5.11,3.19-15.68,14.79-19.29l-4.92-38.8,12.87-2.81ZM637.64,251.47c-1.51-1.73-10.27-1.36-14.77-4.84-7.55-5.84-10.75-19.97-15.89-28.25-2.77-4.47-9.11-13.52-8.1-.72l48.28,99.03c-.71-9.05-7.36-62.72-9.53-65.21ZM554.87,237.53l28.55,57.09c9.53-7.13,5.08-6.81,1.28-14.35-6.63-13.16-19.62-31.79-29.83-42.73ZM673.57,387.07l-.31-32.63-26-116.88c1.99,30.39,8.99,60.21,12.93,90.37,2.6,19.89-5.23,48.23,13.37,59.15ZM1047.52,347.53l-57.15,6.53,17.51,15.38,2.62-9.18c21.01,9.79,12.66-1.86,19.29-6.14,6.91-4.46,18.24,1.8,17.73-6.59ZM977.13,356.3c-1.08-1.17-30.32,2.71-30.74,8.72,7.17,10.77,43.84,5.47,30.74-8.72ZM919.96,369.52l-61.57,6.53,21.93,24.21.07-21.97c19.36,5.57,25.68,11.34,39.57-8.77ZM844.91,378.57l-21.71,1.88,26.33,24.21-4.63-26.09ZM1047.52,382.69h-8.71s-4.42,21.97-4.42,21.97c9.23-3.67,14.91-11.9,13.13-21.97ZM779.17,387.09l-17.57.02,8.88,17.52h8.69s0-17.54,0-17.54ZM356.81,409.04c-47.38,16.61-97.43,31.83-143.15,52.58-4.35,1.97-10.29,2.94-10.77,8.96l19.79,13.17,13.17-26.2c10.48,6.96,20.23,15.14,32.61,8.17l.43-17.11c21.5-5.5,24.53,20.06,43.96,17.61l.04-21.98c17.51-3.94,22.82,9.87,35.13,17.6-7.33-19.35-19.58-48.21,13.2-35.19l-4.41-17.61ZM708.76,439.83c1.57-13.02.24-25.56-13.11-30.77.89,8.37,5.5,26.22,13.11,30.77ZM1003.54,435.5c-26.79-10.83-37.56-.31-30.76,26.31,5.31,5.07,31.98-24.66,30.76-26.31ZM528.39,501.42c1.47-17.99-13.68-36.63-26.31-48.38,6.29,17.18,7.76,39.67,26.31,48.38ZM897.97,514.68c-25.69-8.35-31.35-45.79-52.75-61.64,7.77,25.48,30.47,45.61,26.33,74.75-20.07.85-22.66-23.73-39.53-30.76l9.01,37.3-12.66,2.83-5.19,21.4c5.06,4.22,78.14-39.23,74.78-43.87ZM968.35,466.28l-13.35-2.53-10.81,19.98-15.39-8.69v21.99s39.55-30.74,39.55-30.74ZM194.06,470.65c-5.29,2.09-25.52,1.51-21.89,10.88l26.28,28.68-4.39-39.56ZM154.37,483.83c-27.1,10.05-56.34,9.86-83.7,15.15-7.37,1.42-19.37,2.58-21.75,11.19l39.57,8.87.04-17.66c17.18-3.94,25.23,12.54,39.53,17.63l.06-26.4c14.92-3.14,20.26,5.84,30.73,13.21l-4.48-21.99ZM919.96,501.47l-17.55-4.44v17.59s17.55-13.15,17.55-13.15ZM211.2,557.78c-13.06,5.32-17.52-9.53-25.81-13.97-3.57-1.91-9.45-.07-14.64-3.24-9.04-5.53-18.28-15.22-27.27-21.53-5.55,8.84-2.6,23.62,6.87,28.32l210.89,94.79c-2.16-38.75-37.67-21.18-54.99-48.34l-8.79,8.95-19.72-13.32-2.07,8.77c-24.45-4.45-28.25-27.72-39.48-35.56-8.47-5.92-22.18,0-20.17-12.79l-4.82,7.93ZM805.57,580.56c-8.08-17.83-12.72-43.56-26.33-57.15,3.82,15.82,10.26,32.42,16.46,47.48,2.69,6.54-2.68,11.96,9.88,9.67ZM726.38,655.34c2.69-3.11-35.58-63.83-40.45-71.67-4.37-7.04-8.91-17.19-16.68-20.66,8.1,33.7,25.82,56.81,45.79,84.04,1.71,2.33,4.68,15.97,11.33,8.29ZM541.63,633.32c1.62-1.58-15.1-25.96-21.95-26.34-2.38,2.69,15.72,32.43,21.95,26.34ZM392.74,645.74l-9.44-12.37c-8.19,30.63,22.47,29.03,35.02,41.92,27.14,27.88-16.3,98.95-8.58,107.51l26.07-.13c.63-19.84-7.25-39.34-4.48-59.44,1.13-8.18,8.23-5.77,9.07-9.31,4.8-20.31-16.3-55.78-26.23-74.06l-6.71-2.19-4.38,9.02-10.33-.94ZM870.73,891.61l-9.89.99-151.99-219.65,100.2,152.96c10.7,22.45-8.48,23.72-7.84,25.14l77.03,72.56c13.07,5.43,6.6-35.14-4.48-39.53l-3.02,7.53ZM875.93,840.08l-7.06-30.28-67.64-132.43c-1.28,21.9,13.48,38.97,19.86,57.05,3.23,9.15,1.65,19.27,5.49,29.69,9.16,24.83,32.61,55.01,49.35,75.97ZM607.62,694.99l-39.4-8.67c-4.29,17.03-7.64,34.11,6.41,48.13l32.99-39.45ZM700,747.68l-50.61-61.52c-3.44,8.76-5.34,9.98-15.35,8.82l65.96,52.69ZM484.48,848.88l72.61-92.67-2.32-21.65-8.77,22.01-19.71-.14-6.67,39.7-26.34-8.82-8.8,61.57ZM398.03,922.37c-13.72-17.24,5.09-49.67,7.45-66.67,2.5-17.93-2.22-40.91-.27-59.58l-46.17,162.69,46.17-35.09c-2.13.12-6.08.04-7.19-1.35ZM436.56,870.2l-4.86-8.1c-.96,13.37-11.85,21.82-4.43,35.08-15.44-3.68-15.78,9.27-17.57,22.06,17.51-12.54,56.13-27.41,43.93-52.8l-17.06,3.75Z"/>
  <path class="cls-1" d="M527.81,219.53l-12.87,2.81,4.92,38.8c-11.6,3.6-9.64,14.18-14.79,19.29-1.7,1.69-8.15.82-9.98,2.84-13.92,15.33-21.78,28.44-19.93,50.78l-13.02,2.61c-3.85,10.92,5.16,27.25,4.78,34.69-.13,2.66-8.02,2.08-8.91,5.47-3.85,14.64,11.36,30.83-2.18,40.95l-27.7-40.92c30.75-59.49,55.91-123.92,100.24-174.51l-.58,17.18Z"/>
  <path class="cls-1" d="M870.73,891.61l3.02-7.53c11.08,4.39,17.55,44.96,4.48,39.53l-77.03-72.56c-.64-1.42,18.54-2.68,7.84-25.14l-100.2-152.96,151.99,219.65,9.89-.99Z"/>
  <path class="cls-1" d="M398.03,922.37c1.1,1.38,5.05,1.47,7.19,1.35l-46.17,35.09,46.17-162.69c-1.95,18.67,2.77,41.65.27,59.58-2.37,17-21.18,49.43-7.45,66.67Z"/>
  <path class="cls-1" d="M356.81,409.04l4.41,17.61c-32.78-13.02-20.53,15.84-13.2,35.19-12.31-7.74-17.62-21.55-35.13-17.6l-.04,21.98c-19.42,2.45-22.46-23.11-43.96-17.61l-.43,17.11c-12.38,6.97-22.13-1.21-32.61-8.17l-13.17,26.2-19.79-13.17c.47-6.02,6.42-6.99,10.77-8.96,45.71-20.75,95.76-35.97,143.15-52.58Z"/>
  <path class="cls-1" d="M392.74,645.74l10.33.94,4.38-9.02,6.71,2.19c9.93,18.29,31.02,53.76,26.23,74.06-.83,3.53-7.94,1.13-9.07,9.31-2.77,20.11,5.11,39.6,4.48,59.44l-26.07.13c-7.72-8.56,35.73-79.63,8.58-107.51-12.54-12.88-43.21-11.29-35.02-41.92l9.44,12.37Z"/>
  <path class="cls-1" d="M875.93,840.08c-16.74-20.96-40.18-51.14-49.35-75.97-3.85-10.43-2.26-20.54-5.49-29.69-6.38-18.08-21.14-35.15-19.86-57.05l67.64,132.43,7.06,30.28Z"/>
  <polygon class="cls-1" points="484.48 848.88 493.28 787.31 519.62 796.12 526.29 756.43 546 756.56 554.77 734.56 557.1 756.21 484.48 848.88"/>
  <path class="cls-1" d="M897.97,514.68c3.36,4.64-69.72,48.09-74.78,43.87l5.19-21.4,12.66-2.83-9.01-37.3c16.87,7.04,19.45,31.61,39.53,30.76,4.14-29.13-18.56-49.26-26.33-74.75,21.39,15.85,27.06,53.29,52.75,61.64Z"/>
  <path class="cls-1" d="M211.2,557.78l4.82-7.93c-2.01,12.79,11.7,6.87,20.17,12.79,11.23,7.84,15.03,31.11,39.48,35.56l2.07-8.77,19.72,13.32,8.79-8.95c17.32,27.17,52.83,9.6,54.99,48.34l-210.89-94.79c-9.47-4.7-12.42-19.48-6.87-28.32,8.99,6.31,18.23,16,27.27,21.53,5.19,3.18,11.07,1.33,14.64,3.24,8.29,4.43,12.75,19.29,25.81,13.97Z"/>
  <path class="cls-1" d="M607.62,694.99l-32.99,39.45c-14.05-14.02-10.7-31.09-6.41-48.13l39.4,8.67Z"/>
  <path class="cls-1" d="M154.37,483.83l4.48,21.99c-10.47-7.37-15.81-16.35-30.73-13.21l-.06,26.4c-14.31-5.09-22.36-21.57-39.53-17.63l-.04,17.66-39.57-8.87c2.38-8.62,14.38-9.77,21.75-11.19,27.37-5.29,56.6-5.09,83.7-15.15Z"/>
  <path class="cls-1" d="M436.56,870.2l17.06-3.75c12.2,25.39-26.42,40.26-43.93,52.8,1.8-12.79,2.14-25.75,17.57-22.06-7.42-13.26,3.47-21.71,4.43-35.08l4.86,8.1Z"/>
  <path class="cls-1" d="M673.57,387.07c-18.61-10.92-10.78-39.26-13.37-59.15-3.94-30.15-10.94-59.98-12.93-90.37l26,116.88.31,32.63Z"/>
  <path class="cls-1" d="M637.64,251.47c2.16,2.49,8.82,56.16,9.53,65.21l-48.28-99.03c-1.01-12.8,5.32-3.74,8.1.72,5.14,8.28,8.34,22.42,15.89,28.25,4.51,3.48,13.27,3.11,14.77,4.84Z"/>
  <path class="cls-1" d="M726.38,655.34c-6.65,7.68-9.63-5.97-11.33-8.29-19.97-27.23-37.69-50.34-45.79-84.04,7.77,3.47,12.31,13.62,16.68,20.66,4.87,7.85,43.14,68.56,40.45,71.67Z"/>
  <path class="cls-1" d="M700,747.68l-65.96-52.69c10.01,1.15,11.91-.06,15.35-8.82l50.61,61.52Z"/>
  <path class="cls-1" d="M919.96,369.52c-13.89,20.11-20.21,14.34-39.57,8.77l-.07,21.97-21.93-24.21,61.57-6.53Z"/>
  <path class="cls-1" d="M1003.54,435.5c1.23,1.65-25.45,31.38-30.76,26.31-6.8-26.62,3.96-37.14,30.76-26.31Z"/>
  <path class="cls-1" d="M1047.52,347.53c.51,8.39-10.82,2.13-17.73,6.59-6.63,4.28,1.72,15.93-19.29,6.14l-2.62,9.18-17.51-15.38,57.15-6.53Z"/>
  <path class="cls-1" d="M194.06,470.65l4.39,39.56-26.28-28.68c-3.63-9.37,16.6-8.79,21.89-10.88Z"/>
  <path class="cls-1" d="M528.39,501.42c-18.55-8.71-20.02-31.2-26.31-48.38,12.63,11.75,27.77,30.39,26.31,48.38Z"/>
  <path class="cls-1" d="M554.87,237.53c10.22,10.94,23.21,29.57,29.83,42.73,3.8,7.54,8.25,7.23-1.28,14.35l-28.55-57.09Z"/>
  <polygon class="cls-1" points="844.91 378.57 849.54 404.66 823.2 380.45 844.91 378.57"/>
  <path class="cls-1" d="M977.13,356.3c13.1,14.19-23.56,19.49-30.74,8.72.42-6.01,29.65-9.89,30.74-8.72Z"/>
  <polygon class="cls-1" points="968.35 466.28 928.81 497.02 928.81 475.04 944.2 483.73 955 463.75 968.35 466.28"/>
  <path class="cls-1" d="M708.76,439.83c-7.6-4.55-12.22-22.39-13.11-30.77,13.35,5.21,14.67,17.75,13.11,30.77Z"/>
  <polygon class="cls-1" points="779.17 387.09 779.17 404.64 770.47 404.63 761.59 387.11 779.17 387.09"/>
  <path class="cls-1" d="M1047.52,382.69c1.78,10.07-3.9,18.3-13.13,21.97l4.42-21.97h8.71Z"/>
  <path class="cls-1" d="M541.63,633.32c-6.23,6.09-24.33-23.65-21.95-26.34,6.85.38,23.57,24.76,21.95,26.34Z"/>
  <polygon class="cls-1" points="919.96 501.47 902.41 514.62 902.41 497.02 919.96 501.47"/>
  <path class="cls-1" d="M805.57,580.56c-12.55,2.3-7.19-3.12-9.88-9.67-6.19-15.06-12.63-31.66-16.46-47.48,13.61,13.59,18.25,39.32,26.33,57.15Z"/>
</svg>