<?xml version="1.0" encoding="UTF-8"?>
<svg id="Calque_1" data-name="Calque 1" xmlns="http://www.w3.org/2000/svg" viewBox="0 0 1159.76 1035.8">
  <defs>
    <style>
      .cls-1 {
        fill: #fff;
      }
    </style>
  </defs>
  <path class="cls-1" d="M628.82.84c-20.39-5.41-13.91,16.43-20.8,32.32-43.25,99.83-91.73,175.77-141.64,269.36-23.38,43.83-10.34,63.27-63.91,88.5-60.8,28.63-162.41,65.71-227.34,86.73-59.16,19.16-116.76,23.37-174.75,43.02-5.91,26.51,58.44,36.22,79.95,44.63,38.09,14.9,75.48,32.2,112.85,48.8,29.86,13.27,223.23,102.27,230.22,116.26l-80.91,304.78c11.57,1.71,19.03-.81,29.3-5.32,13.07-5.75,63.24-42.13,76.52-52.8,80.09-64.33,124.33-157.08,197.38-227.49,20.65-4,162.66,151.12,188.58,174.92,14.87,13.66,60.43,57.03,73.75,64.77,21.43,12.44,28.33,4.81,30.3-16.36,10.94-117.58-61.33-238.31-88.08-350.19,58.47-38.57,123.85-68.98,178.01-114.09,18.6-15.49,127.38-122.84,130.94-137.31,2.2-8.96-2.02-24.98-11.45-28.06-4.56-1.49-51.52-5.81-59.3-5.76-46.98.33-108.61,20.65-157.72,27.45-70.91,9.83-142.61,16.22-213.8,23.4l-19.88-139.42c-28-80.78-55.37-163.3-68.23-248.16Z"/>
  <path d="M628.82.84c12.86,84.86,40.23,167.38,68.23,248.16l19.88,139.42c71.19-7.18,142.89-13.57,213.8-23.4,49.11-6.8,110.73-27.12,157.72-27.45,7.78-.06,54.74,4.27,59.3,5.76,9.42,3.08,13.65,19.1,11.45,28.06-3.56,14.47-112.34,121.82-130.94,137.31-54.16,45.11-119.54,75.52-178.01,114.09,26.76,111.87,99.03,232.6,88.08,350.19-1.97,21.17-8.87,28.8-30.3,16.36-13.32-7.74-58.88-51.11-73.75-64.77-25.92-23.8-167.93-178.91-188.58-174.92-73.05,70.41-117.29,163.17-197.38,227.49-13.28,10.66-63.45,47.05-76.52,52.8-10.27,4.51-17.74,7.03-29.3,5.32l80.91-304.78c-6.99-13.99-200.36-102.99-230.22-116.26-37.37-16.61-74.75-33.91-112.85-48.8-21.52-8.41-85.86-18.12-79.95-44.63,57.99-19.65,115.59-23.86,174.75-43.02,64.93-21.03,166.54-58.1,227.34-86.73,53.57-25.23,40.53-44.67,63.91-88.5,49.91-93.59,98.39-169.53,141.64-269.36,6.89-15.89.4-37.73,20.8-32.32ZM679.68,384.12l-62.36-337.06c-27.43,50.08-43.15,105.17-69.94,156.35-19.75,37.73-48.3,74.71-68.21,111.9-28.37,52.98-10.98,69.17-76.74,98.75-61.11,27.49-150.26,59.63-214.6,80.99-48.12,15.98-94.51,28.32-145.56,32.29l234.05,100.73c20.73,9.86,152.77,73.78,158.09,82.08,8.84,13.81,5.03,37.87,3.96,53.86l-72.79,238.88,99.43-69.1c43.37-37.89,71.55-89.63,106.49-133.67,8.96-11.29,47.44-60.05,54.72-65.35,18.18-13.23,40.63-1.79,55.63,9.7,67.45,51.69,127.26,130.16,191.76,186.95,7.12,6.27,44.82,40.74,50.85,34.55,1.74-39.83-8.64-79.17-18.82-117.37-17.58-65.91-60.02-148.75-71.47-210.28-9.29-49.91,45.76-59.26,80.71-81.39,86.36-54.7,156.09-112.85,222.08-191.22-67.09-13.61-134.88,13.29-201.51,22.45-78.47,10.79-158.52,18.77-237.29,23.66l3.46-28.78-12.64-40.45c-6.77,10.01,8.72,45.06-9.26,41.51ZM688.85,337.95c-.32-18.66-2.74-37.94-6-56.28-1.02-5.77-.86-22.35-7.77-22.18l1.13,28.82,12.63,49.64Z"/>
  <path class="cls-1" d="M679.68,384.12c17.98,3.55,2.49-31.51,9.26-41.51l12.64,40.45-3.46,28.78c78.76-4.89,158.82-12.88,237.29-23.66,66.63-9.16,134.42-36.06,201.51-22.45-65.99,78.37-135.72,136.52-222.08,191.22-34.95,22.13-90,31.49-80.71,81.39,11.45,61.52,53.89,144.37,71.47,210.28,10.19,38.19,20.57,77.53,18.82,117.37-6.03,6.19-43.73-28.29-50.85-34.55-64.5-56.79-124.31-135.26-191.76-186.95-15-11.5-37.45-22.93-55.63-9.7-7.28,5.3-45.76,54.07-54.72,65.35-34.94,44.03-63.12,95.78-106.49,133.67l-99.43,69.1,72.79-238.88c1.07-15.98,4.88-40.05-3.96-53.86-5.32-8.3-137.35-72.22-158.09-82.08l-234.05-100.73c51.05-3.97,97.44-16.31,145.56-32.29,64.34-21.36,153.49-53.5,214.6-80.99,65.76-29.58,48.37-45.77,76.74-98.75,19.91-37.19,48.46-74.17,68.21-111.9,26.79-51.18,42.51-106.27,69.94-156.35l62.36,337.06Z"/>
</svg>