<?xml version="1.0" encoding="UTF-8"?>
<svg id="Calque_1" data-name="Calque 1" xmlns="http://www.w3.org/2000/svg" viewBox="0 0 1117.74 1463.78">
  <defs>
    <style>
      .cls-1 {
        fill: #fff;
      }
    </style>
  </defs>
  <path class="cls-1" d="M491.84,23.1l10.05-2.82L499.04.07c-6.98,5.86-7.9,14.46-7.21,23.03Z"/>
  <path class="cls-1" d="M607.37.02c-8.79-.7-15,15.47-7.16,20.18L607.37.02Z"/>
  <path class="cls-1" d="M552.45,17.33c7.19-17.62-7.9-18.94-5.72,0h5.72Z"/>
  <polygon class="cls-1" points="578.49 5.81 566.94 20.2 575.54 18.15 578.49 5.81"/>
  <path class="cls-1" d="M656.48,14.47c-12.42-6.27-30.23,21.32-18.72,25.95l18.72-25.95Z"/>
  <path class="cls-1" d="M471.56,20.23c-11.69-2.06-3.43,14.44-2.82,20.2l8.33-4.26-5.51-15.94Z"/>
  <path class="cls-1" d="M670.94,37.59c-10.97-1.97-14.63,8.34-14.42,17.3l14.42-17.3Z"/>
  <path class="cls-1" d="M434.03,63.54c2.76-10.45-23.37-28.39-28.86-23.08-4.79,10.56,25.21,26.47,28.86,23.08Z"/>
  <path class="cls-1" d="M705.61,54.92l-28.47,6.11.9,11.33c5.78,8.76,28.55-7.23,27.57-17.43Z"/>
  <path class="cls-1" d="M405.18,63.55c.25,4.94-2.94,9.52-1.68,14.55,5.96,23.78,31.09-13.8,1.68-14.55Z"/>
  <path class="cls-1" d="M705.59,92.45c-5.46-.92-9.6,3.38-8.62,8.65l8.63-2.92v-5.73Z"/>
  <path class="cls-1" d="M404.9,112.93c-7.94-3.15-22.67-7.64-22.85,5.48l23.08,2.89-.23-8.37Z"/>
  <path class="cls-1" d="M705.61,141.54c.57-2.49-.67-6.06.58-9.42,2.06-5.53,9.09-7.03,8.07-13.67l-14.02,4.72-.39,18.39c1.91,0,3.84.02,5.77-.01-.65,2.86-5.79,8.96-1.47,11.53,5.73-7.22,21.99-2.49,21.67-14.41-6.58-.53-13.98,2.75-20.21,2.87Z"/>
  <path class="cls-1" d="M384.92,132.85c-8.62-2.46-7.68,3.37-9.75,4.56-7.26,4.17-15.17,3.91-13.35,15.67,19.52-3.18,33.17,5.76,30.17,25.99l16.03,5.79c4.13-11.61-7.16-12.64-8.58-16.63-1.05-2.93.27-7.61-1.63-12.05-4.48-10.44-16.38-10.41-12.89-23.32Z"/>
  <path class="cls-1" d="M448.47,161.78c-24.17-5.37-30.9,6.04-33.99,28.23-2.86,20.56,6.85,33.82,18.15,49.73,14.74-2.95-3.54-19.93-5.98-31.6-1.74-8.34-3.73-31.64,4.5-36.27,5.76-3.24,18.32,1.31,17.31-10.09Z"/>
  <path class="cls-1" d="M699.85,181.96c5.22.52,21.96,1.54,20.19-7.16-1.78-8.76-22.3-3.78-20.19,7.16Z"/>
  <path class="cls-1" d="M462.92,213.73c2.44-12.72-8.63-17.91-15.87-25.92-12.82,6.72,10.25,31.77,15.87,25.92Z"/>
  <path class="cls-1" d="M569.81,216.62c-1.97-19.19-25.73-30.3-43.31-28.85-.61,4.91-.45,6.44,2.92,10.05,3.02,3.23,36.72,22.34,40.38,18.81Z"/>
  <path class="cls-1" d="M655.71,201.46c1.47-1.2,3.97-7.55,3.58-9.16-3.31-13.58-34.73,5.28-31.68,17.06,7.32,9.97,10.08-.6,16.3-3.94,3.73-2,9.77-2.3,11.81-3.97Z"/>
  <path class="cls-1" d="M552.49,381.27h41.89c.37,0,6.27-5.31,7.22,1.49.45,3.22-7.6,11.28,1.39,10.02,24.29-13.43,47.56-31.73,62.75-55.71,22.31-35.23,30.89-65.83,31.25-107.6.05-6.03-.72-31.79-7.23-32.3-28.14,6.96-9.81,30.82-10.07,49.64-.39,28.35-21.13,77.35-43.66,95.2-2.91,2.31-17.5,12.62-19.97,10.33,4.89-7.74,7.59-16.26,5.37-25.57-11.79-6.99-25.37-4.5-37.33-7.43-19.32-4.75-49-33.94-51.74,5.95-1.35,19.57,25.53,36.69,43.23,38.67l-22.66,6.17-.43,11.12Z"/>
  <path class="cls-1" d="M638.69,279.74c-23.24,11.26-47.74,15.83-70.25.43-16.72,18.83,27.04,37.27,42.51,36.81,77.76-2.32,37.7-99.88-18.15-104.85-13.46,14.04,8.19,15.19,18.53,22.33,9.03,6.23,34.36,33.92,27.35,45.28Z"/>
  <path class="cls-1" d="M864.5,222.43c-6.94-6.81-63.24,17.96-73.31,23.44-5.17,2.81-19.39,12.64-18.97,18.46,1.01,13.98,37.5-4.17,44.62-7.26,10.04-4.36,38.49-17.4,44.65-24.68,3.08-3.64,3.85-4.83,3.01-9.97Z"/>
  <path class="cls-1" d="M512.23,239.55c8.79-6.22,28.63,24.66,31.58,10.26,1.46-7.11-28.01-25.51-31.75-21.6l.17,11.35Z"/>
  <path class="cls-1" d="M473.62,307.04c-9.47-12.85-12.88-19.89-19.43-36.89-1.25-3.23-6.44-33.77-14.33-27.52-.74,5.73-1.78,12.3-8.69,11.59l8.63,5.77-8.67,2.86c-6.45,6.14,16.66,25.91,19.02,29.64,4.36,6.89,9.17,25.74,14.38,30.95,3.09,3.1,9.92,2.02,10.7,7.98l7.93-2.18c-4.99-5.48-6.27-17.79-9.53-22.21Z"/>
  <path class="cls-1" d="M895.08,373.91c-16.92-15.15-77.09-49.57-98.76-58.77-5.24-2.23-9.64-4.11-15.58-3.17-.34,4-.33,7.74,1.49,11.48,3.5,7.23,60.32,38.06,71.67,43.88,15.43,7.9,31.19,14.96,46.74,22.59,5.05-7.55-.55-11.51-5.57-16Z"/>
  <path class="cls-1" d="M306.15,600c13.55-13.33,47.49-85.62,60.87-108.1,21.11-35.47,64.52-88.44,71.56-127.86,2.16-12.1-8.86-9.52-14.4-2.73-13.14,16.11-33.98,59.22-44.84,79.64-6.28,11.82-24,42.51-27.48,53.26-1.33,4.12,1.6,8.06,1.27,8.32-.7.57-5.44-1.34-8.87,1.91-4.39,4.17-8.81,17.82-12.48,23.01-22.24,31.43-46.31,59.47-60.64,92.65-.47,1.08-4.76,1.46-4.69,2.28,9.07,19.5,11.11-2,12.47-3.66,7.53-9.19,22.75-14.33,27.23-18.74Z"/>
  <path class="cls-1" d="M649.18,394.36c-6.94-7.07-17.68-14.28-15.66-.25.62,4.29,28.35,75.43,30.7,78.96,3.47,5.19,6.96,2.54,9.76,5.43,8.89,9.14,12.3,27.87,18.36,38.53,12.48,21.96,27.55,42.62,38.47,65.53l-26.62,76.03c-3.36,4.25-2.74,2.47-5.85.04-5.39-4.21-19.11-37.35-24.61-46.99-4.76-8.35-16.77-21.24-21.36-31.41-4.22-9.33-2.6-18.55-4.95-28.21l-8.24-.36,6.01-4.57-11.79-54.41,4.43-42.11-7.32-2.84c-3.87,21.02-6.28,46.16-13.03,66.39-.95,2.86-15.35,29.96-16.61,31.28-1.83,1.92-12.78,5.65-17.63,9.73-6.17,5.19-10,13.14-17.77,16.71-5.02-3.29-3.3-8.88-5.47-13.53-16.82-36.01-30.38-79.84-48.32-117.47-2.22-4.67-14.24-29.53-15.45-30.75-3.32-3.34-13.01-5.07-16.28-1-2.73,7.34-9.21,21.89-6.42,29.29,1.13,2.99,5.25,3.2,5.85,4.44,4.8,9.93,9.15,23.14,13.6,33.15.3.69,6.38,6.14,5.98,12.47l7.26-.29-2.56,7.36,5.27,3.12c-4.47,10.49,8.13,6.36,5.18,20.33l40.82,69.27-18.46,35.62-24.41,26.06c-9.37-30.93-21.16-67.29-47.66-86.64-16.52,3.48,13.5,62.75,18.23,71.24,3.19,5.72,18.69,29.44,23.62,31.5,2.87,1.2,4.99-3.43,7.22-3.4s4.42,3.91,5.78,3.86c6.12-.2,13.92-26.16,24.37-25.49l-2.68-8.41,8.31,2.74,4.69-8.53,7.12,4.3c-3.83,16.67-33.25,34.9-28.57,51.73.44,1.56,3.66,5.8,5.6,3.33l28.79-30.46c5.36,17.02,13.69,35.95,22.02,51.67,5.9,11.14,31.07,57.46,37.35,63.75,10.62,10.64,48.65,26.82,63.45,37.65,8.42,6.15,21.5,17.35,20.24,28.87-12.41-13.2-29.2-24.35-47.68-25.95,4.65,22.32,35.22,23.1,37.54,46.17-12.2,2.48-21.87-13.72-28.6-16.09-17.77-6.24-11.47,5.74-4.79,14.92.75,1.03,16.82,14.55,17.84,15.19,4.44,2.78,20.95,12.18,25,11.62,15.73-2.2,15.37-17.62,7.88-28.49l8.68-.07c1.67-31.65-21.15-57.19-49.08-69.33-.99-9.06,9.41-5.78,11.01-16.46,2.72-18.2-10.23-19.02-24.13-18.24-12.6.71-28.98,12.23-32.89-3.83.74-4.43,19.69-17.86,23.14-23.52,3.54-5.81-.92-14.04,6.98-18.75l1.43,11.56c23.9-.9,46.87-7.3,69.35-14.5l-5.8-10.13,7.22-7.15c20.54,25.52,34.83,57.79,56.42,82.24,5.32,6.03,11.24,14.4,20.15,13.04-1.99-18.9-12.99-34.92-23.02-50.61-12.21-19.08-34.89-51.63-49.18-68.46-3.67-4.32-10.09-7.54-13.01-13.73-4.37,3.1-4.43,4.74-4.19,9.79.93,19.87,26.31,22.61-7.53,33.32-16.16,5.11-34.99,3.49-49.01,13.9l-7.16-6.53c11.71-3.06,2.37-12.4,2.91-21.57,13.13.76,28.81-16.78,5.97-14.75l-3.08-31.55c9.75,6.62,12.86,19.45,18.93,28.69,2.63,4,14.43,14.43,14.86,15.41,2.34,5.36-1.25,14.44,6.59,16.55,2.89-13.67,14.42-29.9,8.68-43.29,27.04.34,14.34-35.66,28.88-49.12,6.54,23.32,27.32,41.53,41.14,61.44,16.95,24.43,42.4,73.13,67.09,88.89,3.55,2.27,5.77,3.58,10.24,2.75l.02-8.66c7.99-3.69,8.86,5.75,10.43,5.94,7.53.88,26.53-6.47,35.79-5.91-2.54,9.61-30.31,4.19-31.98,10.36-3,23.19,19.6,24.29,31.97,37.28l-25.96-7.24c-9.88,22.17,12.41,34.8,17.29,54.87l-20.9-11.51c-2.04-6.77-39.08-22.43-42.65-20.23.71,1.64,1.82,4.07.97,5.68-1.94,3.67-21.63,40.05-26.97,34.71,2.8-12.72,1.57-31.53.01-44.8-.48-4.09-1.64-8.21-5.75-4.26-3.88,13.31-8.53,59.06-1.64,69.45,9.5,14.34,41.55-26.08,39.19-37.71,20.94,2.85,45.93,36.58,66.35,27.38,19.01-8.56.6-37.2-8.6-47.56,1.8-1.43,33.01,14.16,37.25.94,5.24-16.33-19.1-38.71-34.36-41.44,11.26-8.38,37.44-19.85,23.43-38.71-2.59-3.48-54.03-8.48-53.77,7.01l-3.04-5.97c-7.04,3.22-14.28,4.44-20.74-.68l-61.04-90.64,10.94-9.88c-6.25-9.95,1.83-7.55,2.91-10.59,12.67-35.71,7.65-75.07-34.32-39.53-6.41,5.43-8.41,15.99-17.43,15.71-11.95-13.96-4.71-30.54-7.96-42.36-5.72-20.84-56.33-89.95-70.6-117.42-6.11-11.77-12.11-34.46-18.38-40.85Z"/>
  <path class="cls-1" d="M410.93,762.5c-1.84-3.07-.43-7.75-2.8-9.97-5.65-5.32-34.77-15.81-46.11-23.41-26.15-17.53-52.44-45.33-78.43-63.11-3.47-2.37-6.65-5.31-11.31-4.55-1.15,7.7,6.4,8.69,11.52,8.68v2.82c-10.69-1.45-4.82,10.44-.03,15.97,11.17,12.87,31.68,23.21,44.81,33.18,6.36,4.83,11.24,14.84,15.07,17.45,3.87,2.64,33.23,17.58,37.83,19.21,9.57,3.39,19.34,4.47,29.46,3.74Z"/>
  <path class="cls-1" d="M257.8,664.34c-4.04-3.44-30.08,17.63-34.69,21.61-14.73,12.73-62.93,67.5-65.89,84.47-3.36,19.29,11.37,10.31,19.67,2.19,25.89-25.31,45.88-65.6,72.23-92.54-1.38-4.22,11.96-12.94,8.67-15.74Z"/>
  <path class="cls-1" d="M557.6,699.8l-16.64-3.7.03,5.74c9.02-1.21,2.29,4.16,4.32,8.45,19.97,42.14,31.73,80.63,52.97,120.54,8.53,16.02,24.25,60.73,40.8,66.09,11.52,3.73,20.15-1.62,20.35-14.45.07-4.24-9.67-50.85-17.37-41.95l5.75,43.3c-5.97,1.29-6.56-3.04-9.31-6.55-14.03-17.92-16.54-29.24-23.1-49.11-1.69-5.12-8.54-8.5-11.51-14.49-11.51-23.21-28.94-72.24-34.74-92.19-.38-1.31-10.72-20.78-11.56-21.68Z"/>
  <path class="cls-1" d="M461.1,743.44c13.84-6.27,38.04-9.48,42.25-27.12l-18.8,11.57-2.83-5.79-62.11,28.91c9.71,12.58,26.8,1.68,37.99-3.29,1.81-.81,2.46-3.81,3.5-4.28Z"/>
  <path class="cls-1" d="M566.92,776.99c-1.52-1.6-35,17.26-39.49,19.7-13.8,7.52-48.71,32.84-59.53,35.89-6.62,1.87-20.02-.77-28.09,2.18l8.66,7.19-13.07,1.55-1.39,8.56-4.29-5.75c-7.97,5.12-20.78,10.58-29.67,13.67-5.18,1.8-11.48.09-17.91,2.31-12.17,4.2-35.22,30.01-48.24,38.42-10.87,7.02-78.54,36.16-76.08,48.08,2.28,11.04,19.21-5.61,20.19-4.31-3.19,9.17,7.83,12.18,15.33,11.05,9.6-1.44,38.43-29.2,46.85-37l1.41,8.61c4.84,3.32,20.85-14.65,24.85-18.47,29.6-28.3,55.52-38.79,94.54-57.1,21.82-10.24,70.69-24.33,86.87-40.24,6.42-6.32,3.88-10.63,6.8-16.37,3.14-6.19,13.97-8.1,12.27-17.97Z"/>
  <path class="cls-1" d="M213.73,799.31c-4.05,2.96-15.42-5.55-23.02-4.56-4.12.53-50.31,15.24-52.46,16.97-5.53,4.45-4.03,7.69-5.17,14.01l-8.19.37c5.56,7.12-2.65,4.13-3.18,9.92-.97,10.56,5.21,19.95.34,30.48,5.46-3.9,14.51,4.1,14.01,9.61l-44.37,74.09c-11.09-10.27-10.96-26.84-19.27-38.45-4.39-6.13-11.95-9.53-13.15-11.4-2.37-3.71-7.68-24.38-12.93-27.46-35.21-6.3-43.93,43.91-45.77,70.04-2.75,39.11,4.85,56.56,13.13,91.08,4.66,19.46,11.49,67.24,19.35,81.75,3.57,6.59,9.38,6.95,12.24,10.88,13.69,18.83,8.62,27.37,37.35,25.46,52.74-3.5,32.63-37.08,48.76-72.6,10.4-22.9,50.41-100.05,64.41-117.57,6.45-8.07,23.35-20.48,18.69-.08,47.56,1.29,40.73-32.61,46.22-67.45-7.23-8.32-1.23-22.45-8.69-40.31-3.92-9.39-2.32-6.68-5.19-18.22-2.94-11.78-18.86-38.55-30.96-41.59-1.6-.4-1.15,4.31-2.13,5.03Z"/>
  <path d="M649.18,394.36c6.27,6.39,12.26,29.08,18.38,40.85,14.27,27.48,64.87,96.58,70.6,117.42,3.25,11.83-3.99,28.4,7.96,42.36,9.02.28,11.03-10.29,17.43-15.71,41.97-35.54,46.99,3.82,34.32,39.53-1.08,3.05-9.16.64-2.91,10.59l-10.94,9.88,61.04,90.64c6.46,5.12,13.69,3.9,20.74.68l3.04,5.97c-.26-15.49,51.18-10.49,53.77-7.01,14.01,18.86-12.18,30.33-23.43,38.71,15.26,2.73,39.6,25.11,34.36,41.44-4.25,13.22-35.45-2.37-37.25-.94,9.2,10.36,27.61,39,8.6,47.56-20.42,9.19-45.41-24.54-66.35-27.38,2.35,11.63-29.69,52.05-39.19,37.71-6.88-10.39-2.24-56.14,1.64-69.45,4.11-3.95,5.27.17,5.75,4.26,1.55,13.27,2.78,32.09-.01,44.8,5.34,5.35,25.02-31.04,26.97-34.71.85-1.61-.26-4.04-.97-5.68,3.57-2.2,40.6,13.45,42.65,20.23l20.9,11.51c-4.89-20.07-27.18-32.7-17.29-54.87l25.96,7.24c-12.37-12.99-34.97-14.09-31.97-37.28,1.67-6.17,29.45-.75,31.98-10.36-9.25-.56-28.26,6.79-35.79,5.91-1.57-.18-2.44-9.63-10.43-5.94l-.02,8.66c-4.47.83-6.69-.48-10.24-2.75-24.7-15.76-50.14-64.46-67.09-88.89-13.81-19.91-34.6-38.12-41.14-61.44-14.55,13.46-1.84,49.46-28.88,49.12,5.75,13.4-5.78,29.62-8.68,43.29-7.84-2.11-4.25-11.18-6.59-16.55-.43-.98-12.23-11.41-14.86-15.41-6.08-9.24-9.18-22.06-18.93-28.69l3.08,31.55c22.84-2.03,7.16,15.5-5.97,14.75-.54,9.17,8.81,18.51-2.91,21.57l7.16,6.53c14.02-10.41,32.85-8.78,49.01-13.9,33.83-10.71,8.45-13.44,7.53-33.32-.24-5.05-.18-6.69,4.19-9.79,2.92,6.19,9.34,9.41,13.01,13.73,14.29,16.82,36.97,49.38,49.18,68.46,10.03,15.68,21.03,31.7,23.02,50.61-8.91,1.35-14.83-7.02-20.15-13.04-21.59-24.45-35.88-56.72-56.42-82.24l-7.22,7.15,5.8,10.13c-22.47,7.2-45.45,13.6-69.35,14.5l-1.43-11.56c-7.9,4.71-3.44,12.95-6.98,18.75-3.44,5.65-22.4,19.09-23.14,23.52,3.91,16.07,20.29,4.54,32.89,3.83,13.9-.78,26.86.04,24.13,18.24-1.6,10.68-11.99,7.4-11.01,16.46,27.93,12.14,50.75,37.68,49.08,69.33l-8.68.07c7.5,10.87,7.86,26.29-7.88,28.49-4.05.56-20.55-8.84-25-11.62-1.02-.64-17.09-14.16-17.84-15.19-6.69-9.18-12.98-21.16,4.79-14.92,6.73,2.37,16.4,18.57,28.6,16.09-2.33-23.07-32.9-23.85-37.54-46.17,18.48,1.6,35.28,12.76,47.68,25.95,1.26-11.53-11.82-22.72-20.24-28.87-14.8-10.82-52.83-27-63.45-37.65-6.28-6.29-31.45-52.61-37.35-63.75-8.32-15.72-16.65-34.65-22.02-51.67l-28.79,30.46c-1.95,2.47-5.17-1.76-5.6-3.33-4.68-16.83,24.74-35.06,28.57-51.73l-7.12-4.3-4.69,8.53-8.31-2.74,2.68,8.41c-10.45-.68-18.25,25.29-24.37,25.49-1.36.04-3.64-3.84-5.78-3.86s-4.35,4.6-7.22,3.4c-4.92-2.06-20.43-25.77-23.62-31.5-4.74-8.5-34.75-67.76-18.23-71.24,26.49,19.35,38.28,55.71,47.66,86.64l24.41-26.06,18.46-35.62-40.82-69.27c2.95-13.97-9.65-9.84-5.18-20.33l-5.27-3.12,2.56-7.36-7.26.29c.4-6.33-5.67-11.79-5.98-12.47-4.45-10.02-8.8-23.22-13.6-33.15-.6-1.24-4.72-1.45-5.85-4.44-2.79-7.39,3.68-21.95,6.42-29.29,3.26-4.08,12.96-2.34,16.28,1,1.21,1.22,13.23,26.09,15.45,30.75,17.93,37.63,31.49,81.46,48.32,117.47,2.17,4.65.45,10.24,5.47,13.53,7.77-3.57,11.59-11.52,17.77-16.71,4.85-4.08,15.8-7.81,17.63-9.73,1.26-1.32,15.66-28.42,16.61-31.28,6.75-20.23,9.16-45.36,13.03-66.39l7.32,2.84-4.43,42.11,11.79,54.41-6.01,4.57,8.24.36c2.36,9.66.74,18.88,4.95,28.21,4.59,10.17,16.59,23.05,21.36,31.41,5.5,9.63,19.22,42.78,24.61,46.99,3.11,2.43,2.5,4.21,5.85-.04l26.62-76.03c-10.92-22.91-25.99-43.57-38.47-65.53-6.06-10.66-9.47-29.39-18.36-38.53-2.81-2.89-6.3-.24-9.76-5.43-2.35-3.52-30.08-74.67-30.7-78.96-2.02-14.02,8.72-6.82,15.66.25ZM636.26,551.67c-.24-9.71.63-25.73-8.62-31.75-5.16,12.8-8.77,26.52,8.62,31.75ZM624.71,551.66c-12.34-3.02-9.47,9.03-14.37,18.88-4.92,9.89-25.43,42.1-36.25,41.73-5.32-.18-7.12-6.98-12.93-5.68l25,45.92,67.3-2.76c1.92-1.96-3.94-38.79-5.77-44.49-5.4-16.88-24.84-34.31-22.98-53.6ZM656.48,658.6l-11.54-2.91,4.32,8.7,7.22-.08v-5.72ZM612.91,661.7l-22.91,4.11c7.38,24.17,17.38,46.28,30.35,67.81,39.5-20.01.47-46.36-7.44-71.92ZM662.27,765.45l-7.22-2.86-4.27,4.27,7.12,4.32,4.37-5.73Z"/>
  <path d="M213.73,799.31c.99-.72.53-5.44,2.13-5.03,12.1,3.04,28.02,29.81,30.96,41.59,2.88,11.54,1.27,8.83,5.19,18.22,7.46,17.86,1.46,31.99,8.69,40.31-5.49,34.83,1.34,68.74-46.22,67.45,4.67-20.4-12.24-7.99-18.69.08-14,17.52-54.01,94.67-64.41,117.57-16.13,35.52,3.98,69.1-48.76,72.6-28.73,1.91-23.65-6.63-37.35-25.46-2.85-3.92-8.66-4.29-12.24-10.88-7.86-14.5-14.69-62.28-19.35-81.75-8.27-34.52-15.88-51.98-13.13-91.08,1.84-26.13,10.56-76.34,45.77-70.04,5.25,3.08,10.56,23.75,12.93,27.46,1.19,1.87,8.76,5.26,13.15,11.4,8.31,11.61,8.18,28.19,19.27,38.45l44.37-74.09c.5-5.51-8.55-13.51-14.01-9.61,4.87-10.53-1.31-19.93-.34-30.48.53-5.79,8.74-2.8,3.18-9.92l8.19-.37c1.14-6.32-.36-9.56,5.17-14.01,2.15-1.73,48.34-16.43,52.46-16.97,7.6-.98,18.97,7.53,23.02,4.56ZM198.91,943.55c7.46-21.19,24.04-54.04,8.32-74.13-7.45-9.52-43.15-10.72-54.21-5.13-11.52,5.82-27.94,57.86-35.18,71.7-4.68,8.94-20.7,24.89-21.84,33.28-.89,6.55,8.87,35.77,10.61,46.91,3.44,21.97,1.78,44.98,6.77,66.94,5.39-2.93,8.48-14.55,10.09-20.19,5.7-19.86,6.61-40.97,13.03-60.67l8.19,3.34-2.5,18.28c.84,3.24,3.85,1.53,5.9.12,9.87-6.79,29.5-55.6,39.01-67.92l10.07-2.95c-6.51-9.66,1.25-8.25,1.72-9.59ZM29.56,889.64c-8.38-1.87-6.37,10.23-11.54,14.4,4.08,3.78,13.09-9.83,11.54-14.4ZM246.25,932.97h-8.65s.01,4.26.01,4.26l4.32,4.36,4.32-8.62ZM49.77,1057.14v-17.31s-2.83,0-2.83,0c.83,6.77-5.67,14.97,2.83,17.32ZM52.72,1088.92c-.11,6.57-1.62,13.16,4.3,17.27,8.21-5.63,3.78-13.62-4.3-17.27ZM67.15,1135.11h4.27s4.32-4.32,4.32-4.32l-7.18-7.21-1.42,11.52Z"/>
  <path d="M552.49,381.27l.43-11.12,22.66-6.17c-17.71-1.97-44.58-19.1-43.23-38.67,2.74-39.89,32.42-10.7,51.74-5.95,11.95,2.94,25.54.44,37.33,7.43,2.23,9.31-.48,17.83-5.37,25.57,2.47,2.29,17.06-8.02,19.97-10.33,22.53-17.86,43.27-66.85,43.66-95.2.26-18.82-18.07-42.69,10.07-49.64,6.51.51,7.28,26.27,7.23,32.3-.35,41.77-8.93,72.37-31.25,107.6-15.19,23.98-38.46,42.27-62.75,55.71-8.99,1.26-.94-6.8-1.39-10.02-.95-6.8-6.86-1.49-7.22-1.49h-41.89ZM598.71,343.69l-51.98-20.17c7.04,21.52,32.53,26.53,51.98,20.17Z"/>
  <path d="M566.92,776.99c1.7,9.88-9.13,11.78-12.27,17.97-2.92,5.74-.37,10.05-6.8,16.37-16.18,15.91-65.05,30-86.87,40.24-39.02,18.31-64.94,28.8-94.54,57.1-4,3.82-20.01,21.8-24.85,18.47l-1.41-8.61c-8.42,7.81-37.24,35.56-46.85,37-7.5,1.13-18.52-1.88-15.33-11.05-.98-1.3-17.91,15.35-20.19,4.31-2.46-11.92,65.21-41.06,76.08-48.08,13.02-8.41,36.07-34.22,48.24-38.42,6.43-2.22,12.73-.51,17.91-2.31,8.89-3.09,21.69-8.55,29.67-13.67l4.29,5.75,1.39-8.56,13.07-1.55-8.66-7.19c8.07-2.95,21.47-.31,28.09-2.18,10.82-3.05,45.74-28.37,59.53-35.89,4.49-2.44,37.96-21.3,39.49-19.7Z"/>
  <path d="M306.15,600c-4.48,4.41-19.7,9.54-27.23,18.74-1.35,1.65-3.4,23.16-12.47,3.66-.07-.81,4.22-1.19,4.69-2.28,14.34-33.18,38.4-61.22,60.64-92.65,3.68-5.19,8.09-18.84,12.48-23.01,3.43-3.26,8.16-1.34,8.87-1.91.33-.27-2.61-4.2-1.27-8.32,3.48-10.76,21.2-41.45,27.48-53.26,10.86-20.42,31.7-63.53,44.84-79.64,5.53-6.79,16.56-9.37,14.4,2.73-7.04,39.41-50.45,92.38-71.56,127.86-13.38,22.48-47.32,94.77-60.87,108.1Z"/>
  <path d="M557.6,699.8c.83.9,11.18,20.37,11.56,21.68,5.8,19.95,23.23,68.98,34.74,92.19,2.97,5.99,9.82,9.37,11.51,14.49,6.56,19.87,9.08,31.19,23.1,49.11,2.75,3.51,3.34,7.84,9.31,6.55l-5.75-43.3c7.7-8.9,17.44,37.71,17.37,41.95-.2,12.82-8.83,18.18-20.35,14.45-16.55-5.36-32.27-50.07-40.8-66.09-21.24-39.91-33-78.4-52.97-120.54-2.03-4.28,4.7-9.66-4.32-8.45l-.03-5.74,16.64,3.7Z"/>
  <path d="M638.69,279.74c7.01-11.36-18.32-39.05-27.35-45.28-10.35-7.14-32-8.29-18.53-22.33,55.84,4.98,95.91,102.53,18.15,104.85-15.47.46-59.23-17.98-42.51-36.81,22.5,15.4,47.01,10.83,70.25-.43ZM636.26,288.86l-23.08,11.52c7.67-.11,23.12-.76,23.08-11.52Z"/>
  <path d="M410.93,762.5c-10.11.74-19.88-.35-29.46-3.74-4.59-1.62-33.95-16.57-37.83-19.21-3.83-2.61-8.71-12.62-15.07-17.45-13.13-9.97-33.64-20.31-44.81-33.18-4.8-5.52-10.67-17.42.02-15.97v-2.82c-5.12,0-12.68-.98-11.52-8.68,4.66-.76,7.84,2.18,11.31,4.55,25.99,17.78,52.28,45.58,78.43,63.11,11.34,7.6,40.46,18.09,46.11,23.41,2.37,2.23.96,6.9,2.8,9.97Z"/>
  <path d="M257.8,664.34c3.29,2.8-10.05,11.52-8.67,15.74-26.35,26.94-46.34,67.23-72.23,92.54-8.3,8.12-23.03,17.1-19.67-2.19,2.96-16.97,51.16-71.74,65.89-84.47,4.61-3.99,30.64-25.05,34.69-21.61Z"/>
  <path d="M895.08,373.91c5.02,4.49,10.61,8.45,5.57,16-15.55-7.63-31.32-14.68-46.74-22.59-11.36-5.82-68.18-36.65-71.67-43.88-1.81-3.75-1.83-7.48-1.49-11.48,5.94-.94,10.33.94,15.58,3.17,21.67,9.2,81.84,43.62,98.76,58.77Z"/>
  <path d="M864.5,222.43c.85,5.14.08,6.33-3.01,9.97-6.16,7.27-34.61,20.32-44.65,24.68-7.13,3.09-43.62,21.24-44.62,7.26-.42-5.82,13.8-15.65,18.97-18.46,10.07-5.48,66.37-30.25,73.31-23.44Z"/>
  <path d="M473.62,307.04c3.26,4.43,4.54,16.73,9.53,22.21l-7.93,2.18c-.77-5.96-7.61-4.88-10.7-7.98-5.2-5.22-10.01-24.06-14.38-30.95-2.36-3.73-25.47-23.5-19.02-29.64l8.67-2.86-8.63-5.77c6.91.71,7.95-5.86,8.69-11.59,7.89-6.26,13.09,24.28,14.33,27.52,6.56,17,9.96,24.04,19.43,36.89Z"/>
  <path d="M448.47,161.78c1.01,11.4-11.55,6.85-17.31,10.09-8.23,4.63-6.24,27.93-4.5,36.27,2.44,11.66,20.72,28.65,5.98,31.6-11.3-15.91-21.01-29.17-18.15-49.73,3.09-22.18,9.82-33.59,33.99-28.23Z"/>
  <path d="M384.92,132.85c-3.5,12.91,8.41,12.88,12.89,23.32,1.91,4.44.59,9.12,1.63,12.05,1.43,3.99,12.71,5.03,8.58,16.63l-16.03-5.79c3-20.22-10.65-29.17-30.17-25.99-1.83-11.76,6.09-11.5,13.35-15.67,2.07-1.19,1.13-7.02,9.75-4.56Z"/>
  <path d="M461.1,743.44c-1.05.47-1.69,3.48-3.5,4.28-11.19,4.98-28.27,15.87-37.99,3.29l62.11-28.91,2.83,5.79,18.8-11.57c-4.21,17.63-28.4,20.85-42.25,27.12Z"/>
  <path d="M569.81,216.62c-3.67,3.53-37.36-15.58-40.38-18.81-3.38-3.61-3.53-5.14-2.92-10.05,17.57-1.45,41.34,9.66,43.31,28.85Z"/>
  <path d="M655.71,201.46c-2.03,1.66-8.07,1.96-11.81,3.97-6.21,3.33-8.97,13.91-16.3,3.94-3.05-11.78,28.37-30.64,31.68-17.06.39,1.61-2.12,7.96-3.58,9.16Z"/>
  <path d="M705.61,54.92c.98,10.21-21.79,26.19-27.57,17.43l-.9-11.33,28.47-6.11Z"/>
  <path d="M434.03,63.54c-3.65,3.39-33.65-12.52-28.86-23.08,5.5-5.31,31.63,12.63,28.86,23.08Z"/>
  <path d="M512.23,239.55l-.17-11.35c3.74-3.91,33.21,14.5,31.75,21.6-2.95,14.4-22.8-16.48-31.58-10.26Z"/>
  <path d="M462.92,213.73c-5.63,5.84-28.69-19.2-15.87-25.92,7.25,8.01,18.32,13.21,15.87,25.92Z"/>
  <path d="M656.48,14.47l-18.72,25.95c-11.51-4.63,6.3-32.22,18.72-25.95Z"/>
  <path d="M405.18,63.55c29.42.75,4.29,38.33-1.68,14.55-1.26-5.03,1.92-9.61,1.68-14.55Z"/>
  <path d="M404.9,112.93l.23,8.37-23.08-2.89c.18-13.12,14.91-8.63,22.85-5.48Z"/>
  <path d="M705.61,141.54c-1.92.04-3.85.02-5.77.01l.39-18.39,14.02-4.72c1.02,6.64-6.01,8.14-8.07,13.67-1.25,3.36-.02,6.92-.58,9.42,6.23-.12,13.63-3.4,20.21-2.87.31,11.92-15.94,7.18-21.67,14.41-4.32-2.57.81-8.67,1.47-11.53Z"/>
  <path d="M491.84,23.1c-.69-8.58.22-17.18,7.21-23.03l2.84,20.22-10.05,2.82Z"/>
  <path d="M699.85,181.96c-2.11-10.94,18.41-15.92,20.19-7.16,1.77,8.71-14.98,7.68-20.19,7.16Z"/>
  <path d="M471.56,20.23l5.51,15.94-8.33,4.26c-.61-5.76-8.87-22.26,2.82-20.2Z"/>
  <path d="M607.37.02l-7.16,20.18c-7.84-4.7-1.62-20.88,7.16-20.18Z"/>
  <path d="M670.94,37.59l-14.42,17.3c-.22-8.96,3.45-19.27,14.42-17.3Z"/>
  <polygon points="578.49 5.81 575.54 18.15 566.94 20.2 578.49 5.81"/>
  <path d="M552.45,17.33h-5.72c-2.17-18.94,12.91-17.62,5.72,0Z"/>
  <path d="M705.59,92.45v5.73s-8.62,2.92-8.62,2.92c-.98-5.27,3.17-9.57,8.62-8.65Z"/>
  <path class="cls-1" d="M624.71,551.66c-1.86,19.3,17.57,36.72,22.98,53.6,1.82,5.7,7.68,42.53,5.77,44.49l-67.3,2.76-25-45.92c5.81-1.3,7.62,5.5,12.93,5.68,10.82.37,31.33-31.85,36.25-41.73,4.9-9.85,2.03-21.9,14.37-18.88Z"/>
  <path class="cls-1" d="M612.91,661.7c7.92,25.56,46.95,51.91,7.44,71.92-12.97-21.53-22.97-43.63-30.35-67.81l22.91-4.11Z"/>
  <path class="cls-1" d="M636.26,551.67c-17.38-5.23-13.77-18.95-8.62-31.75,9.25,6.02,8.38,22.04,8.62,31.75Z"/>
  <polygon class="cls-1" points="656.48 658.6 656.48 664.31 649.26 664.39 644.94 655.69 656.48 658.6"/>
  <polygon class="cls-1" points="662.27 765.45 657.9 771.18 650.78 766.86 655.05 762.59 662.27 765.45"/>
  <path class="cls-1" d="M198.91,943.55c-.47,1.34-8.23-.07-1.72,9.59l-10.07,2.95c-9.51,12.33-29.14,61.13-39.01,67.92-2.05,1.41-5.06,3.12-5.9-.12l2.5-18.28-8.19-3.34c-6.42,19.7-7.33,40.82-13.03,60.67-1.62,5.64-4.71,17.26-10.09,20.19-4.99-21.96-3.32-44.97-6.77-66.94-1.75-11.14-11.5-40.36-10.61-46.91,1.14-8.39,17.16-24.34,21.84-33.28,7.24-13.84,23.65-65.89,35.18-71.7,11.06-5.58,46.75-4.39,54.21,5.13,15.72,20.09-.86,52.94-8.32,74.13Z"/>
  <path class="cls-1" d="M52.72,1088.92c8.09,3.65,12.52,11.64,4.3,17.27-5.93-4.11-4.41-10.7-4.3-17.27Z"/>
  <path class="cls-1" d="M29.56,889.64c1.55,4.57-7.47,18.17-11.54,14.4,5.17-4.16,3.16-16.27,11.54-14.4Z"/>
  <polygon class="cls-1" points="67.15 1135.11 68.56 1123.59 75.74 1130.8 71.42 1135.1 67.15 1135.11"/>
  <path class="cls-1" d="M49.77,1057.14c-8.5-2.34-2-10.54-2.83-17.32h2.83s0,17.32,0,17.32Z"/>
  <polygon class="cls-1" points="246.25 932.97 241.93 941.59 237.61 937.23 237.6 932.96 246.25 932.97"/>
  <path class="cls-1" d="M598.71,343.69c-19.45,6.36-44.95,1.35-51.98-20.17l51.98,20.17Z"/>
  <path class="cls-1" d="M636.26,288.86c.04,10.76-15.42,11.42-23.08,11.52l23.08-11.52Z"/>
  <path class="cls-1" d="M1047.97,1359.08c7.18-12.45,2.8-20.84,2.76-32.06-.03-9.65,20.13-41.82,27.24-50.31,12.16-14.51,9.04-5.67,22.82-4.16,32.26,3.51,10.23-40.87.88-54.22-18.12-25.87-42.61-44.9-73.54-52.34-13.68-3.29-29.82-1.29-42.41-5.77-23.72-8.43-47.39-32.73-72.01-41.58-57.68-20.75-148.4-7.34-185.28,43.05-26.91,36.77-44.99,105.84-40.11,150.88,1.78,16.48,11.16,35.41,13.27,53.01,2.41,20.06-1.32,87.75,18.21,96.8,24.82,11.5,39.93-50.58,38.75-67.76-.78-11.23-8.2-23.49-6.63-34.21,1.25-8.53,12.01-23.15,4.15-31.04-4.12-4.14-10.51-1.33-12.23-2.42-7.57-4.79-10.12-38.45-8.93-47.63,1.17-8.98,10.59-27.81,9-34.36-2.32-9.62-12.12,5.69-13.98,10.08-28.63,67.75,31.53,115.89,12.73,174.66-2.08,6.5-7.46,12.2-8.52,19.29-2.51.54-4.95.3-7.21-1.01-12.99-7.57-10.43-70.59-12.32-86.78-2.71-23.15-13.2-45.13-14.29-67.88-2.08-43.62,17.79-114.65,54.49-141.49,20.47-14.97,41.85-12.68,59.18-20.6,10.76-4.92,12.12-10.94,30.16-10.92,32.13.04,51.03,8.74,78.92,18.15,3.27,1.1,6.72-1.37,6.95-1.1.36.44-.47,4.09.93,6.29,3.25,5.12,49.22,31.01,56.52,34.63,7.36,3.65,11.87,8.87,20.64,6.98,4.79-1.03,7.8-6,12.8-6.83,9.59-1.59,33.63,14.28,41.93,20.73,16.41,12.75,32.14,37.07,38.87,56.58-7.65.29-13.69-10.42-21.02-4.11-5.91,5.09-31.64,46.09-35.88,54.78-4.64,9.51-8.78,20.87-8.39,31.52-9-4.74-17.77-16.32-27.23-19.89-8.77-3.31-18.19-.55-26.55-6.64-4.01-2.91-23.14-30.29-28.34-26.63-12.93,18.06,16.14,29.67,25.22,43.59,18.65,28.61-16.36,37.01-37.48,25.39-29.17-16.05,10.82-8.86,12.34-9.73,1.88-1.08,4.74-7.47,4.7-9.84-.15-8.65-14.76-7.42-20.06-10.65-3.47-2.11-12.62-9.33-17.89-12.93-1.82-1.24-2.45-6.18-5.39-7.62-4.17-2.04-22.27,3.24-26.4.71-1.23-.75-5.25-14.5-7.72-17.11l-9.54-9.09c-4.58,16.27,7.38,29.64,6.37,46.78-.58,9.76-8.94,18.24-4.95,28.43,4.18,10.67,29.08,30.87,29.7,37.55-10.3,18.06-25.51-4.49-32.74-8.34-7.78-4.13-16.47-.72-21.81-9.69-11.63-19.55-2.05-24.79,1.05-40.96,7.32-38.12-6.18-90.12-41.18-110.12-4.63-2.64-10.91-4.2-16.24-2.93-4.75,1.73,3.8,8.38,4.23,8.6,3.42,1.73,7.33-.11,7.57.18.85,1.06.33,5.61,2.55,8.29,3.15,3.82,22.35,18.45,23.84,20.83,1.01,1.61,6.61,31.13,7.88,36.55.48,2.03,4.23,1.53,4.32,2.84,1.17,18.48-3.37,41.92-16.42,55.81-8.05,8.57-22.63,11.22-23.91,24.7-.7,7.32,4.82,7.92,7.94,12.8,5.5,8.6,10.57,17.7,15.86,26.41-15.4-.13-18.15-11.3-27.88-19.23-10.16-8.29-29.63-26.4-36.25-7.19-2.83,8.22,15.8,14.48,21.2,19.15,3.9,3.37,6.51,9.18,11.5,13.36,12.21,10.23,40.07,20.12,44.76-1.16,5.25-23.83-20.2-35.9-18.35-46.87l9.84-6.37c-.05,27.36,21.51,23.65,38,33.33,5.94,3.49,12.85,13.42,16.97,14.61,16.32,4.69,32.8-17.27,31.4-31.9-1.28-13.4-26.34-27.65-32.19-40.16l3.89-24.23c7.09,5.4,13.52-2.14,19.67-1.27,2.85.41,10.7,11.63,19,8.55-7.97,19.27-14.57,30.45,7.49,42.04,34.11,17.92,63.35,2.17,60.21-37.24,11.25-2.77,9.01,4.12,14.34,8.58,7.01,5.87,30.87,29.01,38.27,19.85Z"/>
  <path class="cls-1" d="M963.15,1169.53c-2.45-2.1-5.51-3.65-8.88-3.21-3.13,15.28,12.77,22.92,15.85,37.43.76,3.57-1.3,14.53-2.58,18.13-9.52,26.63-40.91,19.94-49.55-3.55,6.5-7.9,16.13-1.43,24.17-1.26,4.87-14.45,1.98-21.79-13.93-23.75-21.46-2.64-33.04,29.44-21.2,45.61,8.22,11.23,33.43,24.79,46.57,19.75,19.87-7.62,33.11-38.32,28.48-58.56-1.39-6.09-14.28-26.62-18.92-30.59Z"/>
  <path class="cls-1" d="M1048.54,1231.59c-7.28,0-15.15,7.08-16.51,13.9-.72,3.62,1.42,7.31.58,10.35-2.69,9.64-18.87,16.44-15.48,28.89,7.54,1.8,4.49-5.78,7.83-9.07,2.66-2.61,10.24-2.82,12.85-7.89,2.46-4.77-2.61-10.77-.9-17.45.75-2.91,12.88-17.7,11.63-18.74Z"/>
  <path class="cls-1" d="M1067.84,1255.72l6.95-13.68-5.68-7.44c-6.1,1.21-9.04,7.24-10.9,12.72-.22,3.71,6.67,10.44,9.63,8.4Z"/>
  <path class="cls-1" d="M1058.2,1258.15c-10.65-5.05-18.39,14.21-12.2,18.25l9.58.86,2.62-19.11Z"/>
  <path class="cls-1" d="M1019.52,1287.17h-4.78s-2.44,9.64-2.44,9.64c6.09.6,8.15-3.85,7.23-9.64Z"/>
  <path class="cls-1" d="M1043.7,1289.59l-14.24.25-2.66,16.64c13.55,2.52,16.33-4.76,16.9-16.89Z"/>
  <path d="M1047.97,1359.08c-7.4,9.16-31.26-13.97-38.27-19.85-5.32-4.46-3.09-11.36-14.34-8.58,3.14,39.41-26.1,55.16-60.21,37.24-22.06-11.59-15.46-22.77-7.49-42.04-8.29,3.08-16.14-8.14-19-8.55-6.15-.88-12.58,6.67-19.67,1.27l-3.89,24.23c5.85,12.51,30.91,26.75,32.19,40.16,1.39,14.64-15.08,36.6-31.4,31.9-4.12-1.18-11.02-11.11-16.97-14.61-16.49-9.69-38.05-5.97-38-33.33l-9.84,6.37c-1.85,10.98,23.61,23.04,18.35,46.87-4.69,21.28-32.55,11.39-44.76,1.16-4.99-4.18-7.6-9.99-11.5-13.36-5.4-4.67-24.03-10.93-21.2-19.15,6.62-19.21,26.09-1.1,36.25,7.19,9.73,7.93,12.48,19.11,27.88,19.23-5.29-8.72-10.36-17.82-15.86-26.41-3.12-4.88-8.63-5.48-7.94-12.8,1.28-13.48,15.86-16.13,23.91-24.7,13.05-13.88,17.59-37.32,16.42-55.81-.08-1.31-3.84-.81-4.32-2.84-1.27-5.42-6.87-34.94-7.88-36.55-1.49-2.38-20.69-17.01-23.84-20.83-2.21-2.69-1.7-7.24-2.55-8.29-.24-.3-4.15,1.54-7.57-.18-.43-.22-8.98-6.86-4.23-8.6,5.33-1.27,11.62.29,16.24,2.93,35,20,48.5,72,41.18,110.12-3.1,16.16-12.68,21.41-1.05,40.96,5.34,8.97,14.03,5.56,21.81,9.69,7.23,3.84,22.44,26.4,32.74,8.34-.62-6.68-25.52-26.89-29.7-37.55-3.99-10.19,4.38-18.67,4.95-28.43,1.01-17.14-10.95-30.5-6.37-46.78l9.54,9.09c2.47,2.62,6.49,16.37,7.72,17.11,4.13,2.52,22.23-2.76,26.4-.71,2.94,1.44,3.58,6.38,5.39,7.62,5.27,3.6,14.42,10.82,17.89,12.93,5.3,3.23,19.91,2,20.06,10.65.04,2.37-2.82,8.76-4.7,9.84-1.52.87-41.51-6.32-12.34,9.73,21.12,11.62,56.13,3.22,37.48-25.39-9.08-13.92-38.15-25.53-25.22-43.59,5.21-3.65,24.33,23.72,28.34,26.63,8.37,6.08,17.79,3.33,26.55,6.64,9.46,3.57,18.22,15.15,27.23,19.89-.39-10.65,3.75-22.01,8.39-31.52,4.24-8.69,29.97-49.7,35.88-54.78,7.32-6.3,13.36,4.4,21.02,4.11-6.73-19.52-22.46-43.84-38.87-56.58-8.3-6.45-32.35-22.32-41.93-20.73-5,.83-8.01,5.8-12.8,6.83-8.77,1.89-13.28-3.33-20.64-6.98-7.3-3.62-53.28-29.51-56.52-34.63-1.4-2.2-.56-5.85-.93-6.29-.22-.27-3.68,2.21-6.95,1.1-27.89-9.41-46.79-18.11-78.92-18.15-18.04-.02-19.39,6-30.16,10.92-17.33,7.92-38.71,5.62-59.18,20.6-36.7,26.85-56.57,97.88-54.49,141.49,1.08,22.76,11.58,44.73,14.29,67.88,1.89,16.2-.67,79.21,12.32,86.78,2.26,1.32,4.7,1.55,7.21,1.01,1.06-7.09,6.44-12.78,8.52-19.29,18.8-58.78-41.36-106.91-12.73-174.66,1.85-4.39,11.65-19.7,13.98-10.08,1.58,6.56-7.84,25.38-9,34.36-1.19,9.18,1.36,42.84,8.93,47.63,1.72,1.09,8.11-1.72,12.23,2.42,7.87,7.9-2.89,22.52-4.15,31.04-1.57,10.71,5.85,22.98,6.63,34.21,1.19,17.18-13.93,79.26-38.75,67.76-19.53-9.05-15.8-76.74-18.21-96.8-2.11-17.6-11.49-36.53-13.27-53.01-4.88-45.04,13.2-114.11,40.11-150.88,36.88-50.39,127.61-63.8,185.28-43.05,24.62,8.86,48.29,33.15,72.01,41.58,12.59,4.48,28.74,2.48,42.41,5.77,30.94,7.44,55.42,26.47,73.54,52.34,9.35,13.35,31.38,57.73-.88,54.22-13.78-1.5-10.66-10.34-22.82,4.16-7.11,8.48-27.27,40.65-27.24,50.31.04,11.22,4.42,19.62-2.76,32.06Z"/>
  <path d="M963.15,1169.53c4.64,3.97,17.53,24.5,18.92,30.59,4.63,20.24-8.61,50.93-28.48,58.56-13.14,5.04-38.35-8.52-46.57-19.75-11.84-16.17-.27-48.25,21.2-45.61,15.92,1.96,18.8,9.3,13.93,23.75-8.03-.17-17.67-6.64-24.17,1.26,8.64,23.49,40.03,30.18,49.55,3.55,1.28-3.59,3.34-14.55,2.58-18.13-3.08-14.52-18.97-22.15-15.85-37.43,3.37-.44,6.43,1.11,8.88,3.21Z"/>
  <path d="M1048.54,1231.59c1.25,1.04-10.88,15.82-11.63,18.74-1.71,6.67,3.36,12.68.9,17.45-2.61,5.06-10.19,5.28-12.85,7.89-3.34,3.29-.29,10.87-7.83,9.07-3.39-12.45,12.79-19.25,15.48-28.89.85-3.04-1.3-6.73-.58-10.35,1.36-6.82,9.23-13.89,16.51-13.9Z"/>
  <path d="M1043.7,1289.59c-.57,12.13-3.35,19.41-16.9,16.89l2.66-16.64,14.24-.25Z"/>
  <path d="M1058.2,1258.15l-2.62,19.11-9.58-.86c-6.19-4.03,1.56-23.3,12.2-18.25Z"/>
  <path d="M1067.84,1255.72c-2.95,2.04-9.84-4.69-9.63-8.4,1.86-5.49,4.8-11.52,10.9-12.72l5.68,7.44-6.95,13.68Z"/>
  <path d="M1019.52,1287.17c.92,5.8-1.14,10.24-7.23,9.64l2.44-9.65h4.78Z"/>
</svg>