<?xml version="1.0" encoding="UTF-8"?>
<svg id="Calque_1" data-name="Calque 1" xmlns="http://www.w3.org/2000/svg" viewBox="0 0 1243.05 1078.72">
  <defs>
    <style>
      .cls-1 {
        fill: #fff;
      }
    </style>
  </defs>
  <path class="cls-1" d="M517.08,18.18c14.08.44,1.96-22.18-2.19-17.56-.82,6.94,6.32,10.92,2.19,17.56Z"/>
  <path class="cls-1" d="M492.88,26.98c.98-8.68-2.04-20.66-13.17-19.76-1.62,1.64,7.92,20.85,13.17,19.76Z"/>
  <path class="cls-1" d="M543.45,22.58c.11-4.81,1.21-11.48-4.36-13.18v13.18s4.36,0,4.36,0Z"/>
  <path class="cls-1" d="M554.47,22.58h3.25c9.44-3.68-3.73-21.18-3.25,0Z"/>
  <path class="cls-1" d="M598.42,16.01c-4.66-5.29-10.23,15.19-3.25,17.55,6.93.12,1.75-13.78,3.25-17.55Z"/>
  <path class="cls-1" d="M475.28,35.78c.26-5.31-2.14-13.67-8.76-13.18-1.55,1.57,5.95,12.55,8.76,13.18Z"/>
  <path class="cls-1" d="M440.13,31.4c-3.46,6.81,11.2,23.27,16.55,15.46,6.18-9.03-9.2-15.8-16.55-15.46Z"/>
  <path class="cls-1" d="M618.21,33.6c-7.7-.14-9.23,9.52-8.77,15.37,6.36,2.14,10.06-13.92,8.77-15.37Z"/>
  <path class="cls-1" d="M635.82,70.95c5.29,1.07,25.51-5.76,24.16-12.05-5.03-10.14-27.92,8.66-24.16,12.05Z"/>
  <path class="cls-1" d="M652.33,73.17c-5.97,1.28-7.98,16.38-2.2,17.56,7.34,1.5,11.28-19.52,2.2-17.56Z"/>
  <path class="cls-1" d="M429.12,97.34l-15.38-4.39c-1.12,4.18,9.94,10.15,12.14,10.93,5.46,1.94,2.36-5.06,3.24-6.55.12-.2,2.95.74,4.31-1.62,3.76-6.51,2.47-15.88-5.42-18.11-7.18,5.26,4.43,11.74,1.11,19.73Z"/>
  <path class="cls-1" d="M490.68,112.69l-3.43-6.5-16.3,7.63c5.86,7.74,13.21-.18,19.74-1.13Z"/>
  <polygon class="cls-1" points="666.58 117.11 662.86 110.81 651.22 110.52 651.19 117.11 666.58 117.11"/>
  <path class="cls-1" d="M426.27,119.96c-3.49-2.56-12.47-4.64-12.53,2.62,1.14,4.94,16.22,5.31,15.36,2.25-1.72-1.03-1.6-3.96-2.84-4.87Z"/>
  <path class="cls-1" d="M475.25,161.07c1.89-11.49,12.93-26.58,1.14-35.11-9.81,8.27-6.54,18.84-9.79,29.86l2.03,4.24,6.62,1.02Z"/>
  <path class="cls-1" d="M677.58,147.89c2.67-10.61-6.27-16.69-15.38-19.75,4.31,9.1-5.96,10.06-8.94,14.13-2.23,3.04-1.54,7.12-3.31,9.89-2.2,3.45-11.22,5.94-9.74,13.32,16.85,2.19,10.95-8.37,17.48-15.96,8.72-10.13,18.43-.02,19.87-1.62Z"/>
  <path class="cls-1" d="M512.66,295.17c2.73-14.24-12.96-11.84-22.58-15.88-41.07-17.25-59.93-57.95-54.18-101.54,1.86-14.08,20.22-34.68-6.77-36.47-12.32,44.7-7.6,96.19,21.02,133.96,10.26,13.54,19.5,26.57,29.64,40.19,1.79,2.41,20.99,21.68,22.46,22.25,6.84,2.69,18.66.17,25.79-.75,5,16.97,17.62,51.27,37.33,54.07,7.06,1,15.57-5.52,13.09-13.13-2.3-7.05-11.4-.4-16.79-2.9-4.14-1.92-7.47-8.46-9.78-12.39-12.08-20.59-20.48-74.75-16.24-98.29,3.93-21.8,23.24-59.14,48.47-59.22,5.87-.02,12.6,3.62,18.17,3.81,23,.79,52.7-2.73,74.29,4.89,14.45,5.1,18.44,10.93,14.18,26.44l-27.44-8.81c-4.85,4.41,2.05,3.93,3.23,6.02,1.14,2.04.6,5.76,2.15,7.81,6.13,8.07,14.52,6.43,15.41,18.23,11.5-3.4,8.09,4.22,17.64,7.54,4.88-8.62-11.47-23.37-10.8-27.21,1.07-6.13,21.21-5.85,10.24-30.46-7.53-16.89-23.9-11.41-37.87-12.7-12.02-1.12-24.35-2.75-36.3-4.39,9.6-19.26,18.41-58.42-15.38-52.73-2.02,5.91,3.27,3.74,3.96,4.64.55.73-5.99,12.92,7.02,10.72l2.17-8.77,2.27,9.85-8.85,1.14c5.6,15.11-13.38,24.13-6.58,39.54-22.67-5.52-49.69-6.93-63.4,14.67-13.9,21.89-35.12,75.04-29.09,100.31.58,2.44,4.8,2.24,5.63,3.61,1.14,1.87-3.05,9.45,3.27,12.24-7.16,8.1-5.7.39-8.09-1.1-13.62-8.46-20.42-8.11-32.57-21.96-4.05-4.61-18.74-21.47-5.37-18.87,10.07,1.96,20.2,4.44,30.67,5.64Z"/>
  <path class="cls-1" d="M554.45,158.86c-2.16-17.9-41.53,2.01-35.17,11,11.43,3.04,22.56-10.31,35.17-11Z"/>
  <path class="cls-1" d="M503.88,163.3c-41.87-5.56-82.7,65.24-28.71,75.95,13.91,2.76,48.52-5.07,36.36-23.21-12.6,10.86-33.88,4.6-45.89-4.61-16.12-12.38,24.51-38.33,36.09-38.2l2.15-9.93Z"/>
  <path class="cls-1" d="M613.81,163.3l-16.53,10.94,2.28,6.63c6.48,1.69,16.81-11,14.24-17.57Z"/>
  <path class="cls-1" d="M558.84,185.28c-2.36-2.42-25.33,6.58-24.16,12.05,2.15,10.13,18.36-9.45,24.19-5.48l-.02-6.57Z"/>
  <path class="cls-1" d="M644.59,260c4.06-3.96-13.3-26.47-21.97-21.96-4.89,4.95,13.94,26.05,21.97,21.96Z"/>
  <path class="cls-1" d="M517.07,255.62c-19.39,2.77-35.2-5.38-53.56-8.97l-3.61,5.69c-.06,2.59,33.42,14.07,38.56,14.36,7.33.41,20.71-1.26,18.61-11.08Z"/>
  <path class="cls-1" d="M697.13,360.89l-15.77-.25-30.12-11.6c.13-2.63,29.74-19.61,31.78-23.14.44-.77,5-15.82,5.17-16.99.71-4.85-5.46-37.33-7.96-41.65-4.36-7.54-7.63-7.32-8.21,1.57-1.05,15.9,2.41,30.8-4.33,46.15-6.81,15.51-23.52,26.32-40.21,28.11-9.4,1.01-11.32-4.39-20.24-3.93-6.59,22.69,29.73,12.28,33.08,14.26,1.66.98,3.29,6.23,6.57,8.75,7.64,5.88,35.74,21.6,44.73,20.9,2.89-.23,13.39-3.01,14.55-6.52l-21.98,2.15c1.02-4.86,7.03-3.57,10.79-5.67,6.43-3.6,8.06-9.9,17.78-5.3.21-8.39-3.34-35.28-14.27-35.23-14.24,5.24-1.46,8.06.16,17.52.64,3.7-.86,7.32-1.51,10.88Z"/>
  <path class="cls-1" d="M431.31,277.61c-3.55-.31-6.76.82-9.98,2.09-4.51,1.78-29.24,14.18-31.89,16.47-27.06,23.44-33.98,83.13-45.05,115.43-7.61,22.19-27.5,51.19-32.5,70.83-3.41,13.38-2.08,26.48-8.04,40.32-11.14,25.89-29.15,24.13-26.5,63.79l5.57,36.14c11.76-9.38,1.49-25.79,1-38.37-1.3-32.98,17.25-33.88,26.58-57.12,6.97-17.35,4.29-34.64,13.49-54.66,7.87-17.13,18.29-33.78,24.81-52.13,11.93-33.55,13.48-67.5,31.91-99.99,13.28-23.42,26.37-23.05,46.5-37.11,2.64-1.84,5.37-.09,4.12-5.69Z"/>
  <path class="cls-1" d="M655,307.82c1.6-3.9-2.07-25.34-4.84-28.08-12.14-10.62-39.91,17.56-33.13,28.66,2.43,3.99,25.96,7.72,30.53,6.23.48-.16,7.25-6.34,7.44-6.81Z"/>
  <path class="cls-1" d="M581.3,296.94c.82,1.41,10.99,4.92,12.77,8.16l4.34-2.29c.95-10.47-7.2-19.11-17.56-18.62.52,3.66-1.24,9.82.45,12.75Z"/>
  <path class="cls-1" d="M567.6,336.97l-4.37,1.09c-2.42,18.01,25.11,44.5,43.99,40.63-2.87-10.19-12.95-12.36-19.84-18.61-3.58-3.25-5.17-7.3-7.82-9.86-3.71-3.58-11.59-3.51-11.96-13.26Z"/>
  <path class="cls-1" d="M794.47,376.27c-3.16-2.43.37-8-12.28-6.27-7.49,1.03-9.96,7.34-13.83,8.31-2.79.7-6.24-1.63-9.52-.83-26.3,6.4-53.89,36.94-57.08,63.87,6.25,4.74,6.88-2.81,9.59-4.8,1.4-1.03,3.92-.27,5.88-2.2,7.48-7.36,32.17-43.05,42.79-42.47,4.06,17.24,10-.88,15.08-5.81,3.06-2.96,8.2-4.23,11.34-7.34,4.59,12.42-11.52,20.59-7.74,33.95l5.53,1.26,14.65-28.25,10.37-.11c3.45,9.29,2.11,19.8-3.12,28.23-3.59,5.78-12.29,8.02-9.8,17.66,11.12,2.44,12.86-8.03,19.76-13.18,1.03,11.62-5.69,18.43-6.56,28.57l13.16-4.39c5.39,7.73-28.83,28.83-35.11,31.92-15.12,7.43-17.86,4.75-31.49,7.71-.85.18-7.27,9.05-15.4,4.71l-3.73,6.2c8.46-3.58,10.89,4.16,14.13,4.58,25.12,3.29,65.84-13.95,77.61-37.03,10.36-20.31-.67-18.73-1.36-30.08-.5-8.27,3.99-16.01.9-27.64-2.1-7.89-7.2-8.54-9.85-12.7-2.02-3.17-2.14-11.32-5.97-13.78-7.12-4.56-16.83.77-17.97-.1Z"/>
  <path class="cls-1" d="M972.22,475.43c-1.4-15.85-19.99-20.43-30.6-27.64-29.5-20.06-48.72-27.93-79.37-43.75-9.56-4.94-17.54-14.92-28.53-14.32,4.8,36.17,39.99,34.37,66.42,46.78,20.62,9.68,42.64,26.86,62.57,36.37,3.18,1.52,5.61,3.34,9.52,2.56Z"/>
  <path class="cls-1" d="M553.69,452.03c2.72,2.46,4.58,11.72,9.51,4.73-12.62-15.35-31.64-25.68-39.48-44.02-15.71-9.67-36.14,30.91-40.07,41.39-2.2,5.87-14.82,44.02-15.12,46.47-2.52,20.5,2.6,72.95,33.93,60.76l3.6-13.36c-9.53-.51-13.03,9.52-20.79-.11-9.11-11.3-8.07-28.06-7.76-41.67l56.06,54.91,7.67-12.06c-9.64-8.25-18.61-18.57-25.97-28.97-5.33-7.54-21.01-38.62-24.55-41.41-1.63-1.29-2.43-1.32-4.43-1.04l2.17,21.97-8.43-5.68c4.54-22.28,11.51-49.49,25.98-67.41,2.76-3.42,8.33-4.41,9.92-10.44,7.89,2.08,6.78,10.98,11.13,15.36,5.53,5.57,19.42,14.06,26.61,20.57Z"/>
  <path class="cls-1" d="M1148.17,517.21c8.2-3.6,7.15-10.2,5.58-17.71-2.77-13.28-24.53-41.78-35.35-50.38-23.5-18.67-56.91-19.27-85.68-17.59-50.1,2.92-56.48,58.77-53.89,98.89h13.13c1.64-12.64.42-21.16,4.95-33.59,20.86-57.28,81.38-66.26,124.86-26.9,14.51,13.13,18.72,30.11,26.4,47.28Z"/>
  <path class="cls-1" d="M690.77,453.47c-40.42-3-69.16,35.62-109.89,33.03l-.04,8.72c34.18,4.23,59.93-18.82,88.2-31.63,5.1-2.31,11.49-3.03,16.92-5.17,3.37-1.33,5.94,1.26,4.82-4.94Z"/>
  <path class="cls-1" d="M1171.56,604.38c12.89-11.1,26.64-37.5,37.22-51.81,10.79-14.6,30.53-29.08,33.76-49.78,4.51-28.88-21.51-47.85-48.34-39.55-16.34,5.06-12.71,50.25-37.27,51.8,2.72,8.63,15.64,1.23,19.83-3.27,7.9-8.49,7.17-23.58,13.47-32.69,13.55-19.6,47.95-1.41,45.84,19.24-.45,4.38-8.42,19.81-11.35,24.03-5.26,7.59-13.96,13.09-19.38,20.19-9.46,12.39-35.82,59.19-51.56,58.18-8.75-.56-18.54-19.86-34.31-25.19-43.38-14.67-68.4,20.51-82.35,56.03-10.99,27.97-5.63,41.52-7.76,69.19-2.05,26.6-11.93,53.71-4.26,80.19,11.14,2.44,2.19-8.07,14.15-8.92,15.05-1.07,31.35,10.13,41.86,19.92,5.68,5.29,9.3,11.95,14.19,16.59,27.55,26.18,80.24,62.94,38.3,104.13-28.17,27.67-33.68-26.6-48.03-41.64-9.97-10.45-36.14-13.37-49.65-9.85-9.69,2.52-15.87,13.71-25.49,18.48-11.48,5.7-51.39,14.17-63.03,10.79-8.09-2.35-20.27-20.22-32.34-17.1-4.53,4.42,20.64,22.45,24.83,24.61,14.01,7.22,54.29-.58,69.25-6.39,17.56-6.82,22.35-24.15,45.21-22.49,32.76,2.38,30.31,25.45,43.51,46.81,24.03,38.87,57.06-5.61,58.84-35.18,2.22-36.76-28.13-53.54-50.38-74.4-18.96-17.77-30.28-40.86-60.75-42.78-11.64-.74-17.38,8.92-16.17-12.13.8-13.92,5.63-29.71,6.56-44.04,1.94-30.01-3.68-42.56,9.13-72.21,11.89-27.52,33.03-59.9,67.91-50.93,19.07,4.9,21.5,25.99,41.19,27.03,5.77.3,13.02-3.1,17.36-6.84Z"/>
  <path class="cls-1" d="M730.35,493.04c-26.66,6.45-45.86,28.12-68.34,42.67-13.38,8.66-67.43,40.69-80.11,40.5-7.03-.11-12.55-6.22-19.65-6.22-6.95,4.75-1.32,8.5,3.87,11.41,7.5,4.21,17.94,5,26.31,3.44,13.94-2.61,79.2-42.16,92.48-52.61,9.92-7.8,20.03-21.85,29.44-28.18,4.76-3.21,16.28-2.34,16-11Z"/>
  <path class="cls-1" d="M717.17,596.33c.73.99,5.43,1.23,7.74.26,10.15-4.24,29.8-18.5,41.34-24.81,32.94-18,64.89-25.05,63.02-72.16l-12.74,32.31c-9.17,15.98-62.92,35.18-82.46,47.25-3.84,2.37-21.06,11.5-16.91,17.14Z"/>
  <path class="cls-1" d="M747.94,508.43c-20.91,10.34-56.79,21.89-59.34,48.34,3.73,3.8,15.27-12.42,18.74-15.31,10.78-8.96,28.81-16.28,36.97-24.59,2.87-2.92,4.76-2.9,3.63-8.44Z"/>
  <path class="cls-1" d="M712.76,602.95c-8.14.13-7.17,10.63-10.95,16.5-11.84,18.34-49.73,21.38-48.31.29,1-14.92,10.1-32.18,13.48-46.16.44-1.84,2.18-6.11-1.48-5.77-.77.07-10.46,10.35-10.91,10.98-19.24,26.85-17.61,80.3,27.47,69.28,22.63-5.53,32.55-22.15,30.7-45.12Z"/>
  <path class="cls-1" d="M529.59,591.29c2.47-3.09,3.44-8.36,6.84-11.45l-5.05-5.43c-6.91,6.19-12.79,13.66-19.83,19.69-23.36,20-87.3,71.83-113.81,79.68-13.02,3.86-26.42.19-39.54,2.24-12.49,1.95-26.69,10.88-40.34,12.42-9.9,1.12-39.03-1.58-44.66-9.83-12.38-18.11,7.61-35.29,3.13-53.67-11.74,15.33-19,48.81-4.43,63.76,14.63,15,36.82,19.85,57.01,17.39,19.37-2.36,68.94-12,84.59-20.95,12.56-7.19,23.42-20.1,35.42-28.34l-4.38-3.27c9.72,2.82,14.28-8.07,19.16-10.99,26.87-16.09,45.13-25.31,65.9-51.24Z"/>
  <path class="cls-1" d="M772.12,596.34l-9.87-8.75c-13.4,8.81,8.22,23.71,14.37,31.76,2.31,3.02,1.98,7.63,4.24,11.15,7.33,11.39,32.22,21.59,43.81,28.44l-47.02,89.1c-8.43,10.5-27.15-13.06-33.04-17.54-4.69-3.56-26.46-20.22-29.6-21.16-4.36-1.31-15.08.93-20.65-.66l-2.37,8.63,79.68,47.86c12.96.28,23.5-4.89,31.21-14.93,1.62,6.74,9.36,9.77,14.35,15.37,8.89,9.96,15.16,22.91,25.27,32.02l13.17-5.62-3.39,19.75c3.15,6.6,32.98,12.18,29.81,24.84,5.42,5.99,6.98-2.54,10.13-4.68,8.04-5.45,15.09-7.93,21.79-15.68,13.29-15.39,9.57-22.24,13.54-39.22,7.47-31.96,34.09-71.39,45.75-103.74,2.94-8.15,8.46-19.63-1.2-25.15s-19.52-3.68-28.31,2.24c-6.69,4.5-29.05,29.18-34,36.27-1.84,2.64-1.47,6.95-3.41,9.87-2.57,3.86-12.56,20.89-16.24,20.54-13.04-6.81-45.32-33.16-47.61-47.19-1.41-8.6,4.37-17.02-5.59-25.08-3.32-2.69-7.65-2.03-10.96-4.42-20.66-14.86-40.64-31.5-54.96-52.77l1.09,8.78Z"/>
  <path class="cls-1" d="M631.28,681.95c1.52-2.48-1.35-4.93-3.16-6.42-8.19,10.05-19.86,19.63-27.66,29.63-21.94,28.11-59.2,54.61-86.94,80.33-2.66,2.47-31.16,21.02-34.45,22.36-13.43,5.45-38.63,8.07-50.77,17.39-2.73,2.09-4.6,3.49-3.55,7.4,2.12,7.86,21.97-5.15,27.73-5.53,3.73-.24,1.1,7.39,17.45,2.37,41.82-12.86,120.62-78.8,149.17-112.45,4.28-5.04,27.32-32.15,23.3-37.13-3.74-.06-8.13,5.08-10.96,7.62-6.8,6.12-12.91,14.09-19.8,19.86-1.74,1.46-4.41,5.77-6.6,2.19,7.86-8.16,14.89-17.1,22.04-25.86,1.52-1.86,4.08-1.57,4.2-1.76Z"/>
  <path class="cls-1" d="M565.3,1078.72c7.46-4.98,36.09-30.29,41.88-37.27,12.41-14.96,29.29-50.24,40.47-69.45,10.34-17.76,21.47-41.31,12.31-61.31-13.61,6.81-26.72-8.03-38.93-10.49-7.5-1.51-14.8.52-22.67-1.51-6.22-1.61-12.88-9.76-18.81-10.02-4.47-.2-13.02,4.89-24.09,4.54-7.48-.24-55.38-5.21-58.86-7.08-8.02-4.33.86-21.16-20.29-21.67-25.91-.63-41.83,7.37-63.11-15.93l-55.23-19.32c-2.64.57-5.18,10.42-1.49,12.31,25.1,12.28,55.55,36.53,84.78,38.42,12.98.84,27.08-4.39,40.63-2.18-18.25,30.08-6.35,87.04-23.18,114.19-12.11,19.54-42.3.4-59.93-3.65-46.39-10.65-96.88,9.04-139.43-1.29-39.25-9.53-74.61-34.87-87.5-74.08,37.48-12.9,13.11-37.15-7.22-53.44l2.99-18.96,24.01-2.35-2.23,5.51,11.02,1.07c3.54,3-20.88,19.55,6.1,32.37,13.16,6.25,38.41,9.91,45.11-6.64,2.25-5.56-.45-7.13-.25-9.33.06-.71,7.53-3.46,4.02-12.03,12.05-2.83,9.69,3.02,14.24,6.59,5.22,4.09,23.79,19.95,29.45,15.06,7.74-10.85.92-19.36,2.55-29.17,1.1-6.64,8.01-10.34,9.87-14.59,1.12-2.56-1.1-5.45-.7-6.11.43-.71,4.5-1.37,6.18-3.56,2.66-3.46,10.77-16.6,13.09-17.73,4.31-2.1,39.99,17.58,22.14-24.15-9.81-22.94-39.42-46.85-63.74-52.78-32.41-7.9-37.02-3.66-69.36-20.79-25.78-13.65-34.29-20.93-66.17-23.98-87.7-8.37-142.6,40.56-152.35,126.4-3.61,31.76,10.46,54.1,12.93,83.34,1.48,17.53-3.28,39.27,6.16,55.39,18.89,32.24,41.33-26.14,39.87-44.16-.64-7.89-6.81-19.3-6.33-26.54.5-7.43,12.37-18.75,2.95-25.3-3.7-2.57-8.69.08-10.74-2.14-9.49-10.3-6.62-49.03,3.24-60.63-9.71-13.04-18.59,19.5-19.54,26.59-6.13,45.94,39.77,86.71,8.56,130.61-10.78-2.89-12.25-15.62-13.11-25.32-1.34-15.16-.1-30.02-2.54-45.83-2.18-14.13-9.31-29.11-10.71-42.05-4.96-45.75,15.84-109.81,62.64-126.46,6.81-2.42,51.75-16.61,55.01-16.61,7.56,0,35.29,3.95,43.73,5.9,3.72.86,28.56,7.8,29.84,8.68.18.12-1.61,2.99-.82,4.27,1.76,2.82,53.12,30.83,58.07,32.06,7.65,1.9,15.31-4.15,23.12-3.66,18.43,1.17,49.94,31.4,58.68,47.01,1.07,1.91,4.88,11.6,3.96,12.51-9.83-2.02-11.78-8.64-20.98-.07-3.6,3.35-28.73,40.43-30.1,44.63-2.42,7.44-1.79,13.82-1.71,21.4-8.34-5.33-14.25-13.3-23.64-17.02-8.11-3.21-15.19-2.55-23.25-7.53-5.72-3.53-18.14-21.14-23.46-18.45l-4.07,6.34c1.02,12.03,40.76,26.71,27.55,44.77-6.84,9.35-37.06,4.99-41.05-4.85-2.85-7.03,16.09-1.19,17.69-2.11,1.03-.59,3.1-4.17,3.43-5.48,2.45-9.72-11.7-7.31-16.7-10.09-2-1.11-9.01-6.78-13.83-9.68-2.24-1.35-2.19-5.33-5.09-6.17-3.45-1-19.08-.36-22.83,1.71l-12.14-21.98c-8.38,7.63.65,16.25,2.31,24.03,3.2,14.98-5.83,26.54-3.01,35.94,1.87,6.24,23.35,21.34,23.8,22.93.74,2.61-.35,6.48-.02,9.42l-9.53.09c-3.7-13.16-16.15-8.43-27.87-14.37-22.19-11.25-5.2-31.48-4.29-50.47,1.26-26.64-12.57-56.48-35.47-70.35-4.35-2.64-10.31-2.37-15.18-3.39-1.11,4.8,2.55,4.98,5.18,6.98,25.59,19.5,49.71,55.66,31.39,87.85-7.84,13.77-20.91,15.13-25,20.06-7.8,9.39,13.42,27.03,17,36.77-9.66,7.17-34.93-31.52-48.38-25.39l-4.06,7.13c-.54,2.65,1.48,3.55,2.92,5.1,3.34,3.59,28.28,22.56,32.65,24.56,36.88,16.8,35.8-21.71,12.5-38.92l8.75-9.81c.08,23.66,20.25,19.78,34.62,27.94,10.29,5.83,16.14,27.41,23,38.67,24.07,39.47,88.71,70.42,134.56,65.04,19.61-2.3,36.94-14.13,59.66-13.06,29.67,1.39,82.17,43.52,98.91-2.08,2.26-6.17,2.48-27.3,6.48-28.03,16.63,6.09,57.02,4.85,70.53,13.7,12.97,8.5,13.59,37.79,8.07,51.02-2.58,6.18-7.7,9.85-9.71,14.47-2.09,4.79-10.55,27.84-10.35,31.41"/>
  <path class="cls-1" d="M211.4,761.23l1.29-13.29c-28.82-17.73-48.14,21.87-20.96,38.48,23.06,14.1,42.86,6.7,51.53-18.67,7.68-22.48-3.08-30.54-17.57-46.08l-5.39,3.25c5.36,13.7,17.95,19.26,13.87,35.85-6.15,24.97-32.59,21.69-42.55,1.57-1.48-8.17,18.81-.42,19.78-1.12Z"/>
  <path class="cls-1" d="M287.64,800.03c6.48-7.17,7.56-16.17,6.83-25.32-.75-9.44-5.04-14.77-7.23-3.55-1.05,5.41,3.45,15.58.69,20.4-2.51,4.38-15.81,3.28-17.12,14.73-.97,8.43,14.8-4.01,16.83-6.26Z"/>
  <polygon class="cls-1" points="316.19 774.58 308.37 782.4 313.69 789.76 323.54 779.9 316.19 774.58"/>
  <path class="cls-1" d="M308.14,794.25c-1.06-1.4-6.02-2.67-8.49,1.26-6.48,10.33,3.47,16.33,6.89,9.13,1-2.11,2.67-8.99,1.6-10.39Z"/>
  <path class="cls-1" d="M294.94,818.49c-.26-.36-7.32-2.87-8.84-1.4l-4.3,12.26,10.66-.3c1.07-2.3,3.65-8.95,2.48-10.56Z"/>
  <path d="M534.83,1074.62c-.2-3.57,8.26-26.62,10.35-31.41,2.02-4.62,7.13-8.29,9.71-14.47,5.52-13.23,4.9-42.52-8.07-51.02-13.5-8.85-53.89-7.61-70.53-13.7-3.99.74-4.21,21.87-6.48,28.03-16.74,45.6-69.24,3.47-98.91,2.08-22.72-1.07-40.05,10.76-59.66,13.06-45.85,5.37-110.49-25.57-134.56-65.04-6.86-11.26-12.71-32.83-23-38.67-14.38-8.15-34.55-4.28-34.62-27.94l-8.75,9.81c23.31,17.2,24.38,55.71-12.5,38.92-4.37-1.99-29.31-20.97-32.65-24.56-1.44-1.55-3.46-2.45-2.92-5.1l4.06-7.13c13.46-6.14,38.72,32.56,48.38,25.39-3.58-9.74-24.8-27.38-17-36.77,4.09-4.92,17.17-6.29,25-20.06,18.32-32.18-5.81-68.35-31.39-87.85-2.63-2-6.29-2.19-5.18-6.98,4.86,1.02,10.82.75,15.18,3.39,22.9,13.87,36.73,43.71,35.47,70.35-.9,18.99-17.9,39.22,4.29,50.47,11.72,5.94,24.17,1.21,27.87,14.37l9.53-.09c-.33-2.94.76-6.82.02-9.42-.45-1.59-21.93-16.68-23.8-22.93-2.82-9.4,6.21-20.97,3.01-35.94-1.66-7.78-10.7-16.39-2.31-24.03l12.14,21.98c3.75-2.06,19.37-2.7,22.83-1.71,2.91.84,2.85,4.82,5.09,6.17,4.82,2.91,11.83,8.57,13.83,9.68,5,2.78,19.16.37,16.7,10.09-.33,1.31-2.4,4.88-3.43,5.48-1.6.93-20.54-4.92-17.69,2.11,4,9.84,34.21,14.2,41.05,4.85,13.21-18.05-26.53-32.73-27.55-44.77l4.07-6.34c5.31-2.7,17.74,14.92,23.46,18.45,8.06,4.98,15.14,4.32,23.25,7.53,9.39,3.72,15.3,11.69,23.64,17.02-.08-7.57-.71-13.96,1.71-21.4,1.37-4.2,26.5-41.29,30.1-44.63,9.2-8.57,11.15-1.95,20.98.07.92-.91-2.89-10.6-3.96-12.51-8.73-15.61-40.24-45.84-58.68-47.01-7.81-.5-15.47,5.55-23.12,3.66-4.94-1.23-56.31-29.24-58.07-32.06-.79-1.27.99-4.15.82-4.27-1.28-.88-26.11-7.82-29.84-8.68-8.45-1.95-36.18-5.89-43.73-5.9-3.26,0-48.21,14.18-55.01,16.61-46.8,16.65-67.6,80.71-62.64,126.46,1.4,12.95,8.53,27.92,10.71,42.05,2.44,15.81,1.19,30.66,2.54,45.83.86,9.7,2.33,22.42,13.11,25.32,31.21-43.9-14.69-84.67-8.56-130.61.95-7.09,9.83-39.63,19.54-26.59-9.86,11.6-12.73,50.34-3.24,60.63,2.05,2.22,7.04-.43,10.74,2.14,9.42,6.55-2.45,17.86-2.95,25.3-.48,7.24,5.69,18.65,6.33,26.54,1.46,18.01-20.97,76.4-39.87,44.16-9.44-16.12-4.68-37.86-6.16-55.39-2.47-29.24-16.54-51.57-12.93-83.34,9.75-85.84,64.66-134.77,152.35-126.4,31.88,3.04,40.39,10.33,66.17,23.98,32.34,17.12,36.95,12.88,69.36,20.79,24.32,5.93,53.93,29.85,63.74,52.78,17.85,41.73-17.83,22.06-22.14,24.15-2.32,1.13-10.43,14.27-13.09,17.73-1.68,2.19-5.75,2.85-6.18,3.56-.4.66,1.82,3.55.7,6.11-1.86,4.25-8.76,7.96-9.87,14.59-1.63,9.81,5.18,18.32-2.55,29.17-5.66,4.89-24.23-10.97-29.45-15.06-4.54-3.56-2.19-9.41-14.24-6.59,3.51,8.57-3.95,11.32-4.02,12.03-.2,2.21,2.5,3.78.25,9.33-6.7,16.55-31.95,12.89-45.11,6.64-26.98-12.82-2.56-29.37-6.1-32.37l-11.02-1.07,2.23-5.51-24.01,2.35-2.99,18.96c20.33,16.29,44.7,40.54,7.22,53.44,12.88,39.2,48.25,64.54,87.5,74.08,42.54,10.34,93.04-9.36,139.43,1.29,17.63,4.05,47.81,23.18,59.93,3.65,16.83-27.15,4.94-84.11,23.18-114.19-13.55-2.21-27.65,3.02-40.63,2.18-29.23-1.89-59.68-26.15-84.78-38.42-3.69-1.89-1.15-11.74,1.49-12.31l55.23,19.32c21.28,23.3,37.2,15.31,63.11,15.93,21.15.51,12.26,17.34,20.29,21.67,3.47,1.87,51.37,6.84,58.86,7.08,11.07.36,19.63-4.73,24.09-4.54,5.93.26,12.6,8.41,18.81,10.02,7.87,2.04,15.17,0,22.67,1.51,12.21,2.46,25.31,17.3,38.93,10.49,9.16,20.01-1.96,43.55-12.31,61.31-11.19,19.21-28.07,54.49-40.47,69.45-5.79,6.98-34.42,32.28-41.88,37.27"/>
  <path d="M506.1,897.52l-14.36-.08-14.26,57.21,39.59,4.39c1.2-.88-12.48-21.54,16.91-4.79,11.63,6.63,13.34,15.51,23.68,20.21l9.96,32.95,35.2-98.9c-9.34,3.63-17.03-7.28-22.97-7.82-6.82-.62-18.03,1.85-26.58,1.3-10.07-.65-32.23-5.54-40.95-2.15-8.65,3.37-3.47,9.85-3.76,16.4-.23,5.36-2.14,19.77-2.96,25.8-.4,2.97-3.02,14.67-8.3,12.61l8.81-57.14Z"/>
  <path d="M772.12,596.34l-1.09-8.78c14.32,21.27,34.29,37.91,54.96,52.77,3.32,2.39,7.64,1.73,10.96,4.42,9.96,8.06,4.18,16.48,5.59,25.08,2.29,14.03,34.56,40.38,47.61,47.19,3.68.35,13.66-16.68,16.24-20.54,1.95-2.92,1.57-7.23,3.41-9.87,4.94-7.08,27.3-31.76,34-36.27,8.79-5.91,18.6-7.79,28.31-2.24s4.14,17,1.2,25.15c-11.66,32.35-38.28,71.78-45.75,103.74-3.97,16.98-.25,23.83-13.54,39.22-6.7,7.75-13.75,10.23-21.79,15.68-3.15,2.14-4.71,10.67-10.13,4.68,3.17-12.66-26.67-18.24-29.81-24.84l3.39-19.75-13.17,5.62c-10.11-9.11-16.38-22.07-25.27-32.02-4.99-5.59-12.73-8.63-14.35-15.37-7.71,10.04-18.25,15.22-31.21,14.93l-79.68-47.86,2.37-8.63c5.58,1.59,16.3-.65,20.65.66,3.14.94,24.91,17.6,29.6,21.16,5.89,4.48,24.61,28.04,33.04,17.54l47.02-89.1c-11.59-6.84-36.48-17.05-43.81-28.44-2.26-3.51-1.94-8.13-4.24-11.15-6.15-8.05-27.77-22.94-14.37-31.76l9.87,8.75ZM888.65,721.65c-.55-.57-3.64,2.1-5.75,2.18-10.75.37-34.98-32.51-50.37-32.26-6.62.76-25.1,43.7-27.35,51.9,9.21-.47,41.14,50.59,43.88,48.53l39.58-70.34ZM868.88,772.23h-4.36s-2.21,8.77-2.21,8.77l6.57-8.77ZM877.67,803c-2.21-2.24-8.83,4.29-6.57,6.57,2.21,2.24,8.83-4.29,6.57-6.57Z"/>
  <path d="M1171.56,604.38c-4.34,3.74-11.59,7.15-17.36,6.84-19.68-1.03-22.12-22.13-41.19-27.03-34.89-8.96-56.02,23.41-67.91,50.93-12.81,29.64-7.18,42.2-9.13,72.21-.93,14.34-5.76,30.12-6.56,44.04-1.21,21.05,4.53,11.4,16.17,12.13,30.47,1.93,41.79,25.02,60.75,42.78,22.26,20.86,52.6,37.64,50.38,74.4-1.78,29.57-34.81,74.05-58.84,35.18-13.2-21.35-10.75-44.43-43.51-46.81-22.86-1.66-27.65,15.67-45.21,22.49-14.97,5.82-55.24,13.61-69.25,6.39-4.19-2.16-29.36-20.2-24.83-24.61,12.07-3.12,24.25,14.75,32.34,17.1,11.64,3.38,51.55-5.09,63.03-10.79,9.62-4.77,15.81-15.96,25.49-18.48,13.51-3.52,39.68-.61,49.65,9.85,14.34,15.05,19.85,69.31,48.03,41.64,41.94-41.19-10.75-77.95-38.3-104.13-4.89-4.65-8.51-11.3-14.19-16.59-10.51-9.8-26.81-21-41.86-19.92-11.96.85-3.01,11.36-14.15,8.92-7.66-26.48,2.21-53.59,4.26-80.19,2.13-27.67-3.23-41.21,7.76-69.19,13.95-35.52,38.98-70.7,82.35-56.03,15.77,5.33,25.55,24.63,34.31,25.19,15.74,1.01,42.1-45.8,51.56-58.18,5.42-7.1,14.12-12.6,19.38-20.19,2.93-4.22,10.9-19.66,11.35-24.03,2.11-20.66-32.29-38.85-45.84-19.24-6.31,9.12-5.57,24.2-13.47,32.69-4.19,4.5-17.11,11.91-19.83,3.27,24.56-1.55,20.92-46.74,37.27-51.8,26.84-8.3,52.85,10.66,48.34,39.55-3.23,20.7-22.97,35.18-33.76,49.78-10.58,14.32-24.33,40.71-37.22,51.81Z"/>
  <path d="M512.66,295.17c-10.47-1.21-20.6-3.68-30.67-5.64-13.37-2.61,1.33,14.25,5.37,18.87,12.15,13.86,18.96,13.51,32.57,21.96,2.4,1.49.93,9.2,8.09,1.1-6.32-2.79-2.13-10.37-3.27-12.24-.83-1.37-5.05-1.17-5.63-3.61-6.02-25.27,15.19-78.42,29.09-100.31,13.71-21.6,40.73-20.2,63.4-14.67-6.8-15.41,12.18-24.43,6.58-39.54l8.85-1.14-2.27-9.85-2.17,8.77c-13.01,2.21-6.47-9.99-7.02-10.72-.69-.91-5.98,1.26-3.96-4.64,33.79-5.69,24.97,33.47,15.38,52.73,11.96,1.65,24.29,3.28,36.3,4.39,13.97,1.3,30.34-4.19,37.87,12.7,10.97,24.61-9.16,24.33-10.24,30.46-.67,3.83,15.68,18.58,10.8,27.21-9.55-3.32-6.14-10.94-17.64-7.54-.89-11.79-9.28-10.15-15.41-18.23-1.55-2.04-1.01-5.77-2.15-7.81-1.17-2.09-8.08-1.61-3.23-6.02l27.44,8.81c4.27-15.52.27-21.34-14.18-26.44-21.59-7.62-51.29-4.09-74.29-4.89-5.57-.19-12.29-3.83-18.17-3.81-25.24.09-44.54,37.42-48.47,59.22-4.24,23.54,4.16,77.7,16.24,98.29,2.31,3.93,5.64,10.48,9.78,12.39,5.39,2.49,14.49-4.15,16.79,2.9,2.48,7.62-6.03,14.14-13.09,13.13-19.71-2.8-32.33-37.1-37.33-54.07-7.13.92-18.94,3.44-25.79.75-1.47-.58-20.67-19.85-22.46-22.25-10.14-13.62-19.38-26.65-29.64-40.19-28.63-37.77-33.34-89.26-21.02-133.96,26.99,1.79,8.63,22.39,6.77,36.47-5.75,43.59,13.11,84.28,54.18,101.54,9.61,4.04,25.31,1.64,22.58,15.88Z"/>
  <path d="M794.47,376.27c1.14.87,10.85-4.46,17.97.1,3.83,2.46,3.95,10.61,5.97,13.78,2.65,4.16,7.76,4.82,9.85,12.7,3.09,11.63-1.4,19.37-.9,27.64.69,11.35,11.72,9.77,1.36,30.08-11.77,23.08-52.5,40.32-77.61,37.03-3.24-.42-5.67-8.16-14.13-4.58l3.73-6.2c8.13,4.34,14.55-4.53,15.4-4.71,13.62-2.96,16.37-.28,31.49-7.71,6.28-3.09,40.5-24.19,35.11-31.92l-13.16,4.39c.87-10.13,7.6-16.94,6.56-28.57-6.9,5.14-8.63,15.62-19.76,13.18-2.49-9.63,6.21-11.88,9.8-17.66,5.23-8.42,6.57-18.94,3.12-28.23l-10.37.11-14.65,28.25-5.53-1.26c-3.79-13.35,12.33-21.53,7.74-33.95-3.14,3.11-8.29,4.38-11.34,7.34-5.08,4.93-11.02,23.04-15.08,5.81-10.62-.58-35.31,35.12-42.79,42.47-1.96,1.93-4.48,1.17-5.88,2.2-2.72,2-3.35,9.55-9.59,4.8,3.2-26.94,30.78-57.48,57.08-63.87,3.28-.8,6.73,1.53,9.52.83,3.87-.97,6.34-7.29,13.83-8.31,12.65-1.73,9.12,3.84,12.28,6.27Z"/>
  <path d="M529.59,591.29c-20.78,25.93-39.04,35.15-65.9,51.24-4.88,2.92-9.44,13.82-19.16,10.99l4.38,3.27c-11.99,8.24-22.85,21.16-35.42,28.34-15.65,8.95-65.22,18.59-84.59,20.95-20.19,2.46-42.38-2.39-57.01-17.39-14.58-14.95-7.31-48.43,4.43-63.76,4.47,18.38-15.51,35.56-3.13,53.67,5.64,8.25,34.77,10.95,44.66,9.83,13.65-1.55,27.85-10.47,40.34-12.42,13.12-2.05,26.52,1.62,39.54-2.24,26.5-7.85,90.44-59.68,113.81-79.68,7.04-6.03,12.92-13.5,19.83-19.69l5.05,5.43c-3.39,3.1-4.36,8.36-6.84,11.45ZM376.34,682.1l-19.21,1.46-15.95,7.29c7.76-1.28,16.77-1.39,24.29-3.16,2.57-.61,10.56-2.4,10.87-5.59Z"/>
  <path d="M631.28,681.95c-.12.19-2.68-.1-4.2,1.76-7.15,8.76-14.18,17.7-22.04,25.86,2.2,3.58,4.86-.73,6.6-2.19,6.89-5.78,13-13.75,19.8-19.86,2.83-2.54,7.21-7.68,10.96-7.62,4.01,4.98-19.03,32.09-23.3,37.13-28.55,33.65-107.34,99.59-149.17,112.45-16.35,5.03-13.73-2.61-17.45-2.37-5.76.38-25.61,13.39-27.73,5.53-1.05-3.91.83-5.3,3.55-7.4,12.13-9.32,37.34-11.94,50.77-17.39,3.3-1.34,31.79-19.89,34.45-22.36,27.74-25.72,65-52.22,86.94-80.33,7.81-10,19.48-19.57,27.66-29.63,1.81,1.49,4.68,3.94,3.16,6.42Z"/>
  <path d="M1148.17,517.21c-7.68-17.18-11.89-34.15-26.4-47.28-43.48-39.36-103.99-30.39-124.86,26.9-4.53,12.43-3.31,20.96-4.95,33.59h-13.13c-2.59-40.12,3.79-95.97,53.89-98.89,28.77-1.68,62.18-1.08,85.68,17.59,10.82,8.6,32.59,37.1,35.35,50.38,1.56,7.51,2.61,14.12-5.58,17.71ZM989.79,499.61c.64-.68,2.75-9.78,2.21-10.96-2.92-1.21-5.2,9.15-4.35,10.97.71-.11,1.86.3,2.15,0Z"/>
  <path d="M553.69,452.03c-7.19-6.51-21.08-15-26.61-20.57-4.35-4.38-3.24-13.29-11.13-15.36-1.6,6.03-7.16,7.02-9.92,10.44-14.47,17.92-21.44,45.13-25.98,67.41l8.43,5.68-2.17-21.97c2-.28,2.8-.25,4.43,1.04,3.53,2.79,19.21,33.87,24.55,41.41,7.36,10.4,16.33,20.72,25.97,28.97l-7.67,12.06-56.06-54.91c-.31,13.61-1.35,30.37,7.76,41.67,7.76,9.63,11.26-.39,20.79.11l-3.6,13.36c-31.33,12.19-36.44-40.26-33.93-60.76.3-2.45,12.92-40.61,15.12-46.47,3.93-10.48,24.35-51.06,40.07-41.39,7.84,18.35,26.86,28.67,39.48,44.02-4.93,6.99-6.8-2.27-9.51-4.73Z"/>
  <path d="M697.13,360.89c.65-3.56,2.15-7.18,1.51-10.88-1.63-9.46-14.4-12.28-.16-17.52,10.93-.05,14.48,26.84,14.27,35.23-9.72-4.6-11.35,1.7-17.78,5.3-3.76,2.1-9.77.81-10.79,5.67l21.98-2.15c-1.16,3.51-11.67,6.29-14.55,6.52-8.98.7-37.08-15.02-44.73-20.9-3.28-2.52-4.91-7.77-6.57-8.75-3.35-1.98-39.67,8.43-33.08-14.26,8.92-.45,10.85,4.94,20.24,3.93,16.69-1.79,33.41-12.6,40.21-28.11,6.74-15.35,3.27-30.25,4.33-46.15.59-8.88,3.85-9.11,8.21-1.57,2.5,4.32,8.67,36.8,7.96,41.65-.17,1.17-4.72,16.23-5.17,16.99-2.04,3.53-31.66,20.5-31.78,23.14l30.12,11.6,15.77.25Z"/>
  <path d="M791.89,347.96c-13.85-4.76-19.47,14.89-36.28,14.32-12.2-.42-13.72-12.48-18.72-15.38-3.44-1.99-8.95-1.1-13.96-3.63-11.66-5.88-6.5-17.45-8.24-19.35-.65-.72-4.82.83-6.53-1.47-.72-.97-7.36-20.7-7.7-22.84-3.09-19.4,20.06-26.13,31.94-34.26,5.75-3.93,1.71-9.81,16.11-7.03,35.48,6.85,53.95,57.97,43.37,89.64ZM747.92,336.98c1.72,1.7-7.44,12.69,6.08,15.01,13.35,2.29,31.73-20.13,31.44-31.38-.51-19.69-18.9-49.55-40.46-48.83-4.79.16-29.61,10.05-31.71,12.93-.8,1.11-2.74,11.71-2.61,13.67.52,7.81,5.33,7.61,8.82,11.61,2.5,2.86-.15,9.07,8.59,7.24l-2.12,13.12c9.16-1.31,11.74,2.74,17.32,6.37,1.28.84,4.25-.13,4.65.26Z"/>
  <path d="M431.31,277.61c1.25,5.6-1.48,3.84-4.12,5.69-20.13,14.06-33.22,13.69-46.5,37.11-18.43,32.49-19.99,66.44-31.91,99.99-6.53,18.35-16.94,35-24.81,52.13-9.2,20.02-6.52,37.31-13.49,54.66-9.33,23.24-27.88,24.14-26.58,57.12.5,12.59,10.76,28.99-1,38.37l-5.57-36.14c-2.65-39.66,15.36-37.9,26.5-63.79,5.96-13.84,4.64-26.94,8.04-40.32,5-19.64,24.89-48.64,32.5-70.83,11.07-32.3,18-92,45.05-115.43,2.65-2.3,27.39-14.7,31.89-16.47,3.23-1.27,6.44-2.4,9.98-2.09Z"/>
  <path d="M972.22,475.43c-3.91.79-6.33-1.04-9.52-2.56-19.93-9.51-41.95-26.69-62.57-36.37-26.43-12.41-61.62-10.61-66.42-46.78,10.99-.6,18.97,9.38,28.53,14.32,30.65,15.82,49.88,23.7,79.37,43.75,10.6,7.21,29.19,11.79,30.6,27.64Z"/>
  <path d="M211.4,761.23c-.97.7-21.26-7.05-19.78,1.12,9.96,20.13,36.41,23.4,42.55-1.57,4.09-16.6-8.5-22.16-13.87-35.85l5.39-3.25c14.49,15.54,25.25,23.6,17.57,46.08-8.67,25.36-28.47,32.77-51.53,18.67-27.18-16.62-7.87-56.21,20.96-38.48l-1.29,13.29Z"/>
  <path d="M503.88,163.3l-2.15,9.93c-11.58-.13-52.22,25.82-36.09,38.2,12.01,9.22,33.29,15.47,45.89,4.61,12.16,18.14-22.45,25.97-36.36,23.21-54-10.71-13.16-81.51,28.71-75.95Z"/>
  <path d="M730.35,493.04c.28,8.66-11.24,7.79-16,11-9.41,6.34-19.52,20.38-29.44,28.18-13.29,10.45-78.54,50-92.48,52.61-8.37,1.57-18.81.77-26.31-3.44-5.19-2.91-10.81-6.66-3.87-11.41,7.1,0,12.62,6.12,19.65,6.22,12.68.19,66.74-31.84,80.11-40.5,22.48-14.55,41.68-36.22,68.34-42.67Z"/>
  <path d="M712.76,602.95c1.85,22.97-8.07,39.59-30.7,45.12-45.08,11.02-46.71-42.43-27.47-69.28.45-.63,10.14-10.91,10.91-10.98,3.66-.34,1.93,3.94,1.48,5.77-3.38,13.98-12.48,31.24-13.48,46.16-1.42,21.09,36.47,18.05,48.31-.29,3.79-5.87,2.82-16.38,10.95-16.5Z"/>
  <path d="M717.17,596.33c-4.15-5.64,13.07-14.77,16.91-17.14,19.54-12.07,73.29-31.27,82.46-47.25l12.74-32.31c1.86,47.11-30.09,54.16-63.02,72.16-11.54,6.31-31.19,20.57-41.34,24.81-2.32.97-7.01.73-7.74-.26Z"/>
  <path d="M655,307.82c-.19.47-6.96,6.65-7.44,6.81-4.57,1.49-28.09-2.24-30.53-6.23-6.78-11.1,20.99-39.27,33.13-28.66,2.77,2.74,6.44,24.17,4.84,28.08Z"/>
  <path d="M690.77,453.47c1.12,6.21-1.45,3.62-4.82,4.94-5.43,2.14-11.82,2.86-16.92,5.17-28.27,12.81-54.02,35.86-88.2,31.63l.04-8.72c40.74,2.59,69.48-36.02,109.89-33.03Z"/>
  <path d="M747.94,508.43c1.13,5.54-.76,5.52-3.63,8.44-8.16,8.31-26.19,15.63-36.97,24.59-3.47,2.89-15.01,19.11-18.74,15.31,2.56-26.45,38.44-38,59.34-48.34Z"/>
  <path d="M567.6,336.97c.37,9.74,8.25,9.68,11.96,13.26,2.65,2.56,4.24,6.61,7.82,9.86,6.89,6.26,16.97,8.43,19.84,18.61-18.88,3.87-46.41-22.62-43.99-40.63l4.37-1.09Z"/>
  <path d="M517.07,255.62c2.1,9.82-11.28,11.5-18.61,11.08-5.14-.29-38.62-11.77-38.56-14.36l3.61-5.69c18.36,3.59,34.17,11.73,53.56,8.97Z"/>
  <path d="M677.58,147.89c-1.45,1.61-11.16-8.51-19.87,1.62-6.54,7.59-.63,18.16-17.48,15.96-1.48-7.38,7.54-9.88,9.74-13.32,1.76-2.77,1.08-6.85,3.31-9.89,2.98-4.07,13.25-5.03,8.94-14.13,9.11,3.06,18.04,9.14,15.38,19.75Z"/>
  <path d="M554.45,158.86c-12.61.69-23.74,14.04-35.17,11-6.36-8.99,33.01-28.91,35.17-11Z"/>
  <path d="M475.25,161.07l-6.62-1.02-2.03-4.24c3.25-11.02-.02-21.59,9.79-29.86,11.79,8.54.75,23.63-1.14,35.11Z"/>
  <path d="M287.64,800.03c-2.03,2.25-17.8,14.69-16.83,6.26,1.31-11.46,14.61-10.36,17.12-14.73,2.77-4.82-1.74-14.99-.69-20.4,2.19-11.22,6.48-5.89,7.23,3.55.73,9.16-.35,18.16-6.83,25.32Z"/>
  <path d="M644.59,260c-8.03,4.09-26.86-17.01-21.97-21.96,8.67-4.51,26.03,18,21.97,21.96Z"/>
  <path d="M581.3,296.94c-1.69-2.93.07-9.08-.45-12.75,10.36-.49,18.51,8.14,17.56,18.62l-4.34,2.29c-1.78-3.25-11.95-6.75-12.77-8.16Z"/>
  <path d="M440.13,31.4c7.35-.34,22.74,6.42,16.55,15.46-5.35,7.82-20.01-8.65-16.55-15.46Z"/>
  <path d="M635.82,70.95c-3.75-3.39,19.13-22.19,24.16-12.05,1.35,6.28-18.88,13.11-24.16,12.05Z"/>
  <path d="M558.84,185.28l.02,6.57c-5.83-3.98-22.03,15.61-24.19,5.48-1.16-5.47,21.81-14.47,24.16-12.05Z"/>
  <path d="M613.81,163.3c2.57,6.58-7.77,19.26-14.24,17.57l-2.28-6.63,16.53-10.94Z"/>
  <path d="M652.33,73.17c9.09-1.95,5.14,19.07-2.2,17.56-5.78-1.18-3.77-16.28,2.2-17.56Z"/>
  <path d="M492.88,26.98c-5.25,1.09-14.79-18.12-13.17-19.76,11.13-.9,14.15,11.08,13.17,19.76Z"/>
  <polygon points="316.19 774.58 323.54 779.9 313.69 789.76 308.37 782.4 316.19 774.58"/>
  <path d="M490.68,112.69c-6.53.95-13.88,8.88-19.74,1.13l16.3-7.63,3.43,6.5Z"/>
  <path d="M294.94,818.49c1.18,1.61-1.4,8.25-2.48,10.56l-10.66.3,4.3-12.26c1.52-1.46,8.57,1.04,8.84,1.4Z"/>
  <path d="M308.14,794.25c1.06,1.4-.61,8.29-1.6,10.39-3.41,7.2-13.37,1.19-6.89-9.13,2.47-3.93,7.43-2.66,8.49-1.26Z"/>
  <path d="M429.12,97.34c3.32-7.99-8.29-14.47-1.11-19.73,7.89,2.23,9.19,11.6,5.42,18.11-1.36,2.35-4.2,1.42-4.31,1.62-.88,1.49,2.22,8.49-3.24,6.55-2.2-.78-13.26-6.75-12.14-10.93l15.38,4.39Z"/>
  <path d="M426.27,119.96c1.24.91,1.12,3.84,2.84,4.87.85,3.06-14.23,2.69-15.36-2.25.05-7.26,9.03-5.19,12.53-2.62Z"/>
  <path d="M598.42,16.01c-1.51,3.78,3.68,17.67-3.25,17.55-6.98-2.36-1.41-22.84,3.25-17.55Z"/>
  <path d="M517.08,18.18c4.13-6.64-3.01-10.61-2.19-17.56,4.15-4.62,16.27,17.99,2.19,17.56Z"/>
  <polygon points="666.58 117.11 651.19 117.11 651.22 110.52 662.86 110.81 666.58 117.11"/>
  <path d="M618.21,33.6c1.29,1.45-2.41,17.51-8.77,15.37-.46-5.85,1.08-15.5,8.77-15.37Z"/>
  <path d="M554.47,22.58c-.48-21.18,12.69-3.68,3.25-.01h-3.25Z"/>
  <path d="M475.28,35.78c-2.82-.63-10.31-11.61-8.76-13.18,6.62-.49,9.02,7.87,8.76,13.18Z"/>
  <path d="M543.45,22.58h-4.37s.01-13.18.01-13.18c5.58,1.7,4.47,8.36,4.36,13.18Z"/>
  <path class="cls-1" d="M506.1,897.52l-8.81,57.14c5.28,2.06,7.89-9.64,8.3-12.61.82-6.03,2.73-20.43,2.96-25.8.28-6.55-4.9-13.03,3.76-16.4,8.72-3.39,30.88,1.5,40.95,2.15,8.55.55,19.76-1.92,26.58-1.3,5.94.54,13.63,11.45,22.97,7.82l-35.2,98.9-9.96-32.95c-10.34-4.7-12.05-13.58-23.68-20.21-29.39-16.75-15.71,3.91-16.91,4.79l-39.59-4.39,14.26-57.21,14.36.08Z"/>
  <path class="cls-1" d="M888.65,721.65l-39.58,70.34c-2.75,2.06-34.67-49-43.88-48.53,2.25-8.19,20.73-51.14,27.35-51.9,15.39-.25,39.62,32.63,50.37,32.26,2.1-.07,5.2-2.75,5.75-2.18Z"/>
  <path class="cls-1" d="M877.67,803c2.25,2.28-4.36,8.81-6.57,6.57-2.25-2.28,4.36-8.81,6.57-6.57Z"/>
  <polygon class="cls-1" points="868.88 772.23 862.31 781 864.52 772.22 868.88 772.23"/>
  <path class="cls-1" d="M376.34,682.1c-.3,3.19-8.3,4.98-10.87,5.59-7.52,1.77-16.53,1.88-24.29,3.16l15.95-7.29,19.21-1.46Z"/>
  <path class="cls-1" d="M989.79,499.61c-.29.31-1.44-.11-2.15,0-.84-1.81,1.43-12.18,4.35-10.97.55,1.18-1.57,10.28-2.21,10.96Z"/>
  <path d="M758.93,288.6c.83,12.41-10.3,22.32-21.96,24.16-5.19-5.81,18-28.27,21.96-24.16Z"/>
  <polygon points="747.96 328.13 757.84 315.03 764.96 322.62 759.66 330.15 747.96 328.13"/>
</svg>