<?xml version="1.0" encoding="UTF-8"?>
<svg id="Calque_2" data-name="Calque 2" xmlns="http://www.w3.org/2000/svg" viewBox="0 0 501.99 186.95">
  <defs>
    <style>
      .cls-1 {
        fill: #ffc440;
      }

      .cls-2 {
        fill: #fff;
      }

      .cls-3 {
        font-family: AnnieUseYourTelescope, 'Annie Use Your Telescope';
        font-size: 120px;
      }

      .cls-4 {
        fill: #4583bc;
      }
    </style>
  </defs>
  <ellipse class="cls-4" cx="46.49" cy="84.45" rx="36.56" ry="33.34"/>
  <ellipse class="cls-1" cx="90.5" cy="92.2" rx="34.33" ry="37.44"/>
  <ellipse class="cls-1" cx="90.04" cy="109.86" rx="27.82" ry="30.41"/>
  <ellipse class="cls-4" cx="47.1" cy="65.08" rx="45.13" ry="41.06"/>
  <g>
    <path d="M53.77,35.73c.08.24.14.51.19.76l.36-.02c-.06-.49,1.13-.45,1.64-.49,1.5-.14,3.42-.12,4.93-.06,1.35.06,3.82.43,5.07.77.18.05.05.54.76.36.09-.02.95-1.13,1.16-1.35,1.3-1.41,1.68-1.64,3.37-2.65.65-.39.84-1.3,2.06-1.12.11-.53-.49-.47-.74-.69-.22-.2-1.13-1.06-1.24-1.22-.13-.18-.06-.45-.13-.59-.09-.18-.31-.16-.35-.3-.43-1.5-.39-3.52.62-4.73.35-.42,1.56-1.61,1.98-1.96,2.53-2.08,6.98-3.04,9.95-4.19,3.16-1.23,5.65-1.33,9.11-1.08.64.05.75.5.85.52.34.08,1.25-.09,1.37.03v.55s.58-.38.58-.38c-.02.1,0,.25.07.3,1.03.76,2.76,1.37,3.64,2.15.23.2.22.6.5.82.09.07.13.19.13.3-.02.69.15,1.61.02,2.17-.11.44-.24.72-.38,1.55-.63,3.82-2.39,5.89-4.48,8.89-1.29,1.85-2.32,3.81-3.6,5.61-.28.39-.52.85-.7,1.09-.22.29-.99.39-1.05.47-.11.14.05.63-.12.92-.19.33-.82.26-1,.42-.17.15-.15.66-.34.9-.24.32-1.11.39-1.54,1.02-.2.29-.11.72-.45.97-.13.1-1.65,1.14-1.75,1.19-.55.25-.79-.35-.73.79-.56-.05-.99.98-1.54,1.22-.75.33-.92-.14-1.06.91-.03.2.12.39.32.41.66.07,2,.17,2.34.32.17.07.15.65.51.36.06-.05-.19-.5.68-.38.35.05.24.33.41.39,1.28.38,2.68.41,4.07.98,1,.41,2.34,1.61,3.32,2.26,4.18,2.76,9.08,6.03,12.26,10.1.15.2.64,1.33.74,1.41.16.13.5.08.62.24.22.3.03,1.13.08,1.53-.79-.14-.7-.61-.66-.99.03-.23-.16-.42-.39-.41-.66.04-.83-.28-1.34-.77-.91-.88-4.61-5.11-5.44-5.55-2.6-1.37-5.01-2.89-7.66-4.3-.87-.47-2.19-1.38-3.16-1.68-.74-.23-1.86-.16-2.45-.35-.24-.08-.2-.48-.44-.56s-.63.2-.93.18c-.77-.05-1.6-.26-2.43-.24-.23,0-.39.23-.35.45.08.46-.08.97.02,1.35.04.17.39.18.53.45.28.55.12,1.31.24,1.82.03.15.31.15.36.28.22.59.33,1.17.02,1.75h.35c.22,0,.39.19.36.41l-.05.42c-.02.19.11.38.3.4.04,0,.1.03.17.1.1.09.24,1.68,0,1.89l.76-.57.16,2.05c.02.21.21.36.41.33,1.03-.15,2.27.11,3.28-.12.15-.03.05-.35.4-.39.3-.04,1.22-.04,1.5.02.19.04.02.37.41.38.36.01.24-.29.43-.37.38-.16,3.48-.11,3.9-.01,1.68.4,3.56.97,5.21,1.69,2.1.91,4.07,1.58,6.07,2.66.63.34,1.15,0,1.19.94,0,.22.19.38.4.36l.44-.04c.17-.02.34.09.39.26l.11.36c1.06-.28,1.43,1,2,1.37.2.13.56.08.76.23.28.21.34.9.48,1.03.17.16.66.08.86.28.16.16.14.63.34.89s.76.58.96.84c.18.24.13.69.31.84,1.48,1.19,2.65,3.74,3.93,5.4s2.64,2.98,4.11,4.38c.22.21.31.69.49.83.33.27,1.14.72,1.59,1.07.1.08.55.51.95.81.21.16.53.07.6-.18.07-.27.35-.33.41-.47.13-.26.09-.63.21-.85.04-.07,1.1-1.2,1.18-1.23.76-.32.74.11.98.26.26.16.85-.04.39.64-.72,1.06-.97,1.43-1.43,2.7-.07.19-.52.08-.36.77.86.76,2.13,1.24,2.85,2.17.16.21.11.66.37.91s.73.18.9.33c.29.24.3,1.26.49,1.6.08.14.73.53.82.69.22.41.14.87.32,1.2.07.14,1.03,1.03,1.07,1.15.19.53.08,1.49.2,2,.03.14.32.12.36.28.48,1.94.47,7.87,0,9.78-.03.14-.31.12-.36.28-.46,1.63-.42,1.69-1.28,3.14-1.14,1.93-2.05,4.38-3.41,6.17-.36.47-1.55,1.31-1.78,1.68-.89,1.4-1.27,1.39-2.58,2.39-3.46,2.63-5.99,4.44-10.4,5.25-3.85.7-6.95,1.14-10.76,2.48-2.68.94-5.57,1.9-8.17,3.21-.12.06-.1.34-.26.38-.23.05-.76-.05-.82,0-.28.25.15,6.32.01,7.73,0,.1.03.2.09.27.45.54.38,1.13.28,1.86h.54s.13,1.03.13,1.03c.02.13-.05.26-.16.33-.19.14-.32.29-.4.45-.19.39-.78.19-.69-.23s.23-.79.19-.83l-.28.21c-.23.17-.57.02-.59-.27-.03-.37-.04-.79-.09-.95-.35-1.19-.31-1.76-.56-2.86-.03-.14-.34-.12-.37-.25-.06-.19.66-1.75.38-2.79-.03-.11-.97-.18.17-.86.09-.05.28-.01.4-.02-.01-.33-.36-.1-.49-.55-.11-.38-.09-.77-.08-1.16,0-.22-.17-.38-.39-.38-.46.02-.92.09-1.36.21-1.33.36-3.33.82-4.64,1.12-.58.13-1.87.07-2.53,0v.56c-.28.24-1.16-.38-1.41-.57-.15-.12,0-.52-.49-.37v.57c-.77-.28-1.87.17-2.51-.19-.21-.12-.21-.41-.45-.51-.45-.19-2.15.5-2.36-.62l-.19.38h-.38s-.19-.49-.19-.49l-.57.11c.12-.82-.53-.61-.73-.8-.16-.15.2-.72-.51-.53-.52.14-.65,1.5-.8,1.86-.21.5-.82,1.47-1.06,1.99-.2.43-.23,1.44-.8,1.47-.1,0-.02-.6-.47-.38l-.11.42c-.04.14-.15.24-.29.27l-.36.07c-.11-.11.11-2.73.2-3.09.03-.13.92-.97.94-1.03.13-.46,0-1.48.19-1.99.08-.21.39-.2.52-.46.2-.41.13-1.02.24-1.44.05-.18.55-.09.36-.77-.03-.13-.3-.14-.36-.28-.99-2.37-1.85-4.64-2.66-7.02-.13-.38-.12-.83-.21-1.22-.02-.07-.05-.14-.11-.19-.75-.58-2.18,1.56-2.67,1.95-.18.15-.58.09-.76.23-.28.22-.51,2.01-1,.71h-.38c.21.38-.67,1.24-.95.95-.02-.44.22-1.04-.38-.95v-.18c.18.03.86-.76.94-.91.13-.23.08-.65.19-.86.1-.19,2.71-2.13,3.26-2.67.11-.11.4-.08.49-.17.35-.37.18-1.78.04-2.27-1.07-3.6-3.59-8.51-5.86-11.77-.11-.16-.37-.24-.51-.44-.12-.17-.37-.2-.53-.06l-1.64,1.41s-.05.04-.07.05c-4.4,2.19-8.84,4.8-13.51,5.91-3.89.93-7.63.99-11.74,1.51-.36.05-.18.36-.54.41-.81.1-3.4.1-4.2,0-.41-.05-1.32-.29-2.07-.4-2.09-.3-4.42-.92-6.41-1.52-4.64-1.4-11.59-4.13-15.36-7.19-1.11-.9-1.19-1.39-1.67-2.52-.08-.18-1.03-1.07-1.11-1.24-.35-.78-.58-1.58-.98-2.36-.53-1.08-.3-.88-.55-1.91-.05-.21-.46-.18-.55-.44-.15-.46-.25-.95-.42-1.49-.41-1.27-.08-3.28-.37-4.53-.03-.14-.34-.12-.37-.26-.14-.57-.11-4.77-.02-5.48.04-.34.34-.25.38-.42.22-.99.13-2.73.4-3.51.07-.2.71-.51.35-1.37l.55-.12c-.15-.73.48-.82.6-1.07.18-.39.2-1.04.39-1.41.24-.45,1.31-.95,1.69-1.63.14-.26.1-.81.25-.96.86-.82,2.95-2.7,4.07-3.45.22-.15.62-.1.77-.23.2-.17.13-.71.28-.86.16-.16.76-.11.97-.22.2-.11.07-.43.16-.53.05-.05.79-.43,1.14-.68,2.28-1.66,4.73-3.98,6.81-5.89.66-.6,1.41-1.43,2.18-2,.16-.12,1.21-.49,1.34-.64.31-.35.48-1.1,1.09-1.77,1.72-1.9,3.61-3.98,5.35-6.03.2-.24.23-.7.52-1,.21-.22.69-.31.83-.5.16-.21.11-.62.34-.89.31-.36.96-.33,1.02-.41.09-.11-.03-.62.11-.93.12-.24.5-.27.61-.43.75-1.01.93-1.48,1.88-2.48.45-.47.99-1.54,1.07-1.6.16-.14.6-.08.78-.21.05-.04.46-.82.76-1.09s1.08-.69,1.42-.95c.62-.49.9-1.42,1.92-1.2l-.04-.4c0-.08-.04-.16-.1-.22l-1.51-1.56s-.07-.08-.09-.13c-.4-1.08-.18-2.17-.27-3.31-.02-.32-.43-.45-.64-.21-.06.07-.15.12-.3.15-1.02.16-1.97-.28-2.73-.88-1.1-.86-3.3-3.47-3.43-4.92-.05-.62.3-2.06-.38-1.99l.27-.22c.07-.06.12-.14.13-.23.14-1.03-.03-2.75.17-3.59.23-.96.87-2.81,1.34-3.78.84-1.71,1.55-3.38,2.67-5.11.71-1.11,2.29-2.73,2.83-3.71.21-.38.24-1.08.43-1.33.14-.19.62-.27.83-.5s.31-.68.49-.83c.74-.62,2.04-.02,2.68-.05.11,0,.09-.34.24-.38.31-.08,2.56.27,2.96.39.15.05.12.31.28.36.55.17,2.87.7,3.23,1,.21.18.12.71.29.87,2.66,2.41,3.6,6.79,4.52,10.33.04.14.31.13.35.29.17.58-.06,1.74.28,2.17.12.16.08.4-.09.51-.15.1-.27.24-.17.6l.57-.19c-.1.47.12,1.02.1,1.43s-.71.64-.62,1.14c.03.17.4.2.52.42.21.39.23,3.88,0,4.28-.1.17-.95.4,0,.79v.37c-1.05.35-.14,2.76-.61,3.11-.15.11-.44-.01-.53.03-.08-.25-.09-.59-.19-.81-.09-.19-.36-.13-.37-.14-.28-.42.88-.41.17-.79-.11-.06-.19-.17-.19-.3-.14-2.12.26-4.95-.17-6.94-.03-.15-.35-.05-.39-.4-.43-3.32-.31-5.24-1.52-8.31-.79-2.01-2.04-3.82-3.02-5.6-.31-.56-.07-.51-.64-1.21-.11-.13-.08-.43-.16-.5-.14-.13-.74-.08-1.03-.2-1.32-.58-1.38-.65-2.79-.98-.14-.03-.12-.38-.23-.38-.09,0-1.22.26-1.36.32-.41.18-.49.88-.66.97-.21.11-.58-.02-.91.14-.19.1-1.22,1.53-1.53,1.87-.93,1.01-1.35,1.5-2.15,2.7-.38.56-.96.96-1.08,1.65-.03.17-.17.29-.34.3h0c-.22.01-.37.21-.34.42l.13.93-.57-.19c-.27.66-.06,1.56-.2,2.15-.28,1.23-.76,3.28-1.12,4.45-.21.68.03,1.64-.59,1.85-.09.44.33.19.39.41.13.49-.07,1.24.12,1.94.03.11.73,1.71.84,1.96.08.19.29.16.37.28.11.17.11.47.23.58.2.17.83.14,1.14.25.15.05.14.32.28.36.86.23.82-.34.94-.37.33-.07.74.08,1.08-.03.1-.03,1.27-1.26,1.52-1.51,1.13-1.13,1.35-1.27,2-2.75.16-.37.58-.41.59-.83l.57.57c-.04-.74-.02-1.42.28-2.1.13-.3.93-1.19,1.03-1.47.37-1.04.44-2.3.6-3.34.07-.45.33-.85.36-1.31l.57-.13c-.22.7-.04,1.69-.19,2.34-.04.16-.36.15-.38.22-.13.51.26.36.4.75.27.77.02,1.66.17,2.25.05.18.42.21.55.43.34.55.97,1.98,1.14,2.51.34,1.05.47,2.05.4,3.16-.06.99-.34,3.68-1.47,3.88-.46.08-.74-.2-1.12-.33-.14-.05-.24-.16-.25-.31-.11-1.1-.04-2.12,1.13-2.57v-.18c-.65.01-.4-1.71-.58-2.33-.04-.16-.33-.13-.37-.27-.14-.61.15-1.47-.2-2.15-.61.03-.51.6-.61.7-.12.12-.43.05-.61.26-.27.32-.54.92-.65,1.4-.04.17-.18.28-.35.29h-.07c-.2,0-.36.17-.36.38v.19c0,.15-.09.28-.23.35-.75.34-.43,1.8-1.67,1.75l.09.58c.94.3,1.07.72,1.21,1.63.11.71-.01,3.21.04,3.37.07.23.45.24.51.34.09.15.08,1.21.02,1.28h-.55s0,.58,0,.58c.74.25.71-.32.99-.44,2.67-1.15,5.28-1.47,7.98-2.23.16-.04.13-.34.27-.37.6-.14,1.76.04,2.41-.19.17-.06-.06-.43.69-.77ZM92.89,19.34c-.06-.05-.13-.07-.2-.07-2.59-.08-5.28-.23-7.66.54-2.17.71-4.39,1.61-6.56,2.24-1.52.44-3.11.85-4.35,1.78-.2.15-.28.67-.49.84-.25.2-.63.16-.89.35-.5.36-.43,1.5-.39,2.08.06.68.66,2.31,1.01,2.88.22.36.94.7,1.3,1.07.07.07.16.12.26.12,1.98-.06,4.53.46,6.4,0,.15-.04.12-.34.26-.37.68-.16,1.74.04,2.57-.21.15-.04.26-.63.89-.35v.55s.58,0,.58,0c-.28-1.42,1.19-.67,1.91-.83.34-.08.77-1.07,1.13-.69.43.46-.43.89-.46.95-.18.32-.28,1.95-1.14,1.71-.07-.02-.11-.1-.15-.2-.13-.31-.58-.3-.69.02-.13.36-.13.77-.59.75l.65.18c.32.48-.02.72-.46.77-.21.02-.35.23-.31.44.09.41.19.99-.13,1.21-.82.56-.2.21-.6.8-.08.13-1.02.49-1.17.62-.85.71-1.82,1.71-2.73,2.49-.22.19-.56.2-.69.4-.12.18-.39.18-.55.04-.21-.18-.41-.41-.44-.48-.12-.23-.26-.75-.11-.98.09-.14,1.26-1.09,1.5-1.27.29-.21,1.74-1.28,1.87-1.35.24-.14.66.04.91-.13.04-.03.31-.55.56-.91.13-.19.4-.21.57-.05l.29.29c.3-.11.23-.71.13-1.06-.05-.16-.2-.27-.36-.27-.43.02-.88.06-1.29.18-.32.09-.27.34-.41.38-.63.17-3.68.15-4.28,0-.14-.03-.11-.33-.26-.37-.73-.19-1.88-.23-2.58-.39-.13-.03-.08-.59-.94-.37-.15.04-.15.31-.28.36-.38.15-.81.12-1.17.32-.81.44-1.97,2.68-2.9,3.06-.3.12-.76-.03-.88.08-.14.12.06.99-.97.73v.57c1.27-.59,1.22.64,1.57,1.08.64.8,1.72,1.07,2.36,1.62.2.18.16.61.27.69.18.12.64-.08.89.06.13.07.26.7.47.85,1.53,1.14,2.55,2.1,3.54,3.81.39.68.63,1.44.97,2.17.53,1.14.94.17,1.13.07.22-.13.54-.06.69-.17.68-.48,1.39-1.93,1.97-2.29.43-.26,1.14-.23,1.28-.35.46-.39,1.63-1.89,2.26-2.47.11-.1,0-.41.16-.54.25-.19.89-.16,1.22-.17l-.38-.56c.16.06.88-.8.94-.91.17-.32.15-.9.38-1.23.2-.3.73-.35.9-.57.18-.24.09-.69.44-.99.28-.24.88-.25.92-.31.09-.12-.03-.56.05-.8s.42-.24.54-.46c.13-.24.08-.68.18-.87.11-.21.45-.07.54-.15s.1-.84.25-1.15c.17-.38.93-.96,1.07-1.15,1.25-1.7,1.81-4.31,2.58-6.25.18-.45.08-.98.26-1.44.05-.12.99-1.05,1.01-1.12.06-.26.06-1.01,0-1.26-.03-.14-.34-.12-.37-.26-.07-.32.1-1.04-.03-1.18-.05-.05-.33.01-.47-.08-1.01-.71-2.26-1.34-3.25-2.09ZM62.26,38.07c-.22-.1-4.16-.26-4.78-.26-2.93,0-8.59,1-11.22,2.07-1.05.42-2.56,1.2-3.51,1.81-4.95,3.11-8.15,8.03-11.66,12.24-4.03,4.82-7.01,8.12-12.07,11.98-2.58,1.97-5.03,4.07-7.55,6.15-.25.2-.64.15-.88.35-.2.17-.28.69-.49.84-1.98,1.47-4.66,2.76-6.07,4.85-1.05,1.55-2.21,4.52-2.81,6.26-.05.15-.32.14-.36.28-.21.88.17,1.1.32,1.39.07.13.04.3-.06.41-.37.45-.38.94-.29,1.59.05.35.36.25.39.4.23,1.04.32,2.16.57,3.23.16.68-.11,1.59.18,2.44.22.66.88,2.13,1.15,2.69.75,1.49,1.01,2.37,2.11,3.73,4.03,5.01,9.4,7.25,15.24,8.47,1.96.41,3.95.9,5.73,1.32,1.33.32,4.32-.02,5.86.18.36.05.18.36.54.41.91.11,3.86.12,4.77,0,.37-.05.1-.36.73-.41.48-.04.84-.1.97.4h.38c.38-.96.69-.03.79,0,.29.07,1.36.06,1.69.02.35-.05.25-.36.4-.39,1.99-.45,4.69-.27,6.76-.77.14-.03.11-.32.27-.37,1.38-.38,3.17-.25,4.37-1.01,1.64-1.05,3.78-1.98,5.18-3.31.83-.78,1.81-2.34,2.6-2.9.86-.62,1.8-.89,2.63-1.59,2.42-2.06,4.69-3.99,5.98-6.99.35-.82,1.16-.97,1.57-1.27.12-.08.91-1.42,1.13-1.66s.7-.3.89-.58c.27-.39.23-1.05.39-1.42.1-.23.91-.99.93-1.05.37-1.18.13-.79.72-1.88,2.25-4.14,3.79-8.11,5.15-12.54.13-.43.52-1.67.57-1.89.12-.5.47-3.57.38-3.91-.1-.4-.2.29-.19-.98.04-3.31.2-5.41-.78-8.48-1.04-3.27-2.65-6.42-4.35-9.39-.84-1.47-1.79-2.7-2.77-4.02-.66-.89-2.41-1.58-3.17-2.28-.15-.14-.24-.74-.57-.89-.46-.22-1.19-.24-1.69-.46-.43-.19-1.49-1.36-1.9-1.57-1.27-.64-2.96-.65-4.18-1.21ZM125.59,118.53c.13-.07,1.32-2.34,1.37-2.48.09-.26-.09-1.49-.17-1.81s-.71-1.42-.91-1.82c-.15-.3-.14-.82-.44-1.13-.73-.4-.97.32-1.03.34-.63.18-.57-.24-.79-.36-1.67-.89-1.34-1.06-3.33-1.37-.85-.13-.93-.43-1.34-.56-.52-.16-1.16-.19-1.71-.16l-.1-.58-.49.22c-.17.08-.38.02-.47-.15-.33-.62-1.3-1.59-1.32-1.69-.13-.56.34-.41.38-.59.1-.44-.15-1.26.09-1.59.12-.16.48-.1.62-.23s.44-.88.83-1.16c.27-.19.76-.2.89-.35s.08-.56.25-.79c.93-1.23,2.5-2.43,3.82-2.97.13-.05.14-.33.28-.36.27-.06,1.17-.06,1.44,0,.12.03.11.25.28.35.13.07.44,0,.61.11.2.14.12.51.23.62.15.16.69.08.86.28.12.14.32,1.19.44,1.52.38,1.06.31,1.45.56,2.48.04.16.49.01.39.8-.05.36-.35.25-.39.41-.23.96-.06,2.27-.18,3.2-.03.27-.53.36-.45,1.22.01.16.13.3.29.33l.31.06c-.12,1.03.28.64.66.92.09.07,1.06,1.88,1.1,1.99.11.31.1.72.13,1.08s.49.45.68.15c.14-.21.37-.33.47-.5.64-1.09,1.75-4.04,1.94-5.23.83-5.3.5-8.5-1.94-12.87-1.04-1.87-2.28-2.86-3.59-4.47-.23-.29-.31-.82-.43-.94-.23-.24-.7-.13-.94-.26-2.58-1.38-5.43-4.54-7.16-6.96-.2-.28-1.02-1.32-1.08-1.43-.25-.42-.27-1.29-.5-1.59-.16-.21-.66-.27-.84-.49-.21-.26-.26-.99-.45-1.31-1.6-2.63-3.47-5.03-5.56-7-4.34-4.09-9.69-4.93-15.16-6.18-2.28-.52-5.87-.22-7.96.37-.36.1-.68.39-1.14.39-.19,0-.35.15-.36.34l-.17,2.82h.43c.56.08-.37,1.2-.81.95-.18.5.3.28.37.51.05.18.03.4.06.62.02.15-.05.29-.19.37-.36.21-.54,1.14-.56,1.46-.02.4.18.93.17,1.41,0,.15-.1.29-.24.34l-.17.07c-.12.05-.21.16-.23.29-.05.32-.11.62-.04.97.04.17.09.26.15.31.13.11.14.3.02.42-.43.42-.18,1.68-.29,2.2-.03.14-.32.15-.36.28-1.12,3.24-3.19,5.84-4.76,8.82-2,3.77-5.12,6.5-8.15,9.59-1.64,1.67-2.87,3.23-4.67,4.77-.29.25-1.21.74-1.39,1.06-.22.39.43.22.52.31.14.14.08.61.22.81.12.18.45.06.54.15.85.84,2.79,4.84,3.47,6.08.9,1.64,1.71,3.58,2.26,5.41.08.25.1,1,.22,1.49.07.27.4.37.61.19.35-.31.55-.56,1.25-.53l.04-.51c1.14.29,1.14-.48,1.5-.69.77-.45,2.81-.96,3.66-1.43.14-.08.15-.23.14-.37h.38s.19.37.19.37c.06-.81,1.24-.58,1.94-.78,3.71-1.07,4.61-.89,8.59-.97.54-.01,1.19-.29,1.8-.15v.56s-.54.04-.54.04l-.14.55-6.54.37s-.07,0-.11.02c-2.66,1.01-5.46,1.94-8.09,3.21-.66.32-.69.6-.94.89-.1.11-1.2.29-1.52.45-.42.21-.52.82-.58.87-.36.32-1-.09-1.11.9-.14,1.23.38,1.12.57,1.57.82,1.88,1.19,4.48,1.97,6.26.02.05.28.05.32.18.07.31-.03.68,0,1.01l1.39-1.35s.06-.07.08-.11c.67-1.54,1.98-2.36,3.32-3.09.21-.12.21-.46.46-.54,1.34-.43.39-.15,1.02-.69,1.08-.91,2.44-1.44,3.65-2.18.24-.15.42-.98.9-.44l.18.43c-.25-.9.32-.86.58-1.52l.56.38c-.2-1,1.17-.62,1.79-.74.07-.01.27-.76.83-.94.74-.24,1.8-.03,1.9-.06.1-.03.99-1.12,1.5-1.28s1.21,0,1.8-.11c.19-.03.37.08.42.27l.1.4c-.36-.04-.64-.03-.57.38l-.75-.57v.38c-.02.19-.17.33-.35.35-.62.09-.9.69-1.07.78-.71.35-.28-.58-.66-.57v.58c0,.2-.16.36-.35.37-.58.03-1.35.19-1.77.39-.38.18-1.45,1.32-1.82,1.5-1.16.57-2.3.95-3.4,1.77-.21.16-.28.68-.49.84-.26.19-.73.12-.96.24-.05.03-.27.42-.74.77-2.27,1.69-3.01,2.45-4.69,4.79-.31.43-1.14.73-1.12,1.38,0,.86.77.77,1.23,1.12.99.73,2.79,1.62,4,1.78,1.13.15,5.08-.1,6.18-.34.12-.03.09-.29.41-.39.79-.25,1.68-.02,2.25-.17.21-.05.19-.48.44-.56.21-.06.54.15.85.09.39-.07.26-.75,1.37-.49.15.04.15.59.7.38.13-.13.12-3.27.17-3.71.08-.64.76-2.95.98-3.76.36-1.33.8-2.4,1.37-3.58.15-.3.25-1.05.35-1.44.03-.13.14-.24.27-.26.39-.08.9-.25,1.25-.12.26.09.29.43.09.62-.53.5-.42,1.59-.65,2.36-.04.12-.14.21-.27.24l-.35.08v1.21s-.56.01-.56.01c-.1.09.74,2.36-.57,2.09l.14.38h.43c.08.09-.14,1.16-.2,1.37-.05.15-.33.15-.36.28-.11.48-.07,1.38-.08,2.07,0,.21.17.38.39.38.29-.01.59.04.81-.03.44-.13.59-.63.81-.71,3.07-1.18,6.07-2.19,9.19-3.32,1.55-.56,2.59-.45,4.11-.79.13-.03.1-.58.77-.38l.3.38c.22-.95,1.97-.4,2.71-.57.61-.14,3.19-1.35,3.87-1.7,1.01-.52,2.13-.98,2.83-1.58.55-.48.54-.39,1.06-.71.29-.18.42-.69,1.1-.56M119.19,104.06c-.89-.54-2.05.9-2.07,1.78,0,.34.08.68.18,1.01.04.11.12.2.23.23.5.16.98.25,1.51.09s.86-1.21.74-1.68c-.03-.14-.3-.11-.36-.27-.08-.25-.04-1.04-.23-1.16Z"/>
    <path d="M134.53,95.5c.11.08-.04.38.25.3-.05-.46.17-.4.57-.38v1.14c-.46,0-1.02.02-1.45-.16-.34-.14-.24-.65-.63-.4-.06.04.14.55-.39.37l.88-1.12c.31-.05.53.07.77.25Z"/>
    <path d="M132.69,91.82v.75c-.51.02-1.08.06-1.56.21-.1.03-.35.66-.71.36s.36-.39.38-.5c.05-.26-.03-.56,0-.83h1.9Z"/>
    <path class="cls-2" d="M108.77,79.14c-.12-.12-2.28-.19-2.44-.02-.2.84.65,1.11,1.21,1.62,2.25,2.08,3.04,3.43,4.46,6.11.5.95.41,1.43,1.88,1.15.3-.65.28-1.36.1-2.04-.11-.41-.37-.39-.43-.55-.25-.56-.15-1.14-.94-1.41l.17-.53c-.85.19-.5-.62-.83-1.26-.48-.92-2.58-2-3.11-2.59-.1-.11,0-.42-.06-.48ZM88.38,97.82c-.18-.19,0-.46-.53-.71s-2.56-.28-2.87.21c-.72,1.1.67,1.39,1.21,1.84,1.57,1.32,2.34,2.65,3.46,4.28.56.82,1.12,1.5,1.49,2.38.14.32.32,1.4.44,1.51.2.2,2.06.35,2.21.21.07-.4.22-.8.23-1.21.01-1.18-1.83-4.94-2.67-5.88-.77-.86-2.09-1.74-2.96-2.63Z"/>
    <path d="M17.31,78.59s.73.54.76.57c.09.1,0,.39.08.47.12.12.72.01,1.06.29.2.16.64,1.05,1.06,1.39.3.24.69.26.93.45.94.74,1.03,1.5,1.5,2.35.76,1.36,1.33,2.69,1.99,4.26.09.22.36.18.43.37.3.85.27,3.4,0,4.27-.08.25-.93.98-1.11,1.21-1.15,1.47-2.23,2.92-3.97,4.04-.38.25-1.19.24-1.18.78l-.28-.38c-.51-.17-.44.35-.6.38-1.14.24-1.18-.33-1.33-.37-.95-.22-2.31-.05-3.26-.32-.42-.11-.4-.41-.53-.44-1.02-.25-.93-.14-1.91-.56-.54-.23-1.88-.62-2.31-.87-.58-.34-2.22-2.44-2.91-3.07-.21-.19-.62-.19-.67-.27-.12-.17.04-.69-.03-.99-.03-.14-.32-.11-.37-.27-.11-.41,0-1.2-.21-1.61-.13-.26-.5-.18-.57-.62-.1-.58.18-1.92.15-2.51-.04-.76-.44-1.85-.32-2.79.16-1.29.67-1.11,1.25-1.69,1.11-1.11.59-.54,1.81-1.27.44-.26,1.43-1.31,1.82-1.5.21-.1,1.78-.73,1.88-.76.83-.19,2.1-.16,2.97-.19l.31-.38v.38s.38,0,.38,0c-.13-.95,2.78-.55,3.18-.32ZM19.2,83.15c-1-.78-2.19-.35-2.78.65.09,1.59-.58,3.75-.19,5.27.12.48.44.38.56.62.15.28.1.73.21,1.04.07.18.58.15.37.97-.06.22-.46,0-.38.31.55-.01,1.11-.02,1.64.16.14.05,1.38.57,1.45.61.17.09.13.35.14.36.4.27.34-.28.49-.38.22-.15.63-.08.78-.24.07-.07.02-.35.11-.44.93-.93,1.34-1.01.86-2.58s-1.32-3.15-2.19-4.58c-.23-.38-.71-1.49-1.07-1.78Z"/>
    <path d="M63.61,58.02c-.89-.14-1.15,1.21-.54.78.05-.04-.11-.57.57-.38l-.02,1.32-.55.11.1.48.47-.19v1.52s-.95-.47-.95-.47c.15.51.41.89.95.94-.33.38-.1.9-.19,1.3-.03.14-.32.11-.37.27-.23.78-.01,1.47-.46,2.46-.11.24-1.26.89.08,1.11v1.22s-.58-.38-.58-.38c-.04.3.17.6.17.87,0,.42-.42,1.32-.61,1.73-.03.06-.85.4.01.67.17.56-.53.96-.7,1.25-.22.37.08,1.06-.77,1.18-.22-1.81-1,.58-2.09.19.09-1,.13-2.19.77-2.94l-.39-1.11c.62-.28.36-1.18.59-1.87.07-.21.9-1.52.92-1.61.19-.89.07-2.38.39-3.34.06-.17.23-.15.37-.14l-.38-.31c.04-.42-.06-.92-.01-1.32.05-.35.36-.25.39-.4.08-.39-.09-.86.03-1.27.04-.14,1.57-1.95,1.81-2.28.2-.27-.13-.9.92-.32l.06.94Z"/>
    <path d="M37.6,53.94c.85.31.28,1.9-.52,1.93v.55s.37.13.37.13v.36c-.56.05-.51,1.19-.76,1.76-.39.88-1.64,2.95-2.27,3.7-.28.33.08.82-.94.62l-.11.97c-.95.46-1.93.12-2.92-.02-.14-.7.32-.78.57-1.09,1.54-1.92,2.44-4.61,3.78-6.84.15-.25.12-.87.51-.96l.83.16c-.15-.37-.54-.08-.38-.76h1.03s.12-.55.12-.55c.24-.05.46-.04.69.05Z"/>
    <path d="M88.38,97.82c.87.9,2.19,1.77,2.96,2.63.84.94,2.68,4.7,2.67,5.88,0,.41-.16.81-.23,1.21-.16.13-2.02-.01-2.21-.21-.12-.12-.3-1.19-.44-1.51-.37-.89-.93-1.56-1.49-2.38-1.12-1.63-1.89-2.96-3.46-4.28-.53-.45-1.93-.74-1.21-1.84.32-.48,2.34-.46,2.87-.21s.35.52.53.71Z"/>
    <path d="M108.77,79.14c.06.06-.04.37.06.48.53.59,2.63,1.67,3.11,2.59.33.64-.02,1.46.83,1.26l-.17.53c.79.26.69.84.94,1.41.07.15.32.13.43.55.19.68.21,1.39-.1,2.04-1.48.28-1.38-.2-1.88-1.15-1.42-2.67-2.22-4.02-4.46-6.11-.56-.52-1.4-.79-1.21-1.62.16-.17,2.32-.1,2.44.02Z"/>
  </g>
  <text class="cls-3" transform="translate(144.54 121.44)"><tspan x="0" y="0">Wiggle</tspan></text>
</svg>