<?xml version="1.0" encoding="UTF-8"?>
<svg id="Calque_1" data-name="Calque 1" xmlns="http://www.w3.org/2000/svg" viewBox="0 0 1059.92 1272.54">
  <defs>
    <style>
      .cls-1 {
        fill: #fff;
      }
    </style>
  </defs>
  <path class="cls-1" d="M844.63,1041.17c34.27,36.05,160.97,217.94,182.73,228.06,52.24,24.28,28.72-91.98,17.1-118.84-11.54-26.66-40.29-53.45-54.87-78.13-67.7-114.57-138.73-226.3-226.73-327.27,18.36-25.48,46.08-51.68,58.65-80.51,14.33-32.85,49.95-204.56,49.97-240.14.05-91.62-114.36-308.9-193.76-354.55C427.17-74.26,99.06,5.51,20.16,301.4c-36.65,137.46-22.7,252.18,36.67,381.33,93.44,203.3,391.38,274.79,579.1,160.12,46.01,80.33,145.7,132.04,208.7,198.32Z"/>
  <path d="M844.63,1041.17c-63-66.28-162.69-117.99-208.7-198.32-187.72,114.67-485.66,43.18-579.1-160.12C-2.53,553.57-16.49,438.86,20.16,301.4,99.06,5.51,427.17-74.26,677.74,69.79c79.4,45.65,193.81,262.93,193.76,354.55-.02,35.58-35.64,207.29-49.97,240.14-12.58,28.83-40.29,55.03-58.65,80.51,88,100.97,159.03,212.7,226.73,327.27,14.58,24.68,43.34,51.47,54.87,78.13,11.62,26.86,35.14,143.12-17.1,118.84-21.76-10.11-148.47-192.01-182.73-228.06ZM542.2,803.67c66.97-23.09,193.29-100.19,220.95-166.46,3.9-9.35-1.14-20.55,2.07-28.95,23.32-61.07,49.69-106.84,42.17-175.3-13.74-125.02-133.9-324.48-258.92-359.11C219.13-17.36-46.85,262.63,69.69,585.48c20.07,55.59,47,109.43,92.99,147.88,8.79,7.35,12.7,19,27.4,15.55-81.92-98-131.98-316.68-97.82-438.02,20.22-71.83,137.93-181.26,205.67-208.99,210.79-86.28,389.95,15.67,448.88,227.4,51.18,183.91,25.97,276.16-111.58,398.95-29.99,26.78-66.14,46.74-93.02,75.42ZM493.48,133.55c-25.79-14.7-219.84,29.17-250.68,51.94-6.98,5.15-85.2,88.84-91.76,98.1-62,87.48-15.34,318.28,47.08,398.7,66.83,86.09,175.85,95.88,276.9,81.66,60.89-8.57,205.51-135.2,233.11-189.39,29.88-58.68,24.25-123.26,10.57-185.86-23.25-106.39-97.63-249.29-219.99-243.06-4.1.21-2.79-10.71-5.22-12.1ZM776.9,881.94l-62.48-101.61c8.33,31.92-33.4,25.18-31.3,54.71,47.99-26.57,57.04,35.35,93.79,46.9ZM518.69,811.66l-156.41,15.48,79.93,5.66,76.49-21.14Z"/>
  <path class="cls-1" d="M542.2,803.67c26.89-28.69,63.03-48.65,93.02-75.42,137.55-122.79,162.77-215.04,111.58-398.95C687.88,117.57,508.72,15.62,297.93,101.9c-67.74,27.73-185.45,137.16-205.67,208.99-34.16,121.35,15.9,340.02,97.82,438.02-14.7,3.44-18.61-8.2-27.4-15.55-45.99-38.45-72.93-92.29-92.99-147.88C-46.85,262.63,219.13-17.36,548.47,73.86c125.01,34.63,245.17,234.08,258.92,359.11,7.53,68.45-18.84,114.23-42.17,175.3-3.21,8.4,1.84,19.6-2.07,28.95-27.67,66.27-153.99,143.37-220.95,166.46Z"/>
  <path class="cls-1" d="M776.9,881.94c-36.75-11.55-45.79-73.47-93.79-46.9-2.09-29.53,39.64-22.79,31.3-54.71l62.48,101.61Z"/>
</svg>