<?xml version="1.0" encoding="UTF-8"?>
<svg id="Calque_1" data-name="Calque 1" xmlns="http://www.w3.org/2000/svg" viewBox="0 0 1170.83 1049.07">
  <defs>
    <style>
      .cls-1 {
        fill: #fff;
      }
    </style>
  </defs>
  <path class="cls-1" d="M795.43,33.96C657.89-21.98,367.83-12.55,254.33,90.3c-13.56,12.29-2.99,20.07-3.98,20.77-2.05,1.45-16.44-8.16-35.91,3.8C-11.41,253.63-55.67,525.53,66.62,750.93c143.99,265.38,435.66,347.73,718.18,270.35,184.3-50.48,397.96-222.65,385.52-432.45-1.19-20-43.03-208.36-50.46-217.94-5.53-7.12-14.98-4.08-22.71-4.42l14.5-14.43c-42.6-21.91-64.14-90.03-91.76-130.88-39.06-57.78-105.28-141.29-178.35-146.59,14.56-35.34-30.74-26.26-42.07-31.55-1.65-.77-2.08-8.26-4.03-9.06Z"/>
  <path d="M795.43,33.96c1.96.8,2.39,8.29,4.03,9.06,11.33,5.29,56.63-3.79,42.07,31.55,73.06,5.3,139.29,88.81,178.35,146.59,27.62,40.86,49.16,108.97,91.76,130.88l-14.5,14.43c7.73.34,17.19-2.7,22.71,4.42,7.43,9.58,49.27,197.94,50.46,217.94,12.45,209.8-201.22,381.96-385.52,432.45-282.52,77.38-574.19-4.96-718.18-270.35C-55.67,525.53-11.41,253.63,214.45,114.87c19.46-11.96,33.86-2.34,35.91-3.8.99-.7-9.58-8.49,3.98-20.77C367.83-12.55,657.89-21.98,795.43,33.96ZM513.07,30.97l-14.59-.06,7.42,14.48c-79.52,1.38-151.84,38.94-224.07,68.11-514.49,332.6-139.91,998.28,422.72,878.64,145.99-31.04,324.61-145.57,385.34-286.15,23.34-54.03,32.62-113.04,29.03-171.55l-21.75,14.73c-2.34,4.14,12.94,11.5,12.99,23.79.08,20.68-27.36,115.88-42.49,125.83-7.61,5-21.88-6.53-28.94,7.15l14.1,3.87c11.02,13.08-32.78,27.27-39.71,43.5-13.42-37.87-19.71.62-21.83,0-25.34-20.45,9.88-17.34,16.39-24.08,4.96-5.13,24.31-45.75,30.56-53.02,7.78-9.04,18.6-10.77,29.75-10.53-17.72-25.61,2.85-39.92,6.8-62.39,32.21-183.3-1.51-277.22-117.08-415.24-5.42-6.48.69-16.36-.62-17.43-35.95-29.5-133.3-93.84-177.22-110.89-75.3-29.24-186.13-34.73-263.63-14.59l-3.18-14.16Z"/>
  <path class="cls-1" d="M513.07,30.97l3.18,14.16c77.51-20.14,188.33-14.65,263.63,14.59,43.91,17.05,141.27,81.4,177.22,110.89,1.31,1.07-4.81,10.96.62,17.43,115.57,138.02,149.29,231.94,117.08,415.24-3.95,22.47-24.52,36.78-6.8,62.39-11.16-.24-21.97,1.49-29.75,10.53-6.25,7.27-25.6,47.89-30.56,53.02-6.51,6.74-41.73,3.63-16.39,24.08,2.12.62,8.41-37.87,21.83,0,6.92-16.22,50.72-30.42,39.71-43.5l-14.1-3.87c7.06-13.68,21.33-2.15,28.94-7.15,15.13-9.94,42.56-105.15,42.49-125.83-.05-12.3-15.33-19.65-12.99-23.79l21.75-14.73c3.58,58.51-5.69,117.52-29.03,171.55-60.73,140.58-239.35,255.11-385.34,286.15C141.92,1111.77-232.65,446.09,281.84,113.49c72.22-29.16,144.55-66.73,224.07-68.11l-7.42-14.48,14.59.06ZM868.84,353.93c-4.66-4.58-32.88-16.78-41.11-19.43-85.67-27.64-369.84-19.95-455.16,4.59-16.08,4.62-25.45,18.27-41.91,20.31l34.37,51.03c89.96,5.57,179.04-10.24,268.85-7.71,78.81,2.22,116.29,19.49,197.13.65,19.59-4.57,58.68,10.85,51.14-22.51-1.02-4.52-10.23-23.91-13.31-26.93ZM803.25,536.27c-7.88-6.21-108.96-27.8-126.75-30.2-27.13-3.65-73.24-7.38-101.02-8.47-73.25-2.88-146.87-.32-215.78,26l19.89,47.39c93.6,14.26,188.79,2.97,283.12,7.26,26.6,1.21,149.16,29.06,156.7,2.82,2.14-7.44-10.97-40.71-16.16-44.8ZM382.96,781.26c64.71,3.64,127.83-6.81,192.76-6.09,57.3.64,134.7,18.73,189.5,15.06,13.02-.87,23.86,1.66,32.42-11.32-15.24-48.93-37.83-50.87-85.58-60.27-59.82-11.77-244.95-25.9-297.92-9.58-16.69,5.14-29.85,17.42-46.02,23.45l14.83,48.75Z"/>
  <path d="M868.84,353.93c3.08,3.02,12.29,22.41,13.31,26.93,7.54,33.36-31.55,17.95-51.14,22.51-80.83,18.84-118.31,1.57-197.13-.65-89.81-2.53-178.9,13.28-268.85,7.71l-34.37-51.03c16.46-2.04,25.83-15.68,41.91-20.31,85.32-24.54,369.49-32.23,455.16-4.59,8.23,2.66,36.45,14.86,41.11,19.43Z"/>
  <path d="M803.25,536.27c5.19,4.09,18.29,37.36,16.16,44.8-7.54,26.24-130.09-1.61-156.7-2.82-94.32-4.29-189.51,7-283.12-7.26l-19.89-47.39c68.91-26.32,142.54-28.88,215.78-26,27.78,1.09,73.89,4.82,101.02,8.47,17.79,2.4,118.87,23.99,126.75,30.2Z"/>
  <path d="M382.96,781.26l-14.83-48.75c16.17-6.03,29.33-18.31,46.02-23.45,52.97-16.32,238.11-2.19,297.92,9.58,47.75,9.4,70.34,11.34,85.58,60.27-8.56,12.98-19.4,10.45-32.42,11.32-54.81,3.66-132.2-14.43-189.5-15.06-64.93-.72-128.05,9.73-192.76,6.09Z"/>
</svg>