<?xml version="1.0" encoding="UTF-8"?>
<svg id="Calque_1" data-name="Calque 1" xmlns="http://www.w3.org/2000/svg" viewBox="0 0 1230.69 1193.75">
  <defs>
    <style>
      .cls-1 {
        fill: #fff;
      }
    </style>
  </defs>
  <path class="cls-1" d="M1035.1,142.69c-37.72-26.84-114.21-76.8-154.71-94.76C865.99,41.55,755.33-.74,748.32,0c-16.69,1.78-22.43,21.01-41.26,24.71-35.71,7.01-90.75-3.28-130.62.25C366.99,43.56,109.72,121.18,41.04,340.12,21.67,401.86-2.42,570.63.2,633.44c2.04,48.88,85,223.5,115.45,268.99,118.3,176.77,369.46,208.3,551.36,291.31l34.95-8.97,1.21-31.48c56.33,21.32,162.23.32,218.13-23.07,123.56-51.69,309.25-285.36,308.83-422.59-.2-67.49-1.65-118.66.29-187.89,4.86-173.3-58.36-279.61-195.33-377.07Z"/>
  <path d="M1035.1,142.69c136.97,97.46,200.19,203.77,195.33,377.07-1.94,69.23-.5,120.39-.29,187.89.42,137.23-185.27,370.9-308.83,422.59-55.9,23.38-161.8,44.39-218.13,23.07l-1.21,31.48-34.95,8.97c-181.9-83.01-433.06-114.54-551.36-291.31C85.2,856.94,2.23,682.33.2,633.44c-2.62-62.82,21.48-231.58,40.84-293.32C109.72,121.18,366.99,43.56,576.44,24.97c39.87-3.54,94.91,6.76,130.62-.25,18.83-3.7,24.57-22.93,41.26-24.71,7.01-.75,117.67,41.54,132.07,47.92,40.5,17.96,116.99,67.92,154.71,94.76ZM400.41,319.31l-40.84-8.19c5.2,18.8,25.93,17.34,40.85,16.19v-8ZM553.13,322.27c-33.29,1.55-252.34,10.97-258.95,33.84-17.57,60.72,125.89,37.91,149.28,38.52,103.56,2.69,184.09,3.25,287.92-2.14,27.75-1.44,134.88,10.5,141.71-12.84l.83-46.96-12.58-12.23c-70.42-.89-141.31-3.03-211.75-1.56-31.3.65-65.6,1.95-96.46,3.39ZM858.38,564.48c35.62-62.38-92.01-38.56-134.76-40.91-104.67-5.74-168.81-.27-271.37,5.18-23.84,1.27-141.78-21.6-141.89,23.48-.06,24.48,59.74,27.59,77.53,28.96,159.37,12.27,335.03-7.1,495.1-8.56l-24.61-8.16ZM81.3,556.54l-16.22,3.93,12.35,69.44c5.26-39.03,32.88-36.36,3.88-73.37ZM684.9,705.74l-313.06,5.86c-20,3-29.33,25.08-27.53,43.43,8.55,35.33,94.98,19.7,125.59,22.2,65.89,5.38,250.59,34.71,302.54,24.38,17.63-3.5,22.68-19.18,34.54-22.82,27.05-8.3,81.72,11.33,96.81-17.87,5.55-8.55,5.53-16.2.11-24.91-19.88-31.96-178.92-19.39-219-30.27ZM670.31,834.49l-48.97-16.42c-16.18,14.55,43.54,41.14,48.97,16.42ZM809.38,1071.61c-56.92-13.75-114.15-3.05-171.68-8.22-1.19,18.88-2.87,14.54,12.06,16.35,29.13,3.54,61.16-5.28,91.02,7.33l68.6-15.46Z"/>
  <path class="cls-1" d="M553.13,322.27c30.85-1.44,65.15-2.73,96.46-3.39,70.44-1.47,141.32.67,211.75,1.56l12.58,12.23-.83,46.96c-6.83,23.33-113.95,11.4-141.71,12.84-103.83,5.39-184.36,4.83-287.92,2.14-23.39-.61-166.85,22.21-149.28-38.52,6.61-22.86,225.66-32.29,258.95-33.84Z"/>
  <path class="cls-1" d="M684.9,705.74c40.08,10.89,199.13-1.69,219,30.27,5.42,8.71,5.44,16.37-.11,24.91-15.09,29.19-69.76,9.56-96.81,17.87-11.86,3.64-16.9,19.32-34.54,22.82-51.95,10.33-236.65-19-302.54-24.38-30.61-2.5-117.04,13.13-125.59-22.2-1.8-18.35,7.53-40.43,27.53-43.43l313.06-5.86Z"/>
  <path class="cls-1" d="M858.38,564.48l24.61,8.16c-160.07,1.46-335.73,20.84-495.1,8.56-17.79-1.37-77.59-4.48-77.53-28.96.11-45.09,118.06-22.22,141.89-23.48,102.56-5.45,166.7-10.92,271.37-5.18,42.76,2.35,170.38-21.47,134.76,40.91Z"/>
  <path class="cls-1" d="M809.38,1071.61l-68.6,15.46c-29.86-12.6-61.89-3.78-91.02-7.33-14.93-1.82-13.25,2.52-12.06-16.35,57.53,5.17,114.76-5.53,171.68,8.22Z"/>
  <path class="cls-1" d="M670.31,834.49c-5.44,24.73-65.15-1.86-48.97-16.42l48.97,16.42Z"/>
</svg>