<?xml version="1.0" encoding="UTF-8"?>
<svg id="Calque_1" data-name="Calque 1" xmlns="http://www.w3.org/2000/svg" viewBox="0 0 1139.93 711.68">
  <defs>
    <style>
      .cls-1 {
        fill: #fff;
      }
    </style>
  </defs>
  <path class="cls-1" d="M110.76,39.03C87.95,21.69,62.12,11.53,36.21,0c-77.18,101.79-13.61,95.89,30.55,152.76,21.01,27.06,35.1,66.89,53.51,87.65,55.78,62.87,141.87,116.89,189.74,190.25l45.89-10.1c-20.02,49.85,54.73,98.62,84.52,138.5,25.52,34.16,72.41,134.51,114.81,138.48,14.92,1.4,32.45-10.58,46.36-8.44,31.26,4.8,68.82,46.49,104.35,2.87,138.34-223.3,327.32-422.93,433.99-662.38.38-7.2-27.67-16.53-32.99-16.33-30.63,1.16-111.16,147.07-136.7,181.02-81.45,108.29-200.29,280.52-288.7,373.52-11.04,11.62-52.93,45.51-66.2,45.74-51.3-70.23-97.34-153.52-156.63-217.39-36.5-39.32-87.16-70.97-127.15-113.9-63.16-67.81-151.03-190.17-220.8-243.22Z"/>
  <path d="M110.76,39.03c69.77,53.04,157.64,175.41,220.8,243.22,39.99,42.94,90.65,74.58,127.15,113.9,59.29,63.87,105.33,147.16,156.63,217.39,13.27-.23,55.15-34.12,66.2-45.74,88.42-93,207.25-265.23,288.7-373.52,25.54-33.96,106.07-179.86,136.7-181.02,5.32-.2,33.37,9.13,32.99,16.33-106.68,239.45-295.65,439.08-433.99,662.38-35.52,43.62-73.08,1.92-104.35-2.87-13.91-2.13-31.44,9.84-46.36,8.44-42.39-3.98-89.29-104.32-114.81-138.48-29.79-39.88-104.54-88.66-84.52-138.5l-45.89,10.1c-47.87-73.36-133.97-127.38-189.74-190.25-18.41-20.75-32.5-60.59-53.51-87.65C22.6,95.89-40.98,101.79,36.21,0c25.91,11.53,51.74,21.69,74.55,39.03Z"/>
</svg>