<?xml version="1.0" encoding="UTF-8"?>
<svg id="Calque_1" data-name="Calque 1" xmlns="http://www.w3.org/2000/svg" viewBox="0 0 409.62 241.64">
  <defs>
    <style>
      .cls-1 {
        fill: #fff;
      }
    </style>
  </defs>
  <path class="cls-1" d="M170.19,42.67c-4.74-9.37-18.13-2.75-24.86-6.16-2.26-1.14-6.08-10.68-8.88-14.17C131.44,16.08,113.63-.77,105.7.03c-15.28,11.85-17.44,27.21-21.12,44.82-.36,1.74-2.55,3.46-2.96,5.89-.83,4.86-1.93,17.4,5.22,16.76,3.95-10.02,7.18-51.89,17.59-54.18,3.37-.74,28.04,20.15,33.02,24.06,1.5,1.18,1.85,3.43,3.02,4.87l29.73.42h-.01Z"/>
  <path class="cls-1" d="M307.92,94.72c-3.73-3.68-12.8-5.74-13.63-12.24l6.83-65.55-3.17-8.89-7.93-.77-44.86,28.11c-3.51.54-15.64-9.88-22.73-10.35-32.07-2.11-50.4,35.78-52.31,62.8-1.63,23.07,3.74,47.96,15.66,67.83,2.29,3.82,15.73,17.95,19.29,19.86,4.16,2.23,6.64.16,8.27.76,20.59,7.56,26.86,5.92,46.22,10.23,5.27,1.17,13.03,5.78,18.02,6.81,4.72.98,10.2-1.25,14.97,1.88l2.65-5.32c9.28,9.57.99,8.46-.52,10.92-3.06,5,3.45,11.99,9.24,10.46l16.18-40.9c9.25,6.79,13.62.82,21.38.14,4.88-.43,36.49-1.96,38.68-1.51,2,.41,3.35,3.75,5.92,4.52,2.66.8,22.62,4.7,23.53,3.93.27-5.47-9.96-8.42-14.23-9.7-22.37-6.67-52.79-6.26-75.36-.99l-1.77-3.48c3-2.85,6.59-7.79,7.98-11.57,1.91-5.17-4.77,1.66-3.54-3.52,3.02-12.72,7.73-5.78,14.66-6.6,9.01-1.06,21.21-4.9,30.76-4.73,11.24.2,24,5.79,36.19,3.35l-.1-5.19c-16.42-4.87-35.09-7-52.21-5.43-8.18.75-25.8,9.76-28.92-1.27-1.39-4.91.23-9.01-2.3-15.42-1.16-2.93-10.47-15.82-12.85-18.18h0Z"/>
  <path class="cls-1" d="M72.64,99.44c-2.96-3.38-17.11,19.25-18.47,21.41-7.19,11.41-15.36,26.35-19.62,38.9L0,173.09l1.69,5.31,36.22-9.5c2.58,5.77,20.53,20.85,16.78,26.09-1.74.83-4.24,1-5.7,2.19-4.8,3.89-11.25,8-15.25,11.42-7.16,6.12-10.24,14.69-19.36,16.97-.65,8.51,2.7,20.99,13.14,14.03l38.92-35.52c1.74,0,15.03,22.35,22.16,19.46,2.3-9.7-2.35-7.77-5.3-11.46-2.09-2.61-12.13-14.44-12-16.04,2.33-5.61,17.85-11.64,13.57-18.41-.43-.68-5.91-2.07-7.42-1.7-4.49,1.09-8.29,11.7-14.2,10.19-3.98-1.01-12.1-15.77-17.19-18.45-.62-3.98.76-2.03,2.61-2.64,5.81-1.93,30.01-6.48,31.06-11.55,2.48-11.97-29.78,6.83-33.69,2.67.27-9.58,30.99-51.7,26.6-56.72h0Z"/>
  <path class="cls-1" d="M131.01,143.58c3.49-6.55,9.34-34.9-2.49-33.62-7.36.8-14.41,38.46,2.49,33.62Z"/>
  <path class="cls-1" d="M187.43,177.11c5.02-3.49-1.13-18.05-11.03-17.56-13.29.65-.75,14.44-.91,20.35-.15,5.49-11.6,24.62-8.84,27.69l9.02-2.9,5.14-18.36c2.67,12.14,10.27,21.11,21.29,26.59,1.19-1.24-16.19-21.51-17.84-25.58-5.03-12.44.2-8.15,3.18-10.22h0Z"/>
  <path d="M307.92,94.72c2.39,2.35,11.69,15.25,12.85,18.18,2.54,6.41.91,10.5,2.3,15.42,3.12,11.03,20.75,2.02,28.92,1.27,17.13-1.57,35.79.55,52.21,5.43l.1,5.19c-12.19,2.44-24.95-3.15-36.19-3.35-9.55-.17-21.75,3.67-30.76,4.73-6.93.82-11.64-6.12-14.66,6.6-1.23,5.18,5.45-1.65,3.54,3.52-1.39,3.77-4.98,8.72-7.98,11.57l1.77,3.48c22.57-5.27,52.99-5.67,75.36.99,4.27,1.27,14.5,4.23,14.23,9.7-.91.77-20.87-3.13-23.53-3.93-2.57-.77-3.92-4.11-5.92-4.52-2.19-.45-33.8,1.09-38.68,1.51-7.75.68-12.12,6.65-21.38-.14l-16.18,40.9c-5.79,1.53-12.3-5.46-9.24-10.46,1.51-2.46,9.79-1.36.52-10.92l-2.65,5.32c-4.77-3.13-10.25-.91-14.97-1.88-4.99-1.03-12.76-5.64-18.02-6.81-19.37-4.31-25.63-2.67-46.22-10.23-1.63-.6-4.11,1.47-8.27-.76-3.56-1.91-16.99-16.04-19.29-19.86-11.92-19.87-17.29-44.76-15.66-67.83,1.9-27.02,20.24-64.9,52.31-62.8,7.09.47,19.22,10.89,22.73,10.35l44.86-28.11,7.93.77,3.17,8.89-6.83,65.55c.83,6.5,9.9,8.55,13.63,12.24h0ZM253.55,113.61c-.92-11.93-11.82-10.69-20.76-13.82s-10.83-10.04-21.6-1.04c-7.87,6.57-4.78,15.28-7.42,22.42-.59,1.61-3.38,1.35-3.53,2.4-.58,4.13,5.33,9.63,3.65,14.86l-7.1,1.76,8.86.03-1.79,5.27c10.42,6.97,34.03,7.06,41.63-3.58,2.53-3.54,3.77-11.02,6.77-13.62,3.95-3.44,10.93-.74,4.88-12.13l-8.91.99c-1.02-4.95,1.82-3.46,5.32-3.54h0ZM292.56,181.01h-5.3v3.53h5.3v-3.53Z"/>
  <path d="M72.64,99.44c4.4,5.02-26.33,47.13-26.6,56.72,3.92,4.16,36.18-14.65,33.69-2.67-1.05,5.07-25.25,9.62-31.06,11.55-1.85.61-3.23-1.34-2.61,2.64,5.09,2.68,13.21,17.44,17.19,18.45,5.91,1.51,9.71-9.1,14.2-10.19,1.52-.37,7,1.02,7.42,1.7,4.28,6.77-11.24,12.8-13.57,18.41-.13,1.61,9.91,13.43,12,16.04,2.95,3.68,7.6,1.76,5.3,11.46-7.13,2.88-20.42-19.47-22.16-19.46l-38.92,35.52c-10.44,6.96-13.78-5.52-13.14-14.03,9.12-2.28,12.2-10.86,19.36-16.97,4-3.42,10.45-7.54,15.25-11.42,1.47-1.19,3.96-1.36,5.7-2.19,3.74-5.24-14.21-20.32-16.78-26.09L1.69,178.41l-1.69-5.31,34.55-13.34c4.26-12.55,12.43-27.49,19.62-38.9,1.36-2.16,15.51-24.79,18.47-21.41h0Z"/>
  <path d="M170.19,42.67l-29.73-.42c-1.17-1.44-1.52-3.69-3.02-4.87-4.98-3.9-29.65-24.8-33.02-24.06-10.41,2.3-13.64,44.17-17.59,54.18-7.15.64-6.05-11.9-5.22-16.76.42-2.43,2.6-4.15,2.96-5.89C88.25,27.23,90.41,11.88,105.69.03c7.94-.8,25.74,16.05,30.75,22.31,2.8,3.5,6.62,13.03,8.88,14.17,6.74,3.4,20.13-3.21,24.86,6.16h.01Z"/>
  <path d="M187.43,177.11c-2.97,2.07-8.21-2.22-3.18,10.22,1.65,4.08,19.03,24.35,17.84,25.58-11.02-5.48-18.61-14.45-21.29-26.59l-5.14,18.36-9.02,2.9c-2.77-3.07,8.69-22.2,8.84-27.69.16-5.92-12.38-19.7.91-20.35,9.9-.49,16.05,14.07,11.03,17.56h0Z"/>
  <path d="M131.01,143.58c-16.9,4.85-9.85-32.82-2.49-33.62,11.83-1.28,5.98,27.07,2.49,33.62Z"/>
  <path class="cls-1" d="M253.55,113.61c-3.5.09-6.33-1.41-5.32,3.54l8.91-.99c6.06,11.4-.92,8.69-4.88,12.13-3,2.61-4.24,10.09-6.77,13.62-7.6,10.63-31.21,10.55-41.63,3.58l1.79-5.27-8.86-.03,7.1-1.76c1.67-5.23-4.24-10.73-3.65-14.86.15-1.06,2.93-.79,3.53-2.4,2.64-7.14-.45-15.85,7.42-22.42,10.77-9,12.75-2.06,21.6,1.04s19.84,1.89,20.76,13.82h0ZM228.22,107.04c-15.45-9.83-16.37,16.41-12.51,25.67.78,1.87,8.3,7.19,10.34,7.57,3.51.66,2.28-.82,3.08-2.33,3.5-6.6,5.76-26.66-.91-30.91h0Z"/>
  <path d="M228.22,107.04c6.67,4.24,4.41,24.3.91,30.91-.8,1.51.43,2.99-3.08,2.33-2.04-.38-9.56-5.7-10.34-7.57-3.86-9.26-2.94-35.5,12.51-25.67h0Z"/>
</svg>