<?xml version="1.0" encoding="UTF-8"?>
<svg id="Calque_1" data-name="Calque 1" xmlns="http://www.w3.org/2000/svg" viewBox="0 0 369.92 255.37">
  <defs>
    <style>
      .cls-1 {
        fill: #fff;
      }
    </style>
  </defs>
  <path class="cls-1" d="M253.25,131.86c18.47-18.13-20.49-57.33-37.79-35.12-13,16.69.33,46.9,21.04,44.12,1.29-.17,15.8-8.07,16.75-9Z"/>
  <path class="cls-1" d="M162.06,99.22c-12.03,10.31-12.96,29.91-3.24,42.04,26.96,33.65,55.49-22.06,35.56-40.87-9.07-8.55-22.7-9.41-32.31-1.17h-.01Z"/>
  <path class="cls-1" d="M242.55,202.71c6.46-5.72,4.91-33.32.27-40.83-8.21-13.3-42.23-12.35-54.26-3.56-.93.68-10.74,10.11-11.17,10.75-5.95,8.83-4.83,25.74-1.26,35.56,15.18,2.39,36.62,13.81,50.9,8.21,4.22-1.66,4.63-4.56,6.74-5.97,2.64-1.77,6.48-2.12,8.78-4.15h0Z"/>
  <path d="M19.62,119.94c.73-12.05,22.24-52.65,29.45-65.42,7.8-13.82,27.51-46.56,41.48-52.49,17.6-7.47,23.46,7.06,30.18,20.38h2.62c2.96-3.14,3.31-6.18,7.57-8.4,6.7-3.5,30.7-7.87,38.97-8.91,29.7-3.76,68.71,5.34,93.29,22.94,3.21,2.3,8.75,6.11,5.61,10.35-5.39.69-32.36-15.81-41.72-18.58-26.24-7.77-57.26-7.78-83.69-.43-6.56,1.82-11.71,7.63-19.13,6.6.77,6.23,2.84,12.03,1.69,18.52-6.45,36.31-12.14,67.47-27.01,102.43-9.01,21.2-24.45,43.33-36.57,62.87l.03,2.1c9.56,2.39,5.01,9.82,6.09,14.68,1.2,5.4,10.03,25.32,3.44,28.11-3.85,1.63-3.56.08-4.81-2.27-1.32-2.49-5.27-9.91-5.88-11.84-1.65-5.22-1.43-22.99-8.65-23.02-2.49,0-5.15,1.83-8.78,1.6-19.81-1.26-40.92-30.6-43.59-48.78-1.81-12.34,8.35-44.02,19.39-50.43-.38,6.28,2.54,11.53-3.55,17.71,7.27,4.94,13.16-13.98,14.99-19.57,1.3-3.96,2.67-8.12,2.73-12.33-4.93,1.76-5.1,9.66-7.99,12.44-2.58,2.48-5.32,1.24-6.18,1.74h.02ZM72.82,54.34c-3.74-1.47-8.34,9.16-4.42,10.59,0,0,4.42-10.59,4.42-10.59ZM55.09,61.43c-1.02-1.02-5.28,1.48-5.28,2.65,0,4.91,7.96.03,5.28-2.65ZM63.98,84.47l3.52-2.69-2.66-4.4-.86,7.08h0ZM63.95,93.33l-.87-7.07c-2.73,1.91-3.09,3.81-2.66,7.07h3.53ZM62.18,96.89h-3.53v7.07h3.53v-7.07ZM40.9,132.36h-3.53v5.3h3.53v-5.3ZM49.38,185.17l-.39-8.61-7.96-1.55c-3.16,9.19-1.28,17.63,8.35,10.15h0ZM22.69,184.26l-6.6-2.26c-2.86,3.02,15.03,23.95,17.72,21.26l-11.12-19ZM69.28,182.01c-2.7-2.73-10.78,8.7-8.85,12.39,4.7.7,7.45-9.15,8.85-12.39ZM51.55,203.28l-14.16.88c2.5,4.54,14.69,6.04,14.16-.88Z"/>
  <path d="M294.12,26.3c31.54-4.45,54.47,53.54,62.51,76.76,9.66,27.87,24.76,75.92-.89,98.46-9.68,8.51-23.24,8.41-34.99,4.78-22.08-6.81-17.73-28.66-23.26-45.9-3.21-10.01-13.18-21.5-14.97-31.14-3.06-16.55,3.06-30.94,2.94-45.49-.06-7.6-4.24-16.68-4.99-23.39-1.28-11.52-.87-32.04,13.64-34.09h0ZM289.22,47.24c3.71-1.43,5.93-4.87,5.29-8.86-3.3,1.29-5.48,5.7-5.29,8.86ZM326.45,89.78l-7.08-10.62c-1.14,2.02,4.24,13.77,7.08,10.62ZM333.53,144.76c-1.38-11.18-5.28-26.58-14.15-33.69,2.71,10.81,5.92,26.35,14.15,33.69ZM319.35,194.4c1.9-1.91-6.66-9.88-8.84-10.63-1.32,3.01,6.46,13.03,8.84,10.63ZM354.82,185.55c-3.09-2.67-26.55,7.3-26.56,9.74,4.8,9.37,31.21-5.72,26.56-9.74Z"/>
  <path d="M242.55,202.71c-2.29,2.03-6.14,2.39-8.78,4.15-2.11,1.41-2.52,4.31-6.74,5.97-14.28,5.6-35.72-5.81-50.9-8.21-3.57-9.82-4.69-26.73,1.26-35.56.43-.64,10.25-10.07,11.17-10.75,12.03-8.79,46.05-9.74,54.26,3.56,4.64,7.52,6.19,35.11-.27,40.83h0ZM186.77,178.02c24.48,10.79,29.45-22.4,1.75-10.81-4.26,1.78-4.21,7.7-1.75,10.81Z"/>
  <path d="M162.06,99.22c9.61-8.24,23.24-7.39,32.31,1.17,19.93,18.8-8.6,74.51-35.56,40.87-9.71-12.12-8.78-31.73,3.24-42.04h0ZM182.78,142.98c-.79-5.73-5.94-6.88-6.98-13.39-.69-4.31-.44-11.3-.02-15.77.43-4.5,6.29-8,.76-11.62-8.15,1.79-16.32,9.3-18.18,17.36-2.14,9.29,12.94,28.52,24.41,23.42h0Z"/>
  <path d="M253.25,131.86c-.95.93-15.46,8.82-16.75,9-20.7,2.78-34.04-27.43-21.04-44.12,17.3-22.21,56.26,16.99,37.79,35.12ZM230.67,100.44c-19.45.2-14.51,23.41-.87,30.12.59-7.45-3.96-11.92-2.78-20.47.63-4.59,3.39-5.64,3.64-9.65h0Z"/>
  <path class="cls-1" d="M186.77,178.02c-2.46-3.11-2.52-9.03,1.75-10.81,27.7-11.59,22.73,21.6-1.75,10.81Z"/>
  <path class="cls-1" d="M182.78,142.98c-11.48,5.11-26.56-14.13-24.41-23.42,1.86-8.06,10.02-15.58,18.18-17.36,5.53,3.62-.34,7.11-.76,11.62-.42,4.47-.67,11.46.02,15.77,1.04,6.51,6.19,7.66,6.98,13.39h0Z"/>
  <path class="cls-1" d="M230.67,100.44c-.25,4.01-3.01,5.06-3.64,9.65-1.18,8.55,3.37,13.02,2.78,20.47-13.64-6.71-18.58-29.93.87-30.12h0Z"/>
</svg>