<?xml version="1.0" encoding="UTF-8"?>
<svg id="Calque_1" data-name="Calque 1" xmlns="http://www.w3.org/2000/svg" viewBox="0 0 1195.23 909.79">
  <defs>
    <style>
      .cls-1 {
        fill: #fff;
      }
    </style>
  </defs>
  <path class="cls-1" d="M1001.57,207.42c21.44-20.97,41.65-43.1,63.34-64.47,43.43-42.78,99.48-74.81,129.96-130.8,1.97-4.16-4.74-11.35-7.18-11.96-17.69-4.41-98.56,69.54-120.06,80.34-125.21,126.69-253.36,250.3-385.99,369.14l-12.05-4.2c-1.3-25.79-15.14-51.7-26.2-75.38-1.53-3.27-6.72-3.73-8.87-8.24-19.02-39.95-34.26-83.43-56.36-121.94-6.9-12.04-29.91-48.47-44.03-38.73l-8.08,27.14c43.94,79.54,69.73,171.12,112.06,251.31,20.99,39.77,38.06,36.27,71.25,9.32,98.98-80.36,199.53-190.91,292.2-281.54Z"/>
  <path d="M849.33,370.48c-165.52,161.88-345.11,359.32-521.9,502.86-59.29,48.14-89.77,54.38-127.27-16.65C124.55,713.45,78.49,549.87,0,407.81l14.44-48.47c25.23-17.41,66.32,47.67,78.65,69.17,39.46,68.79,66.69,146.45,100.66,217.81,3.83,8.05,13.12,8.87,15.84,14.71,19.74,42.29,44.47,88.57,46.79,134.64l21.53,7.5c236.89-212.28,465.78-433.05,689.42-659.34C1005.72,124.54,1150.17-7.54,1181.77.34c4.36,1.09,16.35,13.94,12.82,21.36-54.44,100.02-154.56,157.21-232.13,233.63-38.73,38.16-74.83,77.69-113.13,115.15Z"/>
</svg>